<svg width="43" height="64" viewBox="0 0 43 64" fill="none" xmlns="http://www.w3.org/2000/svg">
<path d="M35.8125 8.43261C35.8536 8.7323 35.883 9.03787 35.9359 9.33757C36.0593 9.98397 35.9711 10.5951 35.6714 11.1886C35.454 11.6176 35.0897 11.9114 34.743 12.1876C34.1436 12.6636 33.4737 13.0514 32.698 13.1748C32.2279 13.2454 31.746 13.2806 31.27 13.3453C31.0526 13.3746 30.8469 13.2806 30.6119 13.3688C30.4532 13.4275 30.2299 13.4158 30.0419 13.4275C29.2309 13.4745 28.4141 13.4804 27.5973 13.4922C27.4739 13.4922 27.3446 13.451 27.2447 13.4275C27.0919 13.4863 26.9626 13.5509 26.8275 13.5921C26.2692 13.7625 25.6934 13.88 25.1586 14.1033C24.6885 14.2972 24.2771 14.0563 23.8364 14.0387C23.6895 14.0328 23.5779 13.8624 23.5779 13.6978C23.5779 13.5509 23.5661 13.3688 23.6425 13.2512C23.9363 12.787 24.0538 12.2699 24.1655 11.7469C24.1831 11.6705 24.2125 11.6 24.2184 11.5824C24.1714 10.9712 24.142 10.4188 24.0832 9.86057C24.0656 9.66665 24.0127 9.46097 23.9245 9.28468C23.76 8.95561 23.7189 8.6089 23.6895 8.25632C23.666 8.00951 23.7012 7.75094 23.5484 7.52764C23.5132 7.47475 23.5191 7.38073 23.525 7.30434C23.572 6.36999 23.5837 5.42978 23.7012 4.50131C23.7424 4.17811 23.8716 3.86078 23.9128 3.53758C23.9598 3.2085 24.2125 2.96757 24.236 2.61498C24.2478 2.41519 24.4593 2.22714 24.5945 2.04497C24.7766 1.79817 24.9647 1.56311 25.1997 1.26341C25.2643 1.22816 25.4289 1.17527 25.5171 1.06362C25.8109 0.693407 26.2222 0.61114 26.6453 0.487736C27.0332 0.376085 27.3975 0.376082 27.7736 0.475981C28.1673 0.581756 28.561 0.705162 28.943 0.846196C29.1545 0.922589 29.3543 1.04011 29.5365 1.17527C29.8009 1.37507 30.0419 1.59837 30.2593 1.78641C30.5708 2.32116 30.6648 2.87355 30.8058 3.41417C30.9527 3.99006 30.8998 4.5777 31.0232 5.15359C31.1466 5.70597 30.8704 6.24072 30.8293 6.83423C31.0526 6.76959 31.2113 6.68732 31.3758 6.6932C31.5286 6.6932 31.6637 6.68145 31.8165 6.64031C31.9811 6.59918 32.175 6.61093 32.3454 6.64618C32.8978 6.74608 33.4502 6.85774 33.9967 6.98114C34.1671 7.02228 34.3434 7.09279 34.4785 7.19857C34.6666 7.34547 34.8781 7.39836 35.0956 7.43362C35.3189 7.77445 35.5656 8.10353 35.8125 8.43261ZM27.0096 1.44559C25.8167 1.99209 25.4994 2.56797 25.0704 3.25551C25.0058 3.36128 24.9705 3.48469 24.947 3.60809C24.7178 4.5777 24.6003 5.55905 24.618 6.55216C24.6297 7.1633 24.618 7.7862 24.7296 8.37971C24.853 8.99674 25.0293 9.60789 25.1468 10.2308C25.282 10.9477 25.3349 11.6411 25.1175 12.3463C25.0705 12.4932 25.0411 12.646 25.0234 12.7988C25.0175 12.8869 25.0528 12.975 25.0822 13.1455C26.6101 12.405 28.1791 12.3933 29.7833 12.5108C29.989 12.4579 30.2064 12.3757 30.4356 12.3463C30.6883 12.311 30.9468 12.3345 31.1995 12.3051C31.6755 12.2523 32.1691 12.2346 32.6216 12.0995C33.1975 11.9291 33.7734 11.6999 34.2082 11.2415C34.3434 11.0946 34.5255 10.9947 34.6901 10.8772C34.9604 10.4717 34.9898 10.0134 35.0133 9.53736C34.9721 9.40221 34.9193 9.26118 34.8781 9.10839C34.7136 8.509 34.2905 8.17405 33.7263 7.99188C33.4619 7.90373 33.1975 7.80971 32.9213 7.7627C32.2631 7.64517 31.6167 7.60991 30.988 7.93311C30.7235 8.06827 30.4356 8.13878 30.1888 8.3327C30.0066 8.47374 29.7304 8.49137 29.4484 8.57952C29.3602 8.52663 29.2309 8.45023 29.0781 8.36209C29.1075 8.09765 29.0899 7.83321 29.1663 7.59816C29.2838 7.2632 29.4307 6.92825 29.6305 6.63443C29.9185 6.20545 29.989 5.74122 29.9655 5.2476C29.9243 4.45429 29.7304 3.69037 29.5953 2.91469C29.5483 2.662 29.3955 2.45045 29.2133 2.26828C29.0899 2.139 28.9547 2.02735 28.849 1.92745C28.5258 1.82167 28.2378 1.70415 27.944 1.62776C27.6502 1.55136 27.3446 1.51023 27.0096 1.44559Z" fill="#91ADA3"/>
<path d="M11.1905 6.99289C10.979 6.54629 10.8791 6.07618 10.8379 5.58257C10.7439 4.46605 11.784 3.03222 13.3178 3.19675C13.8643 3.25552 14.4284 3.19675 15.0219 3.19087C15.0337 2.80303 15.1277 2.44458 15.1042 2.05086C15.0572 1.29281 15.5214 0.481861 16.2912 0.217423C16.6203 0.105772 16.9729 0.076393 17.3548 0C17.5194 0.0352583 17.7133 0.105773 17.9131 0.117526C18.1012 0.129279 18.2598 0.188041 18.4009 0.299692C18.5008 0.376085 18.6065 0.481864 18.7241 0.505369C19.4116 0.652279 19.6466 1.25754 19.9933 1.75116C20.0639 1.85106 20.0991 1.98622 20.1109 2.10962C20.1755 2.61499 20.199 3.12036 20.2872 3.61985C20.3459 3.98419 20.2813 4.3309 20.2284 4.68348C20.1579 5.11246 20.1403 5.55906 20.0051 5.96453C19.8758 6.35237 19.8993 6.75196 19.7936 7.1398C19.6584 7.60991 19.7642 8.10353 19.7936 8.5854C19.8112 8.83808 19.8288 9.09665 19.8229 9.34933C19.8229 9.43748 19.7465 9.5315 19.7113 9.60789C19.2882 9.76068 19.0355 9.47273 18.8239 9.26706C18.4949 8.94386 18.1247 8.79107 17.6957 8.67942C16.8025 8.44437 15.8975 8.37384 14.9808 8.33271C14.399 8.30333 13.8055 8.25632 13.2531 8.09766C12.5186 7.88611 11.8075 7.59816 11.1905 6.99289ZM11.8898 5.02431C11.9016 5.24761 11.9251 5.37689 11.9074 5.5003C11.831 6.06443 12.1131 6.41114 12.5773 6.67557C13.1415 6.9929 13.7526 7.16331 14.3873 7.23383C15.1395 7.32197 15.8975 7.38074 16.6556 7.4395C17.2667 7.48652 17.8602 7.60404 18.4244 7.86261C18.5066 7.90374 18.6065 7.90374 18.7123 7.92725C18.7711 7.5159 18.824 7.14569 18.871 6.7696C18.9297 6.31712 18.9826 5.85876 19.0355 5.4004C19.0884 4.92441 19.2353 4.47193 19.2412 3.97831C19.2529 3.31428 19.2647 2.67375 18.9415 2.00972C18.7358 1.82168 18.4949 1.59838 18.2774 1.40446C17.9895 1.32806 17.7427 1.26342 17.4959 1.19291C16.9376 1.03424 16.4851 1.1459 16.1855 1.67477C16.1619 1.71591 16.1384 1.76291 16.1267 1.78054C16.0385 2.25653 15.9915 2.70314 16.0797 3.16737C16.1267 3.42006 16.2148 3.65511 16.2853 3.89605C16.3265 4.03708 16.3441 4.18399 16.3617 4.28976C16.1913 4.51894 15.9915 4.56595 15.78 4.54244C15.5038 4.50718 15.2276 4.46018 14.9573 4.38379C14.5107 4.26038 14.0641 4.16048 13.5998 4.22512C13.2237 4.27801 12.8477 4.33677 12.5127 4.38966C12.2894 4.61884 12.0955 4.81864 11.8898 5.02431Z" fill="#91ADA3"/>
<path d="M36.7289 7.26902C36.8464 7.41593 37.0051 7.61573 37.1813 7.83316C37.2871 7.79202 37.4047 7.78614 37.4634 7.7215C38.2156 6.86943 39.0207 6.06437 39.6906 5.1359C39.955 4.76569 40.2665 4.43073 40.5838 4.04876C40.3252 3.82546 40.1431 3.54927 39.8786 3.39648C39.4908 3.43174 39.5378 3.82546 39.3086 3.97825C39.0735 4.12516 38.956 4.38959 38.7739 4.58939C38.5799 4.80682 38.4036 5.04775 38.2097 5.27105C38.0334 5.47673 37.8513 5.67652 37.675 5.88219C37.4928 6.08787 37.3107 6.29941 37.1285 6.50509C37.1872 6.85767 36.6172 6.7754 36.7289 7.26902Z" fill="#91ADA3"/>
<path d="M42.429 7.05164C41.9237 7.24556 41.4829 7.41009 41.0422 7.58051C40.6191 7.74505 40.1902 7.90959 39.626 8.13289C39.344 8.16815 38.8797 8.15052 38.486 8.46785C38.4684 8.74404 38.5624 9.00259 38.721 9.27291C39.1735 9.3258 39.6142 9.25528 40.0373 9.08487C40.3899 8.94384 40.766 8.84981 41.0892 8.63826C41.5417 8.65001 41.9002 8.36794 42.3056 8.23279C42.4408 8.18577 42.5524 8.07412 42.6876 7.98598C42.6053 7.69216 42.5289 7.42772 42.429 7.05164Z" fill="#91ADA3"/>
<path d="M37.734 11.0417C37.6752 11.4001 37.6752 11.694 37.8221 12.0289C37.9925 12.0524 38.1865 12.0935 38.3804 12.0994C38.9034 12.1112 39.4381 11.9584 39.9435 12.2111C40.4665 12.1229 40.9954 12.3227 41.5654 12.1934C41.7064 11.9525 41.7769 11.6704 41.7769 11.3296C41.3597 11.1592 40.9307 11.1827 40.5018 11.1592C40.2726 11.1416 40.0493 11.1239 39.8201 11.1063C39.2442 11.0593 38.6683 10.8889 38.0866 11.1239C38.0043 11.1533 37.875 11.071 37.734 11.0417Z" fill="#91ADA3"/>
<path d="M9.91503 3.62569C9.81513 3.79023 9.67996 4.00179 9.52717 4.23684C9.42139 4.20746 9.29799 4.21333 9.23335 4.16045C8.38715 3.40239 7.49393 2.69135 6.72412 1.84515C6.41855 1.51019 6.07186 1.21637 5.70752 0.869667C5.9367 0.616982 6.08948 0.323169 6.33041 0.141001C6.72413 0.129248 6.71827 0.528839 6.96507 0.652243C7.21188 0.775648 7.36468 1.01657 7.56448 1.19874C7.7819 1.39266 7.98756 1.61009 8.20498 1.80989C8.40478 1.99206 8.60459 2.17423 8.81027 2.35052C9.01594 2.53856 9.22161 2.72073 9.42728 2.90877C9.40965 3.26723 9.96792 3.12032 9.91503 3.62569Z" fill="#91ADA3"/>
<path d="M4.36202 4.12524C4.89089 4.21339 5.361 4.2839 5.83111 4.36617C6.2836 4.44256 6.73019 4.51896 7.32958 4.61886C7.61753 4.59535 8.06414 4.48958 8.51074 4.71876C8.58126 4.98907 8.54013 5.25938 8.44023 5.5532C8.00538 5.70011 7.56464 5.71774 7.11216 5.63547C6.73607 5.57083 6.35409 5.55321 5.98975 5.41217C5.54902 5.51207 5.14356 5.31227 4.71459 5.25938C4.57355 5.24175 4.43841 5.15361 4.2915 5.09484C4.31501 4.78927 4.33264 4.51309 4.36202 4.12524Z" fill="#91ADA3"/>
<path d="M9.7393 6.83423C9.91559 7.15155 10.0096 7.42774 9.98025 7.79207C9.82747 7.86847 9.65706 7.97425 9.47489 8.04476C8.98715 8.23281 8.42889 8.26219 8.03517 8.66766C7.5063 8.7558 7.07732 9.12014 6.49556 9.19066C6.28401 9.00849 6.12534 8.76755 6.00781 8.44435C6.34277 8.14466 6.76 8.02713 7.15371 7.8626C7.36526 7.77445 7.57094 7.68043 7.77661 7.5864C8.30548 7.35135 8.79321 6.99877 9.41611 7.02815C9.51601 7.03403 9.6159 6.9165 9.7393 6.83423Z" fill="#91ADA3"/>
<path d="M16.0443 35.0233C16.0678 35.2407 16.0972 35.4581 16.1207 35.6814C16.1266 35.7578 16.0913 35.8577 16.1325 35.9047C16.4321 36.2867 16.3146 36.7862 16.5262 37.1975C16.6437 37.4326 16.6143 37.7381 16.679 38.0084C16.8376 38.7312 17.0022 39.4482 17.1843 40.1651C17.2431 40.3943 17.1902 40.6469 17.2784 40.8291C17.3841 41.0407 17.4018 41.2581 17.4841 41.4696C17.5663 41.6753 17.5663 41.9104 17.6015 42.1337C17.6309 42.31 17.6603 42.4863 17.6779 42.6626C17.6956 42.8682 17.7132 43.0621 17.819 43.2502C17.8895 43.3795 17.9365 43.544 17.9248 43.6909C17.8954 44.0846 17.9365 44.4548 18.1598 44.7898C18.1892 44.8309 18.1833 44.8897 18.201 44.9367C18.4184 45.5126 18.389 46.1414 18.6005 46.7173C18.8003 47.2638 18.8767 47.8396 18.9355 48.4214C18.959 48.6565 19.0648 48.8856 19.1412 49.1148C19.1529 49.156 19.2176 49.1795 19.2646 49.2206C20.6925 48.962 22.0852 49.1089 23.4368 49.6907C24.0714 49.9669 24.6826 50.2666 25.2526 50.6603C25.7462 51.0011 25.9989 51.4712 26.1517 52.0706C26.187 52.0941 26.2692 52.147 26.3691 52.2175C26.4455 52.7229 26.6512 53.2224 26.5102 53.763C26.4044 54.1568 26.3162 54.5505 26.1987 54.9383C26.1164 55.2086 25.9519 55.4261 25.7639 55.6435C25.3055 56.1841 24.6944 56.4838 24.095 56.807C23.6543 57.0479 23.2017 57.2712 22.7375 57.471C22.2674 57.6708 21.7621 57.7825 21.3037 57.9999C20.6514 58.3114 19.9404 58.3936 19.2705 58.6228C18.9002 58.7521 18.4771 58.7403 18.0775 58.7697C17.4958 58.8167 16.914 58.8461 16.3381 58.8814C16.2618 58.8872 16.1854 58.8637 16.109 58.8755C15.3098 59.0165 14.5458 58.8285 13.7937 58.5875C13.6761 58.5464 13.5469 58.5112 13.4234 58.5053C12.8299 58.4818 12.354 58.1703 11.8897 57.8589C11.3491 57.5004 11.067 56.9539 10.9906 56.3251C10.9319 55.8315 10.8202 55.3379 10.9847 54.8208C11.0846 54.5152 11.0377 54.1626 11.0553 53.81C11.2551 53.4692 11.4549 53.1166 11.6723 52.7699C11.9896 52.2704 12.401 51.8591 12.9181 51.5535C13.2237 51.3713 13.4999 51.1363 13.7995 50.9541C14.4342 50.5722 15.0923 50.2255 15.8386 50.0903C15.9562 50.0668 16.0678 49.9904 16.1795 49.9316C16.0502 49.4439 15.8974 48.9855 15.8093 48.5154C15.6917 47.8925 15.5154 47.2873 15.3568 46.6702C15.1981 46.0532 14.9924 45.4421 14.8867 44.8133C14.5458 42.9035 13.9641 41.0524 13.6056 39.1543C13.5292 38.7606 13.3588 38.3787 13.2472 37.9908C13.159 37.7029 13.0885 37.4091 13.0239 37.1152C13.0062 37.0447 13.0474 36.9625 13.0239 36.8919C12.9122 36.557 12.7947 36.222 12.6654 35.8694C12.5714 35.8401 12.4774 35.7989 12.3775 35.7872C11.7487 35.7343 11.1316 35.5874 10.5087 35.5169C9.85647 35.4464 9.27473 35.2407 8.69297 34.988C8.2875 35.0644 8.07595 34.6765 7.74688 34.5766C7.41192 34.4767 7.20625 34.2064 6.93593 34.0301C6.10149 33.4954 5.51384 32.7256 4.86743 32.0087C4.47959 31.5797 4.16813 31.0743 3.93307 30.5337C3.83905 30.3221 3.72154 30.1223 3.62164 29.9167C3.49824 29.664 3.36897 29.4113 3.26908 29.1527C2.90474 28.2008 2.55216 27.2488 2.20545 26.2968C2.09968 26.0089 2.035 25.7092 1.95273 25.4154C1.88222 25.1509 1.89985 24.863 1.70005 24.6456C1.5649 23.8934 1.21232 23.2058 1.04778 22.4595C0.818606 21.4135 0.560045 20.3734 0.313237 19.3274C0.213338 18.9102 0.125198 18.493 0.0252995 18.0758C-0.0334644 17.8172 0.0135424 17.5998 0.13107 17.3471C0.383755 16.8182 0.630567 16.2952 0.906757 15.7781C1.24759 15.1434 1.67068 14.5852 2.15255 14.0622C2.67555 13.4981 3.29258 13.0691 3.92723 12.6401C4.62652 12.17 5.33756 11.7175 6.08973 11.3532C6.90655 10.9595 7.72335 10.5364 8.60481 10.2954C9.49214 10.0545 10.3912 9.84295 11.2903 9.64315C11.637 9.56676 12.0014 9.56675 12.3598 9.5315C12.4362 9.52562 12.5185 9.50212 12.589 9.52562C13.1296 9.71367 13.7055 9.58438 14.2462 9.69603C14.7221 9.79006 15.1922 9.91346 15.6565 10.0427C15.8034 10.0839 15.9503 10.1544 16.0678 10.2484C16.6907 10.7303 17.3782 11.1357 17.8542 11.7939C18.0482 12.0642 18.1481 12.3815 18.3008 12.6636C18.4713 12.9633 18.5359 13.2512 18.5888 13.5803C18.6828 14.1856 18.8415 14.7791 19.0001 15.3726C19.1294 15.8662 19.2998 16.3481 19.435 16.8417C19.6054 17.4822 19.7582 18.1228 19.9227 18.7633C20.1108 19.5037 20.2871 20.2383 20.481 20.9787C20.6161 21.4899 20.8042 21.9835 20.8923 22.5007C21.0216 23.2235 21.2273 23.9228 21.3859 24.6279C21.4388 24.8512 21.4741 25.0569 21.4388 25.2978C21.386 25.6857 21.4682 26.0853 21.4741 26.4849C21.48 26.7082 21.4682 26.9373 21.4917 27.1606C21.5446 27.7307 21.3154 28.2654 21.3095 28.8237C21.3095 28.9236 21.2567 29.0176 21.2332 29.1175C21.1391 29.5112 20.8688 29.8285 20.7689 30.234C20.6808 30.616 20.4693 30.9803 20.2753 31.3329C19.9404 31.9264 19.6054 32.5434 19.1235 33.0194C18.53 33.607 17.8954 34.1712 17.1373 34.5531C16.7847 34.7412 16.4028 34.8705 16.0443 35.0233ZM13.9582 18.1815C14.1992 18.1051 14.4518 18.0581 14.681 17.9524C15.4273 17.6056 16.0267 17.0533 16.5908 16.4656C16.7495 16.3011 16.9493 16.1542 17.0433 15.9603C17.2431 15.5489 17.4429 15.1258 17.5487 14.6851C17.6662 14.1973 17.7073 13.6802 17.4135 13.2042C17.343 13.0926 17.39 12.9104 17.3782 12.7694C17.0257 12.1759 16.4851 11.741 15.9386 11.3297C15.5096 11.0065 15.0512 10.7303 14.4753 10.7949C14.2109 10.6186 13.9347 10.5657 13.635 10.7009C13.588 10.6539 13.541 10.5599 13.494 10.5599C12.8711 10.5422 12.2364 10.3366 11.6194 10.6127C10.9847 10.6304 10.3795 10.7832 9.76835 10.9418C9.22185 11.0829 8.68708 11.2474 8.16996 11.4589C7.65871 11.6705 7.0711 11.6881 6.648 12.1054C5.83706 12.3757 5.16712 12.8928 4.4502 13.3276C3.69214 13.7919 3.00462 14.3619 2.44637 15.0729C2.30533 15.2492 2.12317 15.402 2.01152 15.59C1.82935 15.8956 1.68242 16.2188 1.47675 16.6184C1.51788 16.7771 1.4944 17.0121 1.42388 17.2648C1.35337 17.5058 1.37685 17.7702 1.3651 17.9641C1.60015 18.7633 1.95276 19.4156 2.52864 19.9621C2.83422 20.25 3.15155 20.4733 3.52764 20.6496C4.29744 21.0139 5.12012 20.9552 5.93106 20.9904C6.38354 21.0081 6.85953 21.0198 7.29438 20.9082C7.74099 20.7906 8.16407 20.632 8.63418 20.6496C8.73408 20.6555 8.83398 20.6085 8.93388 20.5791C9.26296 20.4674 9.59206 20.3558 9.91526 20.2324C10.2737 20.0972 10.6322 19.968 10.9789 19.8152C11.2139 19.7094 11.4314 19.5742 11.7076 19.4215C11.5842 19.4038 11.5254 19.3803 11.4842 19.3979C10.9142 19.6095 10.3442 19.821 9.7742 20.0385C9.48626 20.1442 9.20421 20.25 8.91039 20.3205C7.5647 20.6379 6.20136 20.7848 4.78516 20.726C4.41494 20.5086 4.033 20.2676 3.63341 20.0502C2.97525 19.6976 2.59326 19.1041 2.24655 18.4812C2.18779 18.3755 2.16429 18.2403 2.14667 18.1169C2.05264 17.4176 2.08204 16.7242 2.42287 16.1013C2.71669 15.5665 3.04575 15.0435 3.42771 14.5676C3.67452 14.262 3.99774 13.9682 4.47373 14.0563C4.66177 13.7977 4.89094 13.6038 5.12011 13.4099C5.56084 13.0338 6.08384 12.8516 6.58921 12.6225C7.56469 12.1876 8.54606 11.7704 9.54505 11.3884C10.3325 11.0887 11.1434 10.8889 12.0073 10.9066C12.5303 10.9183 13.0591 10.789 13.5821 10.7244C13.6056 10.7185 13.6291 10.7009 13.6526 10.6891C13.7643 10.7303 13.8818 10.7655 13.9935 10.8125C14.0993 10.8596 14.1991 10.9124 14.2931 10.9595C14.3872 10.8772 14.4401 10.8243 14.493 10.7773C14.7045 10.9066 14.9043 11.0829 15.1393 11.1534C15.7681 11.3532 16.1618 11.8174 16.5086 12.3228C16.7847 12.7224 16.9669 13.1749 16.9669 13.6743C16.7671 13.9388 16.8905 14.2561 16.8494 14.5441C16.8024 14.8849 16.7377 15.1846 16.5203 15.4549C16.4087 15.59 16.3499 15.7722 16.2382 15.9074C15.8974 16.3128 15.5742 16.7359 15.1864 17.0944C14.8044 17.4529 14.4166 17.8113 13.9935 18.1228C13.9817 18.1345 13.9935 18.1698 13.9876 18.1992C13.6409 18.2462 13.3471 18.3931 13.0356 18.7045C13.4 18.6516 13.635 18.5047 13.8701 18.3755C13.9171 18.3461 13.9288 18.2462 13.9582 18.1815ZM20.1578 23.9815C19.7288 24.3752 19.3175 24.7513 18.912 25.1274C18.5947 25.4212 18.3067 25.7562 17.9542 26.0089C17.4194 26.4026 16.8611 26.761 16.297 27.1019C15.2275 27.7483 14.0699 28.2243 12.9475 28.759C12.5655 28.9412 12.113 28.9882 11.6958 29.0999C11.2668 29.2174 10.8026 29.2409 10.45 29.5171C10.1209 29.5641 9.80946 29.5817 9.51564 29.6522C7.97603 30.0342 6.44231 29.9754 4.90857 29.5935C4.81455 29.57 4.71464 29.5171 4.60299 29.6757C4.66175 29.8285 4.70878 30.0224 4.8028 30.1929C4.97909 30.4984 5.22003 30.7746 5.35518 31.0978C5.44921 31.327 5.59024 31.4915 5.75477 31.6443C6.22488 32.1086 6.73026 32.5434 7.1945 33.0135C7.5412 33.3661 7.9408 33.6305 8.36977 33.8597C9.05143 34.2182 9.78598 34.4415 10.5323 34.5825C11.6899 34.7999 12.8535 34.9057 14.0287 34.6237C14.9983 34.3945 15.9386 34.1007 16.8141 33.6012C17.2196 33.372 17.5487 33.0664 17.9071 32.7726C18.2245 32.5082 18.5007 32.2261 18.7592 31.9088C19.2117 31.3446 19.4938 30.6865 19.8111 30.046C20.1402 29.3819 20.3458 28.6826 20.4575 27.9481C20.5985 27.0079 20.5045 26.0676 20.4575 25.1274C20.434 24.769 20.3752 24.3752 20.1578 23.9815ZM5.31405 19.968C5.38456 19.9268 5.42571 19.8798 5.47272 19.8798C5.84881 19.8563 6.23077 19.8387 6.61274 19.8269C6.9947 19.8152 7.37078 19.8034 7.73511 19.6624C7.97017 19.5742 8.22874 19.5331 8.48143 19.4802C9.05143 19.3509 9.63905 19.2687 10.1503 18.9513C10.5675 18.922 10.8966 18.6516 11.2786 18.54C11.684 18.4283 12.0308 18.2285 12.3657 17.9935C12.5126 17.8936 12.6537 17.7702 12.8182 17.7055C13.2766 17.5293 13.6526 17.2296 14.0346 16.924C14.4165 16.6184 14.7104 16.2247 15.0688 15.9074C15.6271 15.4196 15.868 14.8144 15.9973 14.1327C16.0796 13.7037 16.0737 13.2806 15.7916 12.8987C15.6741 12.74 15.6153 12.5402 15.5448 12.3933C15.3862 12.2993 15.2334 12.2405 15.1276 12.1406C14.7456 11.7939 14.2755 11.6999 13.7937 11.647C13.5939 11.6235 13.3882 11.647 13.1825 11.6352C12.2658 11.5824 11.355 11.7469 10.4853 11.9702C9.58617 12.2052 8.69882 12.5461 7.86438 12.9927C7.68221 13.0867 7.49419 13.1984 7.30027 13.2219C6.9183 13.2689 6.60684 13.4804 6.26013 13.5862C5.71951 13.7566 5.30227 14.1503 4.81453 14.3266C4.61473 14.5441 4.45611 14.7497 4.26219 14.9143C3.9096 15.2257 3.68627 15.6136 3.46297 16.0131C3.10451 16.6537 2.97525 17.3412 3.00463 17.9524C3.48649 19.0571 4.37382 19.5096 5.31405 19.968ZM19.3175 21.678C18.9943 21.6133 18.7709 21.5722 18.5535 21.5311C18.4301 21.5076 18.3067 21.4664 18.1833 21.4664C17.296 21.5017 16.4087 21.5017 15.5331 21.6604C15.2334 21.7132 14.9161 21.7426 14.6399 21.866C14.1462 22.0835 13.6115 22.1422 13.1003 22.248C12.1013 22.4537 11.1317 22.7181 10.2032 23.1353C9.34525 23.5232 8.46965 23.8875 7.64695 24.3341C6.8889 24.7455 6.13673 25.1803 5.49033 25.7679C5.28466 25.956 5.02611 26.0911 4.84394 26.2968C4.56775 26.5965 4.34443 26.9432 4.08587 27.2605C3.93896 27.4486 3.83319 27.6425 3.87432 27.9246C4.05062 28.1067 4.24453 28.3065 4.38557 28.4476C4.67351 28.5592 4.89095 28.6415 5.1025 28.7238C5.67839 28.9412 6.28365 29.0411 6.89479 29.0881C7.62934 29.1469 8.37563 29.0763 9.08667 28.9294C10.7262 28.5886 12.3892 28.2772 13.8642 27.3957C14.299 27.1371 14.7927 26.9667 15.2393 26.7199C15.8622 26.3791 16.4733 26.0089 17.0844 25.6387C17.7837 25.2097 18.342 24.5985 18.9237 24.0344C19.3351 23.6348 19.7523 23.2 19.8934 22.6535C19.8934 22.1422 19.5349 21.9307 19.3175 21.678ZM19.4938 51.054C19.576 51.2303 19.6877 51.4536 19.8052 51.7004C19.6994 51.8826 19.6054 52.0589 19.5055 52.2352C19.5408 52.3645 19.576 52.482 19.6171 52.6171C19.0589 52.8698 18.5006 53.1166 17.9424 53.3693C17.7602 53.3223 17.5957 53.2753 17.4664 53.24C17.249 52.9639 17.0668 52.7229 16.8435 52.4409C16.6555 51.9531 16.6437 51.3537 16.4263 50.8542C16.0737 50.9482 15.7564 51.0364 15.439 51.1187C15.3391 51.1422 15.2157 51.1363 15.1511 51.1951C14.8103 51.5065 14.2873 51.5183 13.9993 51.9179C13.9288 52.0178 13.8054 52.0942 13.6879 52.1294C13.4058 52.2234 13.2471 52.4937 13.0062 52.6054C12.7065 52.7406 12.6478 53.0226 12.4832 53.2342C12.1013 53.7278 11.8956 54.3037 12.0131 54.9559C12.066 55.0088 12.1306 55.0558 12.1777 55.1087C12.5537 55.5671 13.0591 55.7786 13.6291 55.8668C13.7819 55.8903 13.9347 55.8903 14.0816 55.9314C15.1687 56.2311 16.2617 56.0666 17.343 55.9314C17.8249 55.8727 18.295 55.7669 18.7651 55.8198C18.9649 55.6259 19.1999 55.6258 19.4233 55.573C20.0697 55.4143 20.7219 55.2791 21.3507 55.0735C21.9501 54.8737 22.526 54.5916 23.1077 54.3389C23.1959 54.2978 23.2664 54.2155 23.3546 54.1685C23.9539 53.8159 24.424 53.3223 24.9235 52.8581C25.1116 52.2411 25.1116 52.2411 25.0293 51.7416C24.3829 51.101 23.948 50.8248 23.1841 50.5722C23.0901 50.5428 22.9902 50.5134 22.9021 50.4664C22.2909 50.0962 21.6034 50.0492 20.9217 50.0139C20.5691 49.9963 20.2107 50.055 19.8522 50.0374C19.7112 50.0315 19.576 49.8964 19.4702 50.0727C19.4761 50.39 19.4879 50.6897 19.4938 51.054ZM3.23966 26.6024C3.3807 26.5378 3.46298 26.5201 3.50999 26.4672C3.7803 26.2028 4.05649 25.9384 4.31505 25.6563C5.19651 24.7043 6.26012 24.0109 7.42365 23.4644C7.83499 23.2705 8.28162 23.1294 8.62245 22.8004C8.67534 22.7475 8.75171 22.7181 8.82223 22.6887C9.25121 22.5242 9.68018 22.3655 10.1033 22.2069C10.4617 22.0717 10.8143 21.9248 11.1787 21.819C11.8603 21.6251 12.5537 21.4782 13.2295 21.2784C13.7584 21.1197 14.299 21.0022 14.8279 20.8788C15.6212 20.7025 16.4322 20.5732 17.2549 20.585C17.8895 20.5967 18.53 20.5967 19.147 20.7965C19.2293 20.8259 19.3292 20.82 19.4115 20.8318C19.4938 20.5497 19.3997 20.3382 19.3175 20.1207C19.0765 19.4978 18.9708 18.8397 18.8238 18.1933C18.7768 17.97 18.7416 17.7349 18.6417 17.5293C18.4771 17.1767 18.3537 16.8241 18.295 16.4421C18.2773 16.3422 18.2656 16.1777 18.0775 16.1836C17.5487 16.8652 16.9904 17.5234 16.25 17.9935C16.0619 18.1169 15.8622 18.2168 15.6682 18.3284C14.8984 18.7692 14.1462 19.2569 13.3471 19.6447C12.7124 19.9503 12.0954 20.2912 11.4255 20.5321C10.9965 20.6849 10.5793 20.867 10.1562 21.0375C9.13369 21.4488 8.05833 21.6603 6.97707 21.7838C6.00747 21.8954 5.01435 21.9424 4.033 21.6897C3.17505 21.4723 2.41112 21.1256 1.7941 20.4792C1.77059 20.4557 1.70593 20.4616 1.65892 20.4557C1.55314 20.5967 1.61781 20.7378 1.64719 20.8788C1.72358 21.202 1.85874 21.5193 1.87049 21.8484C1.88812 22.2186 2.10554 22.5065 2.15255 22.8709C2.20544 23.2529 2.32884 23.6466 2.44637 24.0227C2.57565 24.434 2.64616 24.8689 2.80482 25.2626C2.99286 25.6798 3.09863 26.1088 3.23966 26.6024ZM13.6409 35.6873C13.7408 36.128 13.8289 36.4747 13.8994 36.8214C14.0463 37.5383 14.4224 38.2082 14.3872 38.9663C14.3872 39.0133 14.3931 39.078 14.4283 39.1073C14.6634 39.3541 14.5987 39.6715 14.6751 39.9594C14.7574 40.265 14.8161 40.5764 14.8808 40.8879C14.9454 41.1876 15.0982 41.4696 15.1159 41.7693C15.1394 42.1102 15.345 42.3746 15.392 42.7096C15.4802 43.3383 15.5683 43.9789 15.7681 44.5724C16.0913 45.5361 16.2206 46.5527 16.5556 47.5106C16.5144 47.8808 16.7436 48.1864 16.82 48.5272C16.8964 48.8739 16.9963 49.2147 17.1021 49.5555C17.1961 49.867 17.3371 50.1726 17.4135 50.4899C17.5428 51.0599 17.6368 51.6358 17.7543 52.2058C17.7661 52.2704 17.8366 52.3174 17.8778 52.3703C18.1128 52.2998 18.342 52.2411 18.5535 52.1647C18.6652 52.1235 18.7533 52.0354 18.8473 51.9707C18.7298 51.5947 18.5829 51.2715 18.6123 50.9012C18.6182 50.7778 18.5888 50.6427 18.5418 50.5252C18.2127 49.6907 18.1128 48.8092 17.913 47.9454C17.725 47.1404 17.5604 46.3353 17.3782 45.5302C17.2607 45.0131 17.1314 44.496 17.0139 43.973C16.7612 42.833 16.6437 41.6636 16.3264 40.5353C16.2382 40.218 16.2441 39.8713 16.1325 39.5657C16.0149 39.2249 15.9091 38.8958 15.9444 38.5256C15.9503 38.4551 15.9092 38.3845 15.8857 38.314C15.8093 38.0731 15.7211 37.8322 15.6623 37.5854C15.4919 36.8743 15.3274 36.1574 15.1511 35.3935C14.634 35.3347 14.1991 35.6755 13.6409 35.6873ZM25.5288 53.4986C25.2879 53.7454 25.0881 53.9746 24.8589 54.1744C24.2595 54.6915 23.525 55.0088 22.8433 55.3908C22.1852 55.761 21.433 55.9608 20.7102 56.2076C20.4222 56.3075 20.1108 56.3428 19.8111 56.3957C19.4879 56.4544 19.1588 56.5661 18.8415 56.5426C18.5065 56.5191 18.2715 56.7659 17.9659 56.7717C17.7602 56.7776 17.5604 56.807 17.3548 56.8188C17.2549 56.8246 17.1432 56.8011 17.0492 56.8364C16.4263 57.0656 15.7975 56.9951 15.1629 56.9304C15.063 56.9187 14.9572 56.9187 14.8573 56.9187C13.9406 56.9187 13.0532 56.7482 12.2247 56.3486C12.1013 56.2899 11.9778 56.2194 11.8662 56.1547C11.8368 56.1841 11.8016 56.2076 11.8016 56.2252C11.8603 56.6131 12.0249 56.9422 12.3833 57.1361C12.6713 57.2947 12.971 57.4417 13.2765 57.5651C14.2168 57.9529 15.2216 58.0293 16.2088 58.0293C17.3195 58.0293 18.4478 57.9411 19.5349 57.6238C20.146 57.4475 20.7454 57.2536 21.339 57.0303C22.2733 56.6836 23.1724 56.2664 24.0715 55.8374C24.377 55.6905 24.6356 55.4848 24.853 55.2321C25.2467 54.7797 25.4877 54.2508 25.6052 53.669C25.6169 53.6338 25.5699 53.5809 25.5288 53.4986ZM7.90552 33.9772C7.91727 33.9655 7.9408 33.942 7.93493 33.9361C7.9173 33.9126 7.89377 33.895 7.87614 33.8715C7.87026 33.8891 7.86438 33.9126 7.86438 33.9302C7.87025 33.9538 7.89376 33.9655 7.90552 33.9772Z" fill="#91ADA3"/>
<path d="M17.3721 29.8578C17.7893 29.2467 17.9597 28.612 18.1889 27.995C18.2653 27.7835 18.324 27.4779 18.6531 27.4426C18.9763 27.6836 18.9763 27.6836 19.182 28.2536C19.0409 28.5121 19.0645 28.8647 18.8 29.1174C18.7295 29.182 18.7765 29.3642 18.7412 29.4817C18.6061 29.946 18.136 30.2222 17.6717 30.1046C17.5836 30.0811 17.519 29.9812 17.3721 29.8578Z" fill="#91ADA3"/>
<path d="M31.9868 40.6646C31.928 40.8761 31.8751 41.0877 31.8163 41.3051C31.7928 41.3815 31.7223 41.4579 31.7399 41.5167C31.881 41.9809 31.5813 42.404 31.6224 42.8624C31.646 43.1268 31.5049 43.3971 31.4579 43.6733C31.3404 44.402 31.217 45.1306 31.1288 45.8652C31.0994 46.1003 30.9525 46.3177 30.9701 46.5175C30.9878 46.7525 30.9232 46.9641 30.9232 47.1874C30.9232 47.4107 30.835 47.6281 30.788 47.8514C30.7468 48.0218 30.7116 48.1981 30.6587 48.3685C30.5999 48.5625 30.547 48.7564 30.5706 48.9679C30.5882 49.1148 30.5706 49.2852 30.5059 49.4145C30.3296 49.7671 30.2356 50.1256 30.3179 50.5252C30.3296 50.5722 30.3003 50.6251 30.3003 50.678C30.2885 51.2891 30.0241 51.865 30.0064 52.4761C29.9888 53.0579 29.8478 53.622 29.6832 54.1862C29.6186 54.4153 29.6303 54.6621 29.6186 54.9031C29.6186 54.9442 29.6597 54.9912 29.695 55.05C31.1171 55.3379 32.357 55.9961 33.3912 57.0421C33.8789 57.5298 34.3314 58.0352 34.7134 58.6169C35.0425 59.1164 35.1013 59.6453 35.0249 60.2623C35.0484 60.2976 35.1013 60.3799 35.1718 60.4739C35.0542 60.9675 35.0601 61.514 34.7252 61.9606C34.4842 62.2838 34.2492 62.6188 34.0024 62.9361C33.8261 63.1594 33.591 63.2946 33.3383 63.4297C32.7096 63.7588 32.0279 63.8117 31.3521 63.8881C30.8526 63.9468 30.3473 63.988 29.8478 63.9997C29.3365 64.0056 28.8253 63.9233 28.3199 63.9586C27.603 64.0056 26.9096 63.8175 26.1985 63.7823C25.8048 63.7588 25.417 63.5942 25.035 63.4767C24.4768 63.3063 23.9302 63.1183 23.3779 62.9302C23.3073 62.9067 23.2427 62.8538 23.1663 62.8421C22.373 62.6717 21.7325 62.2192 21.1272 61.7138C21.0332 61.6315 20.9274 61.5493 20.8158 61.4964C20.2751 61.2496 19.9461 60.7853 19.6287 60.327C19.2585 59.7922 19.1997 59.1811 19.3643 58.5699C19.4936 58.0881 19.5758 57.5886 19.9225 57.1714C20.1282 56.9245 20.2164 56.5837 20.3633 56.2605C20.6747 56.0196 20.9921 55.761 21.3211 55.526C21.803 55.1793 22.3377 54.956 22.9254 54.8619C23.278 54.8091 23.6188 54.6915 23.9714 54.6328C24.7059 54.5152 25.4405 54.4388 26.1809 54.5916C26.2984 54.6151 26.4277 54.5799 26.557 54.574C26.6157 54.0745 26.6452 53.5926 26.7392 53.1225C26.8626 52.4996 26.9213 51.8709 27.0036 51.2421C27.0859 50.6074 27.127 49.9669 27.2563 49.344C27.65 47.4459 27.7969 45.5126 28.173 43.6145C28.2494 43.2208 28.2318 42.8036 28.2729 42.3981C28.3023 42.0984 28.3434 41.7987 28.3904 41.5049C28.4022 41.4344 28.4668 41.3698 28.4727 41.2992C28.4962 40.9467 28.5079 40.5941 28.5197 40.218C28.4433 40.1592 28.3728 40.0828 28.2846 40.0358C27.7205 39.7479 27.2034 39.3835 26.651 39.0897C26.0693 38.7842 25.6109 38.3728 25.1643 37.9262C24.7588 37.8439 24.7059 37.4091 24.4415 37.1916C24.1712 36.9742 24.0772 36.6451 23.8891 36.3807C23.3132 35.5756 23.0547 34.6413 22.7256 33.7363C22.5258 33.1957 22.4259 32.6081 22.4082 32.0204C22.4024 31.7913 22.3671 31.5621 22.3495 31.3329C22.3319 31.0508 22.3025 30.7746 22.3084 30.4926C22.326 29.476 22.3495 28.4593 22.3848 27.4427C22.3965 27.1372 22.4435 26.8375 22.4788 26.5319C22.5082 26.2616 22.6374 25.9971 22.5317 25.721C22.6903 24.9747 22.6139 24.2048 22.7432 23.4527C22.9195 22.3949 23.0664 21.3313 23.231 20.2735C23.2956 19.8504 23.3661 19.4273 23.4308 19.0042C23.4719 18.7398 23.5953 18.5576 23.801 18.3696C24.23 17.97 24.6589 17.5763 25.1055 17.2002C25.6579 16.736 26.2573 16.3775 26.9037 16.0719C27.5971 15.7429 28.3317 15.5783 29.0838 15.4138C29.9065 15.2375 30.7351 15.0847 31.5695 15.0259C32.4745 14.9672 33.3854 14.8731 34.2962 14.9789C35.2129 15.0847 36.1237 15.2199 37.0287 15.3726C37.3813 15.4314 37.7162 15.5666 38.0629 15.6665C38.1393 15.69 38.2275 15.6958 38.2804 15.7428C38.7152 16.1189 39.2911 16.213 39.7612 16.5185C40.1667 16.783 40.5545 17.0709 40.9424 17.3647C41.0599 17.4529 41.1715 17.5763 41.2479 17.7056C41.6475 18.3814 42.1353 19.016 42.3351 19.8034C42.4174 20.1325 42.388 20.4616 42.4291 20.7789C42.4761 21.1197 42.4291 21.4136 42.3527 21.7368C42.2175 22.3303 42.1412 22.9414 42.0648 23.5526C42.0001 24.0579 41.9766 24.5692 41.9178 25.0804C41.8415 25.7386 41.7416 26.3909 41.6534 27.0431C41.5535 27.7953 41.4419 28.5475 41.3479 29.3055C41.2832 29.8285 41.2715 30.3633 41.1657 30.8745C41.0129 31.5915 40.9483 32.3143 40.8307 33.0371C40.7955 33.2604 40.7543 33.466 40.6309 33.6776C40.437 34.0184 40.3665 34.4239 40.2254 34.7941C40.1432 35.0056 40.0492 35.2113 39.9904 35.4287C39.8318 35.9811 39.4145 36.3866 39.203 36.9037C39.1677 36.9977 39.0796 37.0682 39.0208 37.1505C38.7916 37.4855 38.4155 37.6735 38.1746 38.0143C37.9513 38.3375 37.6222 38.5961 37.3049 38.8488C36.776 39.2778 36.2354 39.7244 35.6066 39.9829C34.8368 40.3061 34.0376 40.5941 33.1914 40.6646C32.7742 40.6822 32.3746 40.6587 31.9868 40.6646ZM36.3177 24.2577C36.5704 24.2754 36.823 24.3283 37.0698 24.3165C37.8925 24.2754 38.6506 23.9815 39.3969 23.6466C39.6026 23.5526 39.8435 23.4938 40.008 23.3469C40.3489 23.0413 40.6897 22.7181 40.9483 22.3538C41.2421 21.9424 41.4713 21.4841 41.3772 20.9317C41.3537 20.8024 41.4595 20.6496 41.5065 20.5145C41.4007 19.8328 41.0599 19.2334 40.7073 18.6458C40.4311 18.1874 40.1079 17.7585 39.5438 17.6057C39.3616 17.3471 39.1266 17.1943 38.8034 17.2061C38.7799 17.1414 38.7681 17.0415 38.727 17.0239C38.1511 16.7771 37.6399 16.3481 36.9699 16.3775C36.3764 16.1542 35.7535 16.0778 35.1248 15.9897C34.5665 15.9133 34.0083 15.8721 33.45 15.878C32.8976 15.8839 32.3452 15.6841 31.7987 15.9074C30.9467 15.8545 30.1298 16.0837 29.3072 16.2247C28.4316 16.3716 27.5795 16.6478 26.8038 17.1003C26.6099 17.212 26.3807 17.2825 26.2044 17.4176C25.9223 17.6292 25.6638 17.8819 25.3288 18.1757C25.3112 18.3343 25.1995 18.5518 25.035 18.7574C24.8822 18.9514 24.8058 19.2099 24.7177 19.3862C24.6354 20.2148 24.7235 20.9552 25.0526 21.6721C25.2289 22.0541 25.4405 22.3773 25.7284 22.6829C26.3102 23.3058 27.0917 23.5584 27.8322 23.8934C28.2494 24.0814 28.6842 24.2636 29.1308 24.3224C29.5833 24.3811 30.0417 24.387 30.4707 24.5809C30.5588 24.6221 30.6705 24.6221 30.7762 24.6279C31.123 24.6456 31.4696 24.6632 31.8163 24.6691C32.1983 24.6808 32.5803 24.6926 32.9622 24.6808C33.2208 24.675 33.4735 24.6221 33.785 24.5868C33.6733 24.528 33.6322 24.481 33.5851 24.481C32.9799 24.4634 32.3687 24.4516 31.7635 24.4399C31.4579 24.434 31.1582 24.4223 30.8585 24.3811C29.4952 24.1755 28.173 23.8053 26.8802 23.2235C26.6216 22.8827 26.3513 22.5183 26.0634 22.1657C25.5815 21.5899 25.4463 20.9023 25.3582 20.1913C25.3406 20.0679 25.37 19.9327 25.3993 19.8152C25.5698 19.1335 25.8577 18.4989 26.4101 18.0464C26.8802 17.6586 27.3797 17.2942 27.9086 16.9945C28.2494 16.8065 28.6607 16.6537 29.0721 16.9123C29.3424 16.7418 29.6245 16.6478 29.9124 16.5538C30.4589 16.3657 31.0172 16.3951 31.5637 16.3716C32.6273 16.3305 33.6968 16.3129 34.7663 16.3305C35.6066 16.3422 36.4352 16.4598 37.2285 16.8006C37.7104 17.0063 38.2451 17.0827 38.7622 17.2178C38.7857 17.2237 38.8151 17.2178 38.8386 17.2119C38.9268 17.2942 39.0208 17.3647 39.109 17.4529C39.1912 17.5351 39.2617 17.6233 39.3323 17.6997C39.4498 17.6585 39.5203 17.6292 39.5849 17.6057C39.7377 17.8055 39.8552 18.0405 40.0433 18.1992C40.5486 18.6223 40.7426 19.1982 40.8778 19.7917C40.9835 20.2618 40.9835 20.7495 40.8014 21.2196C40.5134 21.3901 40.5134 21.7309 40.3724 21.9836C40.2019 22.2833 40.0257 22.536 39.726 22.7064C39.5732 22.7945 39.4498 22.9355 39.297 23.0237C38.8328 23.2764 38.3685 23.5467 37.8808 23.7347C37.393 23.9287 36.8994 24.1108 36.3882 24.2401C36.3706 24.246 36.3647 24.2871 36.3588 24.3106C36.018 24.2225 35.6948 24.2577 35.2893 24.4281C35.6478 24.5104 35.9181 24.4693 36.1884 24.434C36.2178 24.3929 36.2648 24.3047 36.3177 24.2577ZM39.9081 31.9499C39.3616 32.1556 38.8445 32.3495 38.3274 32.5493C37.9219 32.7021 37.5282 32.9078 37.111 33.0135C36.4704 33.1781 35.8182 33.3015 35.1659 33.4073C33.9318 33.6071 32.6802 33.6247 31.4344 33.7011C31.0113 33.7305 30.5764 33.6012 30.1475 33.5542C29.7009 33.5072 29.266 33.3544 28.837 33.4778C28.5138 33.3955 28.22 33.2956 27.9203 33.2545C26.3454 33.037 24.9469 32.4142 23.6658 31.4916C23.5894 31.4328 23.513 31.3505 23.3485 31.4563C23.3485 31.6208 23.3191 31.8148 23.3426 32.0087C23.3896 32.3613 23.513 32.708 23.5189 33.0547C23.5248 33.3015 23.5953 33.5072 23.6834 33.7128C23.9479 34.3181 24.2534 34.9057 24.5061 35.5169C24.7 35.9752 24.9704 36.369 25.2877 36.7392C25.7872 37.3209 26.3807 37.8087 27.0271 38.2141C28.0202 38.8488 29.0603 39.3777 30.2532 39.554C31.2405 39.7009 32.2218 39.7773 33.2149 39.6421C33.6792 39.5775 34.0964 39.4188 34.5371 39.2836C34.9308 39.1602 35.2952 38.9957 35.6478 38.7959C36.2765 38.4374 36.7819 37.9321 37.3167 37.4561C37.869 36.9625 38.3215 36.3925 38.6976 35.7519C39.1736 34.9292 39.4439 34.0243 39.7495 33.1311C39.8729 32.7785 39.9669 32.3965 39.9081 31.9499ZM27.6265 22.7005C27.7029 22.6887 27.7617 22.6652 27.8028 22.677C28.1613 22.7945 28.5197 22.9179 28.8782 23.0531C29.2366 23.1882 29.5892 23.3116 29.9829 23.3175C30.2356 23.3234 30.4883 23.3822 30.741 23.4233C31.3169 23.5173 31.8927 23.6583 32.4863 23.5526C32.8859 23.676 33.2913 23.5526 33.685 23.5937C34.1023 23.6407 34.496 23.5819 34.9014 23.4938C35.0777 23.4527 35.254 23.3939 35.4245 23.3939C35.9181 23.3998 36.3764 23.2587 36.8406 23.1236C37.3108 22.9826 37.728 22.724 38.1805 22.5653C38.8798 22.3185 39.3323 21.8484 39.7025 21.2608C39.9375 20.8906 40.0903 20.4968 39.9728 20.0385C39.9258 19.8446 39.9434 19.6389 39.9316 19.4802C39.82 19.3333 39.7024 19.2217 39.6378 19.0865C39.4145 18.6223 39.009 18.3637 38.5801 18.1345C38.4038 18.0405 38.204 17.9818 38.0159 17.8936C37.1815 17.5058 36.2824 17.3177 35.3892 17.2002C34.4666 17.0827 33.5146 17.0709 32.5744 17.1708C32.3746 17.1943 32.1513 17.2296 31.9633 17.1767C31.593 17.0768 31.2228 17.1591 30.8585 17.1297C30.2944 17.0827 29.7596 17.3001 29.2425 17.2766C28.9722 17.4059 28.7489 17.5351 28.5138 17.6174C28.0731 17.7761 27.7147 18.0523 27.3621 18.3402C26.7921 18.8045 26.416 19.3921 26.2103 19.968C26.269 21.1726 26.9213 21.9248 27.6265 22.7005ZM39.9845 29.4936C39.7083 29.3173 39.5203 29.1939 39.3323 29.0764C39.2265 29.0117 39.1266 28.9236 39.0149 28.8824C38.1805 28.5827 37.3519 28.2537 36.4822 28.0774C36.1825 28.0186 35.8769 27.9246 35.5772 27.9363C35.0366 27.954 34.5195 27.8071 34.0083 27.713C33.0034 27.5309 32.0044 27.4133 30.9878 27.4604C30.0476 27.5015 29.1015 27.5132 28.1671 27.619C27.3092 27.7189 26.4512 27.8482 25.6344 28.1479C25.3759 28.2419 25.0879 28.2772 24.8352 28.3947C24.4709 28.571 24.13 28.8061 23.7775 29.0058C23.5718 29.1234 23.4014 29.2644 23.3367 29.5406C23.4366 29.7757 23.5424 30.0283 23.6188 30.2164C23.848 30.4279 24.0125 30.5866 24.1829 30.7394C24.6354 31.1566 25.1643 31.4739 25.7108 31.7442C26.3748 32.0674 27.0917 32.2849 27.8086 32.4142C29.4599 32.708 31.1171 33.0371 32.8153 32.7726C33.3148 32.6962 33.832 32.7197 34.3373 32.6551C35.0425 32.5669 35.7477 32.4553 36.4528 32.3378C37.2638 32.1967 38.0042 31.8383 38.7564 31.5327C39.2911 31.3153 39.8376 31.0626 40.1726 30.6101C40.3489 30.14 40.0962 29.8109 39.9845 29.4936ZM29.2249 56.8305C29.2366 57.0245 29.2543 57.2771 29.2719 57.5474C29.1074 57.6826 28.9546 57.806 28.7959 57.9294C28.7842 58.0587 28.7724 58.1821 28.7548 58.3231C28.1436 58.3466 27.5325 58.3701 26.9155 58.3995C26.7685 58.2879 26.6275 58.1821 26.5217 58.0998C26.4218 57.759 26.3396 57.4711 26.2397 57.1302C26.2455 56.6072 26.4571 56.0431 26.4395 55.5025C26.0751 55.4613 25.746 55.4202 25.4228 55.3791C25.3229 55.3673 25.2113 55.3144 25.129 55.3438C24.7 55.5083 24.2064 55.3203 23.7892 55.5906C23.6893 55.6553 23.5424 55.6788 23.419 55.6729C23.1252 55.6553 22.8725 55.8492 22.6081 55.8609C22.279 55.8727 22.1145 56.1136 21.8912 56.2488C21.3505 56.5661 20.945 57.0244 20.8099 57.6708C20.8393 57.7414 20.8804 57.806 20.9039 57.8765C21.0861 58.4407 21.4739 58.8285 21.9675 59.1164C22.0968 59.1928 22.2437 59.2575 22.3613 59.3456C23.2603 60.0273 24.3357 60.28 25.3876 60.5562C25.8577 60.6796 26.3337 60.756 26.745 60.9793C27.0036 60.8735 27.221 60.9616 27.4502 60.9969C28.1083 61.0909 28.7606 61.2084 29.4247 61.2496C30.0534 61.2848 30.694 61.2378 31.3286 61.2261C31.4285 61.2261 31.5225 61.1732 31.6224 61.1555C32.31 61.0556 32.9329 60.7677 33.5675 60.5268C33.973 60.0273 33.973 60.0273 34.0847 59.5337C33.7262 58.6992 33.4265 58.282 32.8095 57.7649C32.7331 57.7002 32.6508 57.6415 32.592 57.5592C32.1631 56.9892 31.5461 56.6895 30.9232 56.4016C30.6 56.2488 30.2474 56.1782 29.9242 56.0255C29.7949 55.9667 29.7185 55.7963 29.5539 55.9197C29.4541 56.2076 29.3483 56.4897 29.2249 56.8305ZM23.231 28.0833C23.3837 28.0715 23.466 28.0891 23.5307 28.0598C23.8832 27.9128 24.2358 27.7718 24.5825 27.6073C25.7519 27.0549 26.9977 26.8022 28.2846 26.7258C28.743 26.6964 29.2072 26.7317 29.6421 26.5554C29.7126 26.526 29.7949 26.526 29.8713 26.526C30.3296 26.5319 30.788 26.5436 31.2405 26.5554C31.6224 26.5672 32.0044 26.5554 32.3864 26.5965C33.0915 26.6729 33.7908 26.7905 34.4901 26.8551C35.0366 26.9021 35.5831 26.9961 36.1237 27.0843C36.9229 27.2136 37.728 27.4016 38.4861 27.713C39.0737 27.9599 39.6672 28.2008 40.1608 28.6121C40.2313 28.6709 40.3195 28.7003 40.39 28.7414C40.5722 28.5122 40.5604 28.2772 40.5663 28.048C40.5722 27.3781 40.7191 26.7317 40.8249 26.0794C40.8601 25.8561 40.9189 25.6211 40.9012 25.3978C40.8777 25.0099 40.8954 24.6338 40.9835 24.2577C41.007 24.1578 41.0599 24.005 40.8778 23.9404C40.1315 24.3753 39.3734 24.7749 38.5096 24.9394C38.2863 24.9805 38.0629 25.004 37.8396 25.0334C36.9582 25.1568 36.0826 25.3331 35.1953 25.3919C34.4901 25.4389 33.7908 25.527 33.0798 25.4976C32.6273 25.48 32.1689 25.4918 31.7165 25.4918C30.6176 25.4977 29.5363 25.292 28.4903 25.004C27.5501 24.7455 26.6157 24.4223 25.793 23.8229C25.0761 23.2999 24.4944 22.6946 24.1653 21.866C24.1536 21.8308 24.0889 21.819 24.0478 21.7955C23.895 21.8837 23.9009 22.0423 23.8832 22.1834C23.8362 22.5124 23.8421 22.8592 23.7304 23.1647C23.607 23.5114 23.707 23.864 23.6129 24.2166C23.5189 24.5927 23.4895 25.004 23.4601 25.3978C23.4249 25.8267 23.3308 26.2557 23.3308 26.6847C23.3426 27.1372 23.2838 27.572 23.231 28.0833ZM29.5069 40.3884C29.4364 40.835 29.3894 41.1876 29.3248 41.5402C29.1896 42.263 29.2954 43.021 28.9781 43.7144C28.9604 43.7556 28.9428 43.8202 28.9604 43.8613C29.0897 44.1787 28.9134 44.449 28.8723 44.7428C28.8311 45.0601 28.7724 45.3716 28.7195 45.683C28.6725 45.9827 28.7019 46.3059 28.6079 46.588C28.5021 46.9112 28.5961 47.2344 28.5138 47.5635C28.361 48.1805 28.2024 48.8034 28.1671 49.4322C28.1084 50.4488 27.8498 51.436 27.8086 52.4526C27.6324 52.7817 27.7323 53.1519 27.6735 53.4986C27.6147 53.8512 27.5853 54.2038 27.556 54.5564C27.5266 54.8854 27.5501 55.2145 27.4972 55.5377C27.4091 56.1136 27.2739 56.6836 27.174 57.2595C27.1623 57.3241 27.2093 57.3947 27.2269 57.4593C27.4737 57.4828 27.7029 57.5122 27.9321 57.5181C28.0496 57.5181 28.1671 57.4711 28.2729 57.4475C28.3023 57.0538 28.2905 56.7012 28.4492 56.3663C28.5021 56.2546 28.5197 56.1195 28.5256 55.9902C28.5315 55.097 28.7665 54.239 28.9017 53.3635C29.0251 52.5466 29.172 51.7357 29.3013 50.9248C29.3835 50.3959 29.454 49.8729 29.5422 49.344C29.7302 48.1922 30.0593 47.064 30.1827 45.8946C30.218 45.5655 30.3531 45.2482 30.3649 44.9191C30.3825 44.5548 30.406 44.2139 30.5764 43.8848C30.6058 43.8261 30.5941 43.7379 30.5999 43.6674C30.6234 43.4147 30.6293 43.1621 30.6646 42.9094C30.7704 42.1866 30.8879 41.4638 31.0054 40.6881C30.5588 40.4295 30.0241 40.5882 29.5069 40.3884ZM33.9142 61.3436C33.5969 61.4846 33.3266 61.6257 33.0386 61.7197C32.2865 61.9782 31.4873 61.9959 30.7116 62.0958C29.9653 62.1957 29.1896 62.1016 28.4315 62.0605C28.126 62.0488 27.8263 61.9606 27.5266 61.9018C27.2034 61.8372 26.8626 61.8196 26.5746 61.6785C26.269 61.5316 25.9635 61.6727 25.6755 61.561C25.4875 61.4905 25.2877 61.4435 25.0879 61.3788C24.9939 61.3495 24.894 61.2848 24.7999 61.2789C24.1418 61.2613 23.5777 60.9616 23.0135 60.6619C22.9254 60.6149 22.8313 60.5738 22.7373 60.5326C21.8852 60.1859 21.1272 59.7041 20.5043 59.0224C20.4103 58.9225 20.328 58.8109 20.2399 58.711C20.1987 58.7286 20.1635 58.7345 20.1576 58.7521C20.0695 59.1341 20.0988 59.4984 20.3574 59.8099C20.5689 60.0625 20.7864 60.3093 21.0273 60.5385C21.756 61.2496 22.661 61.6903 23.5777 62.0546C24.6119 62.466 25.6873 62.8068 26.8155 62.9185C27.4443 62.9772 28.079 63.0242 28.7136 63.0419C29.7067 63.0654 30.6999 63.0184 31.693 62.9537C32.0338 62.9302 32.3452 62.8362 32.6449 62.6834C33.1797 62.4131 33.6028 62.0135 33.926 61.514C33.9436 61.4964 33.9201 61.4376 33.9142 61.3436ZM24.8176 36.6686C24.8352 36.6628 24.8646 36.651 24.8646 36.6451C24.8587 36.6158 24.8411 36.5923 24.8352 36.5629C24.8234 36.5805 24.8058 36.5981 24.8058 36.6158C24.7999 36.6334 24.8117 36.651 24.8176 36.6686Z" fill="#91ADA3"/>
<path d="M35.1362 36.369C35.7533 35.9577 36.147 35.4347 36.5877 34.9469C36.7405 34.7765 36.905 34.5179 37.2223 34.6061C37.4339 34.9469 37.4339 34.9469 37.4104 35.5522C37.1812 35.7402 37.0754 36.0811 36.7346 36.2103C36.6464 36.2456 36.6171 36.4278 36.5407 36.5218C36.241 36.9037 35.7062 36.986 35.3125 36.6981C35.2538 36.6511 35.2303 36.5335 35.1362 36.369Z" fill="#91ADA3"/>
</svg>
