<svg width="55" height="52" viewBox="0 0 55 52" fill="none" xmlns="http://www.w3.org/2000/svg">
<path d="M54.3142 25.3277C54.2681 24.9942 54.227 24.6813 54.3194 24.3581C54.3399 24.2811 54.3296 24.1939 54.3194 24.1221L54.3142 24.0964C54.2886 23.9066 54.2681 23.7219 54.2424 23.5321C54.186 23.0909 54.1347 22.6292 54.0475 22.1828C53.714 20.3872 53.319 18.2684 52.8932 16.1599L52.8726 16.0522C52.7546 15.4622 52.6315 14.8568 52.1903 14.3797C52.2621 14.2001 52.1287 14.0975 52.0415 14.036C52.0056 14.0103 51.9595 13.9744 51.9595 13.959C51.98 13.4768 51.7235 13.1536 51.4772 12.8406L51.3849 12.7226H51.0873L51.2925 12.4302L51.2668 12.3943C51.2258 12.3327 51.1694 12.2711 51.1181 12.2096C51.0052 12.0813 50.8924 11.9479 50.877 11.8145C50.8411 11.5016 50.6769 11.2861 50.523 11.0758C50.4768 11.0142 50.4306 10.9527 50.3896 10.8911C50.0151 10.337 49.5636 9.82914 49.1275 9.34176C48.9121 9.10064 48.6915 8.85438 48.4811 8.603C48.3734 8.46961 48.2656 8.33623 48.1579 8.19771C47.7577 7.68981 47.3473 7.16652 46.7522 6.83818C46.4393 6.36107 45.9724 6.04812 45.5261 5.74543C45.4081 5.66848 45.2952 5.59153 45.1824 5.50944C44.1204 4.75016 42.9404 4.03705 41.5655 3.32908C41.4988 3.29316 41.427 3.27265 41.3603 3.25212C41.2577 3.22134 41.1653 3.19569 41.1089 3.13926C40.8832 2.90326 40.6369 2.92378 40.3958 2.94943C40.3599 2.95456 40.3291 2.95456 40.2932 2.95969C40.1444 2.58005 39.8161 2.46206 39.5031 2.34406C39.38 2.29789 39.262 2.25684 39.1543 2.19528C38.9798 2.09781 38.7849 2.05676 38.5951 2.01059C38.277 1.93877 37.9794 1.86695 37.7742 1.58478C37.7383 1.53348 37.6716 1.51809 37.6152 1.5027L37.5793 1.49244C37.4715 1.45652 37.3587 1.42061 37.2509 1.3847C36.9944 1.29748 36.7276 1.21027 36.4557 1.14871C35.7837 0.989669 35.0962 0.835764 34.4293 0.686986C34.1009 0.615162 33.7726 0.538204 33.4443 0.46638C33.3571 0.445859 33.2699 0.420208 33.1775 0.394557C32.8748 0.307342 32.5619 0.220127 32.2181 0.338123C32.213 0.338123 32.2079 0.332991 32.2028 0.327861C32.1822 0.3176 32.1566 0.302211 32.1309 0.29708C32.0181 0.281689 31.9103 0.261171 31.7975 0.235519C31.541 0.184217 31.269 0.138045 31.0074 0.148306C30.479 0.173957 29.9454 0.127785 29.4273 0.0764821C28.8681 0.0251793 28.2935 -0.0261287 27.7189 0.0149135C27.447 0.0354346 27.1699 0.0405714 26.9032 0.0457017C26.58 0.0559622 26.2414 0.0610907 25.913 0.0918723C25.1948 0.153436 24.4099 0.245777 23.5172 0.368904C23.4249 0.384295 23.3274 0.394559 23.2299 0.404819C22.7784 0.461253 22.3065 0.522817 21.8806 0.686986C21.4497 0.856285 21.0034 0.943499 20.5724 1.03071L20.4442 1.05636C19.1873 1.31287 17.9868 1.75921 16.9658 2.15424C16.6016 2.29789 16.2425 2.46719 15.8936 2.63648C15.6935 2.73396 15.4934 2.83143 15.2934 2.92378C15.083 3.02125 14.8675 3.10847 14.6521 3.20082C14.2365 3.37525 13.8056 3.5548 13.4054 3.77541C13.036 3.98062 12.682 4.232 12.3434 4.47312C12.1741 4.59625 12.0049 4.71425 11.8356 4.83224C11.6457 4.9605 11.4559 5.08363 11.2661 5.21189C10.9634 5.40684 10.6556 5.61205 10.3529 5.82752C10.1374 5.98143 9.90657 6.13021 9.68596 6.27898C9.1165 6.65349 8.53166 7.04339 8.05454 7.5359C6.93101 8.70047 5.88442 9.97278 4.86863 11.1989L4.62238 11.4965C4.14014 12.0813 3.75537 12.6662 3.46807 13.2459C3.14999 13.8974 2.87296 14.5798 2.60619 15.2416C2.29837 16.0009 1.98541 16.7909 1.59551 17.5297C1.49803 17.7195 1.44162 17.9298 1.39032 18.1351C1.35953 18.2479 1.33388 18.3608 1.29284 18.4685C1.26206 18.5557 1.23128 18.6378 1.19536 18.7199C1.14919 18.8328 1.09789 18.9508 1.06711 19.0688C0.918328 19.6228 0.779796 20.1872 0.66693 20.6643C0.384764 21.8545 0.128257 23.0191 0.128257 24.2401C0.128257 24.3581 0.0923638 24.4761 0.0513216 24.6043C0.0308004 24.6659 0.0153908 24.7223 0 24.7839V25.0404L0.00513529 25.0661C0.0205261 25.0968 0.0359307 25.1327 0.0513216 25.1635C0.0821032 25.2251 0.112882 25.2867 0.112882 25.338C0.118013 25.5226 0.112877 25.7125 0.107747 25.8972C0.0974865 26.1998 0.0923663 26.5179 0.118018 26.8257C0.148799 27.1541 0.174432 27.4927 0.194953 27.821C0.251386 28.6778 0.307809 29.5653 0.569453 30.4221C0.769534 31.0839 0.933708 31.7662 1.08762 32.428C1.1697 32.7717 1.24668 33.1155 1.33389 33.4592C1.3698 33.608 1.40569 33.7619 1.44161 33.9158C1.52882 34.3159 1.62116 34.7315 1.79046 35.106C1.95463 35.4703 2.08289 35.855 2.20601 36.2295C2.40096 36.8195 2.60106 37.4352 2.95504 37.9738C3.05252 38.4869 3.32955 38.9178 3.59633 39.3282C3.78102 39.6104 3.96573 39.8977 4.09398 40.2106C4.19659 40.4671 4.36588 40.6929 4.53518 40.9135C4.66344 41.0828 4.79683 41.2623 4.8943 41.4522C4.98152 41.6163 5.09438 41.7651 5.20724 41.9139C5.38167 42.1447 5.55097 42.3653 5.61766 42.6475C5.63305 42.7039 5.6741 42.7604 5.72027 42.786C5.94087 42.904 6.05885 43.1144 6.18198 43.335C6.28971 43.5299 6.40258 43.73 6.59753 43.8788C6.74118 43.9865 6.85917 44.1353 6.9823 44.2892C7.05412 44.3815 7.12597 44.4739 7.20293 44.556L7.39788 44.7663C7.72622 45.1203 8.06995 45.4846 8.42394 45.8232L8.51628 45.9104C8.88566 46.2592 9.2653 46.6183 9.70651 46.9005C9.74755 46.9262 9.79372 46.9569 9.83476 46.9826C10.0759 47.1314 10.3272 47.2853 10.4863 47.4956C10.7069 47.7829 10.9942 47.9163 11.2764 48.0497L11.3277 48.0753C11.697 48.2498 12.1075 48.4242 12.5897 48.614C12.8668 48.7218 13.1335 48.8551 13.4003 48.9885C14.0057 49.2861 14.6264 49.5939 15.3498 49.6298C15.396 49.6298 15.4524 49.6606 15.5088 49.6914C15.5191 49.6965 15.5242 49.7016 15.5345 49.7068L15.4319 49.8402L15.6114 49.9017C15.7038 49.9325 15.8013 49.9684 15.8936 50.0043C16.1245 50.0864 16.3502 50.1788 16.5811 50.2711C17.0838 50.4712 17.6071 50.6764 18.1355 50.8149C19.1052 51.0663 20.0491 51.2459 20.9469 51.3382C21.3214 51.3792 21.7062 51.4408 22.0705 51.5024C22.6912 51.605 23.3325 51.7127 23.9789 51.7127C23.9943 51.7127 24.0097 51.7127 24.02 51.7127C24.1174 51.7127 24.2149 51.7332 24.3175 51.7589C24.4407 51.7897 24.5689 51.8153 24.6972 51.8051C24.7382 51.8051 24.7895 51.8204 24.8459 51.8358C24.9485 51.8666 25.0768 51.9128 25.1897 51.8102C25.3231 51.9897 25.5283 51.9641 25.6873 51.9436C25.7386 51.9384 25.7797 51.9333 25.8258 51.9333L26.3696 51.9384C27.1392 51.9487 27.9292 51.9538 28.7142 51.9897C28.863 51.9949 29.0169 52 29.1656 52C29.5658 52 29.9659 51.9795 30.3251 51.9641C30.4328 51.959 30.5354 51.8923 30.597 51.8564C30.6021 51.8512 30.6073 51.8461 30.6124 51.8461C30.6586 51.8615 30.6996 51.8769 30.7406 51.8923C30.8381 51.9282 30.9253 51.9641 31.0125 51.9487C31.582 51.882 32.1566 51.7948 32.7106 51.7127L33.08 51.6563C33.4802 51.5947 33.8906 51.5383 34.2959 51.4613C34.4447 51.4305 34.5883 51.3741 34.732 51.3228C34.7884 51.3023 34.85 51.2766 34.9115 51.2561C34.9269 51.251 34.9423 51.2459 34.9526 51.2356C34.9731 51.2664 34.9936 51.2869 34.9936 51.292L35.0193 51.3279L35.3579 51.2407C35.5631 51.1843 35.7529 51.1381 35.9427 51.0919C36.0453 51.0663 36.1531 51.0458 36.2608 51.0253C36.4198 50.9945 36.5789 50.9637 36.7379 50.9175C37.5587 50.6815 38.4258 50.4199 39.3954 50.1172C39.5288 50.0761 39.6571 50.0197 39.7802 49.9633C39.8366 49.9376 39.893 49.912 39.9495 49.8863C40.0572 49.8402 40.1649 49.7991 40.2727 49.7529C40.5241 49.6503 40.7857 49.5426 41.0371 49.4246C41.2372 49.3271 41.4219 49.2143 41.586 49.1168C41.6527 49.0757 41.7143 49.0398 41.7605 49.0142C41.8425 48.9834 41.9195 48.9577 41.9913 48.9372C42.135 48.8911 42.2632 48.85 42.371 48.7782C43.1302 48.3062 43.987 47.7675 44.8078 47.2032C45.1157 46.9929 45.3876 46.7209 45.6543 46.4388C46.4598 45.5974 47.5166 44.4739 48.5119 43.2478C49.6252 41.8831 50.3691 40.6724 50.8513 39.4462L51.0103 39.0461C51.5182 37.7635 52.0466 36.4347 52.6418 35.1573C52.9804 34.4391 53.1138 33.8491 53.0368 33.4028C53.083 33.254 53.124 33.1206 53.1651 32.9923C53.2523 32.705 53.3292 32.4639 53.3959 32.2177C53.4216 32.1356 53.4318 32.0484 53.4472 31.9611C53.4677 31.8278 53.4883 31.7046 53.5447 31.5969C53.7396 31.2121 53.791 30.8017 53.8371 30.4015C53.8679 30.145 53.9038 29.8783 53.9757 29.6217C54.068 29.2934 54.0885 28.9445 54.109 28.6059C54.1193 28.4623 54.1244 28.3186 54.1398 28.175C54.1603 27.9852 54.1809 27.7954 54.1963 27.6055C54.2476 27.0925 54.304 26.559 54.3399 26.0357C54.3758 25.7997 54.345 25.5586 54.3142 25.3277ZM8.78303 8.10536C8.81381 8.06945 8.8446 8.02841 8.88051 7.99249L8.91129 8.02841L8.95747 7.98223C9.01904 7.9258 9.07545 7.86937 9.13189 7.8078C9.26014 7.67955 9.38841 7.55129 9.52693 7.44356C9.72701 7.29478 9.93222 7.15113 10.1374 7.01261C10.3324 6.87922 10.5325 6.74071 10.7223 6.59706C10.8454 6.50471 10.948 6.39185 11.0711 6.26359C11.1327 6.20203 11.1943 6.1302 11.2712 6.05838C11.5944 5.98655 11.9484 5.82752 12.2511 5.61717C12.2973 5.58639 12.3435 5.55048 12.3896 5.51457C12.6205 5.34527 12.8616 5.17084 13.1694 5.14006C13.3644 5.11954 13.5491 4.97589 13.6209 4.91433C13.8877 4.67834 14.2211 4.56547 14.5136 4.468C14.8522 4.35513 15.201 4.1807 15.5755 3.93958C15.6063 3.91906 15.6268 3.89854 15.6473 3.88315C15.6833 3.84723 15.6884 3.8421 15.75 3.87288C15.8628 3.92419 16.0526 3.85236 16.1399 3.77541C16.4015 3.54454 16.7042 3.41629 17.0582 3.39064C17.1454 3.38551 17.2223 3.33421 17.2942 3.2829C17.325 3.26238 17.3609 3.24186 17.3917 3.22134C17.4635 3.18542 17.5353 3.14951 17.6071 3.10847C17.8995 2.94943 18.1766 2.80579 18.51 2.775C18.6075 2.76987 18.7306 2.74935 18.8281 2.68779C19.3925 2.31328 20.0491 2.16963 20.6853 2.02598C21.0136 1.95416 21.3522 1.87721 21.6806 1.7746C22.2141 1.60017 22.7887 1.51808 23.3479 1.44113C23.5788 1.41035 23.8096 1.37444 24.0405 1.33853C24.102 1.32827 24.1687 1.32827 24.2354 1.3334C24.3021 1.3334 24.374 1.33853 24.4458 1.32827C24.6869 1.29236 24.8973 1.23592 25.0973 1.15897C25.3025 1.20514 25.5283 1.25131 25.7437 1.10766C25.9182 1.27183 26.1028 1.20514 26.2568 1.15384C26.3645 1.11792 26.4671 1.08201 26.5697 1.10766C26.7647 1.1641 26.9801 1.12818 27.1853 1.0974C27.2725 1.08201 27.3598 1.07175 27.447 1.06149C28.0216 1.01532 28.6526 0.999933 29.376 1.01532C29.8172 1.02558 30.2635 1.08714 30.7355 1.15384C30.951 1.18462 31.1767 1.2154 31.4127 1.24105L31.4589 1.2667L31.5615 1.12818L31.582 1.0974C31.6538 1.10253 31.7308 1.12306 31.8129 1.14871C32.0181 1.20514 32.2438 1.26671 32.5003 1.17436C32.8081 1.42061 33.2083 1.46678 33.5982 1.51295C33.6597 1.51808 33.7264 1.52835 33.788 1.53348C34.0342 1.56426 34.26 1.63095 34.5011 1.70278C34.5781 1.7233 34.655 1.74895 34.732 1.76947C34.9013 1.81564 35.0706 1.85668 35.245 1.8926C35.4502 1.93877 35.6606 1.99007 35.8658 2.04651C36.5173 2.23633 37.0868 2.43641 37.6101 2.64675C37.6819 2.67753 37.764 2.66727 37.8358 2.66214C37.8563 2.66214 37.8717 2.65701 37.8871 2.65701C37.923 2.68779 37.9589 2.7237 37.9948 2.75961C38.0923 2.85709 38.1949 2.95456 38.318 2.97509C38.6259 3.01613 38.8824 3.15977 39.1491 3.30855C39.2723 3.37524 39.4057 3.44707 39.539 3.50864C39.6827 3.57533 39.8264 3.64715 39.9649 3.72411C40.1547 3.82671 40.3548 3.92932 40.5651 4.0114C41.2885 4.28331 41.9349 4.70399 42.5659 5.11441C42.843 5.29397 43.1251 5.47866 43.4124 5.64796C43.4842 5.69413 43.5663 5.73004 43.6433 5.77108C43.7202 5.81213 43.8023 5.84804 43.8793 5.89421C43.987 5.96091 44.0896 6.03786 44.1871 6.11481L44.2846 6.18664C44.2897 6.19177 44.2999 6.20203 44.3051 6.21229C44.3256 6.23794 44.3513 6.26872 44.3923 6.27898C44.7052 6.33542 44.9105 6.54576 45.1311 6.76636C45.3004 6.93566 45.4748 7.11522 45.7005 7.22295C46.0032 7.3666 46.2494 7.6539 46.4906 7.93093L46.5727 8.02841C46.8343 8.3311 47.096 8.64404 47.3473 8.95185C47.7834 9.48027 48.2349 10.0241 48.7171 10.5269C48.8095 10.6243 48.8813 10.7372 48.9531 10.8552C49.0557 11.0194 49.1634 11.1887 49.343 11.322C49.5123 11.4503 49.6252 11.6812 49.7329 11.9018C49.7791 11.9992 49.8253 12.0967 49.8766 12.1891C49.9792 12.3686 50.0869 12.5482 50.1895 12.7277C50.446 13.1638 50.7128 13.6153 50.9283 14.077C51.3284 14.9184 51.6824 15.8008 52.0159 16.6319C52.0877 16.8166 52.1236 17.0218 52.1595 17.2219C52.1749 17.3245 52.1954 17.4271 52.216 17.5297L52.4468 18.566C52.6931 19.6844 52.9393 20.8028 53.1907 21.9212C53.3549 22.6497 53.3497 23.3987 53.3497 24.1221C53.3497 24.2555 53.3497 24.3837 53.3497 24.5171C53.3549 25.8869 53.3395 27.4824 53.0984 29.0215C53.0522 29.3242 53.006 29.632 52.9599 29.9347C52.8521 30.6375 52.7444 31.366 52.611 32.074C52.5238 32.5306 52.3801 32.9769 52.1954 33.3566C51.7953 34.1877 51.4977 35.0701 51.2156 35.9217C51.1489 36.1269 51.0822 36.3321 51.0103 36.5322C50.9334 36.7528 50.8616 36.9786 50.7897 37.1992C50.5384 37.9738 50.2818 38.7793 49.8663 39.4924C49.7175 39.7489 49.579 40.0105 49.4456 40.2671C49.1121 40.9032 48.7736 41.5599 48.2708 42.1037C48.1733 42.2114 48.1323 42.3602 48.1015 42.4782C48.0912 42.5193 48.081 42.55 48.0707 42.5808C47.9989 42.6629 47.9271 42.7399 47.8552 42.8168C47.7065 42.981 47.5628 43.1349 47.4448 43.2991C46.9728 43.966 46.3828 44.5508 45.8134 45.1152C45.6697 45.2588 45.5312 45.3973 45.3876 45.541C44.7104 46.2284 44.1101 46.762 43.397 47.1416C43.1354 47.2801 42.8891 47.4494 42.6531 47.6085C42.2837 47.865 41.899 48.1266 41.4475 48.2754C41.0063 48.4242 40.5805 48.6294 40.165 48.8295C39.8931 48.9629 39.616 49.0963 39.3339 49.2143C38.3232 49.6349 37.2458 49.8812 36.2044 50.1223C35.6554 50.2454 35.086 50.3788 34.5319 50.5327C33.6444 50.779 32.6799 50.8354 31.7513 50.8919L31.5974 50.9021C29.5299 51.0252 27.1289 51.1484 24.7587 51.0201C23.8455 50.9688 22.9221 50.8098 22.0243 50.6507L21.6446 50.584C21.0547 50.4814 20.4595 50.3583 19.8798 50.2352C19.4284 50.1377 18.9564 50.0402 18.4946 49.953C16.8991 49.6555 15.4627 49.0142 14.2724 48.4242C14.1852 48.378 14.0929 48.3319 14.0056 48.2857C13.7953 48.178 13.5799 48.0599 13.3541 47.983C12.6872 47.7573 12.1177 47.3417 11.5688 46.9467C11.42 46.8389 11.2712 46.7312 11.1224 46.6286C10.8916 46.4696 10.6864 46.2797 10.4863 46.0951C10.3272 45.9514 10.1682 45.8026 9.9938 45.6692C9.82963 45.541 9.68596 45.3973 9.54744 45.2588C9.47048 45.1819 9.39355 45.1049 9.3166 45.028C9.18834 44.9048 9.0652 44.7766 8.94207 44.6535C8.84972 44.556 8.75225 44.4585 8.65991 44.3662C8.52139 44.2328 8.37774 44.0942 8.23409 43.9609C7.98783 43.73 7.73645 43.4889 7.50046 43.2426C6.53084 42.232 5.72539 41.2418 5.0328 40.2158C4.51464 39.4462 4.15041 38.5895 3.80155 37.7635C3.73486 37.6096 3.66816 37.4505 3.60146 37.2966C3.54503 37.1684 3.48858 37.0401 3.42702 36.9119C3.29876 36.6297 3.1654 36.3373 3.06279 36.0448C2.74984 35.1368 2.51896 34.398 2.33427 33.7208C2.04697 32.6691 1.74431 31.5302 1.49293 30.3759C1.19537 29.0112 1.03631 27.898 0.99014 26.8565C0.943967 25.8459 0.954253 24.7634 1.01582 23.5526C1.0466 23.0139 1.12868 22.5009 1.27233 22.0289C1.31337 21.8955 1.30821 21.7519 1.30821 21.6134C1.30821 21.4492 1.30311 21.2902 1.36981 21.1773C1.6058 20.7771 1.693 20.3308 1.77509 19.8999C1.85204 19.5202 1.929 19.1303 2.10343 18.7712C2.27786 18.4172 2.42663 18.0427 2.57027 17.6785C2.6934 17.3655 2.82167 17.0423 2.96531 16.7345C3.09357 16.4575 3.18076 16.1548 3.26285 15.8623C3.30389 15.7238 3.33983 15.5853 3.386 15.4468C3.4373 15.2929 3.51424 15.1441 3.59633 15.0056C3.62198 14.9594 3.64764 14.9081 3.6733 14.8619L3.70408 14.8004C3.96572 14.3027 4.2325 13.7897 4.57109 13.328C4.76091 13.0715 4.94047 12.7996 5.1149 12.5379C5.46889 12.0095 5.83315 11.4657 6.27435 10.9988C6.36669 10.9014 6.41797 10.7834 6.46927 10.6654C6.5257 10.5371 6.57702 10.4191 6.67963 10.3216C7.15162 9.88044 7.59795 9.39306 8.0289 8.92107C8.17254 8.76203 8.32131 8.603 8.46496 8.44396C8.57782 8.35675 8.68043 8.22849 8.78303 8.10536Z" fill="#91ADA3"/>
<path d="M7.03401 16.3292C6.84932 16.5857 6.62359 16.9038 6.48507 17.2424C6.27986 17.7503 6.10543 18.2787 5.94126 18.7866L5.74117 19.3919C5.54622 19.9871 5.34103 20.6027 5.18199 21.2183C5.11017 21.4851 5.07423 21.757 5.03319 22.0238C4.99728 22.2752 4.96139 22.5368 4.8947 22.7882C4.86391 22.9062 4.84853 23.0293 4.83313 23.1524C4.80748 23.3679 4.7818 23.5731 4.67407 23.7578L4.65869 23.7835L4.66896 23.8091C4.77157 24.1272 4.73565 24.4504 4.69974 24.7839C4.67409 25.025 4.64328 25.2712 4.67407 25.5175C4.70485 25.7791 4.71513 26.051 4.72539 26.3178C4.73565 26.5333 4.74078 26.7539 4.7613 26.9694C4.79208 27.3028 4.83311 27.6414 4.87415 27.9698C4.88955 28.1031 4.91008 28.2365 4.92548 28.3699C4.93061 28.4058 4.93572 28.4366 4.94085 28.4725C4.95111 28.5136 4.95626 28.5546 4.96139 28.5957C4.97165 28.7752 4.98191 28.9548 4.98704 29.1343C5.00243 29.5191 5.01781 29.9141 5.07938 30.2989C5.14607 30.7145 5.2538 31.1351 5.3564 31.5353C5.41283 31.7508 5.46414 31.9662 5.51544 32.1817L5.55649 32.3664C5.62318 32.6588 5.69502 32.9615 5.73093 33.2591C5.81302 33.9927 6.0695 34.6648 6.34141 35.2804C6.56201 35.7883 6.82878 36.2911 7.08017 36.7784C7.14686 36.9118 7.2187 37.0401 7.28539 37.1735L7.41878 37.43C7.73686 38.0508 8.07033 38.6869 8.41919 39.3025C8.5218 39.4821 8.66543 39.636 8.82447 39.8156C8.90143 39.8977 8.97839 39.9849 9.06048 40.0823C9.07074 40.108 9.081 40.1336 9.09639 40.1696C9.14256 40.2773 9.20413 40.4261 9.28621 40.5595C9.55298 40.9955 9.90698 41.37 10.2507 41.7292L10.4148 41.9036C10.4815 41.9754 10.5585 42.0472 10.6303 42.1139C10.7689 42.2422 10.8971 42.3653 10.9997 42.5141C11.2254 42.8476 11.5333 43.0989 11.995 43.3349C12.0001 43.3555 12.0001 43.3708 12.0052 43.3914C12.0155 43.4683 12.0258 43.5453 12.0822 43.5966C12.2464 43.7402 12.4259 43.8685 12.6003 43.9967L12.667 44.048C12.9595 44.2584 13.2468 44.4687 13.5392 44.6739C13.9753 44.9869 14.4113 45.2998 14.8474 45.6179C14.9398 45.6846 15.0321 45.7667 15.1193 45.8436C15.2938 45.9975 15.4733 46.1617 15.6888 46.2335C15.9709 46.331 16.1916 46.4901 16.407 46.644C16.4942 46.7055 16.5815 46.7671 16.6841 46.8338L17.7101 47.2237L17.8076 47.1108C17.982 47.3776 18.2693 47.4289 18.5258 47.4699C18.5669 47.4751 18.6028 47.4853 18.6438 47.4905C18.849 47.5315 19.0645 47.5469 19.3108 47.5623C19.4288 47.5674 19.5519 47.5777 19.6904 47.5879C20.0906 47.7624 21.1936 47.8906 21.7117 47.7829L21.9785 47.9984L22.5531 47.8239C22.9481 48.1061 23.3739 48.1574 23.8459 47.983C23.8818 47.9984 23.9177 48.0138 23.9485 48.0291C24.0357 48.0702 24.1076 48.101 24.1897 48.1061C24.2153 48.1061 24.2358 48.1061 24.2615 48.1061C24.3436 48.1061 24.4256 48.101 24.5077 48.0907C24.5796 48.0856 24.6514 48.0753 24.7181 48.0753C25.149 48.0702 25.5748 48.065 26.0058 48.0548C26.6214 48.0445 27.237 48.0394 27.8578 48.024C28.1092 48.0189 28.3606 48.0291 28.6068 48.0394C29.1711 48.065 29.7509 48.0907 30.3306 47.9317C30.4742 47.8906 30.6435 47.9419 30.8282 47.9881C30.9154 48.0138 31.0078 48.0394 31.095 48.0497C31.1155 48.0548 31.1309 48.0548 31.1463 48.0548C31.172 48.0548 31.1976 48.0548 31.2232 48.0548H31.2541L31.331 47.9624C31.3412 47.9522 31.3515 47.9419 31.3566 47.9317C31.4644 47.9265 31.567 47.9214 31.6645 47.9111C31.8851 47.9009 32.0954 47.8855 32.3006 47.865C32.4084 47.8547 32.5161 47.8445 32.629 47.8342C32.9522 47.8085 33.2805 47.7778 33.5781 47.6649C34.009 47.5007 34.4605 47.393 34.9017 47.2904C35.2557 47.2083 35.6199 47.1211 35.9687 47.0031C36.0149 46.9877 36.0611 46.9723 36.1073 46.9569C36.3638 46.88 36.6511 46.7927 36.764 46.5362C36.8255 46.5208 36.8819 46.5055 36.9384 46.4901C37.0666 46.4593 37.1898 46.4285 37.2975 46.3772C37.867 46.1104 38.4364 45.8334 38.9905 45.5615L39.2008 45.4589C39.2727 45.423 39.3445 45.3922 39.4163 45.3614C39.6113 45.2742 39.8113 45.1818 39.9806 45.0536C40.1499 44.9253 40.309 44.7714 40.4577 44.6278C40.6989 44.3969 40.9297 44.1763 41.2016 44.0275C41.453 43.889 41.6223 43.6787 41.7865 43.4786C41.9609 43.2631 42.12 43.063 42.3662 42.9502C42.4483 42.9143 42.4688 42.8116 42.4945 42.7039C42.5047 42.6577 42.515 42.6064 42.5304 42.5705C42.5458 42.5295 42.5714 42.4936 42.5919 42.4577L42.7613 42.627L42.792 42.5295C42.9254 42.1396 43.2076 41.9036 43.5051 41.6573L43.5718 41.6009C43.7206 41.4727 43.8335 41.3085 43.9669 41.1187C44.0284 41.0314 44.0951 40.934 44.1721 40.8314C44.2285 40.8057 44.2952 40.7441 44.326 40.7082C44.4594 40.5338 44.5876 40.3491 44.7108 40.1696C44.9467 39.8258 45.193 39.4667 45.5008 39.1743C45.6547 39.0306 45.8446 38.8459 45.901 38.6356C45.9882 38.3073 46.1472 38.0661 46.3781 37.9071C46.573 37.7737 46.6038 37.5788 46.6295 37.4095C46.65 37.2761 46.6705 37.153 46.7629 37.0606C46.7783 37.0452 46.7988 37.0298 46.809 37.0042C46.9116 36.8041 47.0296 36.604 47.1374 36.4091C47.4041 35.9473 47.6812 35.4754 47.7992 34.9264C47.8248 34.8033 47.8761 34.7007 47.9326 34.6545C48.0608 34.5519 48.0916 34.439 48.1224 34.321C48.1275 34.2954 48.1378 34.2697 48.1429 34.239C48.1788 34.1158 48.2096 33.9927 48.2404 33.8696C48.3276 33.531 48.4148 33.177 48.6149 32.8589C48.9124 32.3818 49.2049 31.8123 49.0869 31.1505C49.0817 31.13 49.1228 31.0736 49.1433 31.0428C49.1638 31.0171 49.1844 30.9864 49.1946 30.9607L49.2254 30.9043L48.9945 30.7914C49.0304 30.7504 49.0715 30.7042 49.1125 30.6632C49.2459 30.5195 49.3742 30.3861 49.3536 30.2527C49.3229 29.9808 49.3947 29.7346 49.4716 29.4781C49.5229 29.2985 49.5794 29.1087 49.5948 28.9137C49.6102 28.688 49.6461 28.4571 49.6769 28.2365C49.7025 28.0724 49.723 27.9133 49.7436 27.7492C49.7589 27.6158 49.7641 27.4773 49.7692 27.349C49.7795 27.1233 49.7897 26.8924 49.841 26.6769C49.9795 26.1383 50.0667 25.6457 49.7897 25.1378C49.7487 25.066 49.7435 24.9634 49.7384 24.8608C49.7384 24.8249 49.7333 24.7941 49.7333 24.7633C49.7025 24.3683 49.6461 23.963 49.5691 23.5167C49.5435 23.3833 49.5281 23.2499 49.5075 23.1114C49.4614 22.7574 49.4101 22.388 49.2664 22.0392C49.2408 21.9776 49.21 21.916 49.1792 21.8545C49.1125 21.7211 49.051 21.598 49.0407 21.4748C49.0151 21.0644 48.9381 20.6796 48.8047 20.3103C48.7842 20.2487 48.7534 20.182 48.7278 20.1204C48.6252 19.8844 48.5328 19.669 48.6149 19.4073C48.6405 19.3252 48.5739 19.238 48.4918 19.1303C48.461 19.0893 48.4251 19.0431 48.3943 18.9969C48.3943 18.961 48.3943 18.8994 48.384 18.843C48.3738 18.7763 48.3584 18.7045 48.3481 18.6378C48.3122 18.4172 48.2712 18.1863 48.2096 17.9657C48.1891 17.8836 48.1737 17.8016 48.1634 17.7143C48.1275 17.4886 48.0967 17.2577 47.8966 17.0782C47.9582 16.6216 47.7479 16.2214 47.5581 15.8726C47.4349 15.6417 47.3118 15.4109 47.1887 15.18C46.8039 14.4515 46.4089 13.6922 45.942 12.9894C45.4238 12.2096 44.839 11.322 43.9976 10.6807C43.9361 10.6346 43.8642 10.5884 43.7976 10.5473C43.7001 10.4858 43.6129 10.4293 43.5308 10.3575C43.1614 10.0138 42.8382 9.69059 42.5407 9.37764C42.3662 9.19295 42.161 9.12113 41.9455 9.16217C41.9404 9.14165 41.9353 9.12113 41.9302 9.10574C41.9148 9.02878 41.8994 8.96209 41.8532 8.91592C41.7198 8.76201 41.5505 8.65941 41.3863 8.5568C41.2068 8.44394 41.0375 8.34133 40.9041 8.17716C40.5193 7.69491 40.073 7.32554 39.5805 7.07415C38.97 6.76634 38.3389 6.41747 37.831 6.14044C37.1641 5.77106 36.4408 5.55046 35.743 5.34012C35.4711 5.25803 35.1941 5.17595 34.9222 5.0836C34.2912 4.86813 33.6191 4.77065 32.9624 4.67318C32.7316 4.63727 32.4956 4.60649 32.2647 4.56545C32.2083 4.55519 32.1467 4.54492 32.0852 4.52953C31.7927 4.4731 31.4952 4.41667 31.2541 4.51414C31.0386 4.60136 30.8539 4.55519 30.6538 4.50901C30.5563 4.48336 30.4589 4.46284 30.3563 4.45258C30.2947 4.44745 30.2331 4.43206 30.1715 4.4218C29.9971 4.38076 29.8073 4.33971 29.6277 4.54492L29.5405 4.45258L29.52 4.44745C29.125 4.38075 28.7453 4.43206 28.3811 4.48336C27.945 4.53979 27.5346 4.59623 27.1139 4.45771C27.0216 4.42693 26.9087 4.45258 26.8369 4.48336C26.5803 4.5911 26.3341 4.52953 26.0673 4.45771L25.9698 4.43206C25.8518 4.40127 25.7287 4.36537 25.6108 4.38076L25.5646 4.38588C25.2721 4.4218 24.9694 4.45258 24.6975 4.55518C24.5488 4.61162 24.4 4.61675 24.2409 4.62701C24.1024 4.63214 23.9588 4.6424 23.8152 4.68344C22.6916 5.01178 21.604 5.31446 20.5677 5.58637C19.8187 5.78132 19.2338 6.01218 18.7208 6.30461L18.7003 6.32C18.1564 6.63295 17.6434 6.9305 17.0534 7.13571C16.5404 7.31527 16.0633 7.58205 15.5759 7.85908C15.2424 8.05403 14.9141 8.2695 14.6012 8.47984C14.1959 8.75175 13.7752 9.03391 13.334 9.25965C13.0467 9.40842 12.7953 9.63416 12.5542 9.85476C12.5029 9.90093 12.4516 9.94711 12.4003 9.99328C12.154 10.2139 11.9129 10.4447 11.6769 10.6653C11.5333 10.8039 11.3948 10.9372 11.246 11.0706C11.1177 11.1938 10.9843 11.3118 10.8561 11.4298C10.7022 11.5683 10.5482 11.7068 10.3995 11.8453C10.3533 11.8864 10.3225 11.9377 10.2917 11.989C10.2712 12.0249 10.2507 12.0556 10.225 12.0864C10.1481 12.1736 10.0711 12.2609 9.99419 12.3481C9.84028 12.5174 9.68121 12.6969 9.54783 12.8868C9.50166 12.9483 9.46575 13.015 9.42984 13.0817C9.32724 13.2613 9.2349 13.4254 9.01943 13.487L8.97324 13.4973V13.5434C8.96298 13.7948 8.79882 13.9333 8.62952 14.0821C8.54744 14.1539 8.46024 14.2309 8.38841 14.3181C8.37815 14.3335 8.36275 14.3489 8.34736 14.3591C8.31658 14.3899 8.28065 14.4207 8.26526 14.4669C8.0857 14.9645 7.75223 15.3749 7.43416 15.7751C7.30077 15.9752 7.16227 16.1496 7.03401 16.3292ZM7.00323 18.0324C7.09558 17.8836 7.18277 17.74 7.27512 17.5963C7.48546 17.2629 7.68042 16.9499 7.83433 16.6113C7.91129 16.4369 8.04466 16.283 8.17292 16.1342C8.373 15.9033 8.57822 15.6622 8.60387 15.3288L9.52218 14.1488V13.7538C9.96339 13.7589 10.2507 13.5742 10.2917 13.2561L11.6513 11.5888C12.0258 11.5426 12.3028 11.2451 12.5696 10.9526C12.6773 10.8346 12.7902 10.7166 12.9082 10.6089C13.2263 10.3319 13.5751 10.1113 13.9137 9.90093C14.0266 9.82911 14.1394 9.76241 14.2523 9.69059C14.36 9.61876 14.4832 9.55721 14.596 9.49564C14.9038 9.3366 15.2219 9.17243 15.4118 8.83383C15.6272 8.76201 15.8222 8.63888 16.0069 8.51576C16.2736 8.34133 16.525 8.17203 16.8585 8.15664C17.1047 8.14125 17.3561 7.98734 17.5203 7.86421C17.7255 7.7103 17.9615 7.6077 18.1924 7.51536C18.3206 7.46405 18.454 7.40761 18.5823 7.34092C18.9465 7.15623 19.3313 6.94589 19.6955 6.67912C19.7417 6.64321 19.8443 6.62268 19.9469 6.59703C20.0033 6.58677 20.0546 6.57138 20.1059 6.55599C20.5215 6.43286 20.9422 6.32 21.3577 6.21226C21.5937 6.1507 21.8246 6.08913 22.0554 6.02757C22.1273 6.00705 22.1889 5.97627 22.2709 5.93009C22.3068 5.90957 22.3479 5.88906 22.3941 5.86853C22.3992 5.86853 22.4094 5.87366 22.4197 5.87366C22.4864 5.88905 22.5993 5.91984 22.7019 5.88906C22.9635 5.81211 23.22 5.71463 23.4714 5.62228C23.5791 5.58124 23.6869 5.5402 23.7946 5.50429C23.81 5.49916 23.8254 5.49402 23.8408 5.48376C23.8613 5.4735 23.8921 5.46324 23.8972 5.45811C24.1845 5.57611 24.4308 5.47863 24.6719 5.38629C24.7437 5.35551 24.8207 5.32986 24.8925 5.30934C25.2157 5.21699 25.6056 5.13491 26.016 5.24778C26.1443 5.28369 26.2828 5.26316 26.4316 5.23751C26.4931 5.22725 26.5598 5.21699 26.6265 5.21186C26.8164 5.36577 27.0729 5.34012 27.3191 5.32473C27.3961 5.3196 27.4679 5.30934 27.5448 5.30934C28.2066 5.29908 28.8787 5.24777 29.5251 5.19647L29.7714 5.17595C29.8637 5.17082 29.9458 5.11438 30.0176 5.07334C30.0279 5.06821 30.0433 5.05795 30.0536 5.05282C30.2998 5.24777 30.5974 5.27343 30.9103 5.30421L30.9873 5.30934C31.254 5.33499 31.5208 5.32986 31.7825 5.32473C32.1877 5.3196 32.6135 5.30934 33.0188 5.4222C33.2087 5.47351 33.3985 5.52994 33.5883 5.5915C34.0449 5.73002 34.5169 5.87366 34.994 5.93009C35.1171 5.94549 35.23 5.99679 35.348 6.05322C35.5481 6.14557 35.7738 6.24817 36.0406 6.13018L36.0508 6.22765L36.0868 6.24304C36.1483 6.26869 36.215 6.29435 36.2766 6.32C36.4151 6.37643 36.5639 6.43799 36.7075 6.48417C37.1846 6.63807 37.6207 6.8792 38.0158 7.11006C38.2364 7.23832 38.4569 7.36657 38.6775 7.49483C39.0059 7.68978 39.3393 7.8796 39.6677 8.07455C39.719 8.10534 39.76 8.14638 39.8062 8.19255C39.8319 8.21307 39.8524 8.23872 39.878 8.25924L40.309 8.63375C40.8169 9.07496 41.3196 9.51616 41.8275 9.96249C41.8635 9.99327 41.8993 10.0241 41.9353 10.0548C42.0738 10.1728 42.2123 10.2908 42.32 10.4345C42.5663 10.7577 42.8998 10.9578 43.223 11.1527C43.2794 11.1886 43.3358 11.2194 43.3923 11.2553C43.8027 11.5067 44.0797 11.8453 44.3773 12.266C44.5107 12.4558 44.6543 12.6354 44.7928 12.8149C45.0442 13.133 45.3059 13.4562 45.4854 13.8256C45.6342 14.1231 45.7932 14.4156 45.9471 14.7029L46.0857 14.9594C46.1472 15.0722 46.2088 15.1851 46.2755 15.298C46.3678 15.457 46.4551 15.6212 46.5423 15.7854C46.768 16.2266 46.9527 16.6985 47.0809 17.1911C47.1322 17.386 47.2297 17.5707 47.3375 17.7605C47.3836 17.8426 47.4298 17.9298 47.476 18.0222C47.4657 18.6634 47.6145 19.3612 47.9326 20.1615C47.9839 20.2846 48.0095 20.4129 48.0352 20.5514C48.0762 20.7463 48.1121 20.9413 48.225 21.1362C48.3019 21.2696 48.3071 21.444 48.3122 21.6339C48.3173 21.7775 48.3173 21.9263 48.3584 22.0648C48.3943 22.1982 48.4199 22.3367 48.4456 22.4701C48.4815 22.6651 48.5226 22.8703 48.5944 23.055C48.6559 23.214 48.6816 23.373 48.7124 23.5372C48.7278 23.6244 48.7431 23.7116 48.7637 23.7937C48.9073 24.4247 48.9484 25.0712 48.8868 25.7586C48.8663 25.9946 48.8765 26.2306 48.8919 26.4615C48.897 26.5795 48.9073 26.6975 48.9073 26.8103C48.9073 26.9027 48.9125 26.995 48.9176 27.0874C48.9278 27.308 48.9381 27.5388 48.9073 27.7543C48.8458 28.1852 48.7688 28.6213 48.6919 29.042C48.6252 29.4268 48.5533 29.8269 48.4918 30.222C48.4815 30.2784 48.4661 30.3348 48.4456 30.3964C48.3891 30.5605 48.3225 30.7658 48.502 30.9248C48.4815 30.971 48.4559 31.0171 48.4353 31.0633C48.3738 31.1864 48.3173 31.3096 48.2763 31.4327L48.184 31.7149C47.9377 32.4741 47.6863 33.2591 47.322 33.9876C47.1989 34.2338 47.1014 34.5006 47.004 34.752C46.9116 35.0034 46.8142 35.2599 46.6962 35.501L46.6859 35.5215C46.2652 36.368 45.8292 37.2402 45.3264 38.0508C45.0699 38.456 44.7518 38.8357 44.4388 39.1999C44.3003 39.3641 44.1618 39.5231 44.0284 39.6873C43.9874 39.7386 43.9412 39.7899 43.895 39.8412C43.8078 39.9387 43.7206 40.0362 43.6488 40.149C43.5975 40.226 43.5924 40.3183 43.5872 40.3799C43.5872 40.3902 43.5872 40.3953 43.5872 40.4004C43.5308 40.4517 43.4744 40.503 43.423 40.5492C43.2948 40.6621 43.1768 40.7698 43.0639 40.8827C43.0178 40.9288 42.9665 40.975 42.9203 41.0212C42.6381 41.2931 42.3457 41.5753 42.1969 41.9652C42.084 41.9959 42.0584 42.1037 42.0327 42.1858C42.002 42.2986 41.9763 42.3602 41.8532 42.3653C41.7352 42.3704 41.648 42.4833 41.5608 42.6064C41.4941 42.6988 41.4274 42.7911 41.3504 42.827C41.2683 42.8681 41.217 42.9399 41.1657 43.0117C41.0836 43.1246 41.0324 43.1913 40.9041 43.1656C40.8169 43.1605 40.7194 43.2426 40.6578 43.3195C40.2474 43.8069 39.7138 44.2379 38.9854 44.6739C38.6416 44.8792 38.303 45.069 37.9131 45.1767C37.6361 45.2537 37.3796 45.4024 37.1282 45.5512C37.0153 45.6179 36.9025 45.6846 36.7896 45.741C35.8508 46.2335 34.8196 46.5054 33.8243 46.7722C33.5165 46.8543 33.2035 46.9364 32.8957 47.0236C32.5161 46.9928 32.1416 47.0441 31.7773 47.0954C31.449 47.1416 31.1053 47.1878 30.7667 47.1724C30.2434 47.1467 29.7047 47.1929 29.1814 47.2339C28.9916 47.2493 28.7966 47.2647 28.6068 47.2801C28.5401 47.2853 28.4888 47.3314 28.4426 47.3725C28.4324 47.3827 28.4221 47.393 28.4119 47.3981C28.3554 47.3879 28.299 47.3725 28.2426 47.3571C28.0886 47.316 27.9296 47.275 27.7654 47.275C27.6782 47.275 27.5859 47.275 27.4987 47.275C27.1909 47.275 26.883 47.2801 26.5855 47.2852C26.3084 47.2904 26.0314 47.2955 25.7544 47.2955C25.4517 47.2904 25.1593 47.2853 24.8669 47.2801C24.7283 47.275 24.5898 47.2699 24.4564 47.2699C24.4462 47.2699 24.4359 47.2699 24.4205 47.2647C24.3897 47.2596 24.3487 47.2545 24.3128 47.2699C23.81 47.4494 23.297 47.3468 22.8045 47.2493C22.6095 47.2083 22.4146 47.1724 22.2196 47.1467C22.0093 47.1211 21.7938 47.1057 21.5835 47.0954C21.1269 47.0646 20.66 47.0339 20.2086 46.9005C19.8187 46.7825 19.4082 46.7209 19.0081 46.6594C18.7669 46.6234 18.5156 46.5875 18.2744 46.5362C18.1154 46.5055 17.9666 46.4439 17.8076 46.3823C17.7101 46.3413 17.6075 46.3054 17.5049 46.2746C17.4331 46.2541 17.351 46.2489 17.2997 46.2541C17.1663 46.172 17.038 46.095 16.9098 46.0181C16.6328 45.8539 16.3711 45.7 16.1248 45.5256C15.8889 45.3563 15.6426 45.1972 15.4066 45.0382C14.7499 44.6021 14.0676 44.1507 13.5238 43.5504C13.2314 43.2272 12.862 43.0989 12.5337 43.0169C12.3592 42.5962 12.0258 42.314 11.7025 42.0472C11.5692 41.9395 11.4307 41.8215 11.3075 41.7035C11.2819 41.6779 11.2511 41.6522 11.2203 41.6317C11.1844 41.606 11.1485 41.5804 11.128 41.5496C11.0972 41.5034 11.0715 41.4521 11.0408 41.3957C10.9997 41.3085 10.9535 41.2213 10.8817 41.1494C10.5123 40.8057 10.2302 40.385 9.95827 39.9746C9.76332 39.6822 9.56322 39.3795 9.32723 39.1076C9.11176 38.8511 8.90142 38.5792 8.85012 38.3021C8.82447 38.1841 8.75264 38.1174 8.69108 38.0661C8.62952 38.0148 8.58336 37.9738 8.58336 37.8866C8.58336 37.7122 8.47562 37.5429 8.37814 37.3787C8.35762 37.3479 8.33711 37.312 8.32172 37.2812C8.27554 37.1991 8.21398 37.1324 8.15754 37.0606C8.09085 36.9785 8.02927 36.9016 7.9831 36.8144C7.82406 36.4911 7.67018 36.1526 7.52653 35.8293C7.45984 35.6806 7.388 35.5267 7.32131 35.3779C7.24948 35.2188 7.17253 35.0598 7.10071 34.9008C7.02375 34.7315 6.94166 34.5622 6.8647 34.398L6.85443 34.3723C6.83391 34.3313 6.81855 34.2954 6.81855 34.2646C6.81855 33.9106 6.72107 33.5823 6.6236 33.2591C6.54664 32.9974 6.46453 32.7204 6.43888 32.4434C6.41323 32.1407 6.31576 31.8431 6.22342 31.5507C6.17212 31.3968 6.1208 31.2377 6.08489 31.0787C6.0695 31.0223 6.05413 30.9658 6.03874 30.9145C5.97717 30.6991 5.91561 30.4733 5.94126 30.2681C5.96691 30.0116 5.92074 29.7807 5.8797 29.555C5.86431 29.4832 5.84891 29.4114 5.83865 29.3395C5.83352 29.3036 5.81812 29.2677 5.80273 29.2318C5.79247 29.2062 5.77708 29.1702 5.77195 29.1651C5.93099 28.9394 5.85405 28.7188 5.78736 28.5238C5.75658 28.4366 5.73093 28.3545 5.7258 28.2724C5.70015 28.0159 5.67449 27.7081 5.6591 27.4003C5.64884 27.2156 5.63345 27.0309 5.62319 26.8462C5.57701 26.2511 5.53596 25.6304 5.577 25.0301C5.58726 24.8711 5.59241 24.7172 5.59241 24.5581C5.60267 24.1888 5.60779 23.804 5.71553 23.4346C5.76683 23.2499 5.75656 23.0601 5.74117 22.8549C5.73604 22.7677 5.73093 22.6804 5.73093 22.5932C5.95153 22.3111 5.9977 21.9673 6.04387 21.6287C6.09004 21.3055 6.13622 20.9669 6.3363 20.6848L6.37732 20.6283L6.20804 20.5309C6.46456 20.1204 6.58253 19.6638 6.70053 19.1867C6.76209 18.9353 6.82878 18.6737 6.92113 18.4121C6.95191 18.4018 6.99296 18.3813 7.05452 18.3556L7.10071 18.3351L7.00323 18.0324Z" fill="#91ADA3"/>
<path d="M6.55658 25.6611C6.53606 26.0921 6.5104 26.5384 6.4591 26.9745C6.39241 27.5234 6.48987 28.0724 6.57709 28.6008C6.59761 28.7085 6.61299 28.8214 6.63351 28.9291C6.65916 29.0779 6.69508 29.2216 6.73099 29.3652C6.79255 29.6063 6.84901 29.8321 6.84901 30.0578C6.84901 30.2989 6.85927 30.5862 6.97726 30.8632C7.16708 31.3198 7.29533 31.8072 7.41333 32.2792C7.51593 32.6794 7.62367 33.0898 7.76732 33.4848C8.07513 34.321 8.41885 35.2701 8.8498 36.1782C8.9524 36.3937 9.06015 36.6143 9.18328 36.8503L9.27562 37.0298C9.40901 37.2915 9.55267 37.5634 9.70657 37.825C9.79379 37.9738 9.89639 38.1226 9.98873 38.2611C10.0554 38.3586 10.1221 38.456 10.1888 38.5587L10.276 38.692C10.3992 38.887 10.5274 39.0819 10.63 39.2923C10.9019 39.8464 11.3021 40.3029 11.6869 40.7441C11.9485 41.0417 12.2153 41.3495 12.4461 41.6881C12.4564 41.7086 12.4769 41.7394 12.5128 41.7497C12.8309 41.8574 13.031 42.0934 13.2413 42.3448C13.385 42.5141 13.5286 42.6885 13.7133 42.8219C13.8826 42.9399 14.0365 43.0887 14.1904 43.2272C14.3751 43.3965 14.5649 43.5709 14.7804 43.7094C15.042 43.8736 15.3139 44.0327 15.5756 44.1866C16.0476 44.4636 16.535 44.7458 16.9762 45.0895C17.1762 45.2485 17.443 45.3306 17.6482 45.3871C17.8124 45.4332 17.9817 45.4794 18.1459 45.5307C18.4691 45.6282 18.7974 45.7257 19.1411 45.7923C19.4797 45.859 19.8183 45.9565 20.1467 46.054C20.4237 46.1361 20.711 46.2182 20.9983 46.2848C21.2497 46.3413 21.5113 46.3772 21.7627 46.4131C22.1218 46.4644 22.4912 46.5157 22.8349 46.6286C23.2094 46.7466 23.5839 46.7568 23.9482 46.762C24.2458 46.7671 24.5536 46.7722 24.846 46.844L24.8665 46.8492L24.887 46.8389C25.1743 46.6953 25.4719 46.7312 25.7848 46.7671C26.0208 46.7927 26.262 46.8235 26.5031 46.7722C26.6621 46.8594 26.8263 46.8338 26.9853 46.8081C27.1649 46.7825 27.329 46.7568 27.4778 46.88C27.4983 46.8954 27.524 46.9056 27.5497 46.9056C27.6266 46.9056 27.7241 46.8543 27.8267 46.7979C27.8575 46.7825 27.8831 46.7671 27.9088 46.7568L28.9041 46.8748L29.0939 46.7261C29.2221 46.7312 29.3401 46.7363 29.453 46.7466C29.7095 46.762 29.9301 46.7774 30.1507 46.7466C30.4124 46.7107 30.674 46.644 30.9254 46.5773C31.1049 46.5311 31.2896 46.4849 31.4743 46.449C31.6488 46.4131 31.8386 46.3926 32.0181 46.3721C32.3413 46.3362 32.6748 46.3002 32.9775 46.1822C33.4751 45.9873 33.9984 45.8488 34.5012 45.7154C34.927 45.6025 35.3631 45.4845 35.7837 45.3358C36.0351 45.2485 36.2917 45.1459 36.5328 45.0485C36.7482 44.9612 36.974 44.874 37.1946 44.7919C37.7486 44.5919 38.2719 44.2943 38.7747 44.0019C38.9235 43.9147 39.0723 43.8326 39.221 43.7505C39.3083 43.7043 39.3493 43.6068 39.3852 43.5094C39.3955 43.4888 39.4006 43.4683 39.4109 43.4529H39.416C39.4776 43.4735 39.5391 43.494 39.5853 43.4581C39.6674 43.3965 39.7495 43.3298 39.8315 43.2682C40.1188 43.0528 40.4215 42.827 40.6883 42.5705C40.8576 42.4115 41.0064 42.2268 41.1449 42.0472C41.3091 41.8369 41.4835 41.6214 41.6887 41.447C41.7503 41.3906 41.8272 41.3444 41.9042 41.2982C42.1145 41.1648 42.3505 41.0161 42.3762 40.6826C42.3813 40.6826 42.3813 40.6775 42.3864 40.6775C42.4069 40.6672 42.4326 40.6518 42.448 40.6364C42.5044 40.5749 42.566 40.5133 42.6224 40.4569C42.7763 40.2978 42.9405 40.1336 43.079 39.9592C43.2227 39.7797 43.3509 39.5847 43.474 39.4C43.5202 39.3282 43.5664 39.2615 43.6126 39.1897C43.7408 38.9999 43.8742 38.8152 44.0076 38.6356C44.3103 38.2252 44.6181 37.7994 44.8438 37.3223C45.008 36.9734 45.1978 36.6604 45.4184 36.3988C45.5262 36.2705 45.5723 36.1218 45.6134 35.973C45.6698 35.7832 45.7211 35.619 45.8904 35.5215L45.9314 35.4959L45.8545 35.1881C46.1315 35.0136 46.2444 34.7366 46.3572 34.4698C46.3778 34.4185 46.3983 34.3672 46.4239 34.3159C46.4342 34.2851 46.4496 34.2595 46.4599 34.2338C46.4906 34.1569 46.5214 34.0799 46.5779 34.003C46.978 33.4335 47.332 32.8743 47.2807 32.2484C47.6091 31.7097 47.7578 31.1659 47.9066 30.6426L47.9425 30.5195C47.9887 30.3451 47.9784 30.1604 47.9682 29.9706C47.963 29.8885 47.9579 29.8064 47.9579 29.7243C48.1631 29.437 48.1683 29.3857 48.1477 29.0882L48.1426 28.9907C48.1323 28.8368 48.1631 28.6777 48.1888 28.5084C48.2041 28.4161 48.2195 28.3238 48.2298 28.2314C48.2349 28.175 48.2247 28.1185 48.2144 28.0621C48.2093 28.0365 48.2042 28.0108 48.2042 27.9903C48.199 27.9492 48.1888 27.9082 48.1836 27.862C48.1734 27.8056 48.1528 27.7132 48.1528 27.703C48.3888 27.5234 48.3427 27.2874 48.3068 27.113C48.2965 27.0668 48.2862 27.0207 48.2862 26.9796C48.2811 26.9129 48.276 26.8514 48.2657 26.7847C48.2298 26.4153 48.1939 26.0716 48.2914 25.7124C48.317 25.6252 48.3068 25.5329 48.2965 25.4405C48.2914 25.4046 48.2914 25.3738 48.2862 25.3431L48.2657 24.9891C48.2555 24.7993 48.2452 24.6043 48.2349 24.4145C48.2349 24.3786 48.2349 24.3427 48.2401 24.3016C48.2452 24.2452 48.2503 24.1887 48.2401 24.1272C48.1939 23.8142 48.1426 23.4962 48.0913 23.1832C48.0554 22.9472 48.0195 22.7112 47.9784 22.4752C47.963 22.388 47.9579 22.2957 47.9476 22.2085C47.9323 22.0648 47.9169 21.916 47.8809 21.7724C47.7989 21.4133 47.7116 21.049 47.6142 20.6643C47.5731 20.5001 47.5321 20.3308 47.4859 20.1512L47.4808 20.1307L47.4654 20.1153C47.4603 20.1102 47.4398 20.0897 47.409 20.064L47.3217 19.9871C47.3679 19.7459 47.3833 19.5407 47.2294 19.315C47.137 19.1816 47.0857 19.0072 47.0396 18.843C47.0242 18.7866 47.0088 18.7353 46.9934 18.684C46.9729 18.6224 46.9626 18.5557 46.9472 18.489C46.9318 18.4018 46.9113 18.3146 46.8805 18.2274C46.6189 17.5656 46.3573 16.9038 46.0956 16.2522L45.8596 15.6571L45.5621 15.5545C45.6236 15.1954 45.4338 14.9183 45.244 14.6516C45.1311 14.4874 45.008 14.3284 44.89 14.1642C44.7976 14.0411 44.7104 13.9231 44.6232 13.7999C44.5565 13.7127 44.4949 13.6204 44.4334 13.528C44.1204 13.0817 43.7921 12.6251 43.3817 12.2352C43.2945 12.1531 43.2278 12.0557 43.156 11.953C43.0226 11.7581 42.8841 11.558 42.6224 11.4708C42.6173 11.4605 42.6121 11.4452 42.6121 11.4349C42.6019 11.399 42.5916 11.3631 42.5711 11.3323C42.5403 11.2912 42.5147 11.2553 42.4839 11.2143C42.3967 11.0912 42.3043 10.9629 42.1915 10.8654C41.9349 10.6448 41.6528 10.4499 41.3758 10.2652C41.1911 10.1421 41.0012 10.0138 40.8268 9.87528C40.3394 9.5059 39.8008 9.19296 39.2775 8.89541C39.1441 8.81845 39.0158 8.74149 38.8876 8.66454C38.7439 8.58245 38.59 8.52602 38.4053 8.45933C38.313 8.42855 38.2155 8.39263 38.1078 8.34646C37.7589 7.9976 37.5178 7.87448 37.1843 7.85909C36.8406 7.52049 36.4302 7.40249 36.03 7.29475C35.9274 7.2691 35.8299 7.23832 35.7325 7.20754C35.4503 7.1152 35.0963 7.00233 34.7628 6.88433C34.5679 6.81251 34.3729 6.73556 34.178 6.66373C33.8701 6.54574 33.547 6.42261 33.2289 6.31487C32.998 6.23792 32.7518 6.19175 32.5158 6.14558C32.4285 6.13019 32.3413 6.11479 32.2541 6.09427C32.2285 6.08914 32.2028 6.08401 32.172 6.07375C32.0746 6.0481 31.9668 6.02245 31.8745 6.05323C31.6641 6.11992 31.4692 6.06349 31.2691 6.00706L31.1665 5.97628C31.0485 5.9455 30.9151 5.90958 30.792 5.9301C30.5252 5.97627 30.2533 5.95576 29.9917 5.93523C29.8634 5.92497 29.7352 5.91471 29.612 5.90958C29.5043 5.90958 29.3914 5.90445 29.2837 5.90445C28.7604 5.89419 28.2166 5.88393 27.6984 5.79159C27.3393 5.72489 27.0264 5.75054 26.6826 5.8788L26.2055 5.66333L26.1747 5.68385C26.1029 5.74028 26.0516 5.77619 26.0208 5.80184C25.9388 5.79671 25.8721 5.78645 25.8156 5.78132C25.6925 5.76593 25.6155 5.75567 25.5335 5.76593C25.477 5.77106 25.4206 5.79672 25.3693 5.82237C25.318 5.84802 25.2667 5.86341 25.241 5.86341C24.3843 5.67872 23.5891 5.92497 22.8144 6.16097C22.681 6.20201 22.5476 6.24305 22.4091 6.28409C22.0243 6.39182 21.6498 6.54573 21.2907 6.69451C20.9572 6.8279 20.6187 6.97155 20.2698 7.07928C20.1723 7.11006 20.0697 7.13572 19.9671 7.1665C19.4951 7.29475 19.0077 7.43327 18.6332 7.80778C18.033 7.87961 17.5507 8.19768 17.0839 8.5055C16.9248 8.6081 16.7658 8.71584 16.5965 8.81332C16.4888 8.87488 16.3862 8.9467 16.2887 9.01853C16.0937 9.15704 15.909 9.29043 15.7038 9.3366C15.2165 9.44947 14.8728 9.75216 14.5393 10.0446C14.4264 10.1472 14.3033 10.2498 14.1802 10.3421L14.0775 10.4191C13.8416 10.5986 13.6004 10.7833 13.385 11.0091C13.2465 11.1579 13.0771 11.2861 12.9181 11.4092C12.6103 11.6452 12.2922 11.8915 12.1229 12.2814C12.1178 12.2916 12.0973 12.307 12.0819 12.3173C12.0716 12.3224 12.0613 12.3327 12.0511 12.3429C11.5175 12.8149 11.0763 13.3844 10.6762 13.9282L10.5018 14.1693C10.0041 14.8465 9.49108 15.5442 9.07553 16.3138C8.89084 16.6524 8.71643 17.0012 8.54713 17.3398C8.35218 17.7297 8.14696 18.1299 7.93662 18.5147C7.79298 18.7763 7.60829 19.1713 7.68524 19.551C7.72629 19.7357 7.66985 19.8947 7.61855 20.0589C7.5929 20.141 7.56211 20.2231 7.54672 20.3154C7.51081 20.5103 7.44409 20.7156 7.33636 20.9721C7.16193 21.3928 7.1055 21.8391 7.0542 22.2752C7.01316 22.5984 6.97213 22.937 6.87979 23.2602C6.63866 24.0297 6.59762 24.8608 6.55658 25.6611ZM7.35176 27.544C7.38768 27.4619 7.42358 27.3747 7.40819 27.2874C7.22863 25.9074 7.43898 24.5222 7.64419 23.1832L7.67497 22.9883C7.71089 22.742 7.74167 22.4855 7.77245 22.2392C7.80836 21.9622 7.83913 21.6749 7.8853 21.3927C8.01869 20.5668 8.24955 19.8844 8.58815 19.3099C8.65484 19.2021 8.68565 19.0841 8.7113 18.9661C8.73182 18.8789 8.75746 18.7866 8.79851 18.7045C9.0858 18.0837 9.46031 17.504 9.81943 16.9397C10.0708 16.5498 10.3273 16.1445 10.5531 15.7341C10.5633 15.7135 10.5787 15.6879 10.589 15.6674C10.6557 15.5596 10.7224 15.4468 10.6813 15.2621C10.6659 15.1954 10.7685 15.0671 10.8352 14.9799L10.8763 14.9235C11.0558 14.6875 11.2354 14.4566 11.4201 14.2206C11.615 13.9692 11.81 13.723 11.9998 13.4716C12.0819 13.369 12.1434 13.251 12.2153 13.133C12.246 13.0817 12.2717 13.0355 12.3025 12.9842L12.6719 12.8919L12.6975 12.8816C12.718 12.8662 12.7385 12.8508 12.7539 12.8406C12.795 12.8149 12.8309 12.7893 12.8412 12.7431C12.8668 12.5225 13.0207 12.4302 13.19 12.3224C13.2413 12.2916 13.2978 12.2557 13.3439 12.2198C13.7133 11.9479 14.0622 11.6657 14.4008 11.3887C14.5341 11.281 14.6624 11.1784 14.7753 11.086C14.842 11.0552 14.9138 11.0296 14.9856 11.0091C15.1447 10.9578 15.278 10.9065 15.3345 10.7987C15.3806 10.7064 15.4833 10.6551 15.5961 10.6089C15.7449 10.5422 15.9244 10.4601 15.9398 10.2293C16.1143 10.2498 16.2271 10.1369 16.3297 10.0343C16.4375 9.93171 16.5298 9.84451 16.6786 9.86503C16.7966 9.88555 16.9043 9.78807 17.0223 9.69059C17.0839 9.63416 17.1506 9.57773 17.2173 9.54694C17.3866 9.45973 17.561 9.38278 17.7303 9.30582C17.9509 9.20322 18.1767 9.10062 18.3921 8.98262C18.5768 8.88001 18.7564 8.76201 18.9257 8.64915C19.1052 8.53115 19.295 8.4029 19.49 8.30029C19.7465 8.16177 20.0389 8.04891 20.3929 7.9463C20.6443 7.87448 20.9059 7.80778 21.1625 7.74622C21.5626 7.64875 21.9731 7.54614 22.3681 7.40762C22.4502 7.37684 22.5425 7.37684 22.6348 7.37171C22.8247 7.36658 23.0453 7.35632 23.2146 7.13059C23.2915 7.02798 23.4352 7.01772 23.5942 7.00233C23.7225 6.99207 23.8558 6.98181 23.979 6.92537C24.1944 6.8279 24.4612 6.83816 24.7383 6.84842C24.8819 6.85355 25.0307 6.85868 25.1692 6.84842C25.3642 6.83303 25.5489 6.80738 25.7695 6.7766C25.8669 6.76121 25.9695 6.74582 26.0773 6.73043C26.3287 6.85355 26.616 6.7766 26.9546 6.69451C27.0161 6.67912 27.0828 6.66373 27.1495 6.64834C27.1752 6.65347 27.2008 6.6586 27.2316 6.66373C27.3291 6.68425 27.4573 6.69964 27.5804 6.69964C27.8575 6.69451 28.1345 6.67912 28.4115 6.66373C28.9143 6.63808 29.4325 6.61243 29.9404 6.62782C30.2892 6.63808 30.6432 6.69965 30.9869 6.76121C31.2178 6.80225 31.4538 6.84329 31.6949 6.86894C32.2387 6.9305 32.7466 7.12546 33.2135 7.33067C33.588 7.48971 33.9882 7.65901 34.4088 7.74109C35.1527 7.88987 35.8197 8.19768 36.5482 8.55167C36.7585 8.65428 36.9586 8.80306 37.1536 8.94158C37.2408 9.00314 37.3229 9.06983 37.4101 9.12627C37.6871 9.31609 37.9949 9.46486 38.2873 9.61364C38.5746 9.75216 38.8722 9.90094 39.139 10.0805C39.2211 10.1369 39.3031 10.1934 39.3801 10.2549C39.4211 10.2857 39.4622 10.3165 39.5032 10.3473C39.5955 10.414 39.6828 10.4755 39.7751 10.5422C39.9803 10.6859 40.1907 10.8398 40.3908 10.9937C40.4728 11.0552 40.5498 11.1271 40.6216 11.1938C40.6985 11.2656 40.7755 11.3374 40.8627 11.399C41.0679 11.5529 41.268 11.7068 41.4732 11.8607C41.7913 12.0967 42.1197 12.3481 42.4377 12.5943C42.4942 12.6405 42.5352 12.7123 42.5814 12.7893C42.6173 12.8508 42.6532 12.9175 42.6994 12.974C42.8482 13.1433 42.9969 13.3126 43.1508 13.4767C43.3971 13.7538 43.6587 14.0359 43.8896 14.3284C44.0024 14.472 44.0897 14.6311 44.182 14.8003C44.2487 14.9235 44.3154 15.0517 44.3975 15.1697C45.4287 16.6986 45.9981 18.4428 46.4547 19.9563C46.8703 21.3466 47.0806 22.4239 47.1319 23.4603C47.137 23.5526 47.173 23.6347 47.2192 23.7373C47.2397 23.7835 47.2653 23.8348 47.2859 23.8963C47.1832 24.1323 47.0909 24.4555 47.2653 24.8813C47.3474 25.0814 47.3063 25.3533 47.2602 25.615C47.2397 25.7278 47.2243 25.8407 47.214 25.9536C47.2038 26.0716 47.1884 26.1947 47.1781 26.3127C47.1371 26.6923 47.0909 27.0822 47.1627 27.4721C47.1473 27.4926 47.1319 27.5183 47.1165 27.544C47.0652 27.6209 47.0088 27.7081 47.0088 27.8056C46.9934 28.6726 46.8395 29.5755 46.5265 30.6426C46.0187 32.3664 45.5518 33.6541 45.0029 34.8033C44.9208 34.9726 44.8284 35.1368 44.7361 35.2958C44.613 35.5061 44.4898 35.7267 44.3975 35.9576C44.2692 36.2654 44.0897 36.5527 43.9204 36.8298C43.7305 37.1324 43.5407 37.4403 43.4073 37.784C43.3509 37.9328 43.2534 38.061 43.1508 38.1995C43.0944 38.2765 43.0328 38.3586 42.9764 38.4458C42.9456 38.4971 42.9354 38.5638 42.9251 38.6254C42.9251 38.6407 42.92 38.6561 42.92 38.6715C42.5096 38.8306 42.212 39.2051 42.0889 39.713C42.0273 39.6873 41.9709 39.6668 41.9349 39.7078C41.8272 39.8207 41.7195 39.9284 41.6117 40.0362C41.268 40.3799 40.914 40.7339 40.6473 41.1854C40.6319 41.1905 40.6165 41.1905 40.6011 41.1956C40.519 41.2161 40.4113 41.2367 40.36 41.3136C40.0265 41.7856 39.5494 42.1088 39.0876 42.4166C38.903 42.5397 38.7131 42.668 38.5336 42.8065C38.2873 42.9912 38.0718 43.1349 37.7999 43.2323C37.3228 43.4016 36.897 43.7197 36.4866 44.0327L36.4302 44.0737C36.3686 44.1199 36.3019 44.1199 36.2198 44.125C36.1224 44.125 36.0146 44.125 35.9171 44.2225C35.8248 44.3097 35.6812 44.3661 35.5426 44.4123L35.4349 44.4533C35.0706 44.5867 34.6961 44.7304 34.3165 44.8432C34.101 44.9099 33.8753 44.9612 33.6547 45.0177C33.4854 45.0587 33.3161 45.0998 33.1519 45.1459C32.998 45.187 32.8441 45.2383 32.6902 45.2896C32.485 45.3563 32.2695 45.423 32.0592 45.4743C31.8539 45.5256 31.6385 45.5563 31.4281 45.5871C31.3153 45.6025 31.2075 45.623 31.0947 45.6384C30.0019 45.8283 28.8989 45.9155 27.8164 45.8898C27.7446 45.8898 27.6677 45.8796 27.5958 45.8693C27.3855 45.8436 27.17 45.818 27.011 45.9514C26.9597 45.9411 26.9084 45.936 26.8622 45.9257C26.7647 45.9103 26.6826 45.8898 26.5954 45.8898C26.58 45.8898 26.5646 45.8898 26.5492 45.8898C25.7387 45.9462 24.9178 45.8847 24.1278 45.8283L24.0405 45.8231C23.9328 45.8129 23.82 45.8231 23.7071 45.8283C23.5173 45.8385 23.3377 45.8488 23.1941 45.7872C22.8914 45.6487 22.5784 45.6179 22.2758 45.5871C22.0859 45.5666 21.891 45.5461 21.7011 45.4999C21.4651 45.4384 21.224 45.4024 20.988 45.3665C20.8239 45.3409 20.6546 45.3152 20.4904 45.2793C20.4186 45.2639 20.3467 45.2331 20.2698 45.2024C20.1877 45.1716 20.1056 45.1357 20.0133 45.1151C19.8696 45.0895 19.726 45.0792 19.5567 45.069C19.49 45.0638 19.4182 45.0587 19.3464 45.0536C19.3464 45.0536 19.3463 45.0485 19.3412 45.0485C19.295 44.9715 19.2232 44.8484 19.1206 44.8484C18.9051 44.8484 18.705 44.7612 18.4947 44.6688C18.2125 44.5457 17.9201 44.4174 17.5713 44.4995L17.52 44.2994L17.4994 44.284C17.1814 44.0686 16.853 43.8634 16.5298 43.6633C15.7295 43.1605 14.8984 42.6424 14.2007 41.9857C13.4619 41.288 12.7847 40.5543 12.1845 39.8156C12.0254 39.6206 11.8664 39.4205 11.7074 39.2205C11.5124 38.9742 11.3226 38.7331 11.1276 38.492C11.0456 38.3945 10.984 38.2611 10.9173 38.1226C10.8506 37.9892 10.7839 37.8507 10.6967 37.7276C10.6352 37.6455 10.5531 37.589 10.4761 37.5326C10.4659 37.5275 10.4556 37.5172 10.4453 37.5121L10.6454 37.3479L10.2812 37.2043L10.3222 37.0606L10.3119 37.0401C10.2555 36.9324 10.2042 36.8195 10.1529 36.7066C10.04 36.4655 9.92717 36.2141 9.76814 35.9986C9.57832 35.737 9.48082 35.4241 9.3936 35.1265C9.32178 34.8905 9.24484 34.6391 9.12172 34.4185C9.00372 34.2082 8.94213 33.9722 8.87544 33.7465C8.78823 33.4386 8.70104 33.1206 8.48557 32.8435C8.44452 32.7922 8.44452 32.6845 8.44452 32.5768C8.44452 32.5152 8.44451 32.4536 8.43938 32.3921L8.43425 32.3562L8.40346 32.3408C8.3419 32.31 8.28034 32.2792 8.24443 32.2638C8.2393 32.1971 8.23418 32.1355 8.22905 32.074C8.21879 31.9252 8.20851 31.7816 8.17773 31.6482C8.00843 30.9351 7.83915 30.2271 7.65446 29.4781L7.45951 28.6829C7.53647 28.4366 7.65445 28.0006 7.31585 27.6209C7.33124 27.585 7.3415 27.5645 7.35176 27.544Z" fill="#91ADA3"/>
<path d="M12.0511 29.0266C12.1178 29.3857 12.3999 29.555 12.677 29.7141C12.7334 29.7449 12.7898 29.7808 12.8463 29.8167C13.0515 30.0527 13.267 30.2784 13.4824 30.499C13.6363 30.6581 13.7851 30.8171 13.9339 30.9761C14.1904 31.2532 14.4366 31.5507 14.6778 31.838C14.7752 31.9509 14.8676 32.0689 14.9651 32.1818C14.9087 32.2382 14.8265 32.2792 14.7445 32.3254C14.5598 32.428 14.3494 32.5409 14.3648 32.8436L13.8467 32.9564L13.8313 32.9718C13.7595 33.0488 13.6774 33.1257 13.6004 33.2027C13.4055 33.3976 13.2002 33.5977 13.0156 33.8234C12.9129 33.9466 12.8001 34.0646 12.6872 34.1826C12.3435 34.5314 11.9895 34.8957 11.9741 35.4754V35.4908L11.9844 35.5062C12.01 35.5523 12.0305 35.5985 12.0562 35.6498C12.1075 35.7576 12.1639 35.8653 12.2255 35.973C12.2665 36.0449 12.3127 36.1218 12.3538 36.1988C12.6513 36.7272 12.9643 37.271 13.6261 37.4916L13.662 37.5891L13.7646 37.5737V37.5685C13.8261 37.5583 13.8775 37.5531 13.9288 37.548C14.0519 37.5326 14.1494 37.5172 14.2468 37.4916L14.334 37.4711C14.4828 37.4352 14.6316 37.3992 14.7547 37.312C15.0369 37.1119 15.3191 36.9016 15.5858 36.6964C15.791 36.5374 16.0014 36.3834 16.2117 36.2295L16.263 36.1936C16.4888 36.0295 16.7248 35.8602 16.6837 35.5062C16.694 35.4908 16.7453 35.4497 16.7812 35.4241C16.8017 35.4087 16.8222 35.3933 16.8479 35.3779C16.8889 35.419 16.9248 35.46 16.9607 35.501C17.0633 35.6088 17.1608 35.7114 17.2429 35.8191C17.5712 36.2603 18.0022 36.5938 18.4896 36.7836C18.6435 36.8452 18.7666 36.9273 18.9 37.0196C18.9923 37.0812 19.0847 37.1427 19.1873 37.1992C19.0385 37.3223 18.8948 37.4454 18.7512 37.5634C18.351 37.8969 17.9714 38.215 17.6226 38.5689C17.5251 38.6664 17.4122 38.7434 17.2942 38.8255C17.1147 38.9435 16.93 39.0717 16.8017 39.2821C16.499 39.7694 16.3707 40.2158 16.7299 40.8211C16.9453 41.1905 17.7765 41.5856 18.151 41.4163C18.31 41.3496 18.4793 41.3034 18.6486 41.2572C18.9257 41.1854 19.2129 41.1084 19.4643 40.9186C19.6234 40.7955 19.8234 40.7288 20.0338 40.6518C20.1415 40.6159 20.2492 40.5749 20.357 40.5287C20.4391 40.4928 20.5519 40.4364 20.6186 40.344C20.9829 39.8412 21.5216 39.6155 22.0449 39.3949C22.1167 39.3641 22.1885 39.3334 22.2603 39.3026C22.327 39.3487 22.3937 39.3949 22.4604 39.436C22.6143 39.5334 22.7631 39.6206 22.799 39.7335C22.8554 39.9028 22.9888 39.9541 23.0914 39.99C23.1889 40.0259 23.2505 40.0516 23.2812 40.1337C23.3838 40.4056 23.5993 40.6416 23.9174 40.8263C24.1585 40.9648 24.3432 41.1649 24.5433 41.3701C24.7229 41.5599 24.9075 41.7548 25.1333 41.8985C25.1435 41.9036 25.1589 41.9293 25.1692 41.9549C25.1794 41.9806 25.1948 42.0062 25.2154 42.0267C25.4821 42.3602 25.8207 42.6167 26.1439 42.863C26.3184 42.9964 26.4928 43.1349 26.6621 43.2785C26.7801 43.3863 26.9237 43.3811 27.0417 43.3811C27.1084 43.3811 27.17 43.3811 27.2008 43.4017C27.4419 43.5607 27.683 43.6069 27.9293 43.6069C28.078 43.6069 28.2217 43.5915 28.3654 43.5761C28.6014 43.5504 28.8271 43.5248 29.0528 43.571C29.1964 43.5966 29.3709 43.5248 29.494 43.4581C29.8223 43.2734 30.1712 43.0682 30.4995 42.8373C30.5355 42.8117 30.5714 42.786 30.6124 42.7604C30.8792 42.5808 31.1767 42.3807 31.1973 41.9806C31.2178 41.9857 31.2434 41.9908 31.2639 41.9908C31.305 41.9908 31.346 41.9908 31.3871 41.9908H31.4692L31.4897 41.9703C32.0643 41.3085 32.4029 40.6416 32.5311 39.9336L32.7261 39.872L32.7363 39.8361C32.7466 39.8002 32.7569 39.7643 32.7671 39.7335C32.7928 39.6617 32.8133 39.595 32.8133 39.5283C32.8133 39.4462 32.8184 39.3641 32.8184 39.2821C32.8287 39.0358 32.8441 38.7844 32.7415 38.5792L32.7158 38.5228C32.6491 38.3945 32.5516 38.1996 32.5722 38.1175C32.6286 37.8866 32.5157 37.7276 32.4183 37.5891C32.3413 37.4762 32.2695 37.3787 32.2798 37.2556L32.2849 37.2248L32.2644 37.2043C32.1104 37.0555 31.9565 36.9016 31.8026 36.7477C31.464 36.4091 31.11 36.0551 30.7458 35.7319C30.1199 35.1778 29.5453 34.5519 29.0272 33.8747C28.9964 33.4592 29.2324 33.2796 29.4786 33.0847C29.6171 32.9769 29.7608 32.8641 29.8531 32.7102C30.3764 32.5101 30.7561 32.1304 31.1255 31.7611C31.3153 31.5712 31.5102 31.3763 31.7205 31.207C31.777 31.166 31.8078 31.0941 31.8385 31.0326C31.8539 30.9967 31.8847 30.9402 31.9001 30.93C32.1258 30.8992 32.2695 30.7658 32.4029 30.6375C32.4491 30.5965 32.4901 30.5555 32.5414 30.5144C32.8133 30.2989 33.0852 30.0886 33.3366 29.8988L33.5777 29.7141L34.9783 30.4015L35.009 30.3862C35.2656 30.2528 35.44 30.2425 35.6144 30.3502C35.676 30.3913 35.8043 30.3759 35.8607 30.3195C36.0043 30.1809 36.189 30.1348 36.3788 30.0886C36.502 30.0578 36.6302 30.027 36.7533 29.9706C36.9842 29.8577 37.2356 29.7808 37.4818 29.709C37.8769 29.591 38.2924 29.4678 38.6516 29.1754C39.1082 28.806 39.616 28.4828 40.1085 28.175C40.3651 28.0108 40.6318 27.8415 40.8935 27.6671C40.9602 27.6209 40.9704 27.5286 40.9807 27.4568C40.9807 27.4516 40.9807 27.4465 40.9807 27.4414C41.032 27.4157 41.0782 27.3952 41.1295 27.3696C41.268 27.308 41.3962 27.2464 41.4937 27.1489C41.5707 27.0669 41.6168 26.9591 41.6579 26.8565C41.6887 26.7796 41.7143 26.7077 41.7554 26.6513C41.8169 26.559 41.9042 26.4769 41.9914 26.3948C42.017 26.3691 42.0426 26.3486 42.0632 26.323L42.2273 26.4615L42.2684 26.4102C42.6686 25.9126 43.0995 25.4508 43.5099 25.0096C43.6638 24.8455 43.8177 24.6762 43.9716 24.5069L43.9922 24.4812L43.9614 24.3581C43.9409 24.2811 43.9203 24.1888 43.8998 24.0964C43.7562 23.3885 43.4022 23.1063 42.607 23.0499C41.8733 23.0037 41.2731 23.3166 40.6883 23.6244L40.5856 23.6758C40.519 23.7117 40.4677 23.763 40.4215 23.8143C40.401 23.8348 40.3753 23.8604 40.3548 23.881C40.2522 23.9733 40.1444 24.0708 40.0418 24.1683C39.8058 24.3889 39.5596 24.6146 39.3082 24.8147C38.9542 25.0968 38.6002 25.3687 38.2155 25.5688C38.159 25.5996 38.1026 25.6304 38.0411 25.6663C37.7691 25.8253 37.5177 25.9741 37.1894 25.8202L37.1535 25.5637C37.3793 25.1994 37.6768 24.9275 37.9641 24.6659C38.077 24.5633 38.1898 24.4607 38.3027 24.3529C38.3232 24.3529 38.3437 24.3529 38.3694 24.3529C38.4771 24.3581 38.6054 24.3632 38.6977 24.2914C38.8106 24.2042 38.867 24.0503 38.8875 23.9836V23.9784C40.2522 23.1679 41.2526 22.3675 41.7092 21.1004L41.7143 21.085L41.5655 20.3719L41.268 20.0435L41.2526 20.0384C40.3651 19.7562 39.7597 20.1666 39.2364 20.654C38.826 21.0337 38.3643 21.3723 37.9128 21.7006C37.7538 21.8186 37.5896 21.9366 37.4305 22.0546C37.3228 22.1367 37.2048 22.2085 37.0868 22.2803C36.8662 22.4137 36.6354 22.5574 36.4763 22.7523C36.1223 23.1986 35.6914 23.4757 35.1271 23.6193C35.086 23.6296 35.0245 23.6091 34.9629 23.5885C34.9578 23.5885 34.9526 23.5834 34.9475 23.5834C34.9629 23.5526 34.9783 23.5218 34.9885 23.4911C35.0347 23.3936 35.0706 23.3115 35.1271 23.2602C35.5734 22.8344 36.071 22.3727 36.6456 21.8596C36.9739 21.5621 37.3177 21.2594 37.6819 20.9875C38.0257 20.731 38.3643 20.4488 38.6926 20.1461C39.1287 19.746 39.6725 19.1098 39.416 18.171C39.416 18.1607 39.4262 18.1299 39.4365 18.1094C39.4467 18.0889 39.4519 18.0684 39.457 18.053L39.4673 18.0222L39.4467 17.9965C39.1492 17.6528 38.7952 17.6887 38.4771 17.7246C38.3335 17.74 38.2001 17.7554 38.077 17.7349L38.0462 17.7298L38.0256 17.7503C37.9949 17.7811 37.9641 17.8067 37.9333 17.8324C37.8769 17.8785 37.8307 17.9247 37.7845 17.9555C37.6101 18.0735 37.4305 18.1915 37.251 18.3044C36.8354 18.5711 36.3994 18.8482 36.03 19.1868C35.9274 19.2791 35.8145 19.3509 35.7068 19.4176C35.5631 19.51 35.4143 19.6023 35.2963 19.7357C34.8038 20.2795 34.2344 20.7618 33.5931 21.1722C33.4495 21.2645 33.3263 21.3877 33.2083 21.5108C33.1724 21.5467 33.1365 21.5826 33.1006 21.6185C32.9364 21.7775 32.7825 21.9417 32.6286 22.1008L32.6132 22.1213C32.4439 22.2957 32.2797 22.4753 32.1207 22.6548C31.7462 23.0704 31.3512 23.5834 31.2947 24.2247C31.2486 24.7275 31.2999 25.2405 31.3512 25.7433L31.3717 25.9485C31.4743 27.0207 31.4692 27.662 30.243 28.4007L30.1968 28.4264C30.0942 28.488 29.9865 28.5495 29.8993 28.6367C29.8326 28.7034 29.7762 28.7753 29.7197 28.8471C29.6274 28.9651 29.5453 29.0779 29.4324 29.1344C29.3196 29.1959 29.2324 29.278 29.1451 29.3601C29.0477 29.4524 28.9502 29.5448 28.8271 29.591C28.7501 29.6217 28.7347 29.7243 28.7245 29.7859L27.2316 30.9967C27.1084 30.8787 27.0007 30.7401 26.893 30.6068C26.6159 30.2579 26.3286 29.8988 25.8412 29.8526L25.1179 28.9445L24.3637 28.883C24.5074 28.6367 24.728 28.4623 24.964 28.2776C25.2359 28.0673 25.5129 27.8518 25.6668 27.5081C25.9952 27.4157 26.1952 27.1746 26.3953 26.9386C26.5133 26.8001 26.6364 26.6513 26.7801 26.5487C26.9289 26.441 27.052 26.3076 27.17 26.1845C27.3342 26.01 27.5035 25.8356 27.7343 25.7073C28.2012 25.456 28.5962 24.9737 28.9092 24.5889C29.1554 24.2863 29.3709 24.04 29.6787 23.8707C29.7351 23.8399 29.807 23.7784 29.8275 23.7065C29.8942 23.4808 30.0737 23.3628 30.2584 23.2397C30.3354 23.1884 30.4174 23.1319 30.4893 23.0704C30.5354 23.0345 30.5816 22.9986 30.6381 22.9626C30.7407 22.896 30.8484 22.8241 30.9048 22.7215C31.1306 22.3111 31.5051 22.0289 31.8642 21.757C31.9565 21.6852 32.054 21.6185 32.1412 21.5467C33.4802 20.4796 34.7782 19.3458 35.8863 18.3659C35.9838 18.2787 36.0454 18.1556 36.1069 18.0222C36.1326 17.9658 36.1634 17.9042 36.1993 17.8375C36.4045 17.7503 36.4353 17.7246 36.4917 17.5246L36.7431 17.5912L36.7482 17.5143C36.7585 17.3604 36.8406 17.3347 36.9791 17.2988C37.0509 17.2783 37.1279 17.2629 37.1843 17.2065C37.8102 16.5857 38.2001 16.0368 38.4463 15.416C38.5746 15.0928 38.5438 14.8209 38.3437 14.5439C38.3232 14.5182 38.3027 14.4977 38.2822 14.4772C38.2411 14.4361 38.2206 14.4156 38.2206 14.3335C38.2309 14.0462 38.1283 13.7641 37.9231 13.5486C37.7127 13.328 37.4203 13.1946 37.1176 13.1895C37.0509 13.1895 36.9791 13.1843 36.9124 13.1792C36.5892 13.1587 36.2557 13.1382 35.9838 13.369C35.8453 13.487 35.6811 13.5178 35.5067 13.5435C35.3425 13.5742 35.1681 13.5999 35.0244 13.7128C34.8038 13.8821 34.5576 13.9641 34.2908 14.0514C34.219 14.077 34.1472 14.0975 34.0805 14.1232C33.5982 14.2976 33.1108 14.5028 32.644 14.6978L32.3208 14.8312C32.1156 14.9184 31.9155 15.0158 31.7154 15.1133L31.6846 15.1287C31.5872 15.1749 31.4999 15.2416 31.4178 15.3031C31.1972 15.4673 31.0023 15.611 30.7048 15.4622C30.6586 15.4365 30.6073 15.4622 30.5714 15.4827C30.5611 15.4878 30.5509 15.493 30.5457 15.4981C30.3508 15.5802 30.1558 15.6623 29.966 15.7443C29.5351 15.929 29.0939 16.1189 28.6475 16.2728C28.2114 16.4215 27.8421 16.6832 27.4829 16.9346C27.3085 17.0577 27.1341 17.1808 26.9494 17.2886C26.5903 17.504 26.2824 17.8375 26.0003 18.1607C25.9079 18.2684 25.8156 18.371 25.7181 18.4788C25.2564 19.0021 24.7742 19.5459 24.3894 20.1359C24.0662 20.6335 23.7224 21.2337 23.5942 21.9212C23.5326 22.2547 23.4351 22.5881 23.3377 22.9165C23.2351 23.2705 23.1273 23.6347 23.0658 24.0041C22.9273 24.8455 22.6656 25.4816 22.25 25.9946L22.2039 26.0562C22.0602 26.2409 21.9217 26.4102 21.7216 26.441C21.6857 26.4051 21.6549 26.3692 21.619 26.3384C21.5318 26.2409 21.4446 26.1485 21.3369 26.1332C21.2497 26.1229 21.2445 26.087 21.2497 25.9844C21.2497 25.9023 21.2548 25.7689 21.1009 25.7433C21.1009 25.7433 21.0906 25.7381 21.0855 25.7279C20.9162 25.5534 20.752 25.379 20.5827 25.2046C20.1979 24.8095 19.8029 24.4043 19.4387 23.9784C18.7923 23.2294 18.1818 22.4496 17.5866 21.6955C17.4635 21.5364 17.366 21.3671 17.2378 21.1517C17.1762 21.0439 17.1044 20.9208 17.0223 20.7874L17.0121 20.772C16.5093 20.3206 15.791 20.2231 14.7599 20.4591C13.7184 20.7002 12.8565 21.2748 12.0665 21.8442C11.497 22.2547 11.0301 22.778 10.5787 23.2858C10.4145 23.4705 10.2452 23.6604 10.0759 23.8399C9.7681 24.1631 9.53724 24.4863 9.37821 24.8044C9.24995 25.0609 9.173 25.3431 9.09091 25.6458C9.055 25.7843 9.01396 25.9228 8.96779 26.0716L8.95752 26.1075L8.98316 26.1332C9.89122 27.1028 10.8967 28.1186 12.0511 29.0266ZM13.4619 22.624L13.5389 22.4188L13.6722 22.5984C13.5183 23.0499 13.1695 23.2961 12.795 23.5578C12.7129 23.6142 12.6359 23.6706 12.5538 23.7271C12.1486 24.0297 11.6971 24.1888 11.261 24.3427C11.1738 24.3735 11.0763 24.394 10.9532 24.4145C10.9224 24.4196 10.8865 24.4248 10.8557 24.435L10.9891 24.1118C11.2713 24.0964 11.3739 23.8964 11.4611 23.7322C11.5124 23.6296 11.5637 23.5372 11.6458 23.4911C11.7638 23.4244 11.8869 23.3628 12.01 23.3012C12.1845 23.214 12.3691 23.1268 12.5384 23.0088C12.7077 22.8908 12.9181 22.819 13.1387 22.7472C13.2413 22.7113 13.3439 22.6805 13.4414 22.6394L13.4619 22.624ZM11.6406 25.0814L11.7227 24.8301L11.8561 24.9378L11.892 24.9275C11.9331 24.9122 11.9741 24.9019 12.0152 24.8865C12.1075 24.8557 12.1998 24.8249 12.2871 24.7839C12.3794 24.7377 12.4769 24.7018 12.5692 24.6608C12.8309 24.553 13.0977 24.4402 13.2926 24.2503C13.3798 24.1631 13.4773 24.0964 13.5748 24.0297C13.6774 23.9579 13.7851 23.8861 13.8774 23.7886L13.939 23.7271C14.0775 23.5885 14.216 23.4449 14.334 23.2858C14.5136 23.0447 14.6111 22.8754 14.5546 22.7728C14.4982 22.6753 14.5187 22.5881 14.5393 22.4855C14.5598 22.4034 14.5752 22.3111 14.5546 22.2136L14.5444 22.188C14.3289 21.9263 14.0416 21.7878 13.6517 21.7622C14.0724 21.4903 14.5239 21.3774 14.9959 21.2594C15.1959 21.2081 15.4063 21.1568 15.6064 21.0952L16.1399 21.8494L15.9552 22.3521C15.8218 22.4907 15.6884 22.6343 15.5602 22.778C15.2678 23.1012 14.9702 23.4346 14.6162 23.6706C14.3751 23.8348 14.1391 23.999 13.9031 24.1631C12.8514 24.9019 11.7638 25.6612 10.471 26.0767L10.0656 25.7843C10.0656 25.7484 10.0605 25.7125 10.0605 25.6766C10.0451 25.3944 10.0297 25.143 10.2401 24.9532L10.5171 25.2764L11.6406 25.0814ZM18.4126 24.235C18.4947 24.2965 18.5717 24.3529 18.6178 24.4248C18.7615 24.6659 18.9769 24.866 19.1873 25.0609C19.2796 25.1481 19.3771 25.2354 19.4643 25.3277C19.9517 25.8356 20.4339 26.3384 20.9162 26.8463C21.5472 27.5081 22.1731 28.1647 22.799 28.8265C22.8349 28.8676 22.8708 28.9138 22.9067 28.9548C22.9734 29.0369 23.0401 29.1241 23.1273 29.1857C23.4146 29.3755 23.6301 29.6423 23.8353 29.8988C23.9687 30.0629 24.1021 30.2322 24.256 30.381C24.2457 30.4067 24.2406 30.4323 24.2355 30.4477C24.2303 30.4682 24.2201 30.4888 24.2304 30.4888C24.0098 30.6119 23.7943 30.7555 23.5891 30.8941C23.0863 31.2224 22.5681 31.5661 21.9422 31.6944C21.6139 31.7611 21.2958 31.8842 20.988 32.0073C20.8085 32.074 20.6289 32.1458 20.4442 32.2074C20.1467 32.3049 19.8388 32.3767 19.4951 32.4588C18.6024 32.664 17.7303 32.8538 16.8479 32.8743C16.5452 32.5511 16.2476 32.2279 15.9552 31.9047C15.2832 31.166 14.5854 30.4067 13.8518 29.7038C13.585 29.4473 13.3183 29.1857 13.0617 28.9292C12.3281 28.1955 11.5688 27.4414 10.6916 26.8206C10.7018 26.8103 10.7172 26.8052 10.7223 26.8052C11.2148 26.8411 11.6355 26.6616 12.046 26.482C12.2204 26.4051 12.3999 26.3281 12.5795 26.2717C12.7077 26.2306 12.7898 26.087 12.8719 25.9485C12.8873 25.9177 12.9078 25.8869 12.9232 25.8612L13.0002 25.9639L13.6979 25.5996L13.7543 25.2764C13.7543 25.2764 13.7594 25.2764 13.7594 25.2713C13.7646 25.2661 13.7697 25.2661 13.7749 25.261C13.9442 25.3431 14.1032 25.3174 14.2058 25.1994C14.3905 24.984 14.6265 24.8147 14.8573 24.6556C15.1754 24.4299 15.5037 24.199 15.7089 23.8348C15.8782 23.5321 16.145 23.3166 16.4016 23.1114C16.5965 22.9524 16.8017 22.7882 16.9607 22.5881C17.1095 22.701 17.2173 22.8652 17.3301 23.0396C17.52 23.332 17.7149 23.6347 18.1407 23.7117C18.0689 23.9836 18.2587 24.1221 18.4126 24.235ZM23.4762 25.8459L23.7943 25.5945L23.6711 25.4354L23.5172 25.5073V25.2969L23.6917 25.379L24.1175 24.9994L23.9225 24.6659L24.7228 21.9417L24.8255 21.9674L24.7485 21.5775C25.0512 21.4082 25.1897 21.126 25.3282 20.8541C25.3898 20.7258 25.4565 20.5925 25.5386 20.4745C25.6001 20.3924 25.6566 20.3052 25.713 20.2179C25.9028 19.9255 26.0824 19.6536 26.3799 19.4433C26.6775 19.2278 26.9443 18.9662 27.2059 18.7148C27.365 18.5609 27.5291 18.4018 27.6933 18.2582C27.9447 18.0376 28.2217 17.8426 28.4936 17.6477L28.6424 17.5399C28.8168 17.4168 28.9912 17.2886 29.1811 17.2116C29.5761 17.0474 29.9865 16.9089 30.3867 16.7807L30.4328 16.7653C30.7201 16.6729 31.0331 16.5447 31.2229 16.3241C31.2793 16.3292 31.3307 16.3343 31.3768 16.3395C31.4897 16.3549 31.582 16.3651 31.6641 16.3292L31.7565 16.2882C32.2028 16.0932 32.6696 15.8931 33.0955 15.6469C33.2494 15.5597 33.3622 15.4981 33.5418 15.4981C33.5521 15.4981 33.5623 15.4981 33.5726 15.4981C33.7727 15.4981 33.983 15.4006 34.1626 15.298C34.1933 15.2826 34.2241 15.2621 34.2498 15.2467C34.4191 15.1492 34.573 15.0569 34.7782 15.0774C34.9065 15.0877 35.0604 15.0005 35.1476 14.9235C35.5016 14.6157 35.9274 14.4977 36.3788 14.3797C36.5687 14.3284 36.7636 14.2771 36.9534 14.2104L37.3074 14.9492C37.292 15.3647 37.0663 15.611 36.8508 15.8572C36.8149 15.8983 36.779 15.9342 36.7482 15.9752C36.6405 16.1035 36.502 16.2009 36.3583 16.3087C36.2147 16.4164 36.0608 16.5241 35.9428 16.6678C35.7735 16.8679 35.5734 17.0167 35.3579 17.1808C35.1014 17.3758 34.8346 17.5759 34.6345 17.8632C34.3678 18.2531 33.9625 18.6122 33.4033 18.9559C33.1262 19.1252 32.8697 19.3458 32.6235 19.5561C32.5568 19.6126 32.4901 19.669 32.4234 19.7254C32.29 19.8383 32.1515 19.9512 32.013 20.0589C31.6385 20.3616 31.2486 20.6745 30.9151 21.0337C30.7458 21.2132 30.5611 21.3928 30.3816 21.5569C30.0532 21.8699 29.7146 22.1931 29.4376 22.5779C29.3606 22.6856 29.2426 22.7677 29.1195 22.8549C28.9553 22.9678 28.7911 23.0806 28.6937 23.2756C28.3807 23.3577 28.1909 23.5783 28.0062 23.7886C27.9088 23.8964 27.8215 24.0041 27.7138 24.0862C27.4522 24.3016 27.2008 24.5325 26.9545 24.7531C26.8571 24.8455 26.7544 24.9327 26.657 25.025C26.5544 25.1174 26.4569 25.2097 26.3594 25.3021C26.1337 25.5175 25.8977 25.7381 25.6463 25.9177C25.5591 25.9792 25.5386 26.0665 25.518 26.1434C25.4924 26.2409 25.477 26.3025 25.3539 26.323C25.2051 26.3486 25.0871 26.4769 24.9691 26.6051C24.9229 26.6564 24.8768 26.7026 24.8306 26.7437C24.6869 26.8719 24.5433 27.0053 24.4048 27.1387C24.2868 27.2516 24.1688 27.3696 24.0559 27.4875C23.9533 27.5902 23.8507 27.6928 23.7481 27.7954C23.4813 28.057 23.3941 28.057 23.1119 27.7748C22.9837 27.6466 22.8554 27.5183 22.7221 27.3849L22.6451 27.308C22.6964 27.2362 22.7426 27.1643 22.7939 27.0976C22.9221 26.913 23.0504 26.7385 23.1478 26.5487C23.1786 26.4871 23.2351 26.4307 23.2915 26.3743C23.4249 26.2409 23.5737 26.087 23.4762 25.8459ZM30.3559 29.4832L30.5611 29.5037L30.8946 29.2164C31.146 29.001 31.3922 28.7906 31.6436 28.5803C31.6744 28.5546 31.7103 28.5341 31.7411 28.5085C31.8744 28.4213 32.0335 28.3084 31.9719 28.0775C32.1464 28.016 32.1874 27.8621 32.2284 27.7338C32.249 27.6671 32.2644 27.6055 32.2951 27.5594C32.5106 27.2413 32.6799 26.8873 32.4542 26.4564C32.4234 26.3948 32.4337 26.2871 32.4542 26.1537C32.4644 26.0767 32.4798 25.9895 32.485 25.8972V25.8766L32.249 25.5329C32.2695 25.3687 32.2797 25.2046 32.2951 25.0404C32.3464 24.3735 32.3926 23.7373 32.9569 23.2653L33.0031 23.2294L32.8646 23.0139C33.2442 22.9319 33.4546 22.6753 33.6752 22.4034C33.7778 22.2803 33.9317 22.1982 34.0959 22.111C34.2293 22.0392 34.3678 21.9674 34.4858 21.8648C34.6807 21.6955 34.8449 21.4903 35.0193 21.2799C35.0911 21.1927 35.1681 21.1004 35.245 21.0029C35.6452 20.9208 35.9274 20.6591 36.2198 20.377C36.4302 20.182 36.6456 19.9768 36.9072 19.8434L36.9586 19.8178L36.8816 19.5921C37.2048 19.6639 37.4049 19.4741 37.5896 19.3048C37.6717 19.2278 37.7537 19.156 37.8307 19.1098L38.5028 18.8379C38.5079 18.8738 38.513 18.9302 38.5028 18.9456L38.395 19.079C38.2001 19.315 38.0051 19.5613 37.7743 19.7614C37.3998 20.0897 37.0099 20.4129 36.6302 20.7207C36.4199 20.89 36.2096 21.0644 35.9992 21.2389C35.8248 21.3877 35.6401 21.5313 35.4605 21.6749C35.2553 21.834 35.045 22.0033 34.8449 22.1726C34.614 22.3675 34.3011 22.6394 34.3011 23.0653C34.3011 23.0704 34.2857 23.0909 34.2754 23.1012C34.26 23.1166 34.2447 23.1371 34.2344 23.1525C33.983 23.5783 34.0086 23.8758 34.3113 24.2042C34.3729 24.2709 34.4396 24.3324 34.5217 24.3991C34.5627 24.4299 34.6038 24.4658 34.6448 24.5069L34.6653 24.5274L35.9274 24.3632L35.9428 24.3376C36.0864 24.1272 36.307 24.0143 36.5379 23.8964C36.7944 23.763 37.056 23.6296 37.2202 23.3577C37.41 23.0396 37.7486 22.8754 38.0718 22.7164L38.1077 22.701C38.3181 22.6035 38.5489 22.4907 38.5797 22.1931C38.8465 22.1623 39.0415 22.0033 39.2313 21.8494C39.2775 21.8135 39.3236 21.7776 39.3698 21.7416C39.4878 21.6493 39.5955 21.5416 39.6981 21.439C39.7494 21.3877 39.7956 21.3415 39.8469 21.2902C40.0675 21.0798 40.2984 20.89 40.6421 20.8849C40.6472 21.0491 40.56 21.2132 40.4728 21.3517C40.1701 21.8391 39.8469 22.1726 39.4519 22.3983C39.2877 22.4907 39.1543 22.6343 39.0363 22.7574C38.6156 23.214 38.0872 23.5065 37.6255 23.7322C36.9534 24.0605 36.4507 24.6146 36.1736 25.3328C36.0248 25.7227 36.0659 26.1075 36.2865 26.3948C36.5225 26.7077 36.9175 26.8309 37.3946 26.7488C38.2565 26.5949 39.0671 26.1742 39.8674 25.4662C40.0316 25.3226 40.2214 25.1892 40.401 25.0661C40.5138 24.9891 40.6267 24.9122 40.7344 24.8301C40.8473 24.7429 40.9602 24.6505 41.073 24.5633C41.2629 24.4094 41.4578 24.2503 41.6682 24.1118C41.8169 24.0143 41.9862 23.9528 42.1658 23.8861C42.2325 23.8604 42.3043 23.8348 42.371 23.8091L42.766 24.2401C42.7506 24.2606 42.7353 24.2811 42.7199 24.2965C42.6634 24.3735 42.6019 24.4556 42.5352 24.5325C42.4274 24.6556 42.3197 24.7839 42.212 24.9121C41.9606 25.2148 41.7041 25.5226 41.4116 25.7792C41.2423 25.9228 41.0782 26.0716 40.9089 26.2204C40.3189 26.7437 39.7135 27.2875 38.9901 27.6517C38.9132 27.6928 38.8568 27.7543 38.8003 27.8159C38.7747 27.8467 38.749 27.8723 38.7183 27.9031C38.4617 28.1391 38.1796 28.3802 37.8153 28.5136C37.6819 28.5598 37.5639 28.6419 37.4459 28.7239C37.3484 28.7906 37.2561 28.8573 37.1535 28.9035C36.8047 29.0574 36.4558 29.1959 36.0813 29.3396C35.9376 29.396 35.794 29.4524 35.6503 29.5089C35.558 29.4576 35.4605 29.4011 35.3682 29.3498C35.1527 29.2267 34.927 29.0933 34.691 28.9958C33.6752 28.5752 33.1673 28.5598 32.3464 29.2985C32.0899 29.5294 31.8437 29.7859 31.6077 30.0322C31.3409 30.3092 31.0639 30.6016 30.7663 30.853C30.1558 31.3814 29.4889 31.8688 28.8425 32.3408L28.6783 32.4588C28.6116 32.5101 28.4936 32.5152 28.4012 32.5203C28.3756 32.5203 28.3551 32.5204 28.3294 32.5255L27.7856 31.6379L28.155 31.6225L28.3807 31.1352L28.4577 31.3301L28.5193 31.2942C28.9297 31.0633 29.1965 30.7914 29.3606 30.4323C29.6223 30.4272 29.7762 30.263 29.9198 30.0989C30.0429 29.9603 30.1609 29.8321 30.3456 29.8013L30.4123 29.791L30.3559 29.4832ZM19.1103 38.6921C19.3104 38.5587 19.4848 38.3843 19.6541 38.2201C19.726 38.1483 19.7978 38.0816 19.8696 38.0149C19.9671 37.9225 20.0697 37.8302 20.1774 37.7224L20.3365 37.5737L21.3728 38.4304C21.0906 38.7177 20.7623 38.9281 20.4391 39.1281C20.1928 39.2821 19.9414 39.4411 19.7157 39.6309C19.3976 39.9028 19.0129 40.0311 18.6076 40.1593C18.3664 40.2363 18.1202 40.3184 17.8893 40.4312L17.5918 40.0978C18.0073 39.5693 18.505 39.1076 19.1103 38.6921ZM21.0957 36.9837C21.0957 36.9734 21.0957 36.9632 21.0957 36.958C21.3163 36.9991 21.5267 36.9478 21.7268 36.8965C21.9269 36.8452 22.1218 36.7939 22.3219 36.84C22.3886 36.8554 22.4655 36.8452 22.5322 36.8195C22.8041 36.7015 23.0812 36.6451 23.3787 36.5887C23.4505 36.5733 23.5224 36.5579 23.5942 36.5425C24.1688 36.4245 24.7844 36.2244 25.5334 35.9166C25.8259 35.7986 26.1029 35.6242 26.3697 35.4549C26.4979 35.3728 26.6262 35.2958 26.7596 35.2189L26.8468 35.1676C26.9956 35.0804 27.1546 34.988 27.3136 34.9213C27.5958 34.8033 27.8882 34.6802 28.0422 34.3672L28.2884 34.4699L28.2525 34.5058L28.2884 34.5519C28.3448 34.6238 28.4013 34.7007 28.4628 34.7725C28.5911 34.9367 28.7193 35.106 28.863 35.265C29.1862 35.6088 29.5299 35.9371 29.8634 36.2603L29.9301 36.3219C30.0635 36.4501 30.1968 36.5733 30.3302 36.6964C30.5303 36.8811 30.7355 37.0709 30.9254 37.2659C31.0639 37.4044 31.1613 37.5891 31.2332 37.7327C31.6077 38.4817 31.9104 39.2308 31.582 40.1234C31.2845 40.9289 30.7458 41.4881 30.2122 41.9754C30.007 42.1601 29.7864 42.3397 29.5761 42.509C29.4838 42.5859 29.3914 42.6578 29.299 42.7347C28.4679 42.8219 27.8472 42.8168 27.2777 42.7142C26.8211 42.5039 26.5082 42.155 26.2106 41.8215C26.0413 41.6266 25.8618 41.4316 25.6617 41.2623C25.3795 41.0263 25.1127 40.7698 24.8511 40.5185C24.5946 40.2722 24.3227 40.0157 24.0456 39.7848C23.8097 39.5847 23.5839 39.3693 23.3633 39.1589C23.1735 38.9742 22.9734 38.7895 22.7682 38.61C22.4758 38.3586 22.1936 38.0764 21.9217 37.8097C21.773 37.6609 21.6242 37.5172 21.4754 37.3736C21.3779 37.2812 21.2958 37.2299 21.2138 37.2146C21.0906 37.1838 21.0906 37.1427 21.0957 36.9837ZM26.7544 34.1774C26.6211 34.239 26.4928 34.3108 26.3645 34.3826C26.2876 34.4237 26.2106 34.4699 26.1285 34.5109C26.0003 34.5776 25.8772 34.6494 25.7489 34.7212C25.4667 34.8803 25.1743 35.0496 24.8665 35.1471C23.666 35.537 22.6913 35.8089 21.7883 36.0141C21.2753 36.1321 20.7315 36.1834 20.2133 36.2295C20.003 36.2501 19.7927 36.2706 19.5823 36.2911C19.4951 36.3014 19.4028 36.286 19.3412 36.2552L19.3053 36.2398C18.9923 36.0859 18.6691 35.9268 18.3716 35.7422C18.2946 35.696 18.2331 35.6088 18.1715 35.5164C18.151 35.4857 18.1304 35.4549 18.1099 35.4292L18.1458 35.383C18.4947 35.5831 18.705 35.4651 18.8282 35.3112C19.372 35.383 20.3826 35.2137 20.6905 34.9521C20.6956 34.9572 20.7007 34.9624 20.7058 34.9675C20.7828 35.0496 20.829 35.0957 20.8854 35.065C20.9983 35.0034 21.1419 35.0085 21.2805 35.0137C21.4805 35.0239 21.7063 35.0291 21.8191 34.8136C21.9423 34.7828 22.0602 34.7571 22.1731 34.7315C22.4296 34.6699 22.6759 34.6186 22.9119 34.5519C23.1427 34.4904 23.3736 34.4134 23.5993 34.3467C23.7071 34.3108 23.8097 34.28 23.9174 34.2441L23.9431 34.2339L24.1072 33.885C24.297 33.9158 24.4766 33.926 24.6049 33.8234C24.6664 33.7721 24.7075 33.7003 24.7331 33.6028L24.8357 33.7465L24.887 33.6952C25.0153 33.5772 25.164 33.4951 25.3282 33.413C25.6155 33.2591 25.9131 33.1001 26.0413 32.7307L26.1542 32.823L26.9853 32.1715C27.3188 32.4485 27.524 32.8076 27.7446 33.1924L27.7702 33.2386C27.6266 33.7414 27.211 33.9671 26.7544 34.1774ZM25.872 31.956C25.8412 31.9765 25.8105 31.9971 25.7797 32.0176C25.6873 32.0791 25.595 32.1407 25.5027 32.2023C25.3026 32.3357 25.0922 32.469 24.9024 32.623C24.8101 32.6999 24.7485 32.8128 24.6972 32.9103C24.6921 32.9205 24.6869 32.9308 24.6818 32.941L24.6049 32.8282L24.5484 32.8795C24.1791 33.2232 23.7327 33.3874 23.2607 33.5567C23.1017 33.6131 22.9375 33.6747 22.7785 33.7414C22.4758 33.8696 22.1526 33.926 21.8396 33.9825C21.46 34.0492 21.0701 34.121 20.711 34.3108C20.357 34.2646 20.0184 34.3467 19.69 34.4237C19.3771 34.5006 19.0539 34.5776 18.7204 34.5365C18.2536 34.4801 18.1304 34.5571 17.8945 34.7264L17.0531 34.5981L16.7094 33.9671L16.812 33.7875C16.8581 33.7721 16.9094 33.7567 16.9556 33.7465C17.0787 33.7106 17.1916 33.6747 17.3096 33.6593C17.4276 33.6439 17.5507 33.6336 17.6739 33.6285C17.8329 33.6182 17.9919 33.608 18.151 33.5772C18.31 33.5464 18.4639 33.4848 18.6127 33.4284C18.6948 33.3976 18.7769 33.3617 18.8641 33.3361C18.9667 33.3002 19.0693 33.2642 19.1719 33.2694C19.8953 33.2796 20.5468 33.0539 21.1881 32.8282C21.3882 32.7615 21.5883 32.6897 21.7935 32.623C21.8961 32.5922 22.0038 32.5614 22.1116 32.5306C22.7118 32.3562 23.3274 32.1715 23.8199 31.7252C24.2252 31.6482 24.5228 31.3917 24.8049 31.1403C24.9742 30.9915 25.1435 30.8428 25.3385 30.7299C25.4514 30.8479 25.5899 30.93 25.7233 31.012C25.9439 31.1506 26.1593 31.2788 26.2619 31.5405C26.2055 31.7406 26.0465 31.8483 25.872 31.956ZM15.9706 22.3932L15.9911 22.4034L15.986 22.4086C15.9809 22.4034 15.9757 22.3983 15.9706 22.3932ZM16.0835 34.6494C15.8013 35.0701 14.688 35.932 13.9082 36.327L13.0925 35.3317C13.1643 35.2599 13.2362 35.1932 13.3131 35.1214C13.5286 34.9213 13.7492 34.7161 13.9134 34.4596C14.1288 34.1159 14.4469 33.8901 14.7804 33.649C14.9445 33.531 15.1139 33.413 15.278 33.2694C15.355 33.8132 15.6731 34.1723 15.9809 34.5263C16.0116 34.5673 16.0476 34.6084 16.0835 34.6494Z" fill="#91ADA3"/>
</svg>
