<svg width="36" height="37" viewBox="0 0 36 37" fill="none" xmlns="http://www.w3.org/2000/svg">
<g clip-path="url(#clip0_751_10348)">
<path d="M22.656 27.0189L21.912 19.2189C20.439 20.2899 15.606 20.2899 14.133 19.2189L13.386 27.0189C13.386 27.0189 14.76 27.8859 17.97 27.8829C21.18 27.8829 22.656 27.0189 22.656 27.0189Z" fill="#F2CFA8"/>
<path d="M21.9061 19.2189C20.4331 20.2899 15.6001 20.2899 14.1271 19.2189L13.9771 20.7969C14.8621 21.9159 16.4701 23.1069 18.0421 23.1129H18.0511C19.5841 23.1129 21.1531 22.0029 22.0651 20.9199L21.9061 19.2189Z" fill="#D8B58E"/>
<path d="M22.7731 27.0189C22.6111 25.3119 22.2421 21.4809 22.0801 19.7739C22.0621 19.5879 22.0441 19.4049 22.0261 19.2189C22.0171 19.1349 21.9301 19.0569 21.8491 19.1139C21.4261 19.4199 20.9041 19.5639 20.4031 19.6719C19.7401 19.8189 19.0591 19.8789 18.3841 19.8969C17.6821 19.9149 16.9771 19.8849 16.2811 19.7859C15.7081 19.7049 15.1171 19.5849 14.5861 19.3419C14.4481 19.2789 14.3131 19.2039 14.1901 19.1139C14.1091 19.0569 14.0221 19.1349 14.0131 19.2189C13.8511 20.9259 13.4821 24.7569 13.3201 26.4639C13.3051 26.6019 13.2931 26.7429 13.2811 26.8809C13.2751 26.9409 13.2541 27.0249 13.2841 27.0789C13.3561 27.2049 13.6081 27.2829 13.7251 27.3369C14.9341 27.8799 16.5361 27.9939 17.8411 28.0029C19.0381 28.0149 20.2591 27.9129 21.4141 27.5739C21.7801 27.4659 22.3891 27.3399 22.7131 27.1209C22.8391 27.0339 22.7221 26.8239 22.5931 26.9109C22.4551 27.0039 22.2961 27.0729 22.1431 27.1359C21.6601 27.3339 20.9401 27.4629 20.4301 27.5559C19.5361 27.7209 18.6211 27.7689 17.7151 27.7569C16.8781 27.7449 16.0411 27.6729 15.2251 27.4929C14.8141 27.4029 14.1961 27.2829 13.8121 27.1089C13.6861 27.0519 13.5601 26.9919 13.4461 26.9109C13.4671 26.9469 13.4851 26.9799 13.5031 27.0159C13.6651 25.3089 14.0341 21.4779 14.1961 19.7709C14.2141 19.5849 14.2321 19.4019 14.2471 19.2159C14.1871 19.2519 14.1301 19.2849 14.0701 19.3209C14.4901 19.6209 15.0061 19.7739 15.5011 19.8879C16.1521 20.0379 16.8211 20.1039 17.4841 20.1309C18.1861 20.1609 18.8911 20.1339 19.5901 20.0499C20.1841 19.9779 20.7871 19.8639 21.3481 19.6449C21.5641 19.5609 21.7771 19.4589 21.9661 19.3209C21.9061 19.2849 21.8491 19.2519 21.7891 19.2159C21.9511 20.9229 22.3201 24.7539 22.4821 26.4609C22.5001 26.6469 22.5181 26.8299 22.5361 27.0159C22.5511 27.1749 22.7881 27.1749 22.7731 27.0189Z" fill="#3D3D3D"/>
<path d="M29.304 30.289C29.265 31.135 28.884 31.903 28.296 32.503C27.618 33.196 26.712 33.646 25.809 33.979C24.657 34.402 23.439 34.642 22.224 34.798C19.395 35.167 16.443 35.158 13.617 34.774C12.423 34.612 11.232 34.357 10.098 33.934C9.20399 33.598 8.33099 33.127 7.66499 32.431C6.26699 30.97 7.13399 26.293 13.533 22.699C14.613 23.953 16.422 24.409 18.015 24.418C19.602 24.427 20.955 24.139 22.029 22.894C27.714 25.177 29.352 29.275 29.304 30.289Z" fill="#4D4D4D"/>
<path d="M18.1801 24.406C18.0181 24.397 15.3301 23.398 13.9351 22.153L15.2311 35.023C15.2311 35.023 16.6381 35.146 17.8651 35.146H17.9821C19.2091 35.146 20.8621 34.996 20.8621 34.996L22.1581 22.204C20.4481 23.68 18.3391 24.397 18.1801 24.406Z" fill="#F2F2F2"/>
<path d="M17.9729 24.415C17.8589 25.39 17.8559 26.398 17.8379 27.382C17.8229 28.192 17.8169 29.002 17.8019 29.812C17.7839 30.823 17.7659 31.834 17.7509 32.845C17.7449 33.292 17.7449 33.736 17.7389 34.18C17.7359 34.483 17.6999 34.813 17.7719 35.107C17.8199 35.305 18.0809 35.239 18.1019 35.062C18.1349 34.774 18.0929 34.468 18.0839 34.18C18.0719 33.736 18.0749 33.289 18.0749 32.845C18.0749 31.81 18.0839 30.775 18.0959 29.737C18.1019 28.951 18.1139 28.165 18.0959 27.379C18.0869 26.92 18.0689 26.461 18.0809 26.002C18.0959 25.492 18.1799 24.898 18.0359 24.403C18.0299 24.367 17.9789 24.379 17.9729 24.415Z" fill="#999999"/>
<path d="M24.7439 30.3519C24.7439 30.3519 25.4249 29.2419 25.6379 29.4579C25.8509 29.6709 26.2739 30.0939 26.2739 30.0939C26.2739 30.0939 25.8719 30.3519 24.7439 30.3519Z" fill="#F2F2F2"/>
<path d="M24.6539 30.265C24.6539 30.265 24.4439 30.514 24.7649 30.514C25.0859 30.514 26.4389 30.262 26.4389 30.262C26.4389 30.262 26.6759 30.178 26.5169 30.019C26.3549 29.86 26.1479 30.106 25.7369 30.166C25.3319 30.22 24.7319 30.187 24.6539 30.265Z" fill="#333333"/>
<path d="M11.754 29.3799C11.619 29.6019 13.866 32.9919 15.15 34.9449C15.402 34.9629 15.657 34.9719 15.909 34.9809L15.087 24.1329C14.307 23.8959 13.563 23.4399 13.032 22.6869C12.573 23.4189 11.451 25.4049 11.187 25.9569C10.944 26.4759 11.328 26.7369 11.652 26.9949C12.117 27.3579 12.543 27.6189 13.008 27.9819C12.726 28.2129 12.24 28.5759 11.754 29.3799Z" fill="#424242"/>
<path d="M15.177 24.1299C15.171 24.0789 15.153 24.0309 15.108 24.0159C14.334 23.7639 13.65 23.3439 13.092 22.5999C13.062 22.5579 12.993 22.5519 12.963 22.5999C12.357 23.5749 11.784 24.5919 11.241 25.6239C11.1 25.8879 10.899 26.2719 11.1 26.5779C11.52 27.2229 12.255 27.5709 12.834 27.9819C12.399 28.3539 12.024 28.7649 11.688 29.2929C11.685 29.2959 11.685 29.2989 11.685 29.2989C11.676 29.3109 11.67 29.3259 11.664 29.3439C11.604 29.5629 11.841 29.8899 11.922 30.0459C12.255 30.6639 12.633 31.2459 13.002 31.8279C13.458 32.5509 13.926 33.2619 14.394 33.9729C14.622 34.3209 14.853 34.6719 15.084 35.0199C15.189 35.1789 15.753 35.0829 15.909 35.0889C15.954 35.0919 16.005 35.0349 15.999 34.9719C15.726 31.3629 15.453 27.7479 15.177 24.1299ZM13.662 32.4909C13.242 31.8399 12.822 31.1859 12.42 30.5169C12.333 30.3729 11.814 29.6649 11.841 29.4309C12.177 28.9119 12.555 28.4979 12.996 28.1319C13.182 28.2639 13.719 28.6179 13.818 28.3329L12.93 27.7839C12.588 27.5289 12.24 27.2919 11.895 27.0399C11.487 26.7429 11.052 26.4159 11.4 25.7439C11.715 25.1349 12.054 24.5439 12.393 23.9529C12.564 23.6559 12.735 23.3619 12.909 23.0709C13.08 22.7859 13.041 22.8729 13.224 23.0949C13.314 23.2029 13.428 23.3049 13.53 23.4009C13.635 23.4999 15.006 24.3129 14.997 24.1569C15.126 25.8549 15.255 27.5499 15.384 29.2479C15.525 31.1139 15.666 32.9769 15.807 34.8429C15.807 34.8489 15.807 34.8519 15.807 34.8549C15.741 34.8549 15.294 34.8429 15.156 34.7529C15.066 34.6689 15.003 34.5399 14.931 34.4319C14.508 33.7869 14.082 33.1389 13.662 32.4909Z" fill="#333333"/>
<path d="M24.426 29.3799C24.561 29.6019 22.314 32.9919 21.03 34.9449C20.778 34.9629 20.523 34.9719 20.271 34.9809L21.093 24.1329C21.873 23.8959 22.617 23.4399 23.148 22.6869C23.607 23.4189 24.732 25.4049 24.993 25.9569C25.236 26.4759 24.852 26.7369 24.528 26.9949C24.063 27.3579 23.637 27.6189 23.172 27.9819C23.454 28.2129 23.94 28.5759 24.426 29.3799Z" fill="#424242"/>
<path d="M20.1809 34.9779C20.1749 35.0409 20.2259 35.0949 20.2709 35.0949C20.4269 35.0889 20.9909 35.1849 21.0959 35.0259C21.3269 34.6779 21.5549 34.3269 21.7859 33.9789C22.2509 33.2679 22.7189 32.5539 23.1749 31.8339C23.5439 31.2519 23.9219 30.6699 24.2549 30.0519C24.3389 29.8989 24.5729 29.5689 24.5129 29.3499C24.5069 29.3319 24.5009 29.3169 24.4919 29.3049C24.4919 29.3019 24.4889 29.2989 24.4889 29.2989C24.1529 28.7709 23.7779 28.3599 23.3429 27.9879C23.9219 27.5769 24.6569 27.2289 25.0769 26.5839C25.2779 26.2779 25.0739 25.8939 24.9359 25.6299C24.3929 24.5979 23.8199 23.5809 23.2139 22.6059C23.1839 22.5579 23.1149 22.5639 23.0849 22.6059C22.5269 23.3499 21.8429 23.7699 21.0719 24.0219C21.0299 24.0369 21.0089 24.0819 21.0059 24.1359C20.7269 27.7479 20.4539 31.3629 20.1809 34.9779ZM21.2489 34.4319C21.1799 34.5399 21.1139 34.6689 21.0239 34.7529C20.8829 34.8429 20.4389 34.8549 20.3729 34.8549C20.3729 34.8519 20.3729 34.8459 20.3729 34.8429C20.5139 32.9769 20.6549 31.1139 20.7959 29.2479C20.9249 27.5499 21.0539 25.8549 21.1829 24.1569C21.1709 24.3099 22.5449 23.4999 22.6499 23.4009C22.7489 23.3049 22.8629 23.2059 22.9529 23.0949C23.1389 22.8759 23.0999 22.7859 23.2709 23.0709C23.4449 23.3619 23.6159 23.6559 23.7869 23.9529C24.1229 24.5439 24.4649 25.1319 24.7799 25.7439C25.1279 26.4189 24.6929 26.7429 24.2849 27.0399C23.9399 27.2889 23.5919 27.5289 23.2499 27.7839L22.3619 28.3329C22.4639 28.6179 23.0009 28.2639 23.1869 28.1319C23.6249 28.4979 24.0059 28.9119 24.3419 29.4309C24.3689 29.6619 23.8499 30.3729 23.7629 30.5169C23.3609 31.1859 22.9409 31.8399 22.5209 32.4909C22.0979 33.1389 21.6749 33.7869 21.2489 34.4319Z" fill="#333333"/>
<path d="M22.236 22.4649C21.243 23.6919 19.533 24.1239 18.021 24.1329C16.515 24.1419 14.79 23.6799 13.806 22.4649C13.77 22.4199 13.683 22.3989 13.629 22.4169C11.25 23.2689 9.01496 24.7809 7.61396 26.9169C6.61796 28.4349 6.10196 30.4719 7.17296 32.0889C8.26196 33.7359 10.431 34.4049 12.261 34.7859C14.958 35.3469 17.796 35.3979 20.535 35.2119C23.886 34.9839 30.177 34.0029 29.406 29.2869C29.16 27.7749 28.212 26.4279 27.156 25.3629C25.833 24.0309 24.174 23.0499 22.413 22.4199C22.191 22.3419 22.098 22.6929 22.317 22.7709C24.717 23.6319 27.012 25.2129 28.32 27.4419C28.821 28.2939 29.151 29.2689 29.103 30.2649C29.064 31.0959 28.689 31.8489 28.113 32.4369C27.447 33.1179 26.556 33.5589 25.671 33.8859C24.54 34.3029 23.343 34.5369 22.152 34.6899C19.374 35.0499 16.476 35.0439 13.698 34.6659C12.525 34.5069 11.355 34.2579 10.242 33.8409C9.36296 33.5109 8.50496 33.0489 7.85096 32.3649C6.47996 30.9279 6.84596 28.8939 7.78196 27.3279C9.08096 25.1529 11.373 23.6109 13.719 22.7679C13.659 22.7529 13.602 22.7379 13.542 22.7229C14.592 24.0189 16.416 24.4899 18.015 24.4989C19.608 24.5079 21.447 24.0099 22.488 22.7229C22.638 22.5399 22.383 22.2819 22.236 22.4649Z" fill="#333333"/>
<path d="M21.0059 27.1149C19.7819 25.6479 19.2359 25.2669 17.8469 24.3279C19.6409 24.0579 22.1339 22.5429 22.6529 21.6729L22.9229 21.9069C22.9889 22.7799 23.6969 23.1159 23.3939 24.0219C23.1239 24.9309 22.4549 26.1729 21.6119 26.7099L21.0059 27.1149Z" fill="#F2F2F2"/>
<path d="M22.9139 24.0939C23.3639 23.2149 22.6949 22.7619 22.7609 21.8619L22.6289 21.7059C22.6349 21.6939 22.6439 21.6819 22.6529 21.6699L22.9229 21.9039C22.9889 22.7769 23.6969 23.1129 23.3939 24.0189C23.1239 24.9279 22.4549 26.1699 21.6119 26.7069L21.0089 27.1089C20.8559 26.9259 20.7119 26.7579 20.5769 26.6049L20.6819 26.5539C21.6209 26.1429 22.4969 24.9789 22.9139 24.0939Z" fill="#CCCCCC"/>
<path d="M22.599 24.2709C22.23 25.1379 21.531 26.1189 20.634 26.4969C20.577 26.5209 20.544 26.4309 20.592 26.4009C21.459 25.9029 22.134 25.1559 22.569 24.2529C22.578 24.2319 22.608 24.2499 22.599 24.2709Z" fill="#999999"/>
<path d="M21.522 25.3599C21.225 25.7889 20.841 26.1639 20.409 26.4549C20.352 26.4939 20.301 26.4039 20.355 26.3649C20.778 26.0649 21.156 25.7349 21.495 25.3389C21.51 25.3269 21.534 25.3449 21.522 25.3599Z" fill="#999999"/>
<path d="M17.7598 24.4809C18.3298 24.8649 18.9088 25.2459 19.4248 25.7019C19.9558 26.1699 20.4268 26.6979 20.8828 27.2409C20.9248 27.2919 20.9758 27.3069 21.0238 27.2979C21.0268 27.2979 21.0298 27.2979 21.0298 27.2979C21.0328 27.2979 21.0358 27.2949 21.0418 27.2949C21.0598 27.2889 21.0778 27.2829 21.0958 27.2709C21.4318 27.0459 21.8008 26.8389 22.0948 26.5599C22.6378 26.0439 23.0338 25.3929 23.3278 24.7089C23.5828 24.1209 23.7628 23.5449 23.4808 22.9359C23.3248 22.5999 23.1388 22.2849 23.0968 21.9099C23.0788 21.7539 22.8868 21.6459 22.7758 21.5499C22.7548 21.5319 22.7308 21.5169 22.7068 21.5109C22.4728 21.4059 22.2358 21.4179 22.2358 21.4179L22.2808 21.8829C21.8248 22.4109 21.1318 22.8069 20.5558 23.1249C19.6978 23.6019 18.7738 24.0069 17.7988 24.1629C17.6368 24.1839 17.6458 24.4059 17.7598 24.4809ZM18.2968 24.4209C19.2148 24.2109 20.0998 23.8029 20.9008 23.3319C21.5218 22.9659 22.2418 22.5309 22.6858 21.9369C22.6948 21.9429 22.7038 21.9519 22.7128 21.9609C22.8148 22.0509 22.7428 21.9849 22.7788 22.1499C22.8388 22.4169 22.9498 22.6599 23.0728 22.9029C23.2078 23.1729 23.3458 23.4699 23.2738 23.7789C23.2018 24.0969 23.0818 24.4119 22.9438 24.7089C22.6588 25.3149 22.2958 25.9359 21.7738 26.3709C21.5458 26.5629 21.2878 26.7219 21.0388 26.8839C20.5798 26.3379 20.0998 25.8069 19.5508 25.3479C19.1518 25.0149 18.7258 24.7149 18.2968 24.4209Z" fill="#999999"/>
<path d="M15.039 27.115C16.263 25.648 16.809 25.267 18.198 24.328C16.404 24.058 13.911 22.543 13.392 21.673L13.122 21.907C13.056 22.78 12.348 23.116 12.651 24.022C12.921 24.931 13.59 26.173 14.433 26.71L15.039 27.115Z" fill="#F2F2F2"/>
<path d="M13.131 24.0939C12.684 23.2149 13.35 22.7619 13.284 21.8619L13.416 21.7059C13.41 21.6939 13.401 21.6819 13.392 21.6699L13.122 21.9039C13.056 22.7769 12.348 23.1129 12.651 24.0189C12.921 24.9279 13.59 26.1699 14.433 26.7069L15.039 27.1089C15.192 26.9259 15.336 26.7579 15.471 26.6049L15.366 26.5539C14.424 26.1429 13.545 24.9789 13.131 24.0939Z" fill="#CCCCCC"/>
<path d="M13.446 24.2709C13.815 25.1379 14.514 26.1189 15.411 26.4969C15.468 26.5209 15.501 26.4309 15.45 26.4009C14.583 25.9029 13.908 25.1559 13.473 24.2529C13.467 24.2319 13.437 24.2499 13.446 24.2709Z" fill="#999999"/>
<path d="M14.52 25.3599C14.817 25.7889 15.201 26.1639 15.633 26.4549C15.69 26.4939 15.741 26.4039 15.687 26.3649C15.261 26.0649 14.886 25.7349 14.547 25.3389C14.535 25.3269 14.511 25.3449 14.52 25.3599Z" fill="#999999"/>
<path d="M18.2429 24.1569C17.2679 24.0009 16.3439 23.5959 15.4889 23.1189C14.9099 22.7979 14.2199 22.4049 13.7639 21.8769L13.8089 21.4119C13.8089 21.4119 13.5719 21.3999 13.3379 21.5049C13.3139 21.5139 13.2899 21.5259 13.2689 21.5439C13.1609 21.6399 12.9659 21.7479 12.9479 21.9039C12.9089 22.2819 12.7229 22.5939 12.5669 22.9299C12.2819 23.5389 12.4649 24.1149 12.7199 24.7029C13.0169 25.3869 13.4099 26.0379 13.9529 26.5539C14.2469 26.8329 14.6159 27.0399 14.9519 27.2649C14.9699 27.2769 14.9879 27.2859 15.0059 27.2889C15.0089 27.2889 15.0149 27.2919 15.0179 27.2919C15.0209 27.2919 15.0209 27.2919 15.0239 27.2919C15.0719 27.3009 15.1229 27.2859 15.1649 27.2349C15.6179 26.6919 16.0889 26.1639 16.6229 25.6959C17.1389 25.2399 17.7179 24.8589 18.2879 24.4749C18.3989 24.4059 18.4079 24.1839 18.2429 24.1569ZM16.4909 25.3479C15.9419 25.8039 15.4649 26.3379 15.0029 26.8839C14.7539 26.7219 14.4959 26.5629 14.2679 26.3709C13.7459 25.9359 13.3829 25.3149 13.0979 24.7089C12.9599 24.4119 12.8429 24.0969 12.7679 23.7789C12.6989 23.4669 12.8339 23.1729 12.9689 22.9029C13.0919 22.6569 13.2029 22.4169 13.2629 22.1499C13.2989 21.9849 13.2239 22.0509 13.3289 21.9609C13.3379 21.9519 13.3469 21.9459 13.3559 21.9369C13.7999 22.5339 14.5199 22.9689 15.1409 23.3319C15.9419 23.8029 16.8299 24.2109 17.7449 24.4209C17.3189 24.7149 16.8929 25.0149 16.4909 25.3479Z" fill="#999999"/>
<path d="M17.862 25.6538C17.367 25.7318 16.947 26.2868 16.605 26.5988C16.434 26.7518 15.414 27.5738 15.63 26.8448C15.723 26.5508 15.876 26.2868 15.939 25.9778C16.002 25.6388 15.939 25.3118 15.846 24.9878C15.783 24.8018 15.597 24.4298 15.723 24.2468C15.831 24.0608 16.14 24.1838 16.296 24.2468C16.821 24.4478 17.286 25.1438 17.874 25.1438H18.201C18.789 25.1438 19.251 24.4478 19.779 24.2468C19.935 24.1838 20.244 24.0608 20.352 24.2468C20.475 24.4328 20.289 24.8018 20.229 24.9878C20.136 25.3118 20.076 25.6388 20.136 25.9778C20.199 26.2868 20.352 26.5508 20.445 26.8448C20.661 27.5708 19.641 26.7518 19.47 26.5988C19.131 26.2898 18.708 25.7318 18.213 25.6538H17.862Z" fill="#333333"/>
<path d="M20.4899 26.8389C20.4329 26.6079 20.2949 26.3739 20.2169 26.1549C20.0669 25.7319 20.1899 25.3119 20.3489 24.9159C20.4599 24.6399 20.5709 24.3339 20.3219 24.1149C20.1779 23.9889 19.8629 24.1179 19.7279 24.1809C19.3409 24.3639 19.0319 24.7179 18.6539 24.9219C18.6179 24.7779 18.5249 24.7329 18.4469 24.8109C18.3389 24.9189 18.1769 24.9489 18.0599 24.9579C18.0539 24.9579 18.0479 24.9579 18.0389 24.9579H18.0359C18.0269 24.9579 18.0149 24.9579 18.0059 24.9579H18.0029C17.9969 24.9579 17.9909 24.9579 17.9879 24.9579C17.9819 24.9579 17.9789 24.9579 17.9729 24.9579C17.9699 24.9579 17.9699 24.9579 17.9669 24.9579C17.9609 24.9579 17.9519 24.9579 17.9459 24.9579C17.9309 24.9579 17.9189 24.9549 17.9189 24.9549C17.7989 24.9459 17.6339 24.9159 17.5259 24.8079C17.4599 24.7419 17.3849 24.7629 17.3399 24.8589C16.8809 24.5919 16.4879 24.1629 15.9209 24.0909C15.7769 24.0729 15.6149 24.2109 15.6149 24.3579C15.6119 24.9819 15.9569 25.4739 15.7919 26.1369C15.7349 26.3709 15.1739 27.4539 15.8939 27.1779C16.5629 26.9199 16.9109 26.2029 17.4959 25.8459C17.5259 25.8939 17.5619 25.9209 17.6069 25.9209C17.7359 25.9209 17.8409 25.7949 17.9819 25.7919C18.1229 25.7949 18.2279 25.9209 18.3569 25.9209C18.3989 25.9209 18.4319 25.8969 18.4619 25.8549C18.9809 26.1309 19.3409 26.6649 19.8599 27.0039C20.1629 27.2049 20.6159 27.3639 20.4899 26.8389ZM16.4489 26.6409C16.3619 26.7129 15.6149 27.2799 15.7109 26.8779C15.8009 26.4969 16.0109 26.1819 16.0559 25.7859C16.0979 25.4319 15.9449 25.0659 15.8219 24.7479C15.7259 24.5019 15.8849 24.1899 16.1639 24.2769C16.4369 24.3609 16.6619 24.5529 16.8779 24.7299C17.0279 24.8529 17.1659 24.9489 17.3039 25.0239C17.2979 25.1019 17.3039 25.1949 17.3309 25.3029C17.3819 25.5219 17.4209 25.6839 17.4659 25.7889C17.0849 26.0019 16.7909 26.3619 16.4489 26.6409ZM20.2829 27.0729C20.1299 27.0399 19.9709 26.9019 19.8449 26.8119C19.6049 26.6379 19.3949 26.4369 19.1849 26.2299C18.9629 26.0079 18.7559 25.8459 18.5219 25.7469C18.5609 25.6419 18.5969 25.4919 18.6419 25.2999C18.6569 25.2309 18.6659 25.1709 18.6689 25.1169C19.1009 24.9039 19.4639 24.4629 19.9019 24.3009C20.4689 24.0909 20.0789 25.2729 20.0699 25.3929C20.0339 25.8159 20.1059 26.1369 20.2559 26.5299C20.2649 26.5449 20.5109 27.1209 20.2829 27.0729Z" fill="#1A1A1A"/>
<path d="M11.853 14.3288C11.892 14.7698 10.608 15.3788 10.335 14.5238C10.179 14.0168 10.647 13.4738 10.569 12.9278C10.491 12.3428 9.519 11.9558 9.75 11.3318C9.945 10.9418 10.686 10.9418 11.034 11.0978C11.034 11.0978 11.697 12.5678 11.853 14.3288Z" fill="#F2CFA8"/>
<path d="M11.7989 14.3289C11.7539 14.7189 11.2259 14.8749 10.8989 14.8839C9.96591 14.9079 10.5869 13.5789 10.6559 13.1529C10.7459 12.5859 10.1729 12.2139 9.89691 11.8029C9.37191 11.0289 10.8809 10.9719 10.9559 11.1609C11.0279 11.3379 11.0849 11.5179 11.1449 11.7009C11.4269 12.5679 11.5049 13.4859 11.7719 14.3469C11.8019 14.4429 11.9309 14.4189 11.9399 14.3229C12.0389 13.2549 11.5859 12.0009 11.1239 11.0439C11.0129 10.8129 10.3499 10.9059 10.1639 10.9389C9.85791 10.9929 9.53991 11.2839 9.63291 11.6229C9.81891 12.2889 10.5839 12.5049 10.4639 13.3059C10.4009 13.7349 9.97491 14.4249 10.4189 14.8119C10.8449 15.1839 11.8769 14.9769 11.9069 14.3199C11.9069 14.2599 11.8079 14.2629 11.7989 14.3289Z" fill="#3D3D3D"/>
<path d="M24.192 14.3288C24.153 14.7698 25.437 15.3788 25.71 14.5238C25.866 14.0168 25.398 13.4738 25.476 12.9278C25.554 12.3428 26.526 11.9558 26.295 11.3318C26.1 10.9418 25.362 10.9418 25.011 11.0978C25.011 11.0978 24.348 12.5678 24.192 14.3288Z" fill="#F2CFA8"/>
<path d="M24.246 14.3289C24.291 14.7189 24.819 14.8749 25.146 14.8839C26.079 14.9079 25.458 13.5789 25.389 13.1529C25.299 12.5859 25.872 12.2139 26.148 11.8029C26.673 11.0289 25.164 10.9719 25.092 11.1609C25.02 11.3379 24.96 11.5179 24.903 11.7009C24.621 12.5679 24.543 13.4859 24.276 14.3469C24.246 14.4429 24.117 14.4189 24.108 14.3229C24.009 13.2549 24.462 12.0009 24.927 11.0439C25.038 10.8129 25.701 10.9059 25.887 10.9389C26.193 10.9929 26.511 11.2839 26.418 11.6229C26.232 12.2889 25.467 12.5049 25.587 13.3059C25.65 13.7349 26.076 14.4249 25.632 14.8119C25.206 15.1839 24.174 14.9769 24.144 14.3199C24.135 14.2599 24.237 14.2629 24.246 14.3289Z" fill="#3D3D3D"/>
<path d="M11.8529 5.92288C10.8419 10.4379 10.7249 17.6769 14.8199 21.1029C16.5299 22.5339 20.3189 22.6659 22.2959 20.4129C25.4429 16.8279 24.9329 8.15188 24.0749 5.42788C24.0749 5.42788 22.2239 4.01488 18.0449 3.93388C13.8659 3.84988 11.8529 5.92288 11.8529 5.92288Z" fill="#F2CFA8"/>
<path d="M14.814 19.891C13.389 18.826 12.42 17.392 11.793 15.787C12.306 17.89 13.26 19.804 14.856 21.136C16.566 22.567 20.355 22.699 22.332 20.446C22.653 20.08 22.932 19.66 23.181 19.204C20.964 21.454 16.728 21.322 14.814 19.891Z" fill="#E3C099"/>
<path d="M11.76 5.89593C11.037 9.03093 10.863 12.3429 11.535 15.4989C12.135 18.3099 13.755 21.4929 16.788 22.1739C18.24 22.5009 19.806 22.2669 21.108 21.5649C22.329 20.9079 23.145 19.6779 23.658 18.4209C24.846 15.5139 25.002 12.1599 24.792 9.06094C24.741 8.29893 24.651 7.53993 24.525 6.78693C24.471 6.46293 24.423 5.51793 24.141 5.30493C23.322 4.69293 22.215 4.38993 21.243 4.16493C18.258 3.46893 14.124 3.51693 11.802 5.86893C11.739 5.93193 11.838 6.03093 11.901 5.96793C12.477 5.38593 13.344 4.98993 14.088 4.69293C16.053 3.90993 18.276 3.93993 20.334 4.25793C21.531 4.44093 22.767 4.78293 23.811 5.41293C24.057 5.55993 24.009 5.67393 24.084 5.97393C24.237 6.59793 24.33 7.23693 24.408 7.87293C24.789 11.0319 24.717 14.4459 23.712 17.4849C23.181 19.0869 22.308 20.5689 20.775 21.3789C19.215 22.1979 17.151 22.1679 15.585 21.3969C13.125 20.1819 12.06 16.8849 11.649 14.3919C11.19 11.6169 11.379 8.68593 11.952 5.94393C11.97 5.82693 11.787 5.77593 11.76 5.89593Z" fill="#3D3D3D"/>
<path d="M23.7058 6.46587C24.2968 6.81387 23.6368 7.26687 23.6008 7.64787C23.5648 8.10087 24.1558 8.69187 24.3328 9.10887C24.7498 10.0839 24.7168 10.9869 24.6808 12.0639C24.6808 12.4809 24.5758 12.9669 24.6118 13.3869C24.6118 13.3869 25.2688 11.8569 25.5148 10.6389C25.7608 9.42087 26.5918 1.61487 17.8228 1.61487C8.76583 1.61487 10.3558 9.42087 10.6018 10.6389C10.8478 11.8569 11.4088 13.4799 11.4088 13.4799C11.4448 13.0629 11.4328 12.4809 11.4328 12.0639C11.3968 10.9869 11.3638 10.0809 11.7808 9.10887C11.9548 8.69187 12.5458 8.10087 12.5098 7.64787C12.4738 7.26687 11.8138 6.81387 12.4048 6.46587C12.4048 6.46587 14.3188 7.26387 18.0268 7.26387C21.7378 7.26387 23.7058 6.46587 23.7058 6.46587Z" fill="#666666"/>
<path d="M11.4059 13.6479C11.3309 13.6479 11.2679 13.6029 11.2439 13.5279C9.54291 8.58688 9.89691 5.00188 12.2999 2.86888C13.7249 1.60288 15.8519 0.879883 18.1349 0.879883C21.0809 0.879883 23.5829 2.07688 24.8249 4.08088C26.8439 7.33888 25.6349 11.3529 24.7379 13.4529C24.7169 13.5009 24.6749 13.5309 24.6209 13.5309C24.5489 13.5309 24.4679 13.4709 24.4649 13.3869C24.4529 12.9729 24.4829 12.5469 24.5189 12.0969C24.5969 11.0439 24.6809 9.95188 24.1499 9.04888C24.0839 8.93488 24.0119 8.82688 23.9399 8.71888C23.7599 8.44288 23.5709 8.15788 23.4839 7.82488C23.4329 7.62988 23.5349 7.43788 23.6369 7.25488C23.7569 7.02988 23.8649 6.83488 23.7149 6.64888C22.7999 7.00588 21.7949 7.16188 20.8409 7.27588C19.8599 7.39288 18.8849 7.45288 17.9429 7.45288C16.6829 7.45288 15.4589 7.34788 14.3099 7.13788C13.8089 7.04788 13.2179 6.92788 12.6359 6.73288C12.5579 6.70888 12.4979 6.69388 12.4559 6.69388C12.4229 6.69388 12.4019 6.69988 12.3929 6.71488C12.3539 6.77788 12.4469 6.98488 12.5219 7.14988C12.6059 7.33288 12.6899 7.52188 12.6839 7.65388C12.6629 8.02588 12.4859 8.31988 12.2699 8.63788C11.9459 9.12088 11.7569 9.56488 11.6789 10.0389C11.5679 10.7139 11.5799 11.4099 11.5949 12.0819C11.6039 12.5439 11.6129 13.0179 11.5829 13.4859C11.5709 13.5909 11.4839 13.6479 11.4059 13.6479ZM23.9009 6.47488C24.1019 6.68188 24.1229 6.90088 23.9639 7.17688C23.6399 7.74988 23.8889 8.13688 24.1799 8.58088C24.2759 8.72788 24.3719 8.87788 24.4529 9.04288C24.9269 9.99988 24.8609 11.0589 24.7949 12.0849C24.7829 12.2559 24.7739 12.4329 24.7649 12.6069C25.4219 10.8279 26.2079 7.70788 24.9869 5.01988C23.6819 2.14888 20.6909 1.44088 19.0259 1.27888C18.6869 1.24588 18.3449 1.22788 17.9999 1.22788C15.4499 1.22788 13.2689 2.09488 12.0089 3.60688C10.3139 5.64388 10.0679 8.54488 11.2559 12.4689C11.2559 12.3459 11.2529 12.2229 11.2499 12.0999C11.2349 11.0919 11.2229 10.0479 11.6129 9.06088C11.7029 8.83288 11.8229 8.64388 11.9309 8.47888C12.1799 8.09188 12.3749 7.78288 12.1049 7.19788C11.9789 6.92788 11.9399 6.69988 12.1529 6.46588C12.0989 6.42688 12.0449 6.38188 11.9999 6.34288C11.9699 6.31888 11.9429 6.29488 11.9189 6.27688C11.8139 6.19588 11.7149 6.10588 11.6309 6.02488C11.5499 5.94988 11.4899 5.86588 11.4329 5.78488C11.3969 5.73688 11.3609 5.68588 11.3189 5.63488L11.3849 5.56588C11.4479 5.61688 11.5139 5.65888 11.5829 5.70388C11.6519 5.74888 11.7239 5.79688 11.7899 5.85088C11.9189 5.95588 12.0419 6.04888 12.1589 6.13588C12.1889 6.15988 12.2309 6.18088 12.2729 6.20488C12.3209 6.23188 12.3719 6.26188 12.4169 6.29488C12.4289 6.29488 12.4409 6.29788 12.4499 6.30388C14.1569 7.00588 16.2059 7.09588 17.8019 7.09588H18.0209C19.8929 7.08688 21.8549 6.98788 23.5259 6.35488C23.5379 6.34588 23.5499 6.33688 23.5649 6.33088C23.7449 6.26188 23.9279 6.15388 24.1139 6.01588C24.1469 5.98888 24.1799 5.96488 24.2129 5.94088C24.3569 5.83588 24.4919 5.73688 24.5849 5.58088C24.5969 5.56288 24.6179 5.55088 24.6389 5.55088H24.6929L24.7019 5.61988C24.6539 6.03388 24.2039 6.32488 23.9009 6.47488Z" fill="#3D3D3D"/>
</g>
<defs>
<clipPath id="clip0_751_10348">
<rect width="36" height="36" fill="white" transform="translate(0 0.255859)"/>
</clipPath>
</defs>
</svg>
