<svg width="43" height="50" viewBox="0 0 43 50" fill="none" xmlns="http://www.w3.org/2000/svg">
<path d="M10.0637 19.4844C10.0519 19.9513 9.76235 21.6828 9.58506 22.0788C9.44322 22.3979 9.54371 22.8175 9.16549 23.0657C9.06502 23.1307 9.02365 23.4321 9.08274 23.5858C9.17139 23.8222 9.13591 24.0113 9.065 24.224C8.99999 24.4309 8.92315 24.6377 8.90542 24.8504C8.80496 25.9792 8.53903 27.0784 8.25537 28.1599C8.0308 29.0109 7.91849 29.8737 7.71165 30.7247C7.53436 31.4575 7.38069 32.1903 7.18567 32.9172C7.13248 33.1182 6.96701 33.2954 6.81336 33.5555C6.82518 33.6264 6.84881 33.7741 6.87836 33.9573C6.47058 34.8733 5.96827 35.7657 5.41867 36.6344C5.20592 36.9654 4.47311 37.4736 3.93532 37.7041C3.88214 37.7277 3.81121 37.7455 3.77575 37.7868C3.41526 38.2242 2.91888 38.2537 2.41064 38.2714C1.91422 38.2892 1.48282 38.1414 1.08687 37.8637C0.956851 37.775 0.826823 37.6923 0.702719 37.6095C0.472239 37.119 0.182694 36.6758 0.0704097 36.138C-0.0832432 35.3993 0.0230741 34.702 0.306741 34.0223C0.501762 33.5555 0.738157 33.1182 1.05137 32.7104C1.44141 32.1962 1.89059 31.8121 2.48747 31.5343C3.04298 31.2802 3.58671 31.2625 4.14222 31.3984C4.54999 31.4989 4.85136 31.7885 5.07002 32.149C5.21776 32.3913 5.36548 32.6336 5.56641 32.9527C5.59005 32.9645 5.69644 32.9054 5.7319 32.7695C5.9742 31.8594 6.21057 30.9434 6.44696 30.0274C6.47651 29.9033 6.52971 29.7851 6.53562 29.661C6.54744 28.8395 6.72472 28.0594 7.04385 27.3089C7.12658 27.1139 7.09113 26.8775 7.12659 26.6647C7.32161 25.6128 7.52845 24.5609 7.71756 23.5089C7.76484 23.2607 7.78257 23.0243 7.94214 22.7998C8.0426 22.652 8.07218 22.4511 8.11946 22.2679C8.19628 21.931 8.29673 21.6001 8.32628 21.2573C8.35583 20.8555 8.59219 20.5127 8.51536 20.0636C8.44444 19.6794 8.59813 19.2598 8.62768 18.8521C8.67496 18.2611 8.69856 17.6642 8.73402 17.0319C9.08269 16.9669 9.38411 16.9078 9.56731 16.8723C10.1701 17.1205 10.6488 17.351 11.1511 17.5224C11.9549 17.7942 12.7763 18.0247 13.586 18.2729C14.1356 18.4443 14.6911 18.4916 15.2643 18.4502C15.7666 18.4148 16.269 18.4088 16.7713 18.4207C17.2145 18.4325 17.6577 18.4857 18.0655 18.8343C18.5383 19.8981 18.2487 20.9264 17.705 21.931C17.7168 22.2915 17.9178 22.6757 17.6223 23.0125C17.7937 23.5976 17.5572 24.1708 17.5986 24.7559C17.6222 25.1046 17.5868 25.1046 17.4095 25.4355C17.3918 26.121 17.4154 26.7179 17.3386 27.2971C17.2972 27.6044 17.25 27.9117 17.25 28.219C17.25 28.3726 17.2559 28.5618 17.179 28.6799C16.8481 29.2059 16.9367 29.8146 16.8067 30.382C16.6885 30.902 16.529 31.4162 16.3753 31.9244C16.2394 32.3735 16.0385 32.8049 16.1094 33.2304C15.8198 33.8628 15.5716 34.436 15.2939 35.0034C15.087 35.4289 14.8447 35.8248 14.3897 36.0553C14.0883 36.2089 13.8283 36.4394 13.586 36.6108C13.3259 36.6167 13.125 36.5753 12.9536 36.6285C12.3981 36.7881 11.9726 36.5458 11.5648 36.2267C11.4111 36.1085 10.9798 35.4643 10.9147 35.2575C10.6902 34.5719 10.6784 33.9042 10.9975 33.2364C11.0802 33.0709 11.1156 32.8759 11.1747 32.6927C11.4939 32.3499 11.7775 31.9539 12.1439 31.6703C12.4808 31.4102 12.9122 31.2743 13.255 31.1029C13.905 31.0557 14.4015 31.3216 14.9097 31.6585C15.0043 31.5107 15.1047 31.4162 15.1225 31.3098C15.2879 30.512 15.4356 29.7142 15.5952 28.9163C15.8257 27.7521 16.1153 26.5997 16.0858 25.3941C16.0739 24.9273 16.1803 24.4604 16.2453 23.9935C16.2631 23.8694 16.3635 23.7512 16.3517 23.639C16.2808 22.8234 16.4817 22.0197 16.4167 21.2101C16.4108 21.151 16.3753 21.0919 16.3458 21.0269C16.1448 20.8732 15.9144 20.7964 15.6484 20.8082C14.9806 20.8318 14.3365 20.6841 13.6982 20.5245C13.3968 20.4477 13.0954 20.3531 12.7881 20.3177C11.9016 20.2113 11.0861 19.9276 10.3179 19.4903C10.2706 19.4667 10.1996 19.4903 10.0637 19.4844Z" fill="#91ADA3"/>
<path d="M27.1072 16.1395C27.3791 16.039 27.6155 15.9503 27.9228 15.8322C28.1178 15.9149 28.3837 16.0153 28.626 16.1395C28.8742 16.2695 29.1283 16.4113 29.347 16.5886C30.2098 17.28 31.1849 17.7942 32.1305 18.3497C32.5914 18.6215 33.0346 18.9229 33.5015 19.1771C33.8502 19.3662 34.2284 19.4962 34.5948 19.6617C34.9435 19.8212 35.2803 19.9985 35.4281 20.5245C35.3985 20.6545 35.3867 20.9204 35.2685 21.1273C34.7721 22.0196 34.3702 22.9475 33.9979 23.8989C33.602 24.9154 33.0878 25.8964 32.6978 26.9247C32.491 27.4743 32.3136 28.0417 32.1422 28.6031C32.1009 28.739 32.1305 28.9045 32.1305 29.0581C32.5146 29.0995 32.8337 28.9517 33.1942 29.0286C33.9861 29.2 34.5416 30.0391 34.3171 31.0024C34.2343 31.3629 34.0511 31.6998 33.8916 32.0366C33.5429 32.7694 33.5429 32.7694 32.8987 33.2186C32.7214 33.3486 32.5323 33.4609 32.2782 33.6322C31.9059 33.6204 31.4744 33.6086 30.9603 33.5968C30.7416 33.4195 30.4816 33.2008 30.3339 33.0767C29.8789 32.3144 30.0089 31.6052 29.9143 30.9256C30.1803 30.5237 30.0621 30.0214 30.2689 29.5959C30.4285 29.2591 30.5289 28.8926 30.6176 28.5262C30.8067 27.7993 31.1081 27.1079 31.2854 26.381C31.634 26.0205 31.6104 25.5123 31.8173 25.0868C32.1896 24.3244 32.5323 23.5503 32.881 22.7761C33.1114 22.2678 33.3242 21.7596 33.5606 21.2336C32.8278 20.8436 32.03 20.6899 31.2617 20.489C30.7062 20.3472 30.263 20.0103 29.7666 19.768C29.6307 19.703 29.5243 19.5789 29.3884 19.5198C28.8801 19.2775 28.3424 19.0825 27.9937 18.5211C27.775 18.7516 27.5918 18.8875 27.4913 19.0707C27.1722 19.6439 26.8767 20.2349 26.5812 20.82C26.3862 21.21 26.2207 21.6119 25.9666 21.9783C25.742 22.3033 25.6298 22.6993 25.4761 23.0657C25.1038 23.958 24.6901 24.8386 24.371 25.7546C24.1287 26.4578 24.0105 27.2025 23.845 27.9057C24.0578 28.1244 24.2823 28.0712 24.4892 28.0712C25.0033 28.0594 25.4052 28.2544 25.7066 28.674C25.8544 28.8808 26.0198 29.0699 26.2208 29.3122C26.2621 29.6195 26.3153 29.98 26.3626 30.3464C26.0848 30.8783 26.1085 31.5402 25.547 31.9598C25.1984 32.2198 24.8851 32.5094 24.4655 32.6571C23.7682 32.8994 23.1063 32.8876 22.5094 32.3971C22.2908 32.2198 22.0721 32.0366 21.8416 31.8416C21.7175 31.4929 21.5875 31.1383 21.5166 30.9256C21.4279 29.72 21.8062 28.7567 22.0899 27.758C22.2494 27.1847 22.5744 26.6883 22.6926 26.0973C22.8167 25.4827 23.0649 24.8918 23.2836 24.3067C23.4904 23.7453 23.7209 23.1957 23.9691 22.652C24.1346 22.2797 24.3414 21.9251 24.5364 21.5646C25.0269 20.6545 25.4997 19.7267 26.0198 18.8343C26.5221 17.9656 26.859 17.0614 27.1072 16.1395Z" fill="#91ADA3"/>
<path d="M21.0323 16.1395C20.7723 16.0094 20.5536 15.8972 20.2522 15.7435C20.1104 15.448 19.9449 15.0816 19.7499 14.727C19.2535 13.8229 18.7453 12.9305 18.2429 12.0322C18.1366 11.8431 18.0479 11.6422 17.9415 11.4471C17.3683 10.4011 16.8364 9.32555 16.5232 8.17315C16.3282 7.45217 16.2809 6.68981 16.1686 5.94518C16.1036 5.51377 16.08 5.08237 15.9913 4.64505C15.8968 4.19591 15.9795 3.71131 16.0209 3.24444C16.0682 2.73621 16.6236 1.24696 16.9368 0.927832C17.3564 0.508241 17.8174 0.106377 18.4498 0.0295504C18.633 0.00591153 18.828 0.0118195 19.0171 0C19.3008 0.130014 19.5844 0.265938 19.9331 0.425501C20.6482 1.04011 20.9732 1.97977 21.3691 2.86031C21.6883 3.57539 22.0192 4.29638 22.1079 5.09419C22.1256 5.26557 22.2733 5.41922 22.3974 5.6497C22.5156 5.52559 22.6102 5.44877 22.6693 5.36013C22.9234 4.96418 23.148 4.54458 23.6149 4.34956C23.8631 3.88269 24.3595 3.69949 24.72 3.36264C25.1337 2.9785 25.636 2.83668 26.1619 2.7303C26.6879 2.62392 27.1429 2.86622 27.5625 3.05533C27.9467 3.38627 28.124 3.77041 28.1772 4.22546C28.2717 5.03509 28.2127 5.80335 27.9231 6.59526C27.6158 7.42262 27.3084 8.24407 26.8297 8.97688C26.2979 9.78651 25.7955 10.6139 25.2164 11.394C24.6372 12.174 23.9104 12.83 23.414 13.6751C23.2248 13.9942 22.9293 14.2543 22.687 14.5379C22.5038 14.7507 22.3029 14.9516 22.1611 15.1939C21.907 15.6135 21.5524 15.9031 21.0323 16.1395ZM21.0027 14.3488C21.1741 14.2188 21.2628 14.1774 21.3219 14.1065C21.7119 13.6574 22.096 13.2023 22.4861 12.7532C22.7107 12.4932 23.0416 12.2804 23.148 11.979C23.2839 11.5949 23.5676 11.3526 23.7863 11.063C24.2354 10.4661 24.655 9.85152 25.0805 9.23691C25.5946 8.48046 25.961 7.64719 26.4102 6.86119C26.6997 6.35296 26.8298 5.80926 26.9598 5.26557C27.0544 4.87553 27.0484 4.45594 26.7647 4.11317C26.0615 4.1309 26.0083 4.12499 25.6005 4.41457C24.525 5.20056 23.6267 6.11066 23.1835 7.42262C22.9825 8.02541 22.9648 8.71685 22.4625 9.23691C22.4034 9.23691 22.3088 9.20736 22.232 9.231C22.1256 9.26055 22.0251 9.33147 21.9601 9.36101C21.7887 9.28419 21.6765 9.231 21.5937 9.18963C21.3928 8.82322 21.3042 8.46864 21.2806 8.0786C21.2155 7.0503 20.985 6.04565 20.79 5.03509C20.66 4.34365 20.3054 3.74677 20.0454 3.10852C19.9331 2.83077 19.9449 2.51164 19.6849 2.26343C19.4721 2.05659 19.3776 1.72564 19.2122 1.4597C19.1649 1.38879 19.0644 1.34742 18.9757 1.28833C18.4439 1.25287 18.0716 1.47153 17.8765 1.97386C17.5101 2.90168 17.1792 3.83541 17.3565 4.8578C17.4392 5.35421 17.5574 5.85063 17.5692 6.34705C17.587 6.95575 17.7347 7.52308 17.912 8.09042C18.0893 8.65184 18.1424 9.26646 18.5561 9.73924C19.218 11.3112 20.2522 12.6705 21.0027 14.3488Z" fill="#91ADA3"/>
<path d="M16.0859 45.1976C15.5422 45.3276 15.1167 44.8726 14.5671 44.9021C14.0411 44.9317 13.5152 44.8253 13.007 44.9139C12.8533 45.3513 13.2966 45.499 13.3025 45.8241C13.3084 46.1373 13.3852 46.4446 13.4384 46.7519C13.4975 47.0828 13.3438 47.3724 13.2611 47.6679C13.1724 47.9693 13.072 48.2648 13.0011 48.4775C12.5933 48.7257 12.2682 48.9208 11.9432 49.1217C11.4704 48.968 11.0272 48.8262 10.5958 48.6844C9.68568 47.4551 9.5675 47.2542 10.0994 44.9435C9.85708 44.7603 9.56747 44.6421 9.24834 44.6244C8.52735 44.5889 7.78869 44.4707 7.08543 44.5712C6.07487 44.713 5.06425 44.908 4.14824 45.4222C3.59864 45.7295 3.04908 46.025 2.57039 46.4268C2.4522 46.5273 2.31037 46.6041 2.20399 46.6751C1.94987 46.5746 1.75484 46.4978 1.53027 46.4032C1.51255 46.2377 1.49483 46.0545 1.47119 45.8418C2.01489 45.3986 2.51721 44.9199 3.09637 44.5535C3.51005 44.2934 4.02418 44.193 4.49105 44.0157C5.25341 43.7261 6.0453 43.5606 6.84311 43.4188C7.20952 43.3538 7.59366 43.342 7.96598 43.3656C8.61605 43.4129 9.27198 43.472 9.91614 43.5902C10.4066 43.6847 10.8735 43.8797 11.4822 44.0748C11.6477 44.0689 11.9373 44.0098 12.2328 43.862C12.4751 43.7379 12.7824 43.6729 13.0542 43.6847C14.2125 43.7379 15.3767 43.7497 16.4937 44.1634C17.2087 44.4294 17.8589 44.8312 18.4498 45.2685C18.9994 45.6704 19.6199 45.8713 20.205 46.155C20.3173 46.2082 20.4591 46.2023 20.5655 46.2614C21.6824 46.941 22.9766 47.1301 24.1763 47.5851C25.2696 47.9988 26.4102 48.2175 27.539 48.4893C28.2659 48.6666 29.0164 48.8794 29.7492 48.8676C30.7421 48.8498 31.7703 48.8498 32.7041 48.383C32.8991 48.2825 33.0882 48.1643 33.2655 48.0343C33.5787 47.8097 33.9569 47.792 34.3174 47.727C34.4297 47.7093 34.5715 47.857 34.6838 47.922C34.6661 48.6253 34.1815 48.9148 33.691 49.098C33.3305 49.234 33.0173 49.4113 32.7868 49.6595C32.054 49.7717 31.3744 49.8781 30.6948 49.9727C29.9029 50.085 29.1465 49.819 28.3723 49.7599C28.2482 49.7481 28.1299 49.6536 28.0117 49.6595C27.078 49.689 26.2388 49.3285 25.3819 49.0389C25.0628 48.9326 24.72 48.9148 24.395 48.7789C24.0522 48.6371 23.6622 48.6371 23.3017 48.5248C22.5334 48.2825 21.7829 47.9811 21.0087 47.7329C20.0572 47.4256 19.1767 46.9292 18.2725 46.5037C17.5338 46.1609 16.8956 45.6468 16.0859 45.1976ZM11.0863 45.9127C10.8618 46.811 10.9031 47.4847 11.6655 47.922C12.2092 47.1715 12.2505 47.0474 12.2505 46.2555C12.0851 46.0604 11.9077 45.8359 11.7186 45.629C11.6832 45.5877 11.6064 45.5877 11.5059 45.5581C11.3641 45.6822 11.1986 45.8181 11.0863 45.9127Z" fill="#91ADA3"/>
<path d="M42.7562 40.2038C42.9512 40.6175 42.9512 40.6175 42.4252 41.0785C42.4843 41.5572 42.112 41.829 41.8461 42.095C41.3142 42.6209 40.6996 43.0642 40.0023 43.3833C39.2695 43.7201 38.5603 44.1338 37.8098 44.4234C36.3914 44.973 34.9022 45.2212 33.3893 45.298C32.1424 45.363 30.8954 45.2567 29.6484 45.1976C28.9038 45.1621 28.1591 45.0912 27.4145 45.0203C27.1663 44.9966 26.9299 44.908 26.6876 44.8489C26.4808 44.7957 26.2681 44.8312 26.0494 44.778C25.5648 44.6598 25.0448 44.7425 24.5661 44.5534C24.1051 44.3702 23.6264 44.2579 23.1477 44.1279C22.5449 43.9624 21.9008 43.9683 21.3335 43.6669C20.5593 43.2592 19.6551 43.1646 18.9341 42.6327C18.8868 42.5973 18.8278 42.5677 18.7687 42.5618C18.0654 42.4673 17.5217 42.0418 16.9484 41.6931C16.0974 41.1671 15.1814 40.7948 14.2536 40.4461C13.9049 40.3161 13.4853 40.3575 13.178 40.1802C12.8412 39.9852 12.5102 40.0502 12.1793 39.997C11.2515 39.8493 10.3296 39.7547 9.37809 39.8493C8.68074 39.9202 8.00701 39.9911 7.35694 40.2629C7.12646 40.3634 6.88419 40.4343 6.6478 40.5111C6.42323 40.4934 6.20454 40.4757 5.95634 40.4521C5.92679 40.3102 5.89722 40.1625 5.86768 40.0088C6.47047 39.211 7.36287 38.9628 8.26114 38.8091C9.24807 38.6437 10.2468 38.5846 11.2573 38.6969C12.0729 38.7855 12.8884 38.8269 13.6744 39.0751C14.2122 39.2406 14.7559 39.3706 15.2819 39.5656C15.7842 39.7488 16.2747 39.9615 16.7475 40.2157C18.2722 41.0312 19.7792 41.8763 21.4516 42.3786C22.019 42.55 22.5863 42.7214 23.1477 42.9105C23.6796 43.0878 24.2292 43.2237 24.7788 43.3419C25.352 43.466 25.9253 43.6078 26.5163 43.6197C26.6404 43.6197 26.7645 43.661 26.8886 43.6906C27.9051 43.9152 28.9393 43.9861 29.9735 44.0156C31.1259 44.0511 32.2901 44.2638 33.4425 44.0097C34.4649 44.0865 35.4282 43.7733 36.4033 43.5606C37.0711 43.4128 37.7093 43.1114 38.3417 42.8455C39.5591 42.3313 40.6169 41.569 41.5684 40.6589C41.8934 40.3457 41.9643 40.3161 42.7562 40.2038Z" fill="#91ADA3"/>
<path d="M6.54152 9.07144C7.67028 8.82323 7.67026 8.82323 9.18315 9.17191C9.14769 8.75822 9.16545 8.34454 9.06499 7.96041C8.87587 7.26897 8.92908 6.59526 9.08273 5.86245C9.21275 5.74426 9.36641 5.5847 9.53188 5.44287C9.80963 5.21239 10.1228 5.11783 10.4893 5.10601C11.6594 5.07646 12.5399 5.56106 13.125 6.57753C13.3909 7.03849 13.645 7.49945 13.8991 7.96041C14.1355 8.39773 14.3601 8.84096 14.6024 9.27237C15.022 10.017 15.2702 10.8207 15.5066 11.6363C15.5952 11.9377 15.7311 12.2213 15.8493 12.5109C15.8198 12.5641 15.7844 12.6232 15.7371 12.7118C16.0089 12.9482 16.2512 13.226 16.2985 13.616C16.3458 13.9824 16.399 14.3429 16.4521 14.7093C16.2985 14.928 16.1389 15.1525 15.9734 15.383C15.0456 15.318 14.1355 15.4067 13.2313 15.2235C11.7834 14.928 10.3651 14.532 8.98224 14.0002C8.54492 13.8288 8.09576 13.6633 7.6998 13.421C7.20339 13.1137 6.64788 12.8537 6.30512 12.3632C6.04509 11.9849 5.84421 11.5535 5.69055 11.1162C5.54872 10.7084 5.70231 10.3007 5.92097 9.94608C6.10417 9.6565 6.31695 9.38466 6.54152 9.07144ZM7.0025 11.3585C7.23298 11.589 7.49296 11.8549 7.77072 12.109C7.85936 12.1918 7.9835 12.2391 8.1017 12.2863C8.97634 12.635 9.80372 13.1019 10.7138 13.356C11.1334 13.4742 11.5707 13.5451 11.9844 13.681C13.0363 14.0238 14.1178 14.1597 15.2229 14.1656C15.2111 14.0888 15.217 14.0238 15.1934 13.9706C14.6319 12.9541 14.3069 11.8372 13.8814 10.7616C13.6864 10.2711 13.4736 9.78652 13.249 9.31374C12.9536 8.69913 12.5458 8.1318 12.2326 7.5231C11.9312 6.93803 11.4643 6.55389 10.9088 6.23477C10.6902 6.31751 10.4892 6.38843 10.2588 6.47116C10.2588 6.88485 10.2115 7.26306 10.2588 7.62947C10.3474 8.34454 10.4715 9.05371 10.6133 9.75697C10.702 10.212 10.8497 10.6553 10.962 11.0867C10.9029 11.2167 10.832 11.3171 10.8024 11.4294C10.7729 11.5358 10.8911 11.6776 10.6961 11.7545C10.5661 11.7249 10.4124 11.6658 10.2588 11.654C10.111 11.6422 9.95733 11.6895 9.78004 11.7131C9.41955 10.9389 8.71628 10.5666 8.00121 10.1352C7.80028 10.1588 7.55206 10.1825 7.3334 10.212C7.04974 10.5607 6.91976 10.8975 7.0025 11.3585Z" fill="#91ADA3"/>
<path d="M33.6432 41.5158C33.3359 41.4626 32.9518 41.309 32.5322 41.4804C32.349 41.5572 32.089 41.504 31.8821 41.4626C31.2557 41.3208 30.6352 41.3858 30.2274 41.4626C29.6128 41.3976 29.1992 41.4035 28.8091 41.3031C28.4191 41.2085 28.0113 41.2026 27.6213 41.0549C27.2903 40.9308 26.8884 40.9958 26.5338 40.8244C26.3447 40.7298 26.1083 40.7003 25.8897 40.6944C25.3223 40.6766 24.9087 40.3102 24.4359 40.0857C24.3118 40.0266 24.2349 39.8611 24.1108 39.7134C24.2113 39.6011 24.2823 39.4533 24.3709 39.4356C24.6487 39.3883 24.9382 39.3469 25.21 39.3824C25.7065 39.4533 26.2088 39.5361 26.6875 39.6897C27.834 40.0679 28.9982 40.2334 30.2038 40.2393C30.8302 40.2452 31.4625 40.3398 32.0831 40.3102C32.9872 40.2689 33.9033 40.2748 34.7957 40.0443C35.1325 39.9557 35.4694 39.8847 35.8003 39.7902C36.1608 39.6838 36.5094 39.5361 36.8108 39.2938C37.1063 39.0574 37.4077 38.8328 37.721 38.5964C38.4065 38.4605 38.4065 38.4605 38.8142 38.7796C38.8142 39.0692 38.7019 39.2938 38.4951 39.5183C37.6796 40.4166 36.6868 40.9426 35.4989 41.1376C34.8961 41.2321 34.3169 41.374 33.6432 41.5158Z" fill="#91ADA3"/>
</svg>
