<svg width="26" height="27" viewBox="0 0 26 27" fill="none" xmlns="http://www.w3.org/2000/svg">
<rect y="0.5" width="26" height="26" rx="13" fill="#F38723"/>
<path d="M16.6914 19.625C16.1577 19.625 15.4079 19.4319 14.2852 18.8047C12.9199 18.0391 11.8639 17.3322 10.506 15.9779C9.19676 14.6695 8.55965 13.8224 7.66797 12.1998C6.66063 10.3678 6.83234 9.40745 7.0243 8.99702C7.25289 8.50647 7.59031 8.21308 8.02645 7.92187C8.27417 7.75956 8.53632 7.62043 8.80957 7.50624C8.83691 7.49448 8.86234 7.48327 8.88504 7.47315C9.02039 7.41218 9.22547 7.32003 9.48523 7.41847C9.65859 7.48355 9.81336 7.61671 10.0556 7.85597C10.5525 8.34597 11.2314 9.43726 11.4819 9.97319C11.65 10.3344 11.7613 10.5728 11.7616 10.8403C11.7616 11.1533 11.6041 11.3948 11.413 11.6554C11.3771 11.7043 11.3416 11.7511 11.3071 11.7965C11.0991 12.0699 11.0534 12.1489 11.0835 12.29C11.1445 12.5736 11.5992 13.4177 12.3465 14.1634C13.0938 14.909 13.9136 15.335 14.1982 15.3957C14.3453 15.4272 14.426 15.3796 14.7082 15.1641C14.7486 15.1332 14.7902 15.1012 14.8337 15.0692C15.1252 14.8524 15.3554 14.699 15.6611 14.699H15.6627C15.9288 14.699 16.1566 14.8144 16.5339 15.0047C17.0261 15.253 18.1502 15.9232 18.6432 16.4206C18.883 16.6623 19.0167 16.8165 19.0821 16.9896C19.1805 17.2502 19.0878 17.4544 19.0274 17.5912C19.0173 17.6139 19.0061 17.6387 18.9943 17.6664C18.8792 17.9391 18.7392 18.2007 18.5762 18.4478C18.2855 18.8826 17.9911 19.2192 17.4994 19.4481C17.247 19.5675 16.9707 19.628 16.6914 19.625Z" fill="white"/>
</svg>
