<svg width="26" height="27" viewBox="0 0 26 27" fill="none" xmlns="http://www.w3.org/2000/svg">
<rect y="0.5" width="26" height="26" rx="13" fill="#91ADA3"/>
<path d="M16.6912 19.625C16.1574 19.625 15.4076 19.4319 14.2849 18.8047C12.9196 18.0391 11.8636 17.3322 10.5057 15.9779C9.19651 14.6695 8.5594 13.8224 7.66773 12.1998C6.66038 10.3678 6.8321 9.40745 7.02405 8.99702C7.25265 8.50647 7.59007 8.21308 8.0262 7.92187C8.27392 7.75956 8.53607 7.62043 8.80933 7.50624C8.83667 7.49448 8.8621 7.48327 8.8848 7.47315C9.02015 7.41218 9.22523 7.32003 9.48499 7.41847C9.65835 7.48355 9.81312 7.61671 10.0554 7.85597C10.5522 8.34597 11.2312 9.43726 11.4816 9.97319C11.6498 10.3344 11.7611 10.5728 11.7614 10.8403C11.7614 11.1533 11.6039 11.3948 11.4127 11.6554C11.3769 11.7043 11.3414 11.7511 11.3069 11.7965C11.0988 12.0699 11.0532 12.1489 11.0832 12.29C11.1442 12.5736 11.5989 13.4177 12.3462 14.1634C13.0935 14.909 13.9133 15.335 14.198 15.3957C14.3451 15.4272 14.4257 15.3796 14.7079 15.1641C14.7484 15.1332 14.79 15.1012 14.8334 15.0692C15.1249 14.8524 15.3551 14.699 15.6609 14.699H15.6625C15.9285 14.699 16.1563 14.8144 16.5337 15.0047C17.0258 15.253 18.15 15.9232 18.643 16.4206C18.8828 16.6623 19.0165 16.8165 19.0818 16.9896C19.1803 17.2502 19.0876 17.4544 19.0271 17.5912C19.017 17.6139 19.0058 17.6387 18.9941 17.6664C18.879 17.9391 18.739 18.2007 18.576 18.4478C18.2853 18.8826 17.9908 19.2192 17.4992 19.4481C17.2467 19.5675 16.9704 19.628 16.6912 19.625Z" fill="white"/>
</svg>
