<svg width="54" height="52" viewBox="0 0 54 52" fill="none" xmlns="http://www.w3.org/2000/svg">
<path d="M52.7636 46.9067C52.8854 47.1773 52.8719 47.4682 52.7501 47.7523C52.3374 48.7198 51.7962 49.6128 50.9505 50.2555C50.1996 50.8238 49.3945 51.2838 48.3932 51.1959C48.2985 51.1891 48.1835 51.1891 48.0956 51.223C47.2161 51.5612 46.3298 51.4462 45.4368 51.3109C44.2393 51.1282 43.1095 50.7291 41.9662 50.357C41.1138 50.0796 40.3155 49.6331 39.436 49.4234C39.3413 49.4031 39.2601 49.3287 39.1721 49.2813C38.3332 48.7942 37.4199 48.4559 36.5878 47.9485C35.7827 47.4682 34.9709 47.0082 34.132 46.582C33.4825 46.2572 32.8669 45.8513 32.2309 45.4995C31.3108 45.9122 30.3975 46.3249 29.4842 46.7376C28.7535 47.0691 28.05 47.475 27.2922 47.7253C26.433 48.0094 25.5806 48.3206 24.7282 48.6251C23.7337 48.9904 22.7324 49.349 21.7244 49.6872C20.3578 50.1473 18.9438 50.4382 17.5164 50.6614C16.258 50.8576 15.0064 51.0741 13.7413 51.25C13.0783 51.338 12.4086 51.365 11.7388 51.4056C11.1096 51.4462 10.4737 51.4259 9.84451 51.5071C8.77559 51.6424 7.71344 51.7033 6.65129 51.48C6.52275 51.453 6.38068 51.4056 6.25214 51.4191C5.31852 51.5139 4.47286 51.135 3.6069 50.8915C3.40394 50.8306 3.26187 50.5938 3.05891 50.4923C1.86821 49.8767 1.20521 48.7942 0.542213 47.705C0.237774 46.609 -0.0869635 45.513 0.0212814 44.3562C0.055108 44.0247 0.0754014 43.6864 0.0821667 43.3549C0.0956974 41.968 0.751931 40.3376 1.64495 39.4581C2.00351 39.1063 2.34178 38.741 2.65299 38.3418C2.91007 38.0103 3.28893 37.7532 3.64073 37.5029C4.37814 36.982 5.14939 36.5016 5.88004 35.9739C6.2386 35.7169 6.62422 35.5477 7.01661 35.3583C8.95149 34.4179 10.9946 33.7617 13.0377 33.1122C14.0864 32.7807 15.1215 32.3951 16.1565 32.023C16.2513 31.9892 16.3257 31.9148 16.4475 31.8336C16.2242 31.4615 16.0212 31.0826 15.7912 30.7173C15.0538 29.5672 14.6885 28.275 14.5532 26.9423C14.4449 25.8936 14.6546 24.8518 15.3379 23.9993C15.798 23.4243 16.1904 22.8086 16.7113 22.2742C17.3269 21.6383 18.0508 21.1782 18.7612 20.6843C18.9777 20.5355 19.2348 20.434 19.4851 20.3528C20.6216 19.974 21.7717 19.859 22.9489 20.1972C24.2681 20.5761 25.5806 20.9685 26.8999 21.3609C28.6588 21.8818 30.1878 22.8357 31.7709 23.6949C32.0618 23.8573 32.373 23.9858 32.6639 24.1482C33.9561 24.845 35.2618 25.5351 36.5404 26.259C37.0343 26.5363 37.5079 26.8746 37.9408 27.2332C39.4901 28.5118 41.1544 29.6416 42.7171 30.9C43.9958 31.9283 45.4368 32.7469 46.6207 33.8902C47.3446 34.5938 48.0617 35.2974 48.7721 36.0078C49.1916 36.434 49.5704 36.9076 49.9966 37.327C50.7814 38.078 51.3429 39.0048 51.9721 39.864C52.581 40.6961 53.0342 41.6433 53.3049 42.6513C53.4131 43.0437 53.5281 43.4293 53.6161 43.8217C53.7852 44.5659 53.7581 45.3033 53.4063 45.9866C53.2507 46.3181 52.9937 46.5887 52.7636 46.9067ZM52.7095 45.053C52.6892 43.639 52.3306 42.2454 51.5662 41.0073C50.9843 40.0737 50.274 39.2213 49.6042 38.3418C49.3404 37.9968 49.1036 37.5976 48.7586 37.3541C48.3323 37.0564 48.055 36.6437 47.6964 36.2987C47.2161 35.8454 46.7966 35.3177 46.296 34.8712C45.6465 34.2894 44.9835 33.7076 44.2596 33.234C43.4681 32.7198 42.7916 32.0568 42.0135 31.5494C41.2423 31.0488 40.5725 30.4264 39.8081 29.919C39.0639 29.4251 38.3941 28.8027 37.6702 28.2615C37.2169 27.9232 36.7569 27.5917 36.2698 27.3076C35.2888 26.7325 34.3282 26.1236 33.2998 25.623C32.3392 25.1562 31.4191 24.5947 30.4719 24.0873C29.5248 23.5867 28.5641 23.1063 27.6102 22.6192C27.4952 22.5583 27.3667 22.5042 27.2449 22.4704C25.7498 22.1118 24.3087 21.5638 22.8136 21.1917C21.7853 20.9347 20.8178 21.0023 19.8572 21.3271C19.1874 21.5571 18.5582 21.8886 18.3011 22.6125C18.3214 22.9981 18.3282 23.3702 18.362 23.7355C18.3823 23.9317 18.4432 24.1279 18.4906 24.3173C18.768 25.3795 19.6745 26.0628 20.1345 27.0167C20.6893 27.1993 20.9261 27.727 21.2779 28.1127C21.9409 28.8298 22.6445 29.486 23.4495 30.034C23.666 30.1828 23.8487 30.379 24.0178 30.5346C24.6876 30.4805 25.3168 30.4264 25.9662 30.3723C25.9798 30.264 25.9933 30.1761 26.0068 30.0272C25.3777 29.8784 25.0259 29.3507 24.5726 28.9651C24.4508 28.8568 24.3561 28.7148 24.2276 28.6201C23.0775 27.7473 22.2318 26.6649 21.8868 25.2645C21.9747 25.0141 22.0424 24.7977 22.1032 24.6218C22.1912 24.5406 22.2453 24.5 22.2927 24.4526C22.9692 23.7423 23.781 23.5934 24.6876 23.8911C25.3574 24.1076 26.0271 24.3309 26.6834 24.5744C27.5629 24.8991 28.4356 25.2509 29.3083 25.5892C29.6533 25.7245 30.0187 25.8124 30.3231 26.0086C31.6288 26.8272 33.0022 27.5308 34.2334 28.4712C34.7341 28.8501 35.2212 29.2628 35.7489 29.5943C36.5066 30.0746 37.2711 30.5549 38.0288 31.0353C39.896 32.1989 41.5535 33.6129 43.1095 35.135C44.1852 36.1904 45.2812 37.2188 46.2757 38.3553C47.277 39.4987 48.1023 40.7435 48.9209 42.0018C49.178 42.3942 49.1712 42.8407 49.1374 43.2737C49.1036 43.612 48.9345 43.9367 48.603 44.0856C48.0617 44.3359 47.5137 44.5456 46.8778 44.4035C46.1607 44.2412 45.5045 43.8826 44.767 43.7879C44.6453 43.7743 44.5303 43.6593 44.4085 43.6052C44.1379 43.4767 43.8537 43.3752 43.5966 43.2264C42.9607 42.861 42.2165 42.7122 41.6144 42.2724C40.5387 41.4877 39.3954 40.7908 38.3468 39.9655C38.2791 39.9114 38.1641 39.9249 38.0288 39.9046C37.9273 40.1549 37.8461 40.4052 37.7311 40.6352C37.6093 40.872 37.4267 41.0817 37.4876 41.4065C37.6567 41.6839 37.9611 41.8259 38.2453 42.0018C39.436 42.746 40.6808 43.409 41.8038 44.2682C42.203 44.5727 42.6698 44.7824 43.1028 45.0259C43.2787 45.1274 43.4546 45.2154 43.6372 45.3033C43.9958 45.4792 44.3476 45.6686 44.7197 45.8242C45.7074 46.2437 46.7493 46.5143 47.7641 46.8593C48.312 47.042 48.8601 47.1638 49.4283 47.2111C50.0778 47.2652 50.6934 47.1435 51.2753 46.8255C51.9924 46.4602 52.466 45.8919 52.7095 45.053ZM17.036 32.7401C16.7384 32.8822 16.4745 33.0446 16.1904 33.146C15.3379 33.4505 14.4923 33.7685 13.6263 34.0188C11.9553 34.4991 10.3181 35.0606 8.71471 35.7304C8.07877 35.9942 7.36164 36.0957 6.84071 36.6234C5.7312 37.0632 5.00731 38.0577 3.97222 38.5989C3.9181 38.6259 3.85721 38.6801 3.82338 38.7342C3.47159 39.3634 2.81535 39.7152 2.3959 40.2902C2.2606 40.4796 2.09823 40.6488 1.95616 40.8314C1.36758 41.6162 1.2661 42.5498 1.15109 43.4834C1.09696 43.9097 1.17815 44.2682 1.34729 44.6471C1.61113 45.2424 2.02381 45.716 2.48385 46.1422C3.95193 46.8729 5.48765 47.2855 7.11809 47.3058C7.78786 47.3126 8.46439 47.2923 9.12739 47.3464C10.3113 47.4479 11.4749 47.2923 12.6183 47.0352C14.0187 46.7173 15.4056 46.3316 16.7992 45.9595C18.2538 45.5739 19.7016 45.1409 21.1832 44.8297C22.1303 44.6335 23.0572 44.3291 23.9502 43.9502C25.4588 43.3075 26.9134 42.5431 28.4423 41.9477C29.7277 41.4471 30.8914 40.73 31.9941 39.8978C33.0495 39.0995 33.8343 38.3959 34.7273 37.4082C35.1197 36.9752 35.4309 36.5084 35.5933 35.9536C35.6948 35.6019 35.7624 35.2433 35.8368 34.9321C35.7624 34.5532 35.7015 34.2217 35.6203 33.8226C35.3903 33.6129 35.1535 33.3219 34.8491 33.1325C34.2808 32.7875 33.6922 32.4289 33.0698 32.2057C32.3798 31.9554 31.6423 31.8336 30.9184 31.6915C29.3624 31.3803 27.7861 31.3803 26.2098 31.4209C24.7756 31.4615 23.3413 31.5833 21.9274 31.8674C20.5811 32.138 19.2077 32.2598 17.8817 32.6589C17.6381 32.7334 17.3608 32.7131 17.036 32.7401ZM36.8449 35.6357C36.784 35.8589 36.7366 36.0416 36.6825 36.2243C36.4931 36.8331 36.236 37.4217 35.7962 37.8885C34.9709 38.768 34.1658 39.6746 33.063 40.2428C32.948 40.3037 32.8398 40.3917 32.7451 40.4864C32.3053 40.9532 31.7776 41.305 31.2297 41.6365C30.4246 42.1236 29.6533 42.6445 28.74 42.9219C28.2935 43.0572 27.8199 43.179 27.4411 43.4293C27.0419 43.6932 26.5819 43.7811 26.1692 43.9841C25.7227 44.2073 25.2694 44.4103 24.8161 44.6268C24.4846 44.7824 24.1802 45.0056 23.8352 45.1071C22.455 45.5198 21.0614 45.8919 19.6745 46.2843C18.8018 46.5278 17.929 46.7781 17.0563 47.0014C16.5692 47.1232 16.0483 47.1367 15.5883 47.3126C15.0809 47.502 14.5599 47.6035 14.0458 47.7523C13.5113 47.9079 12.9092 47.7862 12.4289 48.138C11.5291 48.1989 10.6361 48.3003 9.73627 48.3206C8.81618 48.3342 7.8961 48.253 6.96926 48.2733C6.77306 48.28 6.5701 48.2124 6.37391 48.1786C6.21154 48.1515 6.05594 48.0906 5.90034 48.1041C5.38617 48.1447 4.9126 48.0162 4.41873 47.9012C3.2754 47.6373 2.21324 47.2111 1.29316 46.4669C1.25934 46.5414 1.2255 46.5752 1.23227 46.5955C1.49611 47.6035 2.0847 48.4153 2.85595 49.0783C4.10753 50.1608 4.17518 50.154 5.81915 50.3638C7.18574 50.5329 8.54557 50.702 9.93246 50.4449C10.4601 50.3502 11.0014 50.3705 11.5426 50.3502C11.9079 50.3367 12.28 50.3705 12.6453 50.3299C13.7075 50.2014 14.7697 50.0593 15.825 49.8902C16.7181 49.7481 17.5976 49.4978 18.4973 49.4166C19.688 49.3084 20.7773 48.8889 21.8935 48.5304C22.5633 48.3139 23.2195 48.05 23.8825 47.8132C25.2356 47.3329 26.6022 46.8729 27.9485 46.3722C28.4491 46.1896 28.9159 45.9122 29.403 45.6957C30.6546 45.1342 31.8994 44.5591 33.0495 43.7946C33.496 43.497 33.929 43.179 34.3958 42.9287C34.7206 42.7528 35.0115 42.5498 35.255 42.286C35.5527 41.968 35.8436 41.6365 36.121 41.305C36.6893 40.6285 37.0749 39.8369 37.3522 39.0048C37.6093 38.193 37.3861 36.7925 36.8449 35.6357ZM22.9827 25.393C23.3075 26.1778 23.7202 26.8543 24.3087 27.4294C25.0056 28.1126 25.743 28.7486 26.5616 29.2763C27.0149 29.5672 27.4343 29.8987 27.8605 30.2302C28.05 30.379 28.2394 30.467 28.4897 30.4534C29.633 30.379 30.7561 30.5685 31.8656 30.812C33.1848 31.1097 34.4161 31.5833 35.5594 32.3274C36.263 32.7875 36.5878 33.552 37.2169 34.0594C37.3928 34.2014 37.5011 34.4247 37.6229 34.6209C37.677 34.7021 37.6905 34.8103 37.7311 34.905C38.2588 36.1431 38.5227 37.4352 38.5227 38.8086C41.1205 40.8856 43.9011 42.6513 47.2364 43.4293C47.5814 43.3617 47.94 43.2805 48.1565 42.861C48.082 42.6648 48.0414 42.4213 47.9197 42.2319C47.5002 41.5959 47.0402 40.9803 46.6072 40.3511C46.0186 39.4919 45.2474 38.7883 44.5776 38.0035C44.0161 37.3473 43.3531 36.7722 42.7171 36.1837C41.7294 35.2771 40.7484 34.3706 39.7269 33.5046C39.2398 33.0919 38.7459 32.6995 38.1776 32.3951C37.9408 32.2666 37.7041 32.138 37.4943 31.9689C36.6554 31.3059 35.6406 30.8864 34.91 30.0814C33.6719 29.2898 32.4271 28.505 31.1823 27.727C30.2757 27.1655 29.3015 26.7055 28.2867 26.3537C27.7185 26.1575 27.1772 25.8936 26.6157 25.6704C26.3045 25.5486 25.973 25.4742 25.6753 25.3254C25.1544 25.0547 24.5861 24.9736 24.0246 24.8991C23.6525 24.8653 23.2872 24.9938 22.9827 25.393ZM51.485 47.7862C50.2334 48.2327 49.293 48.253 48.1159 47.8944C47.2837 47.6441 46.4448 47.4276 45.6195 47.1638C45.0444 46.9811 44.4694 46.7917 43.9281 46.5414C42.7171 45.9731 41.54 45.3304 40.4711 44.5118C40.2072 44.3088 39.9028 44.16 39.6254 43.9705C38.6918 43.3414 37.6499 42.8746 36.7501 42.0424C36.5878 42.3469 36.3781 42.5904 36.0601 42.6987C36.006 42.719 35.9451 42.7866 35.9248 42.8407C35.7759 43.2602 35.4174 43.4428 35.0656 43.6458C34.6326 43.8961 34.1929 44.1464 33.7531 44.3765C33.5299 44.4982 33.3675 44.6403 33.4013 44.9853C33.5975 45.0936 33.8208 45.2221 34.0575 45.3371C34.5379 45.5739 35.0318 45.7836 35.4986 46.0407C36.6622 46.6902 37.7446 47.475 38.9895 47.9959C40.5928 48.6657 42.1759 49.3693 43.8537 49.8293C44.3679 49.9714 44.8888 50.0999 45.4165 50.2217C46.6952 50.5261 47.9467 50.2555 49.1916 50.012C49.2592 49.9984 49.3133 49.9578 49.381 49.9375C50.3552 49.5519 51.0182 48.828 51.5256 47.9418C51.5459 47.9418 51.5188 47.9012 51.485 47.7862ZM22.6174 30.6158C22.313 30.4399 22.1235 30.3587 21.9747 30.237C21.792 30.0881 21.6432 29.9055 21.4741 29.7431C20.4931 28.8298 19.661 27.7812 18.8018 26.7664C17.9967 25.8124 17.3202 24.7706 17.2999 23.4446C17.2999 23.4175 17.2728 23.3837 17.2322 23.3093C17.0902 23.3769 16.9007 23.4108 16.8195 23.5258C16.4813 24.0196 16.1362 24.5203 15.8724 25.0547C15.3379 26.1507 15.6424 27.2738 15.8318 28.39C16.2783 29.2154 16.5828 30.1152 17.124 30.8864C17.2931 31.13 17.4555 31.3938 17.787 31.5359C19.2348 31.2923 20.7164 31.042 22.198 30.7917C22.2927 30.7782 22.3739 30.7241 22.6174 30.6158Z" fill="#91ADA3"/>
<path d="M29.1795 19.798C28.9563 19.5477 28.7736 19.3448 28.5571 19.1012C28.5639 18.8712 28.503 18.5871 28.5774 18.3435C28.8345 17.5114 28.7871 16.6319 29.0577 15.7998C29.3216 14.9744 29.5313 14.122 29.6666 13.2695C29.7749 12.6065 30.0455 11.9841 30.0725 11.3076C30.0861 11.0167 30.2214 10.7258 30.3161 10.4416C30.3567 10.3199 30.4717 10.2048 30.4785 10.0831C30.5258 9.43359 30.7829 8.83148 31.0603 8.27672C31.6421 7.10632 31.9398 5.82769 32.6095 4.69111C33.1846 3.71014 33.8002 2.60063 34.3753 1.91057C35.3562 0.746939 36.6078 0.110992 38.1165 0.00951191C38.9622 -0.0513759 39.5778 0.178646 40.1934 0.740166C40.2679 0.80782 40.3423 0.875472 40.4032 0.929594C40.4438 1.00401 40.4844 1.05813 40.5114 1.11902C41.1609 2.43826 41.0662 3.77103 40.5994 5.11056C40.1528 6.40273 39.7131 7.6949 39.2531 9.04797C39.6319 9.08179 39.8281 8.78412 40.1055 8.72323C40.3626 8.66911 40.6061 8.52704 40.8497 8.4188C41.0053 8.35114 41.1473 8.26319 41.2962 8.19554C42.1216 7.80992 43.0416 7.76933 43.9008 7.51225C44.0226 7.47166 44.1647 7.49195 44.3 7.49195C45.7207 7.51225 47.0129 7.86404 48.0683 8.99384C48.1697 9.24416 48.2983 9.55537 48.4201 9.83274C48.3795 10.171 48.3389 10.4687 48.3051 10.7664C47.8991 11.6323 47.2294 12.2886 46.4446 12.8162C45.7004 13.3169 44.9156 13.7702 44.1106 14.1558C43.6032 14.3993 43.1905 14.8391 42.6019 14.9135C41.3774 15.6171 40.0514 16.0839 38.7186 16.5507C37.9947 16.801 37.3047 17.146 36.5875 17.437C35.5051 17.8699 34.4159 18.2961 33.3267 18.7156C33.1102 18.7968 32.8734 18.8306 32.6569 18.9118C32.2848 19.0539 31.8924 19.108 31.5406 19.338C31.2971 19.5004 30.952 19.5004 30.6949 19.6492C30.4311 19.8048 30.0725 19.5748 29.8831 19.8995C29.6531 19.8725 29.396 19.8319 29.1795 19.798ZM29.9102 18.7765C31.2497 18.2961 32.4539 17.8902 33.6379 17.437C35.133 16.8619 36.6146 16.2395 38.103 15.6441C38.4142 15.5156 38.7254 15.3871 39.0366 15.2721C39.4696 15.1029 39.9228 14.9744 40.3423 14.7647C41.8442 14.0205 43.3461 13.2695 44.8344 12.4847C45.5719 12.0924 46.2552 11.5985 46.864 11.0167C47.2226 10.6784 47.3241 10.2793 47.182 9.82598C47.1279 9.64332 46.9994 9.47418 46.9114 9.31181C46.289 9.07503 45.7004 8.85178 45.0983 8.62176C44.3068 8.73 43.5084 8.83148 42.7169 8.96002C42.4937 8.99385 42.2704 9.10209 42.0607 9.19004C41.1271 9.5689 40.2137 9.98158 39.3545 10.5025C38.9283 10.7596 38.5089 10.8814 38.0421 10.719C37.6903 10.2928 37.8121 9.81921 37.7985 9.39976C37.9 9.18327 38.0015 9.00738 38.0759 8.81795C38.3533 8.12112 38.6915 7.43782 38.8877 6.71394C39.0975 5.93593 39.5101 5.22557 39.6793 4.44756C39.8958 3.45306 40.0717 2.4112 39.3545 1.40994C38.9554 1.26786 38.4886 1.1055 38.0285 0.943128C37.8391 1.07167 37.6429 1.30169 37.4603 1.29493C36.9529 1.2814 36.7025 1.7076 36.3102 1.86997C35.8975 2.04587 35.5524 2.32326 35.2818 2.66152C34.8285 3.22981 34.3482 3.80486 34.01 4.44756C33.5837 5.2594 33.1102 6.0577 32.8598 6.96425C32.7381 7.41076 32.5419 7.85051 32.2916 8.2429C32.0142 8.67588 31.9804 9.17651 31.8045 9.63655C31.4662 10.5093 31.2023 11.4023 31.0197 12.3224C30.7761 13.5672 30.5055 14.8052 30.1402 16.0298C29.9508 16.6657 29.8899 17.3422 29.8087 18.012C29.7884 18.215 29.8696 18.445 29.9102 18.7765Z" fill="#91ADA3"/>
<path d="M21.8122 8.16173C22.0355 7.98584 21.9949 7.77611 22.0084 7.59345C22.0896 6.65307 22.3061 5.76006 22.7323 4.90086C23.3953 3.5681 24.383 2.73596 25.8714 2.60742C26.1623 2.68184 26.4194 2.75626 26.6832 2.81714C27.1703 2.93216 27.5492 3.21629 27.786 3.63574C28.1783 4.33257 28.5572 5.04293 28.5234 5.88859C28.5031 6.38246 28.564 6.8831 28.5504 7.38373C28.5369 7.85053 28.5301 8.33087 28.4219 8.78414C28.1242 10.056 27.7792 11.3144 27.2718 12.5321C27.0215 13.1275 26.7644 13.7431 26.7441 14.4196C26.7373 14.582 26.6562 14.7376 26.602 14.9C26.3247 15.6915 26.0743 16.4898 25.7631 17.2611C25.5466 17.8158 25.3166 18.3909 24.701 18.7359C23.5847 18.4382 22.5564 17.9173 21.7242 17.0446C21.5145 16.8281 21.298 16.6454 21.0342 16.4831C20.7027 16.2801 20.4456 15.9486 20.1479 15.6848C19.8773 15.4412 19.5864 15.2112 19.309 14.9744C19.1534 14.8459 18.9843 14.7241 18.8625 14.5685C18.3213 13.8852 17.5974 13.3846 17.0697 12.6877C17.0291 12.6336 16.9953 12.5727 16.9412 12.5389C15.649 11.7609 14.9725 10.4755 14.2418 9.25095C13.5856 8.14144 13.5788 6.94398 14.1674 5.79388C14.641 4.88056 15.3243 4.29874 16.4744 4.33257C17.178 4.35286 17.7868 4.50847 18.3754 4.86027C19.3699 5.44209 20.1682 6.23363 20.8921 7.11988C21.2033 7.46491 21.4401 7.87759 21.8122 8.16173ZM25.479 3.80487C24.6604 4.21756 24.0515 4.73172 23.5712 5.5165C23.4291 6.18626 23.2532 6.93045 23.1179 7.6814C22.9826 8.43235 23.0841 9.22389 22.7796 9.98837C22.5496 10.056 22.3331 10.1169 22.076 10.1913C21.5889 9.62304 21.068 9.09535 20.6486 8.5C20.2021 7.86406 19.6879 7.28225 19.1331 6.74779C18.3416 5.99684 17.4621 5.38796 16.2849 5.44885C16.2173 5.45561 16.1496 5.46238 16.0143 5.47591C15.7572 5.64504 15.4528 5.84124 15.1551 6.03067C15.0469 6.38923 14.9454 6.7072 14.8575 7.01163C14.9116 7.74229 14.9725 8.45941 15.3784 9.05476C15.8858 9.79894 16.4 10.5634 17.0224 11.2129C17.7124 11.9435 18.4972 12.5795 19.2076 13.2966C19.8435 13.9325 20.5606 14.4941 21.183 15.1435C21.8663 15.8539 22.6579 16.4086 23.4291 16.9972C23.6794 17.1934 23.95 17.4234 24.3762 17.4099C24.5454 17.1393 24.7754 16.8755 24.8836 16.571C25.1678 15.7795 25.4519 14.9879 25.6346 14.1693C25.9052 12.9583 26.3179 11.7947 26.7441 10.6446C27.1636 9.52156 27.3936 8.38499 27.4139 7.20106C27.4342 6.34187 27.5018 5.45561 27.1703 4.62348C26.9674 4.39346 26.7712 4.17021 26.5479 3.92666C26.1894 3.89283 25.797 3.84547 25.479 3.80487Z" fill="#91ADA3"/>
<path d="M48.0484 33.9104C47.7846 33.4504 47.514 33.1392 47.5478 32.6453C48.4882 32.3206 49.4556 31.9823 50.4231 31.6508C51.3567 31.3329 52.2429 30.8593 53.2239 30.7916C53.5554 31.1367 53.4742 31.5088 53.4742 31.9214C52.5744 32.2326 51.6611 32.51 50.7816 32.8753C49.8954 33.2474 48.9888 33.5586 48.0484 33.9104Z" fill="#91ADA3"/>
<path d="M50.1185 26.6716C50.4433 27.0234 50.6936 27.2873 50.9642 27.585C50.0306 28.2277 49.2526 28.9989 48.461 29.7498C48.4137 29.7972 48.3663 29.8446 48.3054 29.8784C47.683 30.2167 47.1824 30.7105 46.6412 31.1503C46.4517 31.3059 46.2488 31.4073 45.924 31.3126C45.7752 31.1367 45.5925 30.9135 45.3828 30.6632C45.4708 30.5279 45.5114 30.3858 45.6061 30.3181C46.0188 30.034 46.3976 29.716 46.7968 29.4183C47.4395 28.9448 48.0348 28.4239 48.6234 27.8826C49.0699 27.4835 49.557 27.1249 50.1185 26.6716Z" fill="#91ADA3"/>
<path d="M46.6948 23.891C46.9383 24.1142 47.1345 24.2901 47.2969 24.439C47.3172 24.554 47.3375 24.6149 47.3307 24.6825C47.3104 25.0005 47.1548 25.2576 46.9383 25.4808C46.0791 26.3468 45.5041 27.409 44.8546 28.4237C44.6922 28.6741 44.496 28.9244 44.266 29.1003C44.0631 29.2559 43.7857 29.31 43.5083 29.425C43.3324 29.2491 43.1768 29.0935 42.9941 28.9041C43.5895 28.0111 44.151 27.1451 44.7396 26.2994C45.3146 25.4876 45.8897 24.669 46.6948 23.891Z" fill="#91ADA3"/>
<path d="M1.23926 31.0555C1.40839 30.8119 1.50987 30.6428 1.63841 30.4872C1.71959 30.3857 1.82784 30.3113 1.97667 30.1827C2.26758 30.4331 2.55172 30.6631 2.8088 30.9202C3.93861 32.0364 5.20372 33.0309 6.19146 34.3028C6.15087 34.6817 5.85996 34.8711 5.66377 35.1079C5.33227 35.2229 5.11578 35.0944 4.96694 34.8373C4.69633 34.3569 4.21599 34.0796 3.89126 33.6601C3.59358 33.2745 3.32973 32.8618 2.84939 32.6656C2.56525 32.192 2.08492 31.9282 1.68577 31.5696C1.5437 31.4343 1.42869 31.2719 1.23926 31.0555Z" fill="#91ADA3"/>
<path d="M5.27828 27.4022C6.11718 29.1477 7.11168 30.7578 7.89645 32.4694C7.93704 32.5506 7.90998 32.6656 7.91675 32.7739C7.71379 33.0783 7.40259 33.1527 7.09815 33.2339C6.04953 31.5764 5.19709 29.858 4.38525 28.0449C4.55439 27.7608 4.92648 27.6322 5.27828 27.4022Z" fill="#91ADA3"/>
<path d="M11.0689 32.1786C10.6427 32.3613 10.345 32.4966 10.0067 32.6454C9.68876 32.0162 9.65493 31.3871 9.61434 30.7579C9.17459 30.2234 9.37756 29.5401 9.20842 28.938C9.04606 28.3494 8.8228 27.727 8.94458 27.0573C9.06635 26.9964 9.18136 26.9219 9.30314 26.8881C9.45874 26.8475 9.62787 26.834 9.83083 26.8002C9.92555 26.9964 10.0676 27.1587 10.0879 27.3346C10.2097 28.4035 10.5006 29.4319 10.6968 30.4873C10.7983 31.0217 10.8456 31.5629 11.0689 32.1786Z" fill="#91ADA3"/>
<path d="M33.3137 36.4881C32.7995 37.2593 32.2718 38.0373 31.2638 38.3147C30.8105 38.8153 30.364 39.3633 29.6401 39.546C29.5589 39.5663 29.4777 39.6272 29.4236 39.6948C28.7539 40.439 27.8744 40.872 26.961 41.1494C25.1682 41.6906 23.4093 42.3671 21.5556 42.6919C21.3323 42.7324 21.1158 42.8407 20.8993 42.9219C19.9725 43.2737 19.0253 43.5781 18.0985 43.9299C16.9078 44.3832 15.6697 44.7012 14.4182 44.9109C13.5251 45.0597 12.6186 45.1003 11.7188 45.2086C11.1911 45.2694 10.6702 45.398 10.1357 45.4386C8.47822 45.5603 6.85455 45.4047 5.23087 44.7485C4.65582 44.2208 4.12813 43.5849 3.81016 42.8069C3.76957 41.7312 4.21608 40.9126 5.03468 40.2699C5.27147 40.0872 5.46766 39.8504 5.69092 39.6475C6.01565 39.3566 6.31332 39.0251 6.67865 38.795C7.32812 38.3823 7.99788 37.9967 8.68794 37.6585C10.129 36.9549 11.5767 36.2445 13.0854 35.6898C13.5251 35.5274 13.9852 35.4327 14.4385 35.3041C14.5061 35.2838 14.5738 35.2771 14.6347 35.25C16.3328 34.5803 18.1526 34.4044 19.8913 33.9172C20.9534 33.6196 22.0156 33.3151 23.1048 33.1528C24.4579 32.9566 25.7771 32.5439 27.1505 32.4898C28.3615 32.4424 29.5589 32.4695 30.7429 32.7468C31.3923 32.8957 31.9538 33.2001 32.4071 33.6399C32.9889 34.2014 33.4693 34.8576 33.3069 35.7709C33.2663 35.9874 33.3137 36.2242 33.3137 36.4881ZM32.2786 35.3447C32.2447 35.2433 32.2447 35.1688 32.2042 35.1147C31.5817 34.3367 30.824 33.8361 29.7822 33.7075C29.1192 33.6263 28.4629 33.6196 27.8067 33.579C27.2722 33.5452 26.7243 33.5654 26.2033 33.6669C25.7095 33.7616 25.2156 33.8361 24.7353 33.9375C23.0507 34.3029 21.3526 34.6073 19.6883 35.0944C19.0186 35.2906 18.3285 35.4462 17.6384 35.5747C17.3475 35.6289 17.0566 35.6559 16.7657 35.7506C16.2313 35.9265 15.6292 35.9468 15.115 36.1633C14.5941 36.3866 14.0596 36.576 13.5116 36.691C12.5374 36.9007 11.6917 37.3676 10.8461 37.8479C10.0275 38.3079 9.2224 38.7815 8.41056 39.2483C8.23467 39.3498 8.03848 39.4039 7.85581 39.4919C7.55814 39.6407 7.26047 39.7828 6.97632 39.9519C6.47569 40.2428 6.11036 40.6893 5.68415 41.0682C5.09556 41.5823 4.89937 42.198 4.94673 42.9016C5.50148 43.551 6.00211 44.1937 6.81395 44.1667C7.24017 43.8284 7.57167 43.5578 7.9167 43.3007C8.26173 43.0369 8.61353 42.7798 8.96532 42.5362C9.64862 42.0559 10.3184 41.5418 11.0355 41.1155C11.8676 40.6217 12.7607 40.2563 13.7146 40.0331C14.2626 39.9045 14.7767 39.6001 15.3247 39.4648C16.7116 39.1198 18.0376 38.5853 19.3771 38.0982C20.5408 37.6788 21.7247 37.3202 22.9357 37.0361C24.309 36.7113 25.7162 36.5828 27.1031 36.4272C28.1247 36.3122 29.1665 36.1769 30.2084 36.3595C30.6346 36.4339 31.0676 36.5151 31.4938 36.5692C31.6426 36.5895 31.805 36.5422 31.9538 36.5287C32.0824 36.0754 32.1839 35.6965 32.2786 35.3447ZM8.59323 44.3764C8.87737 44.4102 9.08033 44.4644 9.27652 44.4576C9.60802 44.4441 9.9463 44.4102 10.2778 44.3696C11.4753 44.2208 12.666 44.0517 13.8634 43.9231C15.4059 43.7608 16.8469 43.1925 18.3285 42.7933C18.4571 42.7595 18.5721 42.6783 18.6938 42.631C19.3771 42.3671 20.0334 42.0424 20.7505 41.8597C21.6909 41.6229 22.6312 41.4064 23.5581 41.1155C23.9775 40.9802 24.4444 40.899 24.9044 40.5675C23.8558 39.9045 23.0372 39.0859 22.2997 38.247C21.9344 38.3756 21.63 38.4974 21.312 38.5988C20.4934 38.8695 19.6545 39.0927 18.8494 39.4174C18.1391 39.7083 17.4152 39.9587 16.6845 40.1955C15.2909 40.6487 13.8972 41.1088 12.5036 41.5756C12.1856 41.6838 11.9015 41.8394 11.6241 42.0424C10.8528 42.6174 10.0342 43.1384 9.25623 43.7067C9.01944 43.8623 8.84355 44.1126 8.59323 44.3764ZM26.1763 40.2428C27.252 39.9993 28.0232 39.2618 28.9433 38.795C29.4574 38.5312 29.8498 38.0306 30.3302 37.6111C30.1881 37.4961 30.0596 37.3946 29.9716 37.3202C28.0367 37.3134 25.3441 37.6111 23.531 38.0306C24.2346 38.9709 25.3238 39.4242 26.1763 40.2428Z" fill="#91ADA3"/>
</svg>
