<svg width="51" height="305" viewBox="0 0 51 305" fill="none" xmlns="http://www.w3.org/2000/svg">
<path d="M19.706 97.2762C19.8166 96.8695 19.7958 96.4214 19.9203 96.0216C20.1138 95.3944 20.6807 95.1324 21.3374 94.8498C21.0263 94.4914 20.7705 94.1605 20.4802 93.871C19.9617 93.3471 19.7405 92.7198 19.7889 92.0098C19.8373 91.3757 19.8235 90.707 20.0516 90.1418C20.2313 89.7006 20.736 89.3835 21.1092 89.032C21.3166 88.839 21.5586 88.6873 21.918 88.4047C21.5862 88.322 21.4341 88.2875 21.2821 88.2531C20.5078 87.8533 20.1622 87.0881 19.8649 86.3092C19.4778 85.3097 20.017 84.2068 21.1161 83.7105C21.289 83.6347 21.4756 83.5795 21.7452 83.4899C20.8673 83.1383 20.7705 82.2353 20.2521 81.6908C20.1345 80.7878 20.1069 79.9399 20.7567 79.1265C20.9641 79.0576 21.2751 78.9542 21.5931 78.8508C21.5586 78.3063 20.9641 78.3752 20.7567 77.9823C20.7567 77.9823 20.7982 77.9478 20.8811 77.8651C20.3143 77.6445 20.2935 77.0724 20.1691 76.6243C20.0309 76.128 20.2521 75.5766 20.4525 75.1009C20.653 74.6184 20.9917 74.1841 21.2751 73.7361C20.9157 73.3707 20.4041 73.2536 20.1069 72.7573C19.5677 71.8611 19.5401 70.8134 20.2313 70.062C20.3004 69.9862 20.5355 69.2831 21.5378 69.0281C21.2544 68.6696 20.8396 68.4628 20.6184 68.0423C20.3074 67.4426 20.176 66.257 20.5424 65.7193C20.57 65.6711 20.6115 65.6228 20.653 65.6022C21.1161 65.3678 21.2959 64.7888 21.8558 64.6785C21.4065 64.1339 21.1991 63.4997 20.7498 62.9965C20.577 62.8104 20.3834 62.3555 20.6046 61.9419C20.7705 61.6386 20.7913 61.2595 20.9572 60.9631C21.0401 60.8114 21.3304 60.7838 21.4894 60.6598C21.6139 60.5633 21.6761 60.4047 21.7729 60.26C21.6623 60.1359 21.5378 60.0532 21.5033 59.936C21.4618 59.7981 21.4963 59.6327 21.4963 59.5293C21.2337 59.3707 21.0539 59.2536 21.0055 59.226C20.3143 58.0955 20.6323 57.1167 21.0608 56.1516C21.3719 55.8001 21.9457 55.7243 22.1254 55.1866C21.3719 54.4973 21.0055 53.6012 20.577 52.6844C20.7429 52.6844 20.8258 52.6844 20.9157 52.6844C20.9641 52.6223 21.0194 52.5603 21.0678 52.4914C20.8811 52.388 20.7014 52.2846 20.5147 52.1743C20.6668 51.4436 21.2406 50.9818 21.6899 50.4027C21.5102 50.2649 21.365 50.1477 21.2198 50.0443C21.2267 49.8858 21.2337 49.7341 21.2475 49.4929C21.1369 49.6514 21.0816 49.7272 20.9986 49.8513C20.6253 49.4377 20.3004 49.0655 20.0862 48.8311C19.6368 47.8661 19.4571 47.0389 19.9272 46.1635C20.3765 45.8946 20.8535 45.6051 21.3788 45.2811C21.1784 44.709 20.7221 44.1851 20.8051 43.5165C20.9779 43.2408 21.2406 42.9857 21.3028 42.6893C21.4203 42.1379 21.8005 41.7725 22.0978 41.3451C22.2153 41.1797 22.3812 41.0487 22.5609 40.8557C22.1323 40.6283 21.7798 40.4215 21.5586 40.0492C21.4825 39.9252 21.3788 39.7942 21.2475 39.7321C20.7982 39.5047 20.7912 39.1187 20.7705 38.6913C20.7359 38.0571 21.0954 37.6573 21.5447 37.3264C21.8627 37.0852 22.2222 36.8991 22.5955 36.6716C22.5125 36.5337 22.4434 36.4165 22.4019 36.3407C22.4779 36.2373 22.5402 36.1615 22.6231 36.0512C22.4088 35.9409 22.2429 35.872 22.0839 35.7824C21.9318 35.6928 21.6553 35.5756 21.6622 35.486C21.6968 35.0517 21.3097 34.8449 21.1991 34.5002C20.9779 33.8109 20.6599 33.1216 20.9572 32.3978C21.1369 31.9636 21.4549 31.5775 21.7383 31.1226C20.7429 30.4333 20.3972 29.3373 20.2659 28.0827C20.729 27.7036 21.1922 27.3176 21.683 26.9109C21.6553 26.6558 21.6069 26.387 21.3788 26.1113C21.0194 25.677 20.7359 25.1669 20.5078 24.643C20.0032 23.4919 20.0378 21.5894 21.8973 20.9276C21.7037 20.7966 21.4341 20.707 21.365 20.5416C21.0539 19.7903 20.3696 19.2526 20.2313 18.3772C20.1484 17.874 20.1415 17.4948 20.4871 17.1295C20.418 17.0192 20.3558 16.9089 20.3005 16.8193C20.3972 16.6814 20.4664 16.578 20.5009 16.5229C20.6184 16.5574 20.7014 16.578 20.8327 16.6125C20.7982 16.4126 20.7774 16.2885 20.7429 16.13C20.9986 15.999 21.2544 15.8749 21.5378 15.7302C21.4549 15.2339 21.0332 15.0271 20.7567 14.7376C20.3903 14.3447 20.2106 13.9311 20.2728 13.4003C20.2935 13.2211 20.2244 13.0281 20.2037 12.8695C20.6461 12.6834 20.4664 12.1457 20.7429 11.8769C21.047 11.5805 21.3581 11.2979 21.6484 11.029C21.6139 10.7602 21.5931 10.5465 21.5655 10.3259C21.448 10.3604 21.3443 10.388 21.1991 10.4293C20.6668 9.51945 19.8788 8.69227 20.5355 7.60315C21.0539 7.20335 21.4963 6.86558 21.9595 6.50024C21.8835 6.3348 21.8489 6.14869 21.7383 6.05219C21.1922 5.54899 20.9572 4.90104 20.812 4.20483C20.7774 4.04629 20.736 3.79123 20.812 3.73609C21.1023 3.52929 21.0194 3.21221 21.13 2.95716C21.1991 2.80551 21.3581 2.68833 21.3719 2.66765C21.3996 2.37124 21.3581 2.16445 21.441 2.02659C21.918 1.23388 22.5402 0.579025 23.2867 0C23.4319 0.0827179 23.5425 0.144758 23.6462 0.206797C23.6047 0.47563 23.5701 0.709995 23.5356 0.937469C23.0655 1.34417 22.5955 1.77154 22.3259 2.29542C22.077 2.78484 21.9388 3.37075 21.918 3.92221C21.8904 4.85968 22.3743 5.59724 23.1277 6.14869C23.3351 6.30034 23.5771 6.4382 23.5148 6.74839C23.2038 7.20334 22.7199 7.32743 22.2429 7.47908C21.7659 7.63073 21.4134 7.89267 21.3996 8.4579C21.3996 8.58198 21.3097 8.70605 21.2613 8.85081C21.7798 9.40915 22.077 10.1743 22.872 10.4845C23.0586 10.5534 23.1554 10.8498 23.342 11.1049C22.5263 11.7942 21.4272 12.0906 21.0885 13.2142C21.2337 13.5313 21.3028 13.9862 21.5724 14.193C22.077 14.5997 22.395 15.2201 23.0448 15.4613C23.3213 15.5647 23.5079 15.7509 23.4596 16.192C23.2798 16.2885 23.024 16.5436 22.8236 16.5022C22.153 16.3712 21.7175 16.7917 21.1161 17.0399C21.4341 17.5293 20.971 18.0601 21.3166 18.5495C21.6484 19.0182 21.9871 19.4938 22.2153 20.0108C22.4572 20.5761 23.3075 20.2452 23.4388 20.9069C23.2591 21.1413 23.0794 21.3688 22.8789 21.6307C22.2291 21.6032 21.7729 22.0305 21.3235 22.4028C21.2613 22.644 21.1853 22.8508 21.1507 23.0576C21.1231 23.2713 21.0401 23.5746 21.1438 23.6918C21.4618 24.0433 21.441 24.519 21.7176 24.9119C22.2084 25.6012 22.6024 26.3663 23.1969 26.9867C23.2314 27.0212 23.2176 27.0901 23.2383 27.1935C23.1416 27.3176 23.0241 27.4623 22.8927 27.6347C22.2014 27.5657 21.7037 27.8966 21.2198 28.4549C21.2406 28.6135 21.206 28.8547 21.3028 29.034C21.6484 29.6819 22.001 30.323 22.6922 30.6952C23.0241 30.8675 23.3075 31.1226 23.6047 31.3363C23.2245 32.0463 23.2245 32.0463 22.5056 31.9567C22.319 32.1152 22.1323 32.2738 21.8835 32.4737C21.8835 32.7287 21.8558 33.0251 21.8904 33.3146C21.9941 34.2452 22.5263 34.9621 23.0863 35.679C23.3766 36.0512 23.8812 36.3131 23.819 36.9266C23.6116 37.0921 23.4181 37.3333 23.1761 37.416C22.4987 37.6297 22.0355 38.0916 21.6208 38.643C21.7936 38.8774 21.9457 39.1393 22.1461 39.353C22.2637 39.484 22.4503 39.6425 22.6093 39.6425C23.2453 39.6563 23.5978 40.0354 23.9365 40.5111C23.8812 40.6696 23.8674 40.8488 23.7775 40.9729C23.3973 41.5175 22.8858 41.9517 22.4641 42.4687C21.7659 43.3304 21.7037 44.2954 22.5056 45.0468C22.7545 45.2811 23.024 45.5017 23.3006 45.743C23.1692 45.9842 23.0724 46.1704 23.0033 46.2944C22.5886 46.2944 22.2291 46.26 21.8835 46.3013C21.5516 46.3427 21.2129 46.4323 20.9019 46.5564C20.5839 46.6873 20.5009 47.1009 20.6737 47.5834C21.0747 48.6932 21.9526 49.3757 22.9134 49.9754C22.9757 50.0098 23.024 50.065 23.0794 50.1132C22.9895 50.3683 22.9065 50.5958 22.8512 50.7474C22.4503 51.0783 22.0839 51.3264 21.7867 51.6435C21.6415 51.7952 21.5586 52.0778 21.5724 52.2846C21.5931 52.5465 21.7245 52.8016 21.8351 53.0497C22.2014 53.8631 22.7959 54.5042 23.4596 55.0901C23.6531 55.2624 23.8605 55.4072 23.6946 55.7036C23.0724 56.0138 22.4434 56.324 21.842 56.6273C21.7245 56.903 21.6208 57.1443 21.5447 57.3097C21.5586 58.8538 22.6784 59.674 23.5079 60.6529C23.2591 60.8666 23.0655 61.0458 22.9618 61.1285C22.471 61.2319 22.1047 61.3146 21.7729 61.3835C21.6277 61.6593 21.5171 61.873 21.4341 62.0315C21.7176 62.9828 22.2567 63.679 22.9826 64.2511C23.1761 64.4027 23.3006 64.6509 23.5079 64.9197C22.7337 65.4505 21.7176 65.4436 21.2613 66.3259C21.2613 66.7326 21.2613 67.1669 21.2613 67.5116C21.7521 68.1388 22.471 68.4284 22.9342 68.966C23.0102 68.9798 23.0863 68.9867 23.1692 69.0005C23.1692 69.097 23.1692 69.2004 23.1692 69.3038C23.1761 69.3176 23.19 69.3314 23.1969 69.352C23.19 69.3934 23.1761 69.421 23.1692 69.4554C23.1692 69.5519 23.1692 69.6415 23.1692 69.7449C23.1416 69.7587 23.107 69.7794 23.0794 69.7932C23.0794 69.8001 23.0724 69.8139 23.0724 69.8277C23.0586 69.8277 23.0379 69.8277 23.024 69.8277C22.9687 69.8621 22.9273 69.8828 22.9342 69.8759C22.3604 69.8759 21.7659 70.0276 21.3374 70.0276C20.9502 70.517 20.7567 70.8547 20.3696 71.3373C20.7083 72.3506 21.6208 72.7504 22.319 73.3501C22.3743 73.5293 22.4365 73.7085 22.5056 73.9222C22.4503 74.0118 22.4019 74.1497 22.3051 74.2393C22.0839 74.4461 21.8212 74.6046 21.6139 74.8183C20.8535 75.6041 20.7774 76.5416 21.3857 77.3481C21.4825 77.4722 21.524 77.6307 21.5309 77.6445C22.1116 78.0443 22.5955 78.3683 23.2176 78.7957C23.2522 78.9818 23.3144 79.3333 23.3835 79.7331C23.2383 79.8434 23.0863 79.9606 22.9549 80.064C22.5332 79.9468 22.1392 79.8365 21.7659 79.7331C21.5309 79.8227 21.3304 79.8986 21.0816 79.9882C21.0816 80.4087 21.0125 80.8567 21.1023 81.2703C21.1922 81.7115 21.3512 82.1457 21.8074 82.4077C22.2498 82.6627 22.6577 82.9867 23.0863 83.2762C23.4734 83.5312 23.6738 83.8483 23.501 84.3171C23.266 84.6066 22.9757 84.5377 22.6646 84.4825C22.3673 84.4274 22.0494 84.3791 21.759 84.4136C21.5033 84.448 21.2544 84.5997 20.9433 84.7238C20.9433 84.7307 20.9295 84.841 20.888 84.9444C20.5147 85.8611 20.7083 86.6125 21.448 87.2535C21.7867 87.5499 22.1392 87.7981 22.5678 87.9773C22.9826 88.1497 23.3282 88.4668 23.7291 88.7356C23.6324 88.9906 23.5702 89.1561 23.5079 89.3215C22.9273 89.4042 22.3881 89.4732 21.8696 89.549C21.759 89.6731 21.6761 89.8661 21.5516 89.9005C21.0194 90.0315 20.9088 90.4451 20.8327 90.8863C20.7567 91.3067 20.57 91.6859 20.6253 92.1615C20.729 93.0438 21.3166 93.5608 21.8973 94.0985C22.2567 94.4293 22.6438 94.7188 23.0171 95.029C22.8167 95.2565 22.6369 95.4564 22.4365 95.6839C22.0839 95.7252 21.7175 95.7666 21.289 95.8149C21.3097 95.7942 21.282 95.8424 21.2406 95.8769C20.4733 96.4697 20.5078 97.3107 20.6046 98.1309C20.6392 98.4274 20.8258 98.7582 21.047 98.965C21.448 99.3579 21.8765 99.7302 22.312 100.109C21.8627 100.206 21.4065 100.289 20.9572 100.357C20.6253 99.9163 20.3074 99.4958 20.017 99.0615C19.699 98.517 19.5193 97.9379 19.706 97.2762Z" fill="#91ADA3" fill-opacity="0.5"/>
<path d="M19.706 196.514C19.8166 196.107 19.7958 195.659 19.9203 195.259C20.1138 194.632 20.6807 194.37 21.3374 194.088C21.0263 193.729 20.7705 193.398 20.4802 193.109C19.9617 192.585 19.7405 191.958 19.7889 191.248C19.8373 190.613 19.8235 189.945 20.0516 189.38C20.2313 188.938 20.736 188.621 21.1092 188.27C21.3166 188.077 21.5586 187.925 21.918 187.643C21.5862 187.56 21.4341 187.525 21.2821 187.491C20.5078 187.091 20.1622 186.326 19.8649 185.547C19.4778 184.547 20.017 183.445 21.1161 182.948C21.289 182.872 21.4756 182.817 21.7452 182.728C20.8673 182.376 20.7705 181.473 20.2521 180.929C20.1345 180.026 20.1069 179.178 20.7567 178.364C20.9641 178.295 21.2751 178.192 21.5931 178.089C21.5586 177.544 20.9641 177.613 20.7567 177.22C20.7567 177.22 20.7982 177.186 20.8811 177.103C20.3143 176.882 20.2935 176.31 20.1691 175.862C20.0309 175.366 20.2521 174.814 20.4525 174.339C20.653 173.856 20.9917 173.422 21.2751 172.974C20.9157 172.609 20.4041 172.491 20.1069 171.995C19.5677 171.099 19.5401 170.051 20.2313 169.3C20.3004 169.224 20.5355 168.521 21.5378 168.266C21.2544 167.907 20.8396 167.701 20.6184 167.28C20.3074 166.68 20.176 165.495 20.5424 164.957C20.57 164.909 20.6115 164.861 20.653 164.84C21.1161 164.606 21.2959 164.027 21.8558 163.916C21.4065 163.372 21.1991 162.738 20.7498 162.234C20.577 162.048 20.3834 161.593 20.6046 161.18C20.7705 160.876 20.7913 160.497 20.9572 160.201C21.0401 160.049 21.3304 160.022 21.4894 159.898C21.6139 159.801 21.6761 159.643 21.7729 159.498C21.6623 159.374 21.5378 159.291 21.5033 159.174C21.4618 159.036 21.4963 158.87 21.4963 158.767C21.2337 158.609 21.0539 158.491 21.0055 158.464C20.3143 157.333 20.6323 156.354 21.0608 155.389C21.3719 155.038 21.9457 154.962 22.1254 154.424C21.3719 153.735 21.0055 152.839 20.577 151.922C20.7429 151.922 20.8258 151.922 20.9157 151.922C20.9641 151.86 21.0194 151.798 21.0678 151.729C20.8811 151.626 20.7014 151.522 20.5147 151.412C20.6668 150.681 21.2406 150.22 21.6899 149.641C21.5102 149.503 21.365 149.385 21.2198 149.282C21.2267 149.124 21.2337 148.972 21.2475 148.731C21.1369 148.889 21.0816 148.965 20.9986 149.089C20.6253 148.676 20.3004 148.303 20.0862 148.069C19.6368 147.104 19.4571 146.277 19.9272 145.401C20.3765 145.132 20.8535 144.843 21.3788 144.519C21.1784 143.947 20.7221 143.423 20.8051 142.754C20.9779 142.479 21.2406 142.224 21.3028 141.927C21.4203 141.376 21.8005 141.01 22.0978 140.583C22.2153 140.417 22.3812 140.287 22.5609 140.094C22.1323 139.866 21.7798 139.659 21.5586 139.287C21.4825 139.163 21.3788 139.032 21.2475 138.97C20.7982 138.742 20.7912 138.356 20.7705 137.929C20.7359 137.295 21.0954 136.895 21.5447 136.564C21.8627 136.323 22.2222 136.137 22.5955 135.909C22.5125 135.772 22.4434 135.654 22.4019 135.579C22.4779 135.475 22.5402 135.399 22.6231 135.289C22.4088 135.179 22.2429 135.11 22.0839 135.02C21.9318 134.931 21.6553 134.813 21.6622 134.724C21.6968 134.289 21.3097 134.083 21.1991 133.738C20.9779 133.049 20.6599 132.359 20.9572 131.636C21.1369 131.201 21.4549 130.815 21.7383 130.36C20.7429 129.671 20.3972 128.575 20.2659 127.321C20.729 126.941 21.1922 126.555 21.683 126.149C21.6553 125.894 21.6069 125.625 21.3788 125.349C21.0194 124.915 20.7359 124.405 20.5078 123.881C20.0032 122.73 20.0378 120.827 21.8973 120.165C21.7037 120.034 21.4341 119.945 21.365 119.779C21.0539 119.028 20.3696 118.49 20.2313 117.615C20.1484 117.112 20.1415 116.733 20.4871 116.367C20.418 116.257 20.3558 116.147 20.3005 116.057C20.3972 115.919 20.4664 115.816 20.5009 115.761C20.6184 115.795 20.7014 115.816 20.8327 115.85C20.7982 115.65 20.7774 115.526 20.7429 115.368C20.9986 115.237 21.2544 115.113 21.5378 114.968C21.4549 114.472 21.0332 114.265 20.7567 113.975C20.3903 113.582 20.2106 113.169 20.2728 112.638C20.2935 112.459 20.2244 112.266 20.2037 112.107C20.6461 111.921 20.4664 111.384 20.7429 111.115C21.047 110.818 21.3581 110.536 21.6484 110.267C21.6139 109.998 21.5931 109.784 21.5655 109.564C21.448 109.598 21.3443 109.626 21.1991 109.667C20.6668 108.757 19.8788 107.93 20.5355 106.841C21.0539 106.441 21.4963 106.103 21.9595 105.738C21.8835 105.573 21.8489 105.386 21.7383 105.29C21.1922 104.787 20.9572 104.139 20.812 103.443C20.7774 103.284 20.736 103.029 20.812 102.974C21.1023 102.767 21.0194 102.45 21.13 102.195C21.1991 102.043 21.3581 101.926 21.3719 101.905C21.3996 101.609 21.3581 101.402 21.441 101.264C21.918 100.472 22.5402 99.8168 23.2867 99.2378C23.4319 99.3205 23.5425 99.3826 23.6462 99.4446C23.6047 99.7134 23.5701 99.9478 23.5356 100.175C23.0655 100.582 22.5955 101.009 22.3259 101.533C22.077 102.023 21.9388 102.609 21.918 103.16C21.8904 104.097 22.3743 104.835 23.1277 105.386C23.3351 105.538 23.5771 105.676 23.5148 105.986C23.2038 106.441 22.7199 106.565 22.2429 106.717C21.7659 106.869 21.4134 107.13 21.3996 107.696C21.3996 107.82 21.3097 107.944 21.2613 108.089C21.7798 108.647 22.077 109.412 22.872 109.722C23.0586 109.791 23.1554 110.088 23.342 110.343C22.5263 111.032 21.4272 111.328 21.0885 112.452C21.2337 112.769 21.3028 113.224 21.5724 113.431C22.077 113.837 22.395 114.458 23.0448 114.699C23.3213 114.803 23.5079 114.989 23.4596 115.43C23.2798 115.526 23.024 115.781 22.8236 115.74C22.153 115.609 21.7175 116.03 21.1161 116.278C21.4341 116.767 20.971 117.298 21.3166 117.787C21.6484 118.256 21.9871 118.732 22.2153 119.249C22.4572 119.814 23.3075 119.483 23.4388 120.145C23.2591 120.379 23.0794 120.607 22.8789 120.869C22.2291 120.841 21.7729 121.268 21.3235 121.641C21.2613 121.882 21.1853 122.089 21.1507 122.295C21.1231 122.509 21.0401 122.812 21.1438 122.93C21.4618 123.281 21.441 123.757 21.7176 124.15C22.2084 124.839 22.6024 125.604 23.1969 126.224C23.2314 126.259 23.2176 126.328 23.2383 126.431C23.1416 126.555 23.0241 126.7 22.8927 126.872C22.2014 126.804 21.7037 127.134 21.2198 127.693C21.2406 127.851 21.206 128.093 21.3028 128.272C21.6484 128.92 22.001 129.561 22.6922 129.933C23.0241 130.105 23.3075 130.36 23.6047 130.574C23.2245 131.284 23.2245 131.284 22.5056 131.194C22.319 131.353 22.1323 131.512 21.8835 131.711C21.8835 131.966 21.8558 132.263 21.8904 132.552C21.9941 133.483 22.5263 134.2 23.0863 134.917C23.3766 135.289 23.8812 135.551 23.819 136.164C23.6116 136.33 23.4181 136.571 23.1761 136.654C22.4987 136.868 22.0355 137.329 21.6208 137.881C21.7936 138.115 21.9457 138.377 22.1461 138.591C22.2637 138.722 22.4503 138.88 22.6093 138.88C23.2453 138.894 23.5978 139.273 23.9365 139.749C23.8812 139.907 23.8674 140.087 23.7775 140.211C23.3973 140.755 22.8858 141.19 22.4641 141.707C21.7659 142.568 21.7037 143.533 22.5056 144.285C22.7545 144.519 23.024 144.74 23.3006 144.981C23.1692 145.222 23.0724 145.408 23.0033 145.532C22.5886 145.532 22.2291 145.498 21.8835 145.539C21.5516 145.58 21.2129 145.67 20.9019 145.794C20.5839 145.925 20.5009 146.339 20.6737 146.821C21.0747 147.931 21.9526 148.613 22.9134 149.213C22.9757 149.248 23.024 149.303 23.0794 149.351C22.9895 149.606 22.9065 149.834 22.8512 149.985C22.4503 150.316 22.0839 150.564 21.7867 150.881C21.6415 151.033 21.5586 151.316 21.5724 151.522C21.5931 151.784 21.7245 152.039 21.8351 152.288C22.2014 153.101 22.7959 153.742 23.4596 154.328C23.6531 154.5 23.8605 154.645 23.6946 154.941C23.0724 155.252 22.4434 155.562 21.842 155.865C21.7245 156.141 21.6208 156.382 21.5447 156.547C21.5586 158.092 22.6784 158.912 23.5079 159.891C23.2591 160.104 23.0655 160.284 22.9618 160.366C22.471 160.47 22.1047 160.552 21.7729 160.621C21.6277 160.897 21.5171 161.111 21.4341 161.269C21.7176 162.221 22.2567 162.917 22.9826 163.489C23.1761 163.641 23.3006 163.889 23.5079 164.158C22.7337 164.688 21.7176 164.681 21.2613 165.564C21.2613 165.97 21.2613 166.405 21.2613 166.749C21.7521 167.377 22.471 167.666 22.9342 168.204C23.0102 168.218 23.0863 168.224 23.1692 168.238C23.1692 168.335 23.1692 168.438 23.1692 168.542C23.1761 168.555 23.19 168.569 23.1969 168.59C23.19 168.631 23.1761 168.659 23.1692 168.693C23.1692 168.79 23.1692 168.879 23.1692 168.983C23.1416 168.997 23.107 169.017 23.0794 169.031C23.0794 169.038 23.0724 169.052 23.0724 169.065C23.0586 169.065 23.0379 169.065 23.024 169.065C22.9687 169.1 22.9273 169.121 22.9342 169.114C22.3604 169.114 21.7659 169.265 21.3374 169.265C20.9502 169.755 20.7567 170.093 20.3696 170.575C20.7083 171.588 21.6208 171.988 22.319 172.588C22.3743 172.767 22.4365 172.946 22.5056 173.16C22.4503 173.25 22.4019 173.387 22.3051 173.477C22.0839 173.684 21.8212 173.842 21.6139 174.056C20.8535 174.842 20.7774 175.779 21.3857 176.586C21.4825 176.71 21.524 176.869 21.5309 176.882C22.1116 177.282 22.5955 177.606 23.2176 178.033C23.2522 178.22 23.3144 178.571 23.3835 178.971C23.2383 179.081 23.0863 179.198 22.9549 179.302C22.5332 179.185 22.1392 179.074 21.7659 178.971C21.5309 179.061 21.3304 179.136 21.0816 179.226C21.0816 179.646 21.0125 180.094 21.1023 180.508C21.1922 180.949 21.3512 181.384 21.8074 181.645C22.2498 181.9 22.6577 182.224 23.0863 182.514C23.4734 182.769 23.6738 183.086 23.501 183.555C23.266 183.844 22.9757 183.775 22.6646 183.72C22.3673 183.665 22.0494 183.617 21.759 183.651C21.5033 183.686 21.2544 183.837 20.9433 183.962C20.9433 183.968 20.9295 184.079 20.888 184.182C20.5147 185.099 20.7083 185.85 21.448 186.491C21.7867 186.788 22.1392 187.036 22.5678 187.215C22.9826 187.387 23.3282 187.705 23.7291 187.973C23.6324 188.228 23.5702 188.394 23.5079 188.559C22.9273 188.642 22.3881 188.711 21.8696 188.787C21.759 188.911 21.6761 189.104 21.5516 189.138C21.0194 189.269 20.9088 189.683 20.8327 190.124C20.7567 190.545 20.57 190.924 20.6253 191.399C20.729 192.282 21.3166 192.799 21.8973 193.336C22.2567 193.667 22.6438 193.957 23.0171 194.267C22.8167 194.494 22.6369 194.694 22.4365 194.922C22.0839 194.963 21.7175 195.004 21.289 195.053C21.3097 195.032 21.282 195.08 21.2406 195.115C20.4733 195.707 20.5078 196.548 20.6046 197.369C20.6392 197.665 20.8258 197.996 21.047 198.203C21.448 198.596 21.8765 198.968 22.312 199.347C21.8627 199.444 21.4065 199.526 20.9572 199.595C20.6253 199.154 20.3074 198.734 20.017 198.299C19.699 197.755 19.5193 197.176 19.706 196.514Z" fill="#91ADA3" fill-opacity="0.5"/>
<path d="M9.43529 265.614C9.65179 264.938 9.87486 264.243 10.3538 263.666C10.6293 263.325 10.7605 262.866 10.9639 262.466C11.41 261.594 12.1186 261.096 13.1027 261.023C13.6866 260.978 14.2705 260.892 14.8544 260.892C16.8882 260.892 18.3381 262.001 19.5256 263.502C19.9717 264.066 20.2932 264.728 20.6803 265.338C20.8443 265.594 21.028 265.837 21.2838 266.191C21.5397 265.935 21.6775 265.81 21.7956 265.679C23.0618 264.23 24.7282 263.371 26.5127 262.853C27.8314 262.466 29.2616 262.237 30.6524 262.414C32.2204 262.617 33.5391 263.922 33.2636 265.719C33.1783 266.296 33.093 266.879 32.9093 267.424C32.7059 268.007 32.391 268.558 32.1024 269.109C31.8268 269.627 31.4922 270.106 31.2363 270.63C30.7574 271.594 30.0554 272.217 28.9532 272.309C27.3459 271.994 26.0403 271.109 24.7807 270.138C23.8884 269.456 23.0027 268.768 22.0317 268.014C21.953 268.289 21.8415 268.46 21.8677 268.604C22.1695 270.171 22.6419 271.666 23.6326 272.965C24.1246 273.614 24.5838 274.283 25.0365 274.965C25.9091 276.289 27.1687 277.109 28.6186 277.647C30.495 278.342 32.4369 278.762 34.4511 278.735C34.9431 278.729 35.4417 278.663 35.9338 278.611C37.3246 278.453 38.7155 278.257 40.1129 278.139C41.5956 278.007 43.0718 278.093 44.5414 278.335C45.5058 278.499 46.3324 278.984 47.0869 279.542C47.7626 280.047 48.4056 280.637 48.8911 281.352C49.6193 282.434 50.4328 283.47 50.8265 284.748C50.938 285.109 50.9839 285.444 50.8724 285.798C50.4394 286.014 50.0195 286.001 49.5668 285.85C48.7533 285.575 47.8938 285.562 47.0541 285.45C46.9819 285.444 46.8966 285.516 46.7654 285.575C47.4674 287.404 48.4318 289.181 48.0251 291.24C47.5527 291.378 47.2247 291.234 46.9688 290.965C46.562 290.539 46.1881 290.093 45.8076 289.647C45.0793 288.788 44.3708 287.909 43.3801 287.312C43.0193 287.096 42.665 286.952 42.2386 286.978C41.4775 287.017 40.7165 287.004 39.9555 287.155C38.4662 287.45 36.99 287.273 35.5401 286.827C35.3696 286.775 35.199 286.69 35.0284 286.663C33.854 286.493 32.7978 285.935 31.6628 285.66C30.7312 285.437 29.8717 285.024 29.0582 284.545C28.4874 284.211 27.9363 283.844 27.464 283.319C26.5652 282.309 25.6729 281.293 24.8594 280.217C24.7282 280.04 24.6429 279.811 24.328 279.817C24.4067 280.178 24.2886 280.525 24.4986 280.912C24.6757 281.234 24.5182 281.726 24.6495 282.093C24.8922 282.781 24.9316 283.509 25.0956 284.211C25.4105 285.588 25.4892 286.978 25.5155 288.381C25.5351 289.503 25.5679 290.631 25.6204 291.752C25.7188 293.831 25.1087 295.759 24.3673 297.66C24.1574 298.191 23.9671 298.736 23.8162 299.293C23.3504 301.024 22.4648 302.526 21.3363 303.896C21.0608 304.231 20.6475 304.454 20.2801 304.742C19.8536 304.624 19.4665 304.513 19.1254 304.414C18.7973 303.844 18.8564 303.3 18.9614 302.768C19.1582 301.732 19.0729 300.703 18.9614 299.673C18.9286 299.378 18.7973 299.162 18.4037 299.103C17.8985 299.595 17.3474 300.113 16.816 300.65C16.0681 301.411 15.2152 301.955 14.1196 302.06C13.9425 302.08 13.7719 302.152 13.5226 302.218C13.1683 302.027 12.7747 301.824 12.4204 301.634C12.2301 300.906 12.5057 300.447 12.9846 300.027C15.025 298.27 16.2781 295.995 17.2031 293.516C17.8461 291.785 18.4628 290.04 19.027 288.276C19.296 287.424 19.4075 286.526 19.5977 285.647C19.9717 283.922 20.0767 282.165 20.1685 280.407C20.1948 279.916 20.2013 279.424 20.1882 278.932C20.1685 277.771 20.1292 276.604 20.0964 275.404C19.5715 275.889 19.0663 276.617 18.8367 277.247C18.5218 278.099 18.1085 278.893 17.5836 279.64C17.2425 280.119 16.9472 280.63 16.652 281.135C15.3202 283.457 13.7522 285.601 11.9218 287.555C11.7971 287.686 11.679 287.831 11.5937 287.981C11.4035 288.329 10.8786 288.27 10.754 288.768C10.6753 289.076 10.2947 289.306 10.0717 289.581C9.27127 290.578 8.33966 291.411 7.23091 292.034C7.11282 292.099 7.01441 292.198 6.916 292.283C5.53826 293.45 5.22991 293.621 3.22235 294.296C3.03209 294.204 2.78935 294.093 2.54004 293.975C2.52036 293.837 2.49411 293.706 2.481 293.575C2.41539 293.09 2.6975 292.703 2.8812 292.296C3.35356 291.28 3.87842 290.283 4.32454 289.253C4.57384 288.676 4.71162 288.047 4.84939 287.437C4.89532 287.24 4.79691 287.011 4.75754 286.762C3.1633 286.322 1.52314 286.185 0.040432 285.385C0.0338707 285.194 -0.0382957 284.991 0.0273094 284.86C0.125721 284.676 0.302856 284.467 0.493118 284.408C1.39193 284.119 2.3301 283.942 3.20267 283.594C4.75098 282.978 6.36491 282.512 7.69672 281.424C8.56929 280.716 9.57307 280.165 10.4522 279.463C11.5741 278.558 12.7353 277.693 13.6932 276.591C14.0737 276.152 14.5329 275.765 14.979 275.391C16.1009 274.447 16.9341 273.279 17.6558 272.02C18.1347 271.188 18.6202 270.355 19.1451 269.45C18.9286 269.561 18.758 269.627 18.6136 269.725C17.3015 270.637 15.7598 270.991 14.3033 271.542C13.4963 271.843 12.6894 271.719 11.9087 271.568C11.3444 271.456 10.8458 271.148 10.4588 270.637C10.0258 270.066 9.78301 269.397 9.38281 268.807M16.219 276.079C16.0288 276.184 15.8122 276.27 15.6482 276.407C14.651 277.253 13.6932 278.139 12.7287 279.017C11.4297 280.198 9.99295 281.221 8.51024 282.178C8.01819 282.493 7.54582 282.853 7.04065 283.142C6.01063 283.719 4.92156 284.152 3.77345 284.44C3.55694 284.493 3.36012 284.611 3.15674 284.703C2.98616 284.781 2.82215 284.88 2.63845 284.978C3.6816 285.706 5.03965 285.306 5.9319 286.152C6.22713 287.004 6.1156 287.811 5.81381 288.572C5.34144 289.739 4.79691 290.88 4.29174 292.034C4.20645 292.231 4.12772 292.44 4.02275 292.716C4.59352 292.69 4.99372 292.467 5.33488 292.204C6.7651 291.116 8.26749 290.106 9.42217 288.683C10.5309 287.319 11.8365 286.132 12.8796 284.709C13.3586 284.06 13.9162 283.47 14.2967 282.742C14.6707 282.027 15.1693 281.385 15.6023 280.703C16.0878 279.942 16.5733 279.181 17.0194 278.394C17.3934 277.725 17.7148 277.024 18.0429 276.329C18.0888 276.23 18.0429 276.093 18.0363 275.889C17.8789 276.014 17.7608 276.073 17.6886 276.165C16.5536 277.561 15.412 278.958 14.2902 280.362C13.726 281.063 13.2011 281.798 12.6435 282.506C11.8693 283.496 11.0295 284.427 9.9339 285.142C9.76332 285.037 9.61899 284.952 9.46153 284.853C9.70428 284.257 10.0717 283.811 10.4653 283.371C10.859 282.932 11.2329 282.48 11.5872 282.007C12.6959 280.525 13.8047 279.043 15.0447 277.666C15.4777 277.188 15.9894 276.729 16.1862 276.066C16.4158 275.922 16.7242 275.817 16.5077 275.437C16.2781 275.594 16.1403 275.784 16.219 276.079ZM44.9678 279.516C44.0034 279.365 43.1505 279.089 42.3173 279.135C40.7034 279.227 39.0829 279.253 37.4755 279.548C35.9272 279.824 34.3461 279.942 32.7584 279.693C31.2888 279.463 29.8258 279.227 28.4415 278.637C28.1791 278.525 27.8904 278.322 27.5427 278.571C27.6346 278.683 27.6936 278.814 27.792 278.866C28.6711 279.319 29.5765 279.725 30.4491 280.204C31.5709 280.821 32.7912 281.109 34.0377 281.273C35.1465 281.417 36.3012 281.26 37.3837 281.666C38.3678 281.503 39.0632 282.132 39.8374 282.545C40.1392 282.703 40.2704 282.998 40.1982 283.417C39.9358 283.352 39.6865 283.299 39.4372 283.221C38.7942 283.017 38.1644 282.748 37.5018 282.617C36.7998 282.48 36.0781 282.414 35.363 282.401C33.0996 282.355 30.9936 281.817 29.0648 280.611C28.6055 280.322 28.1266 280.066 27.6477 279.83C26.7029 279.365 25.8697 278.768 25.2662 277.883C25.1153 277.66 24.8528 277.502 24.5379 277.221C24.8069 277.817 24.9447 278.309 25.2137 278.709C26.5783 280.703 28.0216 282.624 30.0292 283.968C31.4397 284.414 32.8175 284.821 34.1821 285.286C35.5533 285.758 36.9441 286.139 38.394 286.145C39.201 286.152 40.0145 286.067 40.8083 285.929C42.4354 285.647 43.8525 285.955 45.0268 287.168C45.2433 287.391 45.5123 287.568 45.7354 287.785C45.9388 287.981 46.1094 288.204 46.4767 288.637C46.4046 288.093 46.4177 287.824 46.3324 287.594C46.0962 286.958 45.8272 286.342 45.5648 285.712C45.4008 285.332 45.2958 284.945 45.4861 284.539C46.1356 284.119 46.1356 284.112 46.4505 284.178C46.8048 284.257 47.1525 284.362 47.5068 284.44C48.1235 284.578 48.7336 284.729 49.3897 284.578C49.3372 283.601 48.6352 282.952 48.13 282.23C47.3231 281.07 46.2406 280.184 44.9678 279.516ZM21.5528 273.404C21.4938 273.417 21.4282 273.43 21.3691 273.443C21.3363 273.575 21.251 273.712 21.2707 273.83C21.4675 275.083 21.5463 276.335 21.356 277.601C21.3363 277.732 21.3363 277.876 21.3626 278.007C21.5463 279.03 21.3822 280.06 21.3822 281.083C21.3822 281.752 21.3822 282.427 21.2445 283.076C21.1067 283.732 21.1329 284.394 21.0017 285.044C20.8574 285.752 20.7852 286.473 20.6015 287.168C20.4113 287.903 20.1095 288.604 19.8864 289.326C19.6371 290.139 19.3878 290.945 19.1516 291.765C18.8105 292.972 18.3184 294.145 17.7804 295.28C17.3212 296.244 16.8816 297.234 16.1731 298.073C15.6548 298.69 15.1824 299.345 14.6576 299.962C14.4411 300.218 14.1524 300.421 13.8834 300.657C13.9293 300.762 13.9818 300.88 14.0606 301.057C14.2836 300.985 14.5198 300.959 14.6904 300.841C15.3989 300.355 16.1009 299.87 16.6586 299.195C17.1506 298.598 17.7411 298.119 18.4431 297.772C18.7121 297.791 18.9745 297.811 19.1647 297.824C19.8799 298.539 20.0767 299.372 20.2341 300.218C20.385 301.024 20.3325 301.831 20.2079 302.637C20.1816 302.814 20.162 302.998 20.3916 303.07C20.4703 303.031 20.5818 303.011 20.6212 302.946C21.1264 302.152 21.6906 301.398 22.0121 300.5C22.6353 298.755 23.2848 297.024 23.8819 295.267C24.3608 293.85 24.5379 292.381 24.3936 290.88C24.3477 290.434 24.328 289.975 24.3411 289.529C24.3936 287.673 24.1443 285.844 23.8228 284.021C23.7966 283.857 23.6916 283.706 23.5276 283.352C23.4948 284.152 23.4554 284.722 23.4423 285.299C23.4226 285.922 23.4948 286.558 23.3964 287.168C23.3045 287.732 23.2127 288.303 23.088 288.853C22.9568 289.444 23.0487 290.139 22.4582 290.65C22.3073 290.657 22.1039 290.67 21.7365 290.696C22.4779 287.765 22.5107 284.873 22.655 281.988C22.8453 281.791 23.029 281.594 23.298 281.325C23.2192 279.503 22.4123 277.745 22.2023 275.87C22.117 275.03 21.7759 274.224 21.5528 273.404ZM20.0636 266.781C19.9914 266.427 19.9979 266.237 19.9127 266.106C19.4206 265.351 18.9679 264.551 18.384 263.876C17.249 262.571 15.8975 261.646 14.0212 262.014C13.89 262.04 13.7456 262.046 13.6144 262.02C12.8665 261.85 12.427 262.269 12.0268 262.801C11.2723 263.784 10.8786 264.938 10.4456 266.073C10.4259 266.125 10.4784 266.204 10.5112 266.342C10.6753 266.204 10.8065 266.099 10.9377 265.981C11.6462 265.325 12.4794 265.109 13.4307 265.207C14.1983 265.286 14.9397 265.41 15.6745 265.666C17.0391 266.145 18.43 266.525 20.0636 266.781ZM19.4928 268.086C19.4993 268.001 19.4993 267.922 19.5059 267.837C19.25 267.778 19.0007 267.706 18.7449 267.653C18.3906 267.581 18.0297 267.542 17.6886 267.437C16.7045 267.135 15.7335 266.781 14.7429 266.499C13.5291 266.145 12.3351 266.079 11.2067 267.096C11.0951 267.548 10.9508 268.112 10.8196 268.63C11.0886 269.233 11.3248 269.765 11.5281 270.211C12.0727 270.506 12.5385 270.597 13.0502 270.617C14.2246 270.663 15.2349 270.178 16.2453 269.692C16.7701 269.443 17.2556 269.109 17.7804 268.853C18.3315 268.578 18.9154 268.342 19.4928 268.086ZM30.8165 263.417C29.2353 263.509 27.7133 263.489 26.2371 264.066C24.2821 264.827 23.1143 265.614 22.5304 266.637C22.7272 266.643 22.9109 266.689 23.0815 266.656C23.8753 266.492 24.7085 266.401 25.4499 266.106C26.2831 265.771 27.1294 265.719 27.9626 265.83C29.1763 265.994 30.3179 266.401 31.1117 267.437C31.2232 267.581 31.3479 267.712 31.6103 267.594C32.0039 266.473 32.4107 265.332 31.7284 264.125C31.4463 263.909 31.1642 263.686 30.8165 263.417ZM28.9401 271.214C29.8849 270.991 30.167 270.335 30.3638 269.627C30.5934 268.788 30.3047 267.942 29.5503 267.522C29.0123 267.22 28.4481 266.938 27.792 266.886C27.0178 266.827 26.2699 266.84 25.5351 267.122C24.9709 267.338 24.3477 267.41 23.731 267.804C24.6363 268.558 25.4039 269.306 26.2831 269.902C26.8932 270.315 27.4902 270.834 28.2841 270.945C28.5006 270.971 28.7039 271.109 28.9401 271.214ZM18.8958 274.348C18.5677 274.716 18.5677 274.716 18.5087 275.319C18.6399 275.076 18.7449 274.938 18.7973 274.775C18.8433 274.65 19.0401 274.538 18.8958 274.348ZM23.5341 282.735C23.5079 282.748 23.4817 282.762 23.4554 282.768C23.5013 282.873 23.5473 282.971 23.5932 283.076C23.6194 283.063 23.6457 283.05 23.6719 283.044C23.626 282.939 23.5801 282.84 23.5341 282.735Z" fill="#91ADA3" fill-opacity="0.5"/>
<path d="M28.1922 252.269C27.7527 252.046 27.3 251.876 26.9129 251.522C26.329 250.977 25.9878 250.328 25.7976 249.607C25.1612 249.509 24.5445 249.417 23.9344 249.325C23.6982 248.958 23.4817 248.623 23.2848 248.315C23.1602 247.653 23.4948 247.141 23.7375 246.538C24.2361 246.184 24.7741 245.804 25.3187 245.423C24.6298 244.564 23.7835 243.764 23.9147 242.433C24.1115 242.099 24.3411 241.712 24.5839 241.312C24.433 241.115 24.1771 240.938 24.1312 240.708C23.8753 239.567 23.5145 238.42 23.9147 237.246C24.2033 236.394 24.492 235.528 24.9053 234.741C25.2662 234.059 25.8369 233.521 26.8014 233.266C28.7499 233.843 29.6749 235.659 30.8624 237.318C31.3741 236.131 31.2495 234.898 31.525 233.679C31.1379 233.456 30.764 233.239 30.3638 233.016C30.2457 232.715 30.1342 232.42 30.0358 232.171C29.9964 231.403 30.436 230.63 31.0658 230.374C31.4397 230.223 31.8334 230.125 32.227 230C32.4894 230.072 32.7519 230.131 33.0077 230.216C33.2177 230.289 33.4211 230.393 33.6572 230.498C33.8541 230.938 34.0509 231.384 34.2411 231.81C34.1296 232.341 33.6704 232.505 33.3489 232.8C33.0733 232.833 32.8044 232.859 32.5157 232.892C32.6075 234.308 32.2533 235.666 32.0892 237.128C32.2664 237.089 32.4042 237.095 32.4763 237.03C33.4604 236.144 34.7135 235.777 35.8944 235.305C36.6686 234.997 37.4952 235.154 38.2497 235.587C38.6696 236.276 38.7089 237.003 38.6565 237.797C38.5646 239.292 37.8036 240.426 36.8588 241.482C36.3799 242.02 35.8879 242.538 35.4286 243.181C35.7304 243.39 35.9797 243.561 36.229 243.738C37.2853 244.479 37.3837 244.892 36.8129 246.079C36.0191 246.912 34.8578 246.82 33.9065 247.39C34.9103 247.653 35.8485 247.902 36.7735 248.145C37.4034 247.771 38.0201 247.397 38.6433 247.036C39.26 246.689 39.575 246.066 40.0867 245.567C39.9161 245.181 39.7521 244.82 39.6012 244.479C39.5815 243.889 39.9489 243.272 40.5197 243.082C41.3857 242.8 42.2451 242.643 43.1243 243.148C43.9706 243.633 44.233 244.059 44.0428 245.01C44.01 245.181 43.9247 245.345 43.8591 245.535C43.7082 245.64 43.5638 245.738 43.4129 245.836C43.262 245.935 43.098 246.02 42.9406 246.105C42.2911 246.368 41.7203 246 41.0905 245.79C40.9264 245.981 40.7362 246.118 40.6575 246.302C40.336 247.043 39.7849 247.548 39.1091 247.954C38.7286 248.184 38.3219 248.387 38.0332 248.84C38.4793 249.194 38.8926 249.522 39.306 249.85C39.47 249.817 39.6012 249.81 39.7193 249.758C40.5787 249.384 40.9527 249.417 41.5366 250C41.7925 250.256 42.0221 250.545 42.2123 250.846C42.5994 251.463 42.7175 252.105 42.1861 252.827C41.2938 253.358 40.3754 253.161 39.4897 252.702C39.0698 252.177 38.8795 251.653 38.9976 250.997C37.6199 249.613 35.9141 248.905 34.0246 248.558C33.7294 248.899 33.8606 249.292 33.7097 249.686C33.526 249.843 33.2964 250.04 33.0799 250.223C33.1127 250.361 33.1193 250.453 33.1586 250.525C33.2046 250.597 33.303 250.643 33.3489 250.715C34.3395 252.4 35.1137 254.164 35.3302 256.125C35.363 256.427 35.2908 256.741 35.2712 257.063C34.4708 257.135 33.7097 257.161 32.9618 257.286C32.3517 257.391 31.8006 257.279 31.2495 257.076C30.7902 256.899 30.2785 256.794 29.8783 256.525C28.8352 255.823 28.1135 254.859 27.8642 253.6C27.8051 253.292 27.7789 252.977 27.7264 252.591C27.8707 252.473 28.0348 252.335 28.1988 252.204C28.7039 253.214 29.0845 254.282 29.8717 255.155C31.0986 255.909 31.4135 256.014 32.3123 255.968C31.4988 254.453 30.5475 252.276 30.1998 250.951C29.8849 251.318 29.57 251.679 29.2878 252.007C28.8876 252.105 28.5399 252.184 28.1922 252.269ZM26.657 247.568C26.8538 247.758 26.9982 247.836 27.031 247.948C27.0966 248.158 27.1294 248.394 27.1097 248.61C27.0572 249.095 26.8276 249.574 27.0572 250.066C27.464 250.63 27.897 251.154 28.7171 250.951C29.4847 250.184 29.0976 249.036 29.6093 248.151C29.8258 248.125 30.0489 248.099 30.2982 248.066C30.9346 248.61 31.5775 249.174 32.5813 249.095C32.5288 248.138 31.6169 247.777 31.3282 246.977C31.4266 246.781 31.5382 246.545 31.5972 246.433C32.9553 246.171 34.1887 245.928 35.3696 245.699C35.5861 245.39 35.9863 245.318 35.9469 244.899C34.7594 243.889 33.4735 244.105 32.1877 244.708C31.9646 244.538 31.794 244.407 31.5644 244.23C31.5972 243.882 31.5972 243.522 31.6759 243.181C31.7612 242.787 31.9252 242.413 32.0368 242.02C32.0696 241.895 32.0499 241.758 32.0499 241.574C31.8137 241.344 31.5578 241.102 31.2888 240.84C30.9018 240.971 30.5606 241.076 30.2195 241.194C29.5371 241.43 29.0779 241.869 28.8811 242.597C28.7827 242.971 28.5465 243.312 28.3956 243.613C27.9757 243.745 27.7198 243.62 27.4574 243.397C27.0113 243.017 26.5521 242.649 26.06 242.341C25.8632 242.217 25.5614 242.249 25.2662 242.203C25.1678 242.42 25.0431 242.584 25.0431 242.741C25.0365 243.312 25.2334 243.81 25.6992 244.164C26.0534 244.433 26.4536 244.649 26.821 244.905C26.9982 245.03 27.1425 245.194 27.2672 245.305C27.2737 245.908 26.8998 246.059 26.4864 246.164C25.6139 246.381 24.9906 246.945 24.4133 247.554C24.5182 248.027 24.5183 248.027 24.9185 248.335C25.463 248.099 26.0338 247.85 26.657 247.568ZM37.1409 236.413C36.6227 236.19 36.0584 236.321 35.5139 236.538C34.766 236.839 34.0509 237.187 33.362 237.633C32.5222 238.177 31.9252 238.892 31.3348 239.587C31.9908 240.007 32.5879 240.387 33.2242 240.794C34.0115 240.217 34.5823 239.41 35.2318 238.676C35.8879 237.935 36.5046 237.174 37.1409 236.413ZM29.9242 238.217C29.5568 236.839 28.6318 235.862 27.7198 234.879C27.5886 234.735 27.3525 234.616 27.0966 234.839C27.2672 235.515 27.4771 236.203 27.6083 236.912C27.7395 237.659 27.7986 238.426 27.8773 239.187C27.9495 239.882 27.7986 240.597 28.0807 241.299C28.6252 240.813 29.1107 240.374 29.5962 239.941C29.7012 239.397 29.7996 238.866 29.9242 238.217ZM26.6636 241.312C27.0835 239.777 26.6964 236.315 25.955 235.043C25.2793 236.059 24.8922 237.167 24.8004 238.335C24.7282 239.253 24.761 240.21 25.3121 241.023C25.7976 241.128 26.2306 241.22 26.6636 241.312ZM34.0181 255.994C34.0902 255.961 34.1624 255.928 34.2346 255.896C34.2083 255.679 34.2018 255.456 34.1427 255.253C33.9459 254.564 33.6835 253.889 33.526 253.187C33.3358 252.354 32.7912 251.738 32.2926 251.109C32.0958 250.866 31.7809 250.486 31.3282 250.577C31.092 252.033 32.1286 252.977 32.5222 254.151C32.6797 254.617 32.9552 255.037 33.3423 255.371C33.5785 255.568 33.795 255.784 34.0181 255.994ZM37.528 237.541C37.3246 237.712 37.0294 237.836 36.9376 238.053C36.5964 238.879 35.9075 239.423 35.3302 240.04C34.6545 240.761 33.9262 241.423 33.257 242.079C33.2177 242.44 32.9749 242.735 33.2767 243.036C33.4932 243.01 33.7163 242.977 33.9393 242.951C34.5692 242.105 35.4286 241.515 36.0912 240.715C36.8588 239.79 37.364 238.78 37.528 237.541ZM43.0587 244.315C42.4092 243.777 41.7334 243.764 41.0117 244.013C40.7821 244.092 40.5919 244.158 40.6115 244.479C41.0117 244.899 41.53 245.115 42.1336 245.24C42.4682 244.997 43.0127 245.004 43.0587 244.315ZM33.1258 231.731C33.0405 231.541 33.0209 231.377 32.929 231.318C32.3057 230.892 31.8793 230.951 31.2823 231.541C31.0723 231.744 31.0199 232.007 31.3282 232.249C31.958 232.4 32.5222 232.197 33.1258 231.731ZM41.4644 251.836C41.2545 251.2 41.0314 250.741 40.4475 250.525C40.3557 250.945 40.2704 251.318 40.1851 251.705C40.5656 252.02 40.9527 251.981 41.4644 251.836Z" fill="#91ADA3" fill-opacity="0.5"/>
<path d="M5.96482 256.997C7.34256 256.61 8.80558 256.689 10.1899 256.191C10.8394 255.955 11.397 255.6 11.935 255.338C12.5386 254.518 13.1028 253.758 13.6342 253.036C13.9229 252.997 14.1394 252.964 14.3493 252.938C14.369 253.017 14.4346 253.122 14.4084 253.174C14.2837 253.41 14.0738 253.614 13.9885 253.856C13.398 255.561 12.2368 256.663 10.5245 257.168C9.96682 257.332 9.42229 257.568 8.81215 257.541C8.54972 257.528 8.28073 257.614 8.01831 257.673C7.17854 257.85 6.33878 258.053 5.39405 257.974C5.1841 257.843 4.91512 257.686 4.64613 257.522C4.61333 257.378 4.5346 257.233 4.5674 257.115C4.77078 256.374 4.9348 255.614 5.23659 254.918C5.71552 253.804 6.15508 252.669 6.83083 251.627C7.76244 250.177 8.98928 249.128 10.5179 248.394C10.6754 248.315 10.8459 248.249 11.0625 248.151C10.8984 247.351 10.3473 246.649 10.5704 245.685C10.7869 245.528 11.0428 245.266 11.3577 245.115C11.6595 244.964 12.0072 244.925 12.5386 244.781C12.0072 244.518 11.666 244.348 11.2986 244.164C11.2199 243.981 11.1281 243.777 11.0493 243.6C11.1477 243.259 11.2396 242.958 11.2855 242.781C12.3155 241.121 13.7326 240.551 15.504 240.885C15.7008 240.479 15.6549 240.105 15.4646 239.803C15.0579 239.161 14.5921 238.557 14.205 238.007C13.6998 237.987 13.2996 238.02 12.9191 237.941C12.5714 237.869 12.2499 237.679 11.8563 237.515C11.712 237.2 11.5545 236.833 11.3708 236.426C11.3577 235.843 11.8366 235.534 12.1974 235.134C12.742 234.531 13.4177 234.649 14.0672 234.734C15.012 235.154 15.3728 235.967 15.6418 236.879C15.5762 237.167 15.5106 237.469 15.4515 237.725C15.7927 238.715 16.5996 239.39 16.7833 240.361C17.1704 240.439 17.3541 240.177 17.5116 239.994C18.043 239.377 18.5547 238.748 19.014 238.079C19.5519 237.298 19.9718 236.446 20.1752 235.502C19.9981 235.102 19.8144 234.695 19.6635 234.354C19.7225 233.502 20.1293 232.925 20.6869 232.387C21.1134 232.334 21.5529 232.282 21.9466 232.236C22.5436 232.42 22.7076 232.925 23.0291 233.351C23.0291 233.725 23.0291 234.125 23.0356 234.485C22.6945 234.872 22.3927 235.213 22.0778 235.567C21.835 235.639 21.5792 235.712 21.3168 235.79C21.0478 236.125 21.1987 236.748 20.5426 236.794C20.7066 237.318 20.5754 237.738 20.3064 238.118C19.9193 238.676 19.5454 239.239 19.1255 239.771C18.7384 240.262 18.312 240.721 17.879 241.22C17.4788 241.266 17.0851 241.305 16.6981 241.344C16.6128 241.817 16.9277 242.046 17.1245 242.341C17.3213 242.643 17.4985 242.951 17.715 243.305C18.1086 243.128 18.4891 242.918 18.8959 242.787C19.283 242.669 19.6963 242.597 20.0965 242.584C20.5426 242.571 20.9953 242.649 21.3824 242.682C21.835 243.023 22.0319 243.423 21.9859 243.902C21.9269 244.492 21.7563 245.069 21.3036 245.489C21.0084 245.758 20.6607 245.967 20.3523 246.23C20.1162 246.426 19.9062 246.663 19.67 246.899C19.8997 247.554 20.4114 247.948 20.8509 248.512C20.9034 248.82 20.969 249.22 21.0281 249.587C20.8772 249.902 20.7394 250.191 20.6148 250.459C19.9456 251.05 19.0205 250.676 18.2792 251.148C17.9905 250.984 17.6756 250.813 17.3738 250.643C17.2885 250.689 17.1835 250.715 17.1573 250.774C16.9933 251.141 16.7768 251.476 16.7374 251.909C16.7177 252.132 16.4684 252.328 16.3175 252.545C15.8845 252.387 15.5303 252.184 15.1497 252.138C14.0082 252.013 13.3128 251.476 13.2209 250.184C13.0241 250.354 12.8929 250.453 12.7813 250.571C11.876 251.515 10.9837 252.473 10.0652 253.404C9.71752 253.758 9.29764 254.007 8.7531 253.836C8.9696 253.076 9.0024 253.01 9.43541 252.584C10.0455 251.981 10.6754 251.404 11.2658 250.781C11.7316 250.289 12.1515 249.758 12.368 248.997C11.2855 249.076 10.4326 249.568 9.67159 250.151C8.66125 250.918 7.82149 251.856 7.32288 253.069C6.92924 254.027 6.45031 254.951 6.02387 255.902C5.84673 256.237 5.7352 256.577 5.96482 256.997ZM19.6897 249.613C19.9784 249.299 19.8668 249.036 19.7291 248.8C19.4601 248.315 19.0402 247.974 18.6072 247.64C18.2267 247.345 17.9971 246.971 18.207 246.413C18.3973 246.282 18.6072 246.118 18.8303 245.967C19.2764 245.666 19.7356 245.377 20.1686 245.063C20.5951 244.748 20.7263 244.269 20.8247 243.777C20.4835 243.705 20.1818 243.64 19.9653 243.587C19.073 243.967 18.2726 244.367 17.6034 244.984C17.4525 245.122 17.2032 245.167 16.9933 245.226C16.9342 245.24 16.8489 245.154 16.7243 245.089C16.7571 244.767 16.7965 244.413 16.8293 244.138C16.0026 241.915 15.2022 241.679 13.5621 242.026C13.2406 242.335 12.7748 242.558 12.578 242.964C12.7551 244.079 13.8573 244.387 14.3165 245.213C14.2444 245.364 14.205 245.495 14.1263 245.594C14.0475 245.699 13.9295 245.771 13.8442 245.843C13.1356 246.053 12.2237 245.771 11.8957 246.846C12.1974 247.108 12.4992 247.364 12.742 247.574C13.5621 247.633 14.4412 247.312 14.7823 248.295C14.1984 249.469 14.1525 249.83 14.4871 250.82C14.743 250.886 15.0382 250.958 15.3006 251.023C15.5762 250.833 15.7992 250.682 16.0092 250.538C16.0879 250.066 16.1601 249.627 16.2322 249.22C16.4094 249.122 16.5209 249.043 16.639 248.997C16.7177 248.964 16.8161 248.977 16.9867 248.964C17.7281 249.718 18.6662 249.994 19.6897 249.613ZM12.368 236.597C12.8666 236.925 13.2603 237.082 13.6408 236.905C14.0016 236.735 14.1788 237.102 14.4674 237.082C14.4871 236.42 14.4609 236.348 14.2444 236.125C13.8967 235.764 13.4899 235.672 12.965 235.816C12.801 236.02 12.6173 236.262 12.368 236.597ZM21.2905 234.616C21.776 234.308 22.0909 234.013 21.7694 233.331C21.717 233.312 21.5529 233.259 21.4283 233.226C20.9362 233.548 20.7525 233.915 20.8903 234.492C20.9822 234.518 21.1068 234.557 21.2905 234.616Z" fill="#91ADA3" fill-opacity="0.5"/>
<path d="M24.3869 252.145C24.7346 252.289 24.9511 252.361 25.148 252.473C25.6072 252.728 25.9156 253.109 25.9418 253.653C25.9746 254.368 25.9812 255.082 25.9943 255.896C26.5585 256.23 27.1883 256.637 27.7132 257.214C28.1068 257.646 28.2971 258.112 28.3496 258.656C28.402 259.22 28.2511 259.732 27.7263 260.151C27.313 260.217 26.834 260.335 26.3486 260.368C25.8631 260.401 25.3645 260.355 24.7871 260.342C24.7215 260.486 24.6297 260.676 24.5641 260.879C24.4919 261.089 24.4657 261.325 24.3804 261.528C23.8686 262.722 22.4975 262.984 21.6249 262.014C21.2509 261.594 21.0213 261.043 20.6802 260.479C19.906 260.263 19.1187 261.102 17.9968 260.492C17.964 260.466 17.6951 260.23 17.4458 260.014C17.0784 259.128 17.5507 258.519 18.0559 257.876C17.9772 257.522 17.5704 257.397 17.3473 256.997C17.3145 256.61 17.2752 256.118 17.2424 255.686C17.5114 254.636 18.1543 254.099 19.2827 253.955C19.965 254.269 20.7392 254.63 21.5462 254.997C21.9201 253.555 22.7468 252.453 24.3869 252.145ZM22.9501 261.351C23.4356 260.991 23.4356 260.519 23.5012 260.079C23.5668 259.627 23.6456 259.181 24.1311 258.912C25.043 258.912 25.909 259.561 26.9259 259.227C27.0243 259.069 27.1358 258.886 27.2408 258.728C26.8931 257.443 25.7843 257.148 24.8462 256.702C24.7346 256.459 24.6493 256.256 24.5969 256.151C24.7346 255.482 24.8987 254.918 24.9511 254.348C24.9905 253.928 24.7937 253.555 24.2557 253.443C23.147 253.705 22.878 254.682 22.5499 255.653C22.1169 255.705 21.7299 255.882 21.4215 256.217C20.6933 255.817 20.0241 255.45 19.3746 255.096C18.3839 255.443 18.3183 255.548 18.4889 256.584C18.8432 256.886 19.2171 257.207 19.532 257.476C19.6305 257.968 19.5255 258.302 19.1646 258.499C18.7644 258.722 18.4823 259.004 18.3839 259.548C18.8825 259.502 19.2827 259.482 19.6829 259.43C20.1291 259.371 20.5686 259.279 20.9557 259.214C21.4346 259.482 21.6708 259.817 21.7955 260.289C21.9398 260.82 22.2547 261.273 22.9501 261.351Z" fill="#91ADA3" fill-opacity="0.5"/>
<path d="M38.5124 262.21C36.8329 262.984 36.2293 262.879 35.173 261.673C35.1271 260.781 35.5667 260.092 36.2687 259.515C36.7279 259.391 37.2003 259.259 37.6398 259.135C38.5846 259.692 38.6174 259.738 38.9126 260.925C38.7879 261.325 38.6567 261.751 38.5124 262.21ZM37.7776 260.348C37.1215 260.223 36.7869 260.617 36.3671 260.912C36.4064 261.115 36.4392 261.279 36.4655 261.43C36.905 261.581 37.2921 261.646 37.7448 261.332C37.7579 261.043 37.771 260.702 37.7776 260.348Z" fill="#91ADA3" fill-opacity="0.5"/>
<path d="M5.05935 245.161C5.4333 244.348 5.93847 243.856 6.79792 243.744C7.25717 243.685 7.66393 243.836 8.06413 243.948C8.97606 244.203 9.17944 244.767 8.72019 245.574C8.6349 245.725 8.52993 245.882 8.39872 245.994C8.12317 246.243 7.76889 246.249 7.42118 246.335C7.11283 246.413 6.88321 246.794 6.5683 246.918C6.35836 246.997 6.02376 246.925 5.81382 246.8C5.2168 246.459 4.96094 245.915 5.05935 245.161ZM6.02376 245.725C6.51581 245.804 6.92913 245.876 7.37526 245.948C7.50647 245.594 7.618 245.279 7.76234 244.885C7.49991 244.787 7.30309 244.636 7.11939 244.656C6.58798 244.702 6.25339 245.036 6.02376 245.725Z" fill="#91ADA3" fill-opacity="0.5"/>
<path d="M37.751 257.351C37.6984 257.404 37.6523 257.463 37.5931 257.502C37.58 257.515 37.5274 257.469 37.4945 257.45C37.5471 257.397 37.5931 257.345 37.6523 257.299C37.6655 257.292 37.7115 257.332 37.751 257.351Z" fill="#91ADA3" fill-opacity="0.5"/>
<path d="M29.4976 246.695C29.2745 246.794 29.0777 246.885 28.8809 246.971C28.3692 246.781 28.1199 246.348 27.8115 245.987C27.7984 245.436 28.0411 245.089 28.5266 244.944C29.058 244.787 29.3401 245.194 29.6616 245.522C29.6026 245.908 29.5501 246.308 29.4976 246.695Z" fill="#91ADA3" fill-opacity="0.5"/>
<path d="M16.3569 246.643C16.1798 246.722 16.0027 246.8 15.8583 246.866C15.5762 246.663 15.609 246.479 15.7599 246.289C16.0748 246.171 16.2323 246.348 16.3569 246.643Z" fill="#91ADA3" fill-opacity="0.5"/>
<path d="M23.2192 258.014C23.0552 258.204 22.865 258.427 22.7206 258.604C22.117 258.682 21.9465 258.348 21.8218 257.837C21.9202 257.646 22.058 257.391 22.1958 257.135C22.7141 257.246 23.1011 257.41 23.2192 258.014Z" fill="#91ADA3" fill-opacity="0.5"/>
</svg>
