<svg width="51" height="305" viewBox="0 0 51 305" fill="none" xmlns="http://www.w3.org/2000/svg">
<path d="M31.2306 97.2762C31.12 96.8695 31.1407 96.4214 31.0163 96.0216C30.8227 95.3944 30.2559 95.1324 29.5992 94.8498C29.9102 94.4914 30.166 94.1605 30.4563 93.871C30.9748 93.3471 31.196 92.7198 31.1476 92.0098C31.0992 91.3757 31.113 90.707 30.8849 90.1418C30.7052 89.7006 30.2006 89.3835 29.8273 89.032C29.6199 88.839 29.378 88.6873 29.0185 88.4047C29.3503 88.322 29.5024 88.2875 29.6545 88.2531C30.4287 87.8533 30.7743 87.0881 31.0716 86.3092C31.4587 85.3097 30.9195 84.2068 29.8204 83.7105C29.6476 83.6347 29.4609 83.5795 29.1913 83.4899C30.0692 83.1383 30.166 82.2353 30.6845 81.6908C30.802 80.7878 30.8296 79.9399 30.1798 79.1265C29.9725 79.0576 29.6614 78.9542 29.3434 78.8508C29.378 78.3063 29.9725 78.3752 30.1798 77.9823C30.1798 77.9823 30.1384 77.9478 30.0554 77.8651C30.6222 77.6445 30.643 77.0724 30.7674 76.6243C30.9057 76.128 30.6845 75.5766 30.484 75.1009C30.2835 74.6184 29.9448 74.1841 29.6614 73.7361C30.0208 73.3707 30.5324 73.2536 30.8296 72.7573C31.3688 71.8611 31.3965 70.8134 30.7052 70.062C30.6361 69.9862 30.401 69.2831 29.3987 69.0281C29.6821 68.6696 30.0969 68.4628 30.3181 68.0423C30.6292 67.4426 30.7605 66.257 30.3941 65.7193C30.3665 65.6711 30.325 65.6228 30.2835 65.6022C29.8204 65.3678 29.6406 64.7888 29.0807 64.6785C29.53 64.1339 29.7374 63.4997 30.1868 62.9965C30.3596 62.8104 30.5531 62.3555 30.3319 61.9419C30.166 61.6386 30.1453 61.2595 29.9794 60.9631C29.8964 60.8114 29.6061 60.7838 29.4471 60.6598C29.3227 60.5633 29.2604 60.4047 29.1637 60.26C29.2743 60.1359 29.3987 60.0532 29.4333 59.936C29.4747 59.7981 29.4402 59.6327 29.4402 59.5293C29.7029 59.3707 29.8826 59.2536 29.931 59.226C30.6222 58.0955 30.3043 57.1167 29.8757 56.1516C29.5646 55.8001 28.9909 55.7243 28.8111 55.1866C29.5646 54.4973 29.931 53.6012 30.3596 52.6844C30.1937 52.6844 30.1107 52.6844 30.0208 52.6844C29.9725 52.6223 29.9172 52.5603 29.8688 52.4914C30.0554 52.388 30.2351 52.2846 30.4218 52.1743C30.2697 51.4436 29.6959 50.9818 29.2466 50.4027C29.4264 50.2649 29.5715 50.1477 29.7167 50.0443C29.7098 49.8858 29.7029 49.7341 29.689 49.4929C29.7996 49.6514 29.8549 49.7272 29.9379 49.8513C30.3112 49.4377 30.6361 49.0655 30.8504 48.8311C31.2997 47.8661 31.4794 47.0389 31.0094 46.1635C30.56 45.8946 30.0831 45.6051 29.5577 45.2811C29.7582 44.709 30.2144 44.1851 30.1314 43.5165C29.9586 43.2408 29.6959 42.9857 29.6337 42.6893C29.5162 42.1379 29.136 41.7725 28.8388 41.3451C28.7213 41.1797 28.5554 41.0487 28.3756 40.8557C28.8042 40.6283 29.1568 40.4215 29.378 40.0492C29.454 39.9252 29.5577 39.7942 29.689 39.7321C30.1384 39.5047 30.1453 39.1187 30.166 38.6913C30.2006 38.0571 29.8411 37.6573 29.3918 37.3264C29.0738 37.0852 28.7143 36.8991 28.3411 36.6716C28.424 36.5337 28.4931 36.4165 28.5346 36.3407C28.4586 36.2373 28.3964 36.1615 28.3134 36.0512C28.5277 35.9409 28.6936 35.872 28.8526 35.7824C29.0047 35.6928 29.2812 35.5756 29.2743 35.486C29.2397 35.0517 29.6268 34.8449 29.7374 34.5002C29.9586 33.8109 30.2766 33.1216 29.9794 32.3978C29.7996 31.9636 29.4817 31.5775 29.1982 31.1226C30.1937 30.4333 30.5393 29.3373 30.6706 28.0827C30.2075 27.7036 29.7443 27.3176 29.2535 26.9109C29.2812 26.6558 29.3296 26.387 29.5577 26.1113C29.9172 25.677 30.2006 25.1669 30.4287 24.643C30.9333 23.4919 30.8988 21.5894 29.0392 20.9276C29.2328 20.7966 29.5024 20.707 29.5715 20.5416C29.8826 19.7903 30.5669 19.2526 30.7052 18.3772C30.7882 17.874 30.7951 17.4948 30.4494 17.1295C30.5186 17.0192 30.5808 16.9089 30.6361 16.8193C30.5393 16.6814 30.4702 16.578 30.4356 16.5229C30.3181 16.5574 30.2351 16.578 30.1038 16.6125C30.1384 16.4126 30.1591 16.2885 30.1937 16.13C29.9379 15.999 29.6821 15.8749 29.3987 15.7302C29.4817 15.2339 29.9033 15.0271 30.1798 14.7376C30.5462 14.3447 30.7259 13.9311 30.6637 13.4003C30.643 13.2211 30.7121 13.0281 30.7329 12.8695C30.2904 12.6834 30.4702 12.1457 30.1937 11.8769C29.8895 11.5805 29.5784 11.2979 29.2881 11.029C29.3227 10.7602 29.3434 10.5465 29.3711 10.3259C29.4886 10.3604 29.5923 10.388 29.7374 10.4293C30.2697 9.51945 31.0577 8.69227 30.401 7.60315C29.8826 7.20335 29.4402 6.86558 28.977 6.50024C29.0531 6.3348 29.0876 6.14869 29.1982 6.05219C29.7443 5.54899 29.9794 4.90104 30.1245 4.20483C30.1591 4.04629 30.2006 3.79123 30.1245 3.73609C29.8342 3.52929 29.9172 3.21221 29.8066 2.95716C29.7374 2.80551 29.5784 2.68833 29.5646 2.66765C29.537 2.37124 29.5784 2.16445 29.4955 2.02659C29.0185 1.23388 28.3964 0.579025 27.6498 0C27.5046 0.0827179 27.394 0.144758 27.2903 0.206797C27.3318 0.47563 27.3664 0.709995 27.4009 0.937469C27.871 1.34417 28.3411 1.77154 28.6107 2.29542C28.8595 2.78484 28.9978 3.37075 29.0185 3.92221C29.0462 4.85968 28.5623 5.59724 27.8088 6.14869C27.6014 6.30034 27.3595 6.4382 27.4217 6.74839C27.7327 7.20334 28.2166 7.32743 28.6936 7.47908C29.1706 7.63073 29.5231 7.89267 29.537 8.4579C29.537 8.58198 29.6268 8.70605 29.6752 8.85081C29.1568 9.40915 28.8595 10.1743 28.0646 10.4845C27.8779 10.5534 27.7811 10.8498 27.5945 11.1049C28.4102 11.7942 29.5093 12.0906 29.848 13.2142C29.7029 13.5313 29.6337 13.9862 29.3641 14.193C28.8595 14.5997 28.5415 15.2201 27.8917 15.4613C27.6152 15.5647 27.4286 15.7509 27.477 16.192C27.6567 16.2885 27.9125 16.5436 28.1129 16.5022C28.7835 16.3712 29.219 16.7917 29.8204 17.0399C29.5024 17.5293 29.9655 18.0601 29.6199 18.5495C29.2881 19.0182 28.9494 19.4938 28.7213 20.0108C28.4793 20.5761 27.6291 20.2452 27.4977 20.9069C27.6774 21.1413 27.8572 21.3688 28.0576 21.6307C28.7074 21.6032 29.1637 22.0305 29.613 22.4028C29.6752 22.644 29.7512 22.8508 29.7858 23.0576C29.8135 23.2713 29.8964 23.5746 29.7927 23.6918C29.4747 24.0433 29.4955 24.519 29.219 24.9119C28.7282 25.6012 28.3341 26.3663 27.7397 26.9867C27.7051 27.0212 27.7189 27.0901 27.6982 27.1935C27.795 27.3176 27.9125 27.4623 28.0438 27.6347C28.7351 27.5657 29.2328 27.8966 29.7167 28.4549C29.6959 28.6135 29.7305 28.8547 29.6337 29.034C29.2881 29.6819 28.9355 30.323 28.2443 30.6952C27.9125 30.8675 27.6291 31.1226 27.3318 31.3363C27.712 32.0463 27.712 32.0463 28.4309 31.9567C28.6176 32.1152 28.8042 32.2738 29.0531 32.4737C29.0531 32.7287 29.0807 33.0251 29.0462 33.3146C28.9425 34.2452 28.4102 34.9621 27.8503 35.679C27.5599 36.0512 27.0553 36.3131 27.1175 36.9266C27.3249 37.0921 27.5185 37.3333 27.7604 37.416C28.4378 37.6297 28.901 38.0916 29.3157 38.643C29.1429 38.8774 28.9909 39.1393 28.7904 39.353C28.6729 39.484 28.4862 39.6425 28.3272 39.6425C27.6913 39.6563 27.3387 40.0354 27 40.5111C27.0553 40.6696 27.0691 40.8488 27.159 40.9729C27.5392 41.5175 28.0507 41.9517 28.4724 42.4687C29.1706 43.3304 29.2328 44.2954 28.4309 45.0468C28.1821 45.2811 27.9125 45.5017 27.636 45.743C27.7673 45.9842 27.8641 46.1704 27.9332 46.2944C28.348 46.2944 28.7074 46.26 29.0531 46.3013C29.3849 46.3427 29.7236 46.4323 30.0347 46.5564C30.3527 46.6873 30.4356 47.1009 30.2628 47.5834C29.8619 48.6932 28.9839 49.3757 28.0231 49.9754C27.9609 50.0098 27.9125 50.065 27.8572 50.1132C27.947 50.3683 28.03 50.5958 28.0853 50.7474C28.4862 51.0783 28.8526 51.3264 29.1498 51.6435C29.295 51.7952 29.378 52.0778 29.3641 52.2846C29.3434 52.5465 29.2121 52.8016 29.1015 53.0497C28.7351 53.8631 28.1406 54.5042 27.477 55.0901C27.2834 55.2624 27.076 55.4072 27.2419 55.7036C27.8641 56.0138 28.4931 56.324 29.0945 56.6273C29.2121 56.903 29.3158 57.1443 29.3918 57.3097C29.378 58.8538 28.2581 59.674 27.4286 60.6529C27.6774 60.8666 27.871 61.0458 27.9747 61.1285C28.4655 61.2319 28.8319 61.3146 29.1637 61.3835C29.3088 61.6593 29.4194 61.873 29.5024 62.0315C29.219 62.9828 28.6798 63.679 27.9539 64.2511C27.7604 64.4027 27.636 64.6509 27.4286 64.9197C28.2028 65.4505 29.219 65.4436 29.6752 66.3259C29.6752 66.7326 29.6752 67.1669 29.6752 67.5116C29.1844 68.1388 28.4655 68.4284 28.0023 68.966C27.9263 68.9798 27.8503 68.9867 27.7673 69.0005C27.7673 69.097 27.7673 69.2004 27.7673 69.3038C27.7604 69.3176 27.7466 69.3314 27.7397 69.352C27.7466 69.3934 27.7604 69.421 27.7673 69.4554C27.7673 69.5519 27.7673 69.6415 27.7673 69.7449C27.795 69.7587 27.8295 69.7794 27.8572 69.7932C27.8572 69.8001 27.8641 69.8139 27.8641 69.8277C27.8779 69.8277 27.8986 69.8277 27.9125 69.8277C27.9678 69.8621 28.0093 69.8828 28.0023 69.8759C28.5761 69.8759 29.1706 70.0276 29.5992 70.0276C29.9863 70.517 30.1798 70.8547 30.5669 71.3373C30.2282 72.3506 29.3157 72.7504 28.6176 73.3501C28.5623 73.5293 28.5001 73.7085 28.4309 73.9222C28.4862 74.0118 28.5346 74.1497 28.6314 74.2393C28.8526 74.4461 29.1153 74.6046 29.3227 74.8183C30.0831 75.6041 30.1591 76.5416 29.5508 77.3481C29.454 77.4722 29.4125 77.6307 29.4056 77.6445C28.8249 78.0443 28.3411 78.3683 27.7189 78.7957C27.6844 78.9818 27.6221 79.3333 27.553 79.7331C27.6982 79.8434 27.8503 79.9606 27.9816 80.064C28.4033 79.9468 28.7973 79.8365 29.1706 79.7331C29.4056 79.8227 29.6061 79.8986 29.8549 79.9882C29.8549 80.4087 29.9241 80.8567 29.8342 81.2703C29.7443 81.7115 29.5853 82.1457 29.1291 82.4077C28.6867 82.6627 28.2788 82.9867 27.8503 83.2762C27.4631 83.5312 27.2627 83.8483 27.4355 84.3171C27.6705 84.6066 27.9609 84.5377 28.2719 84.4825C28.5692 84.4274 28.8872 84.3791 29.1775 84.4136C29.4333 84.448 29.6821 84.5997 29.9932 84.7238C29.9932 84.7307 30.007 84.841 30.0485 84.9444C30.4218 85.8611 30.2282 86.6125 29.4886 87.2535C29.1498 87.5499 28.7973 87.7981 28.3687 87.9773C27.9539 88.1497 27.6083 88.4668 27.2074 88.7356C27.3042 88.9906 27.3664 89.1561 27.4286 89.3215C28.0092 89.4042 28.5484 89.4732 29.0669 89.549C29.1775 89.6731 29.2604 89.8661 29.3849 89.9005C29.9172 90.0315 30.0278 90.4451 30.1038 90.8863C30.1798 91.3067 30.3665 91.6859 30.3112 92.1615C30.2075 93.0438 29.6199 93.5608 29.0392 94.0985C28.6798 94.4293 28.2927 94.7188 27.9194 95.029C28.1199 95.2565 28.2996 95.4564 28.5001 95.6839C28.8526 95.7252 29.219 95.7666 29.6476 95.8149C29.6268 95.7942 29.6545 95.8424 29.6959 95.8769C30.4633 96.4697 30.4287 97.3107 30.3319 98.1309C30.2974 98.4274 30.1107 98.7582 29.8895 98.965C29.4886 99.3579 29.06 99.7302 28.6245 100.109C29.0738 100.206 29.53 100.289 29.9794 100.357C30.3112 99.9163 30.6292 99.4958 30.9195 99.0615C31.2375 98.517 31.4172 97.9379 31.2306 97.2762Z" fill="#91ADA3" fill-opacity="0.5"/>
<path d="M31.2306 196.514C31.12 196.107 31.1407 195.659 31.0163 195.259C30.8227 194.632 30.2559 194.37 29.5992 194.088C29.9102 193.729 30.166 193.398 30.4563 193.109C30.9748 192.585 31.196 191.958 31.1476 191.248C31.0992 190.613 31.113 189.945 30.8849 189.38C30.7052 188.938 30.2006 188.621 29.8273 188.27C29.6199 188.077 29.378 187.925 29.0185 187.643C29.3503 187.56 29.5024 187.525 29.6545 187.491C30.4287 187.091 30.7743 186.326 31.0716 185.547C31.4587 184.547 30.9195 183.445 29.8204 182.948C29.6476 182.872 29.4609 182.817 29.1913 182.728C30.0692 182.376 30.166 181.473 30.6845 180.929C30.802 180.026 30.8296 179.178 30.1798 178.364C29.9725 178.295 29.6614 178.192 29.3434 178.089C29.378 177.544 29.9725 177.613 30.1798 177.22C30.1798 177.22 30.1384 177.186 30.0554 177.103C30.6222 176.882 30.643 176.31 30.7674 175.862C30.9057 175.366 30.6845 174.814 30.484 174.339C30.2835 173.856 29.9448 173.422 29.6614 172.974C30.0208 172.609 30.5324 172.491 30.8296 171.995C31.3688 171.099 31.3965 170.051 30.7052 169.3C30.6361 169.224 30.401 168.521 29.3987 168.266C29.6821 167.907 30.0969 167.701 30.3181 167.28C30.6292 166.68 30.7605 165.495 30.3941 164.957C30.3665 164.909 30.325 164.861 30.2835 164.84C29.8204 164.606 29.6406 164.027 29.0807 163.916C29.53 163.372 29.7374 162.738 30.1868 162.234C30.3596 162.048 30.5531 161.593 30.3319 161.18C30.166 160.876 30.1453 160.497 29.9794 160.201C29.8964 160.049 29.6061 160.022 29.4471 159.898C29.3227 159.801 29.2604 159.643 29.1637 159.498C29.2743 159.374 29.3987 159.291 29.4333 159.174C29.4747 159.036 29.4402 158.87 29.4402 158.767C29.7029 158.609 29.8826 158.491 29.931 158.464C30.6222 157.333 30.3043 156.354 29.8757 155.389C29.5646 155.038 28.9909 154.962 28.8111 154.424C29.5646 153.735 29.931 152.839 30.3596 151.922C30.1937 151.922 30.1107 151.922 30.0208 151.922C29.9725 151.86 29.9172 151.798 29.8688 151.729C30.0554 151.626 30.2351 151.522 30.4218 151.412C30.2697 150.681 29.6959 150.22 29.2466 149.641C29.4264 149.503 29.5715 149.385 29.7167 149.282C29.7098 149.124 29.7029 148.972 29.689 148.731C29.7996 148.889 29.8549 148.965 29.9379 149.089C30.3112 148.676 30.6361 148.303 30.8504 148.069C31.2997 147.104 31.4794 146.277 31.0094 145.401C30.56 145.132 30.0831 144.843 29.5577 144.519C29.7582 143.947 30.2144 143.423 30.1314 142.754C29.9586 142.479 29.6959 142.224 29.6337 141.927C29.5162 141.376 29.136 141.01 28.8388 140.583C28.7213 140.417 28.5554 140.287 28.3756 140.094C28.8042 139.866 29.1568 139.659 29.378 139.287C29.454 139.163 29.5577 139.032 29.689 138.97C30.1384 138.742 30.1453 138.356 30.166 137.929C30.2006 137.295 29.8411 136.895 29.3918 136.564C29.0738 136.323 28.7143 136.137 28.3411 135.909C28.424 135.772 28.4931 135.654 28.5346 135.579C28.4586 135.475 28.3964 135.399 28.3134 135.289C28.5277 135.179 28.6936 135.11 28.8526 135.02C29.0047 134.931 29.2812 134.813 29.2743 134.724C29.2397 134.289 29.6268 134.083 29.7374 133.738C29.9586 133.049 30.2766 132.359 29.9794 131.636C29.7996 131.201 29.4817 130.815 29.1982 130.36C30.1937 129.671 30.5393 128.575 30.6706 127.321C30.2075 126.941 29.7443 126.555 29.2535 126.149C29.2812 125.894 29.3296 125.625 29.5577 125.349C29.9172 124.915 30.2006 124.405 30.4287 123.881C30.9333 122.73 30.8988 120.827 29.0392 120.165C29.2328 120.034 29.5024 119.945 29.5715 119.779C29.8826 119.028 30.5669 118.49 30.7052 117.615C30.7882 117.112 30.7951 116.733 30.4494 116.367C30.5186 116.257 30.5808 116.147 30.6361 116.057C30.5393 115.919 30.4702 115.816 30.4356 115.761C30.3181 115.795 30.2351 115.816 30.1038 115.85C30.1384 115.65 30.1591 115.526 30.1937 115.368C29.9379 115.237 29.6821 115.113 29.3987 114.968C29.4817 114.472 29.9033 114.265 30.1798 113.975C30.5462 113.582 30.7259 113.169 30.6637 112.638C30.643 112.459 30.7121 112.266 30.7329 112.107C30.2904 111.921 30.4702 111.384 30.1937 111.115C29.8895 110.818 29.5784 110.536 29.2881 110.267C29.3227 109.998 29.3434 109.784 29.3711 109.564C29.4886 109.598 29.5923 109.626 29.7374 109.667C30.2697 108.757 31.0577 107.93 30.401 106.841C29.8826 106.441 29.4402 106.103 28.977 105.738C29.0531 105.573 29.0876 105.386 29.1982 105.29C29.7443 104.787 29.9794 104.139 30.1245 103.443C30.1591 103.284 30.2006 103.029 30.1245 102.974C29.8342 102.767 29.9172 102.45 29.8066 102.195C29.7374 102.043 29.5784 101.926 29.5646 101.905C29.537 101.609 29.5784 101.402 29.4955 101.264C29.0185 100.472 28.3964 99.8168 27.6498 99.2378C27.5046 99.3205 27.394 99.3826 27.2903 99.4446C27.3318 99.7134 27.3664 99.9478 27.4009 100.175C27.871 100.582 28.3411 101.009 28.6107 101.533C28.8595 102.023 28.9978 102.609 29.0185 103.16C29.0462 104.097 28.5623 104.835 27.8088 105.386C27.6014 105.538 27.3595 105.676 27.4217 105.986C27.7327 106.441 28.2166 106.565 28.6936 106.717C29.1706 106.869 29.5231 107.13 29.537 107.696C29.537 107.82 29.6268 107.944 29.6752 108.089C29.1568 108.647 28.8595 109.412 28.0646 109.722C27.8779 109.791 27.7811 110.088 27.5945 110.343C28.4102 111.032 29.5093 111.328 29.848 112.452C29.7029 112.769 29.6337 113.224 29.3641 113.431C28.8595 113.837 28.5415 114.458 27.8917 114.699C27.6152 114.803 27.4286 114.989 27.477 115.43C27.6567 115.526 27.9125 115.781 28.1129 115.74C28.7835 115.609 29.219 116.03 29.8204 116.278C29.5024 116.767 29.9655 117.298 29.6199 117.787C29.2881 118.256 28.9494 118.732 28.7213 119.249C28.4793 119.814 27.6291 119.483 27.4977 120.145C27.6774 120.379 27.8572 120.607 28.0576 120.869C28.7074 120.841 29.1637 121.268 29.613 121.641C29.6752 121.882 29.7512 122.089 29.7858 122.295C29.8135 122.509 29.8964 122.812 29.7927 122.93C29.4747 123.281 29.4955 123.757 29.219 124.15C28.7282 124.839 28.3341 125.604 27.7397 126.224C27.7051 126.259 27.7189 126.328 27.6982 126.431C27.795 126.555 27.9125 126.7 28.0438 126.872C28.7351 126.804 29.2328 127.134 29.7167 127.693C29.6959 127.851 29.7305 128.093 29.6337 128.272C29.2881 128.92 28.9355 129.561 28.2443 129.933C27.9125 130.105 27.6291 130.36 27.3318 130.574C27.712 131.284 27.712 131.284 28.4309 131.194C28.6176 131.353 28.8042 131.512 29.0531 131.711C29.0531 131.966 29.0807 132.263 29.0462 132.552C28.9425 133.483 28.4102 134.2 27.8503 134.917C27.5599 135.289 27.0553 135.551 27.1175 136.164C27.3249 136.33 27.5185 136.571 27.7604 136.654C28.4378 136.868 28.901 137.329 29.3157 137.881C29.1429 138.115 28.9909 138.377 28.7904 138.591C28.6729 138.722 28.4862 138.88 28.3272 138.88C27.6913 138.894 27.3387 139.273 27 139.749C27.0553 139.907 27.0691 140.087 27.159 140.211C27.5392 140.755 28.0507 141.19 28.4724 141.707C29.1706 142.568 29.2328 143.533 28.4309 144.285C28.1821 144.519 27.9125 144.74 27.636 144.981C27.7673 145.222 27.8641 145.408 27.9332 145.532C28.348 145.532 28.7074 145.498 29.0531 145.539C29.3849 145.58 29.7236 145.67 30.0347 145.794C30.3527 145.925 30.4356 146.339 30.2628 146.821C29.8619 147.931 28.9839 148.613 28.0231 149.213C27.9609 149.248 27.9125 149.303 27.8572 149.351C27.947 149.606 28.03 149.834 28.0853 149.985C28.4862 150.316 28.8526 150.564 29.1498 150.881C29.295 151.033 29.378 151.316 29.3641 151.522C29.3434 151.784 29.2121 152.039 29.1015 152.288C28.7351 153.101 28.1406 153.742 27.477 154.328C27.2834 154.5 27.076 154.645 27.2419 154.941C27.8641 155.252 28.4931 155.562 29.0945 155.865C29.2121 156.141 29.3158 156.382 29.3918 156.547C29.378 158.092 28.2581 158.912 27.4286 159.891C27.6774 160.104 27.871 160.284 27.9747 160.366C28.4655 160.47 28.8319 160.552 29.1637 160.621C29.3088 160.897 29.4194 161.111 29.5024 161.269C29.219 162.221 28.6798 162.917 27.9539 163.489C27.7604 163.641 27.636 163.889 27.4286 164.158C28.2028 164.688 29.219 164.681 29.6752 165.564C29.6752 165.97 29.6752 166.405 29.6752 166.749C29.1844 167.377 28.4655 167.666 28.0023 168.204C27.9263 168.218 27.8503 168.224 27.7673 168.238C27.7673 168.335 27.7673 168.438 27.7673 168.542C27.7604 168.555 27.7466 168.569 27.7397 168.59C27.7466 168.631 27.7604 168.659 27.7673 168.693C27.7673 168.79 27.7673 168.879 27.7673 168.983C27.795 168.997 27.8295 169.017 27.8572 169.031C27.8572 169.038 27.8641 169.052 27.8641 169.065C27.8779 169.065 27.8986 169.065 27.9125 169.065C27.9678 169.1 28.0093 169.121 28.0023 169.114C28.5761 169.114 29.1706 169.265 29.5992 169.265C29.9863 169.755 30.1798 170.093 30.5669 170.575C30.2282 171.588 29.3157 171.988 28.6176 172.588C28.5623 172.767 28.5001 172.946 28.4309 173.16C28.4862 173.25 28.5346 173.387 28.6314 173.477C28.8526 173.684 29.1153 173.842 29.3227 174.056C30.0831 174.842 30.1591 175.779 29.5508 176.586C29.454 176.71 29.4125 176.869 29.4056 176.882C28.8249 177.282 28.3411 177.606 27.7189 178.033C27.6844 178.22 27.6221 178.571 27.553 178.971C27.6982 179.081 27.8503 179.198 27.9816 179.302C28.4033 179.185 28.7973 179.074 29.1706 178.971C29.4056 179.061 29.6061 179.136 29.8549 179.226C29.8549 179.646 29.9241 180.094 29.8342 180.508C29.7443 180.949 29.5853 181.384 29.1291 181.645C28.6867 181.9 28.2788 182.224 27.8503 182.514C27.4631 182.769 27.2627 183.086 27.4355 183.555C27.6705 183.844 27.9609 183.775 28.2719 183.72C28.5692 183.665 28.8872 183.617 29.1775 183.651C29.4333 183.686 29.6821 183.837 29.9932 183.962C29.9932 183.968 30.007 184.079 30.0485 184.182C30.4218 185.099 30.2282 185.85 29.4886 186.491C29.1498 186.788 28.7973 187.036 28.3687 187.215C27.9539 187.387 27.6083 187.705 27.2074 187.973C27.3042 188.228 27.3664 188.394 27.4286 188.559C28.0092 188.642 28.5484 188.711 29.0669 188.787C29.1775 188.911 29.2604 189.104 29.3849 189.138C29.9172 189.269 30.0278 189.683 30.1038 190.124C30.1798 190.545 30.3665 190.924 30.3112 191.399C30.2075 192.282 29.6199 192.799 29.0392 193.336C28.6798 193.667 28.2927 193.957 27.9194 194.267C28.1199 194.494 28.2996 194.694 28.5001 194.922C28.8526 194.963 29.219 195.004 29.6476 195.053C29.6268 195.032 29.6545 195.08 29.6959 195.115C30.4633 195.707 30.4287 196.548 30.3319 197.369C30.2974 197.665 30.1107 197.996 29.8895 198.203C29.4886 198.596 29.06 198.968 28.6245 199.347C29.0738 199.444 29.53 199.526 29.9794 199.595C30.3112 199.154 30.6292 198.734 30.9195 198.299C31.2375 197.755 31.4172 197.176 31.2306 196.514Z" fill="#91ADA3" fill-opacity="0.5"/>
<path d="M41.5012 265.614C41.2847 264.938 41.0617 264.243 40.5827 263.666C40.3072 263.325 40.176 262.866 39.9726 262.466C39.5265 261.594 38.8179 261.096 37.8338 261.023C37.2499 260.978 36.666 260.892 36.0821 260.892C34.0483 260.892 32.5984 262.001 31.4109 263.502C30.9648 264.066 30.6433 264.728 30.2563 265.338C30.0923 265.594 29.9086 265.837 29.6527 266.191C29.3968 265.935 29.2591 265.81 29.141 265.679C27.8748 264.23 26.2083 263.371 24.4238 262.853C23.1052 262.466 21.6749 262.237 20.2841 262.414C18.7161 262.617 17.3974 263.922 17.6729 265.719C17.7582 266.296 17.8435 266.879 18.0272 267.424C18.2306 268.007 18.5455 268.558 18.8342 269.109C19.1097 269.627 19.4443 270.106 19.7002 270.63C20.1791 271.594 20.8811 272.217 21.9833 272.309C23.5906 271.994 24.8962 271.109 26.1559 270.138C27.0481 269.456 27.9338 268.768 28.9048 268.014C28.9835 268.289 29.095 268.46 29.0688 268.604C28.767 270.171 28.2946 271.666 27.304 272.965C26.8119 273.614 26.3527 274.283 25.9 274.965C25.0274 276.289 23.7678 277.109 22.3179 277.647C20.4415 278.342 18.4996 278.762 16.4855 278.735C15.9934 278.729 15.4948 278.663 15.0027 278.611C13.6119 278.453 12.221 278.257 10.8236 278.139C9.3409 278.007 7.86476 278.093 6.39517 278.335C5.43075 278.499 4.60411 278.984 3.84964 279.542C3.17389 280.047 2.53094 280.637 2.04546 281.352C1.31722 282.434 0.503701 283.47 0.110062 284.748C-0.00146928 285.109 -0.0473937 285.444 0.0641375 285.798C0.497141 286.014 0.917024 286.001 1.36971 285.85C2.18323 285.575 3.04267 285.562 3.88244 285.45C3.95461 285.444 4.0399 285.516 4.17111 285.575C3.46912 287.404 2.5047 289.181 2.91146 291.24C3.38383 291.378 3.71186 291.234 3.96773 290.965C4.37449 290.539 4.74845 290.093 5.12896 289.647C5.8572 288.788 6.56575 287.909 7.55641 287.312C7.91724 287.096 8.27152 286.952 8.69796 286.978C9.45899 287.017 10.22 287.004 10.9811 287.155C12.4703 287.45 13.9465 287.273 15.3964 286.827C15.567 286.775 15.7375 286.69 15.9081 286.663C17.0825 286.493 18.1387 285.935 19.2737 285.66C20.2053 285.437 21.0648 285.024 21.8783 284.545C22.4491 284.211 23.0002 283.844 23.4726 283.319C24.3714 282.309 25.2636 281.293 26.0771 280.217C26.2083 280.04 26.2936 279.811 26.6085 279.817C26.5298 280.178 26.6479 280.525 26.438 280.912C26.2608 281.234 26.4183 281.726 26.2871 282.093C26.0443 282.781 26.005 283.509 25.841 284.211C25.526 285.588 25.4473 286.978 25.4211 288.381C25.4014 289.503 25.3686 290.631 25.3161 291.752C25.2177 293.831 25.8278 295.759 26.5692 297.66C26.7791 298.191 26.9694 298.736 27.1203 299.293C27.5861 301.024 28.4718 302.526 29.6002 303.896C29.8757 304.231 30.2891 304.454 30.6565 304.742C31.0829 304.624 31.47 304.513 31.8111 304.414C32.1392 303.844 32.0801 303.3 31.9752 302.768C31.7783 301.732 31.8636 300.703 31.9752 299.673C32.008 299.378 32.1392 299.162 32.5328 299.103C33.038 299.595 33.5891 300.113 34.1205 300.65C34.8684 301.411 35.7213 301.955 36.8169 302.06C36.9941 302.08 37.1646 302.152 37.4139 302.218C37.7682 302.027 38.1619 301.824 38.5161 301.634C38.7064 300.906 38.4308 300.447 37.9519 300.027C35.9116 298.27 34.6585 295.995 33.7334 293.516C33.0905 291.785 32.4738 290.04 31.9096 288.276C31.6406 287.424 31.529 286.526 31.3388 285.647C30.9648 283.922 30.8599 282.165 30.768 280.407C30.7418 279.916 30.7352 279.424 30.7483 278.932C30.768 277.771 30.8074 276.604 30.8402 275.404C31.365 275.889 31.8702 276.617 32.0998 277.247C32.4147 278.099 32.828 278.893 33.3529 279.64C33.694 280.119 33.9893 280.63 34.2845 281.135C35.6163 283.457 37.1843 285.601 39.0147 287.555C39.1394 287.686 39.2575 287.831 39.3428 287.981C39.533 288.329 40.0579 288.27 40.1825 288.768C40.2613 289.076 40.6418 289.306 40.8648 289.581C41.6652 290.578 42.5969 291.411 43.7056 292.034C43.8237 292.099 43.9221 292.198 44.0205 292.283C45.3983 293.45 45.7066 293.621 47.7142 294.296C47.9044 294.204 48.1472 294.093 48.3965 293.975C48.4162 293.837 48.4424 293.706 48.4555 293.575C48.5211 293.09 48.239 292.703 48.0553 292.296C47.583 291.28 47.0581 290.283 46.612 289.253C46.3627 288.676 46.2249 288.047 46.0871 287.437C46.0412 287.24 46.1396 287.011 46.179 286.762C47.7732 286.322 49.4134 286.185 50.8961 285.385C50.9027 285.194 50.9748 284.991 50.9092 284.86C50.8108 284.676 50.6337 284.467 50.4434 284.408C49.5446 284.119 48.6064 283.942 47.7339 283.594C46.1855 282.978 44.5716 282.512 43.2398 281.424C42.3672 280.716 41.3635 280.165 40.4843 279.463C39.3625 278.558 38.2012 277.693 37.2434 276.591C36.8628 276.152 36.4036 275.765 35.9575 275.391C34.8356 274.447 34.0024 273.279 33.2807 272.02C32.8018 271.188 32.3163 270.355 31.7915 269.45C32.008 269.561 32.1785 269.627 32.3229 269.725C33.635 270.637 35.1768 270.991 36.6332 271.542C37.4402 271.843 38.2471 271.719 39.0279 271.568C39.5921 271.456 40.0907 271.148 40.4778 270.637C40.9108 270.066 41.1535 269.397 41.5537 268.807M34.7175 276.079C34.9078 276.184 35.1243 276.27 35.2883 276.407C36.2855 277.253 37.2434 278.139 38.2078 279.017C39.5068 280.198 40.9436 281.221 42.4263 282.178C42.9183 282.493 43.3907 282.853 43.8959 283.142C44.9259 283.719 46.015 284.152 47.1631 284.44C47.3796 284.493 47.5764 284.611 47.7798 284.703C47.9504 284.781 48.1144 284.88 48.2981 284.978C47.2549 285.706 45.8969 285.306 45.0046 286.152C44.7094 287.004 44.8209 287.811 45.1227 288.572C45.5951 289.739 46.1396 290.88 46.6448 292.034C46.7301 292.231 46.8088 292.44 46.9138 292.716C46.343 292.69 45.9428 292.467 45.6016 292.204C44.1714 291.116 42.669 290.106 41.5144 288.683C40.4056 287.319 39.1 286.132 38.0569 284.709C37.578 284.06 37.0203 283.47 36.6398 282.742C36.2658 282.027 35.7672 281.385 35.3342 280.703C34.8487 279.942 34.3632 279.181 33.9171 278.394C33.5432 277.725 33.2217 277.024 32.8937 276.329C32.8477 276.23 32.8937 276.093 32.9002 275.889C33.0577 276.014 33.1758 276.073 33.2479 276.165C34.3829 277.561 35.5245 278.958 36.6463 280.362C37.2106 281.063 37.7354 281.798 38.2931 282.506C39.0672 283.496 39.907 284.427 41.0026 285.142C41.1732 285.037 41.3175 284.952 41.475 284.853C41.2322 284.257 40.8648 283.811 40.4712 283.371C40.0776 282.932 39.7036 282.48 39.3493 282.007C38.2406 280.525 37.1318 279.043 35.8919 277.666C35.4589 277.188 34.9471 276.729 34.7503 276.066C34.5207 275.922 34.2123 275.817 34.4288 275.437C34.6585 275.594 34.7962 275.784 34.7175 276.079ZM5.96873 279.516C6.93314 279.365 7.78603 279.089 8.61923 279.135C10.2332 279.227 11.8536 279.253 13.461 279.548C15.0093 279.824 16.5904 279.942 18.1781 279.693C19.6477 279.463 21.1107 279.227 22.495 278.637C22.7574 278.525 23.0461 278.322 23.3938 278.571C23.302 278.683 23.2429 278.814 23.1445 278.866C22.2654 279.319 21.36 279.725 20.4875 280.204C19.3656 280.821 18.1453 281.109 16.8988 281.273C15.79 281.417 14.6354 281.26 13.5528 281.666C12.5687 281.503 11.8733 282.132 11.0992 282.545C10.7974 282.703 10.6662 282.998 10.7383 283.417C11.0007 283.352 11.2501 283.299 11.4994 283.221C12.1423 283.017 12.7721 282.748 13.4348 282.617C14.1367 282.48 14.8584 282.414 15.5735 282.401C17.837 282.355 19.9429 281.817 21.8718 280.611C22.331 280.322 22.8099 280.066 23.2889 279.83C24.2336 279.365 25.0668 278.768 25.6704 277.883C25.8213 277.66 26.0837 277.502 26.3986 277.221C26.1296 277.817 25.9918 278.309 25.7229 278.709C24.3582 280.703 22.9149 282.624 20.9073 283.968C19.4968 284.414 18.1191 284.821 16.7544 285.286C15.3833 285.758 13.9924 286.139 12.5425 286.145C11.7355 286.152 10.922 286.067 10.1282 285.929C8.50114 285.647 7.08404 285.955 5.90968 287.168C5.69318 287.391 5.42419 287.568 5.20113 287.785C4.99775 287.981 4.82717 288.204 4.45978 288.637C4.53194 288.093 4.51882 287.824 4.60411 287.594C4.8403 286.958 5.10928 286.342 5.37171 285.712C5.53572 285.332 5.64069 284.945 5.45043 284.539C4.80093 284.119 4.80093 284.112 4.48602 284.178C4.13174 284.257 3.78403 284.362 3.42975 284.44C2.81305 284.578 2.20291 284.729 1.54685 284.578C1.59933 283.601 2.30132 282.952 2.80649 282.23C3.61345 281.07 4.69596 280.184 5.96873 279.516ZM29.3837 273.404C29.4427 273.417 29.5084 273.43 29.5674 273.443C29.6002 273.575 29.6855 273.712 29.6658 273.83C29.469 275.083 29.3903 276.335 29.5805 277.601C29.6002 277.732 29.6002 277.876 29.574 278.007C29.3903 279.03 29.5543 280.06 29.5543 281.083C29.5543 281.752 29.5543 282.427 29.6921 283.076C29.8298 283.732 29.8036 284.394 29.9348 285.044C30.0791 285.752 30.1513 286.473 30.335 287.168C30.5253 287.903 30.827 288.604 31.0501 289.326C31.2994 290.139 31.5487 290.945 31.7849 291.765C32.1261 292.972 32.6181 294.145 33.1561 295.28C33.6153 296.244 34.0549 297.234 34.7634 298.073C35.2817 298.69 35.7541 299.345 36.2789 299.962C36.4954 300.218 36.7841 300.421 37.0531 300.657C37.0072 300.762 36.9547 300.88 36.876 301.057C36.6529 300.985 36.4167 300.959 36.2461 300.841C35.5376 300.355 34.8356 299.87 34.278 299.195C33.7859 298.598 33.1954 298.119 32.4935 297.772C32.2245 297.791 31.962 297.811 31.7718 297.824C31.0567 298.539 30.8598 299.372 30.7024 300.218C30.5515 301.024 30.604 301.831 30.7286 302.637C30.7549 302.814 30.7746 302.998 30.5449 303.07C30.4662 303.031 30.3547 303.011 30.3153 302.946C29.8101 302.152 29.2459 301.398 28.9245 300.5C28.3012 298.755 27.6517 297.024 27.0547 295.267C26.5757 293.85 26.3986 292.381 26.5429 290.88C26.5889 290.434 26.6085 289.975 26.5954 289.529C26.5429 287.673 26.7922 285.844 27.1137 284.021C27.14 283.857 27.2449 283.706 27.4089 283.352C27.4417 284.152 27.4811 284.722 27.4942 285.299C27.5139 285.922 27.4417 286.558 27.5402 287.168C27.632 287.732 27.7239 288.303 27.8485 288.853C27.9797 289.444 27.8879 290.139 28.4783 290.65C28.6292 290.657 28.8326 290.67 29.2 290.696C28.4587 287.765 28.4258 284.873 28.2815 281.988C28.0913 281.791 27.9076 281.594 27.6386 281.325C27.7173 279.503 28.5243 277.745 28.7342 275.87C28.8195 275.03 29.1606 274.224 29.3837 273.404ZM30.873 266.781C30.9451 266.427 30.9386 266.237 31.0239 266.106C31.5159 265.351 31.9686 264.551 32.5525 263.876C33.6875 262.571 35.039 261.646 36.9153 262.014C37.0465 262.04 37.1909 262.046 37.3221 262.02C38.07 261.85 38.5096 262.269 38.9098 262.801C39.6642 263.784 40.0579 264.938 40.4909 266.073C40.5106 266.125 40.4581 266.204 40.4253 266.342C40.2613 266.204 40.1301 266.099 39.9988 265.981C39.2903 265.325 38.4571 265.109 37.5058 265.207C36.7382 265.286 35.9968 265.41 35.2621 265.666C33.8974 266.145 32.5066 266.525 30.873 266.781ZM31.4437 268.086C31.4372 268.001 31.4372 267.922 31.4306 267.837C31.6865 267.778 31.9358 267.706 32.1917 267.653C32.5459 267.581 32.9068 267.542 33.2479 267.437C34.232 267.135 35.203 266.781 36.1937 266.499C37.4074 266.145 38.6014 266.079 39.7299 267.096C39.8414 267.548 39.9857 268.112 40.1169 268.63C39.8479 269.233 39.6118 269.765 39.4084 270.211C38.8638 270.506 38.398 270.597 37.8863 270.617C36.712 270.663 35.7016 270.178 34.6913 269.692C34.1664 269.443 33.6809 269.109 33.1561 268.853C32.605 268.578 32.0211 268.342 31.4437 268.086ZM20.1201 263.417C21.7012 263.509 23.2232 263.489 24.6994 264.066C26.6545 264.827 27.8223 265.614 28.4062 266.637C28.2093 266.643 28.0256 266.689 27.8551 266.656C27.0612 266.492 26.228 266.401 25.4867 266.106C24.6535 265.771 23.8071 265.719 22.9739 265.83C21.7602 265.994 20.6187 266.401 19.8248 267.437C19.7133 267.581 19.5886 267.712 19.3262 267.594C18.9326 266.473 18.5258 265.332 19.2081 264.125C19.4902 263.909 19.7723 263.686 20.1201 263.417ZM21.9964 271.214C21.0517 270.991 20.7696 270.335 20.5727 269.627C20.3431 268.788 20.6318 267.942 21.3863 267.522C21.9242 267.22 22.4885 266.938 23.1445 266.886C23.9187 266.827 24.6666 266.84 25.4014 267.122C25.9656 267.338 26.5889 267.41 27.2056 267.804C26.3002 268.558 25.5326 269.306 24.6535 269.902C24.0433 270.315 23.4463 270.834 22.6525 270.945C22.436 270.971 22.2326 271.109 21.9964 271.214ZM32.0408 274.348C32.3688 274.716 32.3688 274.716 32.4278 275.319C32.2966 275.076 32.1917 274.938 32.1392 274.775C32.0933 274.65 31.8964 274.538 32.0408 274.348ZM27.4024 282.735C27.4286 282.748 27.4549 282.762 27.4811 282.768C27.4352 282.873 27.3893 282.971 27.3433 283.076C27.3171 283.063 27.2909 283.05 27.2646 283.044C27.3105 282.939 27.3565 282.84 27.4024 282.735Z" fill="#91ADA3" fill-opacity="0.5"/>
<path d="M22.7443 252.269C23.1839 252.046 23.6366 251.876 24.0236 251.522C24.6075 250.977 24.9487 250.328 25.1389 249.607C25.7753 249.509 26.392 249.417 27.0022 249.325C27.2384 248.958 27.4549 248.623 27.6517 248.315C27.7763 247.653 27.4417 247.141 27.199 246.538C26.7004 246.184 26.1624 245.804 25.6179 245.423C26.3067 244.564 27.1531 243.764 27.0219 242.433C26.825 242.099 26.5954 241.712 26.3527 241.312C26.5036 241.115 26.7594 240.938 26.8054 240.708C27.0612 239.567 27.4221 238.42 27.0219 237.246C26.7332 236.394 26.4445 235.528 26.0312 234.741C25.6704 234.059 25.0996 233.521 24.1352 233.266C22.1867 233.843 21.2616 235.659 20.0741 237.318C19.5624 236.131 19.687 234.898 19.4115 233.679C19.7986 233.456 20.1725 233.239 20.5727 233.016C20.6908 232.715 20.8024 232.42 20.9008 232.171C20.9401 231.403 20.5006 230.63 19.8707 230.374C19.4968 230.223 19.1031 230.125 18.7095 230C18.4471 230.072 18.1847 230.131 17.9288 230.216C17.7188 230.289 17.5155 230.393 17.2793 230.498C17.0825 230.938 16.8856 231.384 16.6954 231.81C16.8069 232.341 17.2662 232.505 17.5876 232.8C17.8632 232.833 18.1322 232.859 18.4208 232.892C18.329 234.308 18.6833 235.666 18.8473 237.128C18.6701 237.089 18.5324 237.095 18.4602 237.03C17.4761 236.144 16.223 235.777 15.0421 235.305C14.2679 234.997 13.4413 235.154 12.6868 235.587C12.2669 236.276 12.2276 237.003 12.2801 237.797C12.3719 239.292 13.133 240.426 14.0777 241.482C14.5566 242.02 15.0487 242.538 15.5079 243.181C15.2061 243.39 14.9568 243.561 14.7075 243.738C13.6512 244.479 13.5528 244.892 14.1236 246.079C14.9174 246.912 16.0787 246.82 17.03 247.39C16.0262 247.653 15.088 247.902 14.163 248.145C13.5332 247.771 12.9164 247.397 12.2932 247.036C11.6765 246.689 11.3616 246.066 10.8498 245.567C11.0204 245.181 11.1844 244.82 11.3353 244.479C11.355 243.889 10.9876 243.272 10.4168 243.082C9.55083 242.8 8.69139 242.643 7.81226 243.148C6.96594 243.633 6.70351 244.059 6.89377 245.01C6.92657 245.181 7.01186 245.345 7.07747 245.535C7.22836 245.64 7.3727 245.738 7.52359 245.836C7.67449 245.935 7.8385 246.02 7.99596 246.105C8.64546 246.368 9.21624 246 9.84606 245.79C10.0101 245.981 10.2003 246.118 10.2791 246.302C10.6005 247.043 11.1516 247.548 11.8274 247.954C12.2079 248.184 12.6147 248.387 12.9033 248.84C12.4572 249.194 12.0439 249.522 11.6306 249.85C11.4665 249.817 11.3353 249.81 11.2172 249.758C10.3578 249.384 9.98384 249.417 9.39994 250C9.14407 250.256 8.91445 250.545 8.72419 250.846C8.33711 251.463 8.21902 252.105 8.75043 252.827C9.64268 253.358 10.5612 253.161 11.4469 252.702C11.8667 252.177 12.057 251.653 11.9389 250.997C13.3166 249.613 15.0224 248.905 16.9119 248.558C17.2071 248.899 17.0759 249.292 17.2268 249.686C17.4105 249.843 17.6401 250.04 17.8566 250.223C17.8238 250.361 17.8173 250.453 17.7779 250.525C17.732 250.597 17.6336 250.643 17.5876 250.715C16.597 252.4 15.8228 254.164 15.6063 256.125C15.5735 256.427 15.6457 256.741 15.6654 257.063C16.4658 257.135 17.2268 257.161 17.9747 257.286C18.5849 257.391 19.136 257.279 19.687 257.076C20.1463 256.899 20.658 256.794 21.0582 256.525C22.1014 255.823 22.823 254.859 23.0723 253.6C23.1314 253.292 23.1576 252.977 23.2101 252.591C23.0658 252.473 22.9018 252.335 22.7377 252.204C22.2326 253.214 21.8521 254.282 21.0648 255.155C19.8379 255.909 19.523 256.014 18.6242 255.968C19.4377 254.453 20.389 252.276 20.7367 250.951C21.0517 251.318 21.3666 251.679 21.6487 252.007C22.0489 252.105 22.3966 252.184 22.7443 252.269ZM24.2795 247.568C24.0827 247.758 23.9384 247.836 23.9055 247.948C23.8399 248.158 23.8071 248.394 23.8268 248.61C23.8793 249.095 24.1089 249.574 23.8793 250.066C23.4725 250.63 23.0395 251.154 22.2195 250.951C21.4519 250.184 21.8389 249.036 21.3272 248.151C21.1107 248.125 20.8876 248.099 20.6383 248.066C20.002 248.61 19.359 249.174 18.3552 249.095C18.4077 248.138 19.3196 247.777 19.6083 246.977C19.5099 246.781 19.3984 246.545 19.3393 246.433C17.9813 246.171 16.7479 245.928 15.567 245.699C15.3505 245.39 14.9503 245.318 14.9896 244.899C16.1771 243.889 17.463 244.105 18.7489 244.708C18.9719 244.538 19.1425 244.407 19.3721 244.23C19.3393 243.882 19.3393 243.522 19.2606 243.181C19.1753 242.787 19.0113 242.413 18.8998 242.02C18.867 241.895 18.8866 241.758 18.8866 241.574C19.1228 241.344 19.3787 241.102 19.6477 240.84C20.0348 240.971 20.3759 241.076 20.7171 241.194C21.3994 241.43 21.8586 241.869 22.0554 242.597C22.1538 242.971 22.39 243.312 22.5409 243.613C22.9608 243.745 23.2167 243.62 23.4791 243.397C23.9252 243.017 24.3845 242.649 24.8765 242.341C25.0733 242.217 25.3751 242.249 25.6704 242.203C25.7688 242.42 25.8934 242.584 25.8934 242.741C25.9 243.312 25.7032 243.81 25.2374 244.164C24.8831 244.433 24.4829 244.649 24.1155 244.905C23.9383 245.03 23.794 245.194 23.6694 245.305C23.6628 245.908 24.0368 246.059 24.4501 246.164C25.3226 246.381 25.9459 246.945 26.5232 247.554C26.4183 248.027 26.4183 248.027 26.0181 248.335C25.4735 248.099 24.9028 247.85 24.2795 247.568ZM13.7956 236.413C14.3139 236.19 14.8781 236.321 15.4226 236.538C16.1705 236.839 16.8856 237.187 17.5745 237.633C18.4143 238.177 19.0113 238.892 19.6018 239.587C18.9457 240.007 18.3487 240.387 17.7123 240.794C16.925 240.217 16.3542 239.41 15.7047 238.676C15.0487 237.935 14.432 237.174 13.7956 236.413ZM21.0123 238.217C21.3797 236.839 22.3047 235.862 23.2167 234.879C23.3479 234.735 23.5841 234.616 23.8399 234.839C23.6694 235.515 23.4594 236.203 23.3282 236.912C23.197 237.659 23.1379 238.426 23.0592 239.187C22.9871 239.882 23.1379 240.597 22.8558 241.299C22.3113 240.813 21.8258 240.374 21.3403 239.941C21.2354 239.397 21.1369 238.866 21.0123 238.217ZM24.2729 241.312C23.8531 239.777 24.2401 236.315 24.9815 235.043C25.6572 236.059 26.0443 237.167 26.1362 238.335C26.2083 239.253 26.1755 240.21 25.6244 241.023C25.1389 241.128 24.7059 241.22 24.2729 241.312ZM16.9184 255.994C16.8463 255.961 16.7741 255.928 16.7019 255.896C16.7282 255.679 16.7347 255.456 16.7938 255.253C16.9906 254.564 17.253 253.889 17.4105 253.187C17.6008 252.354 18.1453 251.738 18.6439 251.109C18.8407 250.866 19.1556 250.486 19.6083 250.577C19.8445 252.033 18.8079 252.977 18.4143 254.151C18.2568 254.617 17.9813 255.037 17.5942 255.371C17.358 255.568 17.1415 255.784 16.9184 255.994ZM13.4085 237.541C13.6119 237.712 13.9071 237.836 13.999 238.053C14.3401 238.879 15.029 239.423 15.6063 240.04C16.2821 240.761 17.0103 241.423 17.6795 242.079C17.7188 242.44 17.9616 242.735 17.6598 243.036C17.4433 243.01 17.2202 242.977 16.9972 242.951C16.3674 242.105 15.5079 241.515 14.8453 240.715C14.0777 239.79 13.5725 238.78 13.4085 237.541ZM7.87787 244.315C8.52737 243.777 9.20312 243.764 9.92479 244.013C10.1544 244.092 10.3447 244.158 10.325 244.479C9.92479 244.899 9.4065 245.115 8.80292 245.24C8.46833 244.997 7.92379 245.004 7.87787 244.315ZM17.8107 231.731C17.896 231.541 17.9157 231.377 18.0075 231.318C18.6308 230.892 19.0572 230.951 19.6542 231.541C19.8642 231.744 19.9167 232.007 19.6083 232.249C18.9785 232.4 18.4143 232.197 17.8107 231.731ZM9.47211 251.836C9.68205 251.2 9.90511 250.741 10.489 250.525C10.5809 250.945 10.6661 251.318 10.7514 251.705C10.3709 252.02 9.98384 251.981 9.47211 251.836Z" fill="#91ADA3" fill-opacity="0.5"/>
<path d="M44.9717 256.997C43.594 256.61 42.1309 256.689 40.7466 256.191C40.0971 255.955 39.5395 255.6 39.0015 255.338C38.3979 254.518 37.8337 253.758 37.3023 253.036C37.0136 252.997 36.7971 252.964 36.5872 252.938C36.5675 253.017 36.5019 253.122 36.5281 253.174C36.6528 253.41 36.8627 253.614 36.948 253.856C37.5385 255.561 38.6997 256.663 40.412 257.168C40.9697 257.332 41.5142 257.568 42.1244 257.541C42.3868 257.528 42.6558 257.614 42.9182 257.673C43.758 257.85 44.5977 258.053 45.5425 257.974C45.7524 257.843 46.0214 257.686 46.2904 257.522C46.3232 257.378 46.4019 257.233 46.3691 257.115C46.1657 256.374 46.0017 255.614 45.6999 254.918C45.221 253.804 44.7814 252.669 44.1057 251.627C43.1741 250.177 41.9472 249.128 40.4186 248.394C40.2612 248.315 40.0906 248.249 39.8741 248.151C40.0381 247.351 40.5892 246.649 40.3661 245.685C40.1496 245.528 39.8938 245.266 39.5788 245.115C39.2771 244.964 38.9293 244.925 38.3979 244.781C38.9293 244.518 39.2705 244.348 39.6379 244.164C39.7166 243.981 39.8085 243.777 39.8872 243.6C39.7888 243.259 39.6969 242.958 39.651 242.781C38.621 241.121 37.2039 240.551 35.4325 240.885C35.2357 240.479 35.2816 240.105 35.4719 239.803C35.8786 239.161 36.3444 238.557 36.7315 238.007C37.2367 237.987 37.6369 238.02 38.0174 237.941C38.3651 237.869 38.6866 237.679 39.0802 237.515C39.2246 237.2 39.382 236.833 39.5657 236.426C39.5788 235.843 39.0999 235.534 38.7391 235.134C38.1945 234.531 37.5188 234.649 36.8693 234.734C35.9246 235.154 35.5637 235.967 35.2947 236.879C35.3603 237.167 35.4259 237.469 35.485 237.725C35.1438 238.715 34.3369 239.39 34.1532 240.361C33.7661 240.439 33.5824 240.177 33.4249 239.994C32.8935 239.377 32.3818 238.748 31.9226 238.079C31.3846 237.298 30.9647 236.446 30.7613 235.502C30.9385 235.102 31.1222 234.695 31.2731 234.354C31.214 233.502 30.8072 232.925 30.2496 232.387C29.8232 232.334 29.3836 232.282 28.9899 232.236C28.3929 232.42 28.2289 232.925 27.9074 233.351C27.9074 233.725 27.9074 234.125 27.9009 234.485C28.242 234.872 28.5438 235.213 28.8587 235.567C29.1015 235.639 29.3573 235.712 29.6198 235.79C29.8888 236.125 29.7379 236.748 30.3939 236.794C30.2299 237.318 30.3611 237.738 30.6301 238.118C31.0172 238.676 31.3911 239.239 31.811 239.771C32.1981 240.262 32.6246 240.721 33.0576 241.22C33.4578 241.266 33.8514 241.305 34.2385 241.344C34.3238 241.817 34.0088 242.046 33.812 242.341C33.6152 242.643 33.4381 242.951 33.2216 243.305C32.8279 243.128 32.4474 242.918 32.0406 242.787C31.6536 242.669 31.2403 242.597 30.8401 242.584C30.3939 242.571 29.9412 242.649 29.5542 242.682C29.1015 243.023 28.9047 243.423 28.9506 243.902C29.0096 244.492 29.1802 245.069 29.6329 245.489C29.9281 245.758 30.2758 245.967 30.5842 246.23C30.8204 246.426 31.0303 246.663 31.2665 246.899C31.0369 247.554 30.5251 247.948 30.0856 248.512C30.0331 248.82 29.9675 249.22 29.9084 249.587C30.0593 249.902 30.1971 250.191 30.3218 250.459C30.9909 251.05 31.916 250.676 32.6574 251.148C32.946 250.984 33.2609 250.813 33.5627 250.643C33.648 250.689 33.753 250.715 33.7792 250.774C33.9432 251.141 34.1597 251.476 34.1991 251.909C34.2188 252.132 34.4681 252.328 34.619 252.545C35.052 252.387 35.4063 252.184 35.7868 252.138C36.9283 252.013 37.6238 251.476 37.7156 250.184C37.9124 250.354 38.0436 250.453 38.1552 250.571C39.0605 251.515 39.9528 252.473 40.8713 253.404C41.219 253.758 41.6389 254.007 42.1834 253.836C41.9669 253.076 41.9341 253.01 41.5011 252.584C40.891 251.981 40.2612 251.404 39.6707 250.781C39.2049 250.289 38.785 249.758 38.5685 248.997C39.651 249.076 40.5039 249.568 41.2649 250.151C42.2753 250.918 43.115 251.856 43.6136 253.069C44.0073 254.027 44.4862 254.951 44.9127 255.902C45.0898 256.237 45.2013 256.577 44.9717 256.997ZM31.2468 249.613C30.9581 249.299 31.0697 249.036 31.2074 248.8C31.4764 248.315 31.8963 247.974 32.3293 247.64C32.7098 247.345 32.9395 246.971 32.7295 246.413C32.5393 246.282 32.3293 246.118 32.1063 245.967C31.6601 245.666 31.2009 245.377 30.7679 245.063C30.3414 244.748 30.2102 244.269 30.1118 243.777C30.453 243.705 30.7548 243.64 30.9713 243.587C31.8635 243.967 32.6639 244.367 33.3331 244.984C33.484 245.122 33.7333 245.167 33.9432 245.226C34.0023 245.24 34.0876 245.154 34.2122 245.089C34.1794 244.767 34.1401 244.413 34.1073 244.138C34.9339 241.915 35.7343 241.679 37.3745 242.026C37.6959 242.335 38.1617 242.558 38.3586 242.964C38.1814 244.079 37.0792 244.387 36.62 245.213C36.6922 245.364 36.7315 245.495 36.8102 245.594C36.889 245.699 37.0071 245.771 37.0924 245.843C37.8009 246.053 38.7128 245.771 39.0409 246.846C38.7391 247.108 38.4373 247.364 38.1945 247.574C37.3745 247.633 36.4953 247.312 36.1542 248.295C36.7381 249.469 36.784 249.83 36.4494 250.82C36.1935 250.886 35.8983 250.958 35.6359 251.023C35.3603 250.833 35.1373 250.682 34.9273 250.538C34.8486 250.066 34.7764 249.627 34.7043 249.22C34.5271 249.122 34.4156 249.043 34.2975 248.997C34.2188 248.964 34.1204 248.977 33.9498 248.964C33.2084 249.718 32.2703 249.994 31.2468 249.613ZM38.5685 236.597C38.0699 236.925 37.6763 237.082 37.2957 236.905C36.9349 236.735 36.7578 237.102 36.4691 237.082C36.4494 236.42 36.4757 236.348 36.6922 236.125C37.0399 235.764 37.4466 235.672 37.9715 235.816C38.1355 236.02 38.3192 236.262 38.5685 236.597ZM29.646 234.616C29.1605 234.308 28.8456 234.013 29.1671 233.331C29.2196 233.312 29.3836 233.259 29.5082 233.226C30.0003 233.548 30.184 233.915 30.0462 234.492C29.9544 234.518 29.8297 234.557 29.646 234.616Z" fill="#91ADA3" fill-opacity="0.5"/>
<path d="M26.5496 252.145C26.2019 252.289 25.9854 252.361 25.7886 252.473C25.3293 252.728 25.021 253.109 24.9947 253.653C24.9619 254.368 24.9554 255.082 24.9422 255.896C24.378 256.23 23.7482 256.637 23.2234 257.214C22.8297 257.646 22.6395 258.112 22.587 258.656C22.5345 259.22 22.6854 259.732 23.2102 260.151C23.6235 260.217 24.1025 260.335 24.588 260.368C25.0735 260.401 25.5721 260.355 26.1494 260.342C26.215 260.486 26.3069 260.676 26.3725 260.879C26.4446 261.089 26.4709 261.325 26.5562 261.528C27.0679 262.722 28.4391 262.984 29.3116 262.014C29.6856 261.594 29.9152 261.043 30.2564 260.479C31.0305 260.263 31.8178 261.102 32.9397 260.492C32.9725 260.466 33.2415 260.23 33.4908 260.014C33.8582 259.128 33.3858 258.519 32.8806 257.876C32.9594 257.522 33.3661 257.397 33.5892 256.997C33.622 256.61 33.6614 256.118 33.6942 255.686C33.4252 254.636 32.7822 254.099 31.6538 253.955C30.9715 254.269 30.1973 254.63 29.3904 254.997C29.0164 253.555 28.1898 252.453 26.5496 252.145ZM27.9864 261.351C27.5009 260.991 27.5009 260.519 27.4353 260.079C27.3697 259.627 27.291 259.181 26.8055 258.912C25.8935 258.912 25.0275 259.561 24.0106 259.227C23.9122 259.069 23.8007 258.886 23.6957 258.728C24.0434 257.443 25.1522 257.148 26.0904 256.702C26.2019 256.459 26.2872 256.256 26.3397 256.151C26.2019 255.482 26.0379 254.918 25.9854 254.348C25.946 253.928 26.1428 253.555 26.6808 253.443C27.7896 253.705 28.0586 254.682 28.3866 255.653C28.8196 255.705 29.2067 255.882 29.515 256.217C30.2432 255.817 30.9124 255.45 31.5619 255.096C32.5526 255.443 32.6182 255.548 32.4476 256.584C32.0934 256.886 31.7194 257.207 31.4045 257.476C31.3061 257.968 31.411 258.302 31.7719 258.499C32.1721 258.722 32.4542 259.004 32.5526 259.548C32.054 259.502 31.6538 259.482 31.2536 259.43C30.8075 259.371 30.3679 259.279 29.9808 259.214C29.5019 259.482 29.2657 259.817 29.1411 260.289C28.9967 260.82 28.6818 261.273 27.9864 261.351Z" fill="#91ADA3" fill-opacity="0.5"/>
<path d="M12.4244 262.21C14.1039 262.984 14.7075 262.879 15.7637 261.673C15.8097 260.781 15.3701 260.092 14.6681 259.515C14.2089 259.391 13.7365 259.259 13.2969 259.135C12.3522 259.692 12.3194 259.738 12.0242 260.925C12.1488 261.325 12.28 261.751 12.4244 262.21ZM13.1592 260.348C13.8152 260.223 14.1498 260.617 14.5697 260.912C14.5303 261.115 14.4975 261.279 14.4713 261.43C14.0317 261.581 13.6447 261.646 13.192 261.332C13.1788 261.043 13.1657 260.702 13.1592 260.348Z" fill="#91ADA3" fill-opacity="0.5"/>
<path d="M45.8772 245.161C45.5032 244.348 44.998 243.856 44.1386 243.744C43.6794 243.685 43.2726 243.836 42.8724 243.948C41.9605 244.203 41.7571 244.767 42.2163 245.574C42.3016 245.725 42.4066 245.882 42.5378 245.994C42.8133 246.243 43.1676 246.249 43.5153 246.335C43.8237 246.413 44.0533 246.794 44.3682 246.918C44.5782 246.997 44.9128 246.925 45.1227 246.8C45.7197 246.459 45.9756 245.915 45.8772 245.161ZM44.9128 245.725C44.4207 245.804 44.0074 245.876 43.5613 245.948C43.4301 245.594 43.3185 245.279 43.1742 244.885C43.4366 244.787 43.6334 244.636 43.8171 244.656C44.3485 244.702 44.6831 245.036 44.9128 245.725Z" fill="#91ADA3" fill-opacity="0.5"/>
<path d="M13.1853 257.351C13.2379 257.404 13.2839 257.463 13.3431 257.502C13.3563 257.515 13.4089 257.469 13.4418 257.45C13.3892 257.397 13.3431 257.345 13.2839 257.299C13.2708 257.292 13.2248 257.332 13.1853 257.351Z" fill="#91ADA3" fill-opacity="0.5"/>
<path d="M21.4387 246.695C21.6617 246.794 21.8586 246.885 22.0554 246.971C22.5671 246.781 22.8164 246.348 23.1248 245.987C23.1379 245.436 22.8951 245.089 22.4096 244.944C21.8782 244.787 21.5961 245.194 21.2747 245.522C21.3337 245.908 21.3862 246.308 21.4387 246.695Z" fill="#91ADA3" fill-opacity="0.5"/>
<path d="M34.5796 246.643C34.7567 246.722 34.9339 246.8 35.0782 246.866C35.3603 246.663 35.3275 246.479 35.1766 246.289C34.8617 246.171 34.7042 246.348 34.5796 246.643Z" fill="#91ADA3" fill-opacity="0.5"/>
<path d="M27.7173 258.014C27.8813 258.204 28.0716 258.427 28.2159 258.604C28.8195 258.682 28.9901 258.348 29.1147 257.837C29.0163 257.646 28.8785 257.391 28.7407 257.135C28.2225 257.246 27.8354 257.41 27.7173 258.014Z" fill="#91ADA3" fill-opacity="0.5"/>
</svg>
