<svg width="36" height="37" viewBox="0 0 36 37" fill="none" xmlns="http://www.w3.org/2000/svg">
<g clip-path="url(#clip0_751_10410)">
<path d="M12.6782 14.8119C12.7142 15.2529 11.5532 15.8619 11.3072 15.0069C11.1662 14.4999 11.5892 13.9569 11.5172 13.4109C11.4482 12.8259 10.5692 12.4389 10.7792 11.8149C10.9562 11.4249 11.6222 11.4249 11.9402 11.5809C11.9402 11.5839 12.5372 13.0509 12.6782 14.8119Z" fill="#F2CFA8"/>
<path d="M12.6301 14.8119C12.5911 15.2019 12.1141 15.3579 11.8171 15.3669C10.9771 15.3909 11.5381 14.0619 11.5981 13.6359C11.6791 13.0689 11.1631 12.6969 10.9111 12.2859C10.4371 11.5119 11.7991 11.4549 11.8651 11.6439C11.9281 11.8209 11.9821 12.0039 12.0361 12.1839C12.2911 13.0509 12.3631 13.9689 12.6001 14.8299C12.6271 14.9259 12.7441 14.9019 12.7531 14.8059C12.8431 13.7379 12.4321 12.4839 12.0151 11.5239C11.9131 11.2929 11.3161 11.3859 11.1481 11.4189C10.8721 11.4729 10.5841 11.7639 10.6711 12.1029C10.8391 12.7689 11.5291 12.9849 11.4211 13.7859C11.3641 14.2149 10.9801 14.9049 11.3791 15.2919C11.7661 15.6639 12.6961 15.4569 12.7231 14.7999C12.7291 14.7429 12.6361 14.7489 12.6301 14.8119Z" fill="#3D3D3D"/>
<path d="M23.817 14.8119C23.781 15.2529 24.942 15.8619 25.188 15.0069C25.329 14.4999 24.906 13.9569 24.978 13.4109C25.047 12.8259 25.926 12.4389 25.716 11.8149C25.542 11.4249 24.873 11.4249 24.555 11.5809C24.552 11.5839 23.955 13.0509 23.817 14.8119Z" fill="#F2CFA8"/>
<path d="M23.8651 14.8119C23.9041 15.2019 24.3811 15.3579 24.6781 15.3669C25.5181 15.3909 24.9601 14.0619 24.8971 13.6359C24.8161 13.0689 25.3321 12.6969 25.5811 12.2859C26.0551 11.5119 24.6931 11.4549 24.6271 11.6439C24.5641 11.8209 24.5071 12.0039 24.4561 12.1839C24.2011 13.0509 24.1321 13.9689 23.8921 14.8299C23.8651 14.9259 23.7481 14.9019 23.7391 14.8059C23.6491 13.7379 24.0601 12.4839 24.4771 11.5239C24.5791 11.2929 25.1761 11.3859 25.3441 11.4189C25.6201 11.4729 25.9081 11.7639 25.8211 12.1029C25.6531 12.7689 24.9631 12.9849 25.0711 13.7859C25.1281 14.2149 25.5121 14.9049 25.1101 15.2919C24.7261 15.6639 23.7931 15.4569 23.7661 14.7999C23.7661 14.7429 23.8561 14.7489 23.8651 14.8119Z" fill="#3D3D3D"/>
<path d="M26.7 24.9158C26.358 24.3638 25.842 23.7638 25.785 23.1638C25.671 22.3118 26.355 21.4598 26.643 20.7098C27.558 18.3038 26.643 16.1018 25.671 13.8458C25.158 12.6938 24.756 11.6918 24.756 10.4378C24.699 8.93478 24.756 7.38078 24.186 5.87778C23.559 4.17378 22.701 2.29578 19.017 2.29578H17.403C13.719 2.29578 12.861 4.17378 12.234 5.87778C11.664 7.38078 11.721 8.93478 11.664 10.4378C11.664 11.6918 11.265 12.6938 10.752 13.8458C9.78003 16.0988 8.86803 18.3038 9.78003 20.7098C10.065 21.4598 10.752 22.3118 10.638 23.1638C10.581 23.7638 10.068 24.3668 9.72303 24.9158C8.92203 26.0678 8.40903 27.2198 9.15303 28.5218C10.809 31.4288 18.12 27.7718 18.12 27.7718H18.306C18.306 27.7718 25.617 31.4288 27.273 28.5218C28.011 27.2198 27.498 26.0678 26.7 24.9158Z" fill="#E6E6E6"/>
<path d="M26.793 24.8618C26.535 24.4568 26.241 24.0728 26.031 23.6378C25.749 23.0528 25.923 22.4528 26.181 21.8978C26.364 21.5078 26.583 21.1388 26.745 20.7368C26.949 20.2238 27.057 19.6778 27.108 19.1318C27.309 16.9598 26.217 14.9468 25.428 13.0028C25.248 12.5588 25.098 12.1028 24.993 11.6318C24.867 11.0678 24.867 10.4948 24.849 9.92182C24.819 8.85982 24.795 7.80082 24.564 6.75982C24.309 5.61082 23.79 4.34482 22.95 3.49582C21.93 2.46382 20.409 2.19082 19.014 2.19082C17.88 2.19082 16.728 2.12782 15.615 2.37382C14.397 2.64082 13.401 3.34882 12.768 4.41982C11.952 5.81182 11.664 7.41982 11.598 9.00982C11.553 10.0928 11.589 11.1578 11.277 12.2078C10.971 13.2338 10.464 14.1938 10.074 15.1898C9.31803 17.1158 8.92203 19.2248 9.86403 21.1628C10.083 21.6128 10.341 22.0418 10.479 22.5248C10.653 23.1278 10.413 23.6558 10.095 24.1568C9.56703 24.9848 8.93403 25.7588 8.73003 26.7428C8.46903 27.9938 9.19503 29.2088 10.389 29.5868C11.436 29.9168 12.627 29.7248 13.674 29.4908C14.784 29.2418 15.867 28.8608 16.917 28.4258C17.247 28.2908 17.571 28.1468 17.895 27.9968C17.973 27.9608 18.051 27.9248 18.129 27.8858C18.183 27.8588 18.258 27.8648 18.258 27.8678C18.807 28.1408 19.371 28.3778 19.941 28.6028C21.615 29.2658 23.526 29.9108 25.35 29.7218C26.085 29.6468 26.787 29.3708 27.243 28.7678C28.194 27.5078 27.582 26.0138 26.793 24.8618C26.715 24.7478 26.526 24.8558 26.607 24.9698C27.231 25.8818 27.75 26.8928 27.39 28.0118C27.195 28.6088 26.772 29.0678 26.196 29.3018C25.146 29.7308 23.877 29.5208 22.809 29.2838C21.699 29.0348 20.616 28.6538 19.566 28.2188C19.236 28.0838 18.912 27.9398 18.588 27.7868C18.426 27.7118 18.279 27.6128 18.09 27.6668C17.946 27.7058 17.802 27.8048 17.667 27.8648C17.295 28.0358 16.917 28.1948 16.539 28.3478C15.453 28.7828 14.331 29.1518 13.182 29.3738C12.132 29.5778 10.866 29.7068 9.90303 29.1398C9.24603 28.7528 8.91603 27.9638 8.90103 27.2258C8.88003 26.1548 9.65103 25.2128 10.215 24.3698C10.731 23.6018 10.908 22.8758 10.524 22.0058C10.326 21.5558 10.068 21.1358 9.88503 20.6798C9.65703 20.1068 9.54603 19.4888 9.51603 18.8738C9.40803 16.6238 10.644 14.6468 11.376 12.6038C12.105 10.5728 11.589 8.36182 12.207 6.29482C12.549 5.14882 13.098 3.96382 14.094 3.25282C15.249 2.42482 16.707 2.40682 18.072 2.40682C19.443 2.40682 20.853 2.38282 22.08 3.09082C23.124 3.69382 23.658 4.76482 24.063 5.85082C24.459 6.91282 24.573 8.01682 24.615 9.14182C24.651 10.1618 24.627 11.1608 24.903 12.1538C25.215 13.2638 25.776 14.3018 26.19 15.3758C26.637 16.5368 26.964 17.7518 26.904 19.0058C26.874 19.6358 26.721 20.2748 26.469 20.8538C26.262 21.3278 25.986 21.7658 25.806 22.2518C25.407 23.3228 26.061 24.1118 26.61 24.9728C26.679 25.0868 26.868 24.9788 26.793 24.8618Z" fill="#333333"/>
<path d="M29.2019 29.4818C29.0219 28.7978 28.6979 28.2938 28.2269 27.8228C27.4709 27.0668 23.5979 26.7308 21.8639 24.7568C20.8199 23.5688 21.0149 19.3838 20.5829 19.8188C20.1539 20.2478 16.1189 20.2478 15.6869 19.8188C15.2549 19.3868 15.5249 23.4608 14.4059 24.5768C13.2869 25.6928 12.4409 25.8398 11.2889 26.3438C10.2419 26.7758 9.08994 26.8538 8.00694 27.9368C7.53594 28.4078 7.25094 28.7948 7.07094 29.4818C7.07094 29.4818 5.03394 35.5988 18.0599 35.6468C18.0869 35.6468 18.1109 35.6468 18.1349 35.6468C18.1619 35.6468 18.1859 35.6468 18.2099 35.6468C31.2389 35.5988 29.2019 29.4818 29.2019 29.4818Z" fill="#F2CFA8"/>
<path d="M29.2021 29.4819C29.0971 29.0799 28.9261 28.7529 28.7191 28.4469C28.3021 28.7169 27.8191 28.8459 27.2641 28.8699C26.5801 28.9059 26.5411 28.9779 26.0371 29.3739C25.4251 29.9139 24.7381 29.8059 24.0181 29.6259C23.1181 29.4099 22.7551 29.4459 21.8911 29.8419C21.0241 30.2379 20.3401 30.0579 19.4401 29.8419C18.5041 29.5899 18.1411 29.8779 17.3491 30.2739C16.3021 30.7779 15.5821 30.2019 14.6461 29.8419C14.1421 29.6619 13.6741 29.5539 13.1671 29.7339C12.8071 29.8419 12.5191 30.0939 12.1561 30.1299C11.0761 30.3099 10.3171 29.5539 9.52512 29.0109C9.19812 28.7919 8.36412 28.4529 7.63212 28.3389C7.38912 28.6749 7.19112 29.0289 7.07412 29.4819C7.07412 29.4819 5.03712 35.5989 18.0631 35.6469C18.0901 35.6469 18.1141 35.6469 18.1381 35.6469C18.1651 35.6469 18.1891 35.6469 18.2131 35.6469C31.2391 35.5989 29.2021 29.4819 29.2021 29.4819Z" fill="#F2F2F2"/>
<path d="M18.8281 34.9629C18.8011 34.9629 18.7771 34.9629 18.7501 34.9629C18.7231 34.9629 18.6991 34.9629 18.6721 34.9629C6.68712 34.9209 7.01712 30.0849 7.23912 29.0109C7.17312 29.1579 7.11912 29.3139 7.07412 29.4849C7.07412 29.4849 5.03712 35.6019 18.0631 35.6499C18.0901 35.6499 18.1141 35.6499 18.1381 35.6499C18.1651 35.6499 18.1891 35.6499 18.2131 35.6499C23.7571 35.6289 26.5711 34.5099 27.9751 33.2319C26.3131 34.1979 23.5111 34.9449 18.8281 34.9629Z" fill="#D2D2D2"/>
<path d="M7.53316 28.7679C7.58416 28.6779 7.63816 28.5909 7.69816 28.5009C8.14816 28.5879 8.58916 28.7229 9.01216 28.9059C9.39316 29.0709 9.71416 29.3229 10.0472 29.5659C10.7402 30.0699 11.4302 30.3909 12.3032 30.2529C12.7862 30.1749 13.1522 29.8179 13.6652 29.7849C14.2412 29.7489 14.8142 30.0639 15.3242 30.2919C15.6812 30.4509 16.0382 30.5799 16.4312 30.6129C16.8992 30.6549 17.3252 30.4539 17.7302 30.2439C18.1022 30.0519 18.4562 29.8869 18.8852 29.8929C19.3952 29.8989 19.8992 30.1239 20.4032 30.1869C20.8472 30.2409 21.2672 30.2139 21.6932 30.0789C22.1672 29.9259 22.5722 29.6679 23.0822 29.6379C23.9822 29.5899 24.7892 30.1419 25.6862 29.7729C26.0252 29.6319 26.2712 29.3439 26.5802 29.1519C26.9222 28.9419 27.4172 29.0139 27.8012 28.9539C28.1102 28.9059 28.4042 28.7889 28.6772 28.6389C28.7402 28.7439 28.8002 28.8489 28.8542 28.9569C28.9172 28.8579 28.9742 28.7589 29.0252 28.6599C28.9712 28.5639 28.9142 28.4679 28.8512 28.3749C28.8092 28.3119 28.7252 28.2789 28.6532 28.3239C28.1852 28.6119 27.6962 28.7019 27.1562 28.7319C26.8532 28.7499 26.5772 28.8039 26.3252 28.9779C25.9292 29.2479 25.6322 29.5659 25.1312 29.6259C24.6152 29.6829 24.1022 29.4819 23.6042 29.3949C23.2652 29.3379 22.9322 29.3469 22.5992 29.4249C22.0742 29.5509 21.6272 29.8629 21.0812 29.9259C20.1632 30.0309 19.3082 29.4639 18.3962 29.6559C18.0422 29.7309 17.7092 29.9349 17.3912 30.0999C16.8392 30.3849 16.3172 30.3699 15.7472 30.1599C14.8292 29.8209 14.0372 29.2899 13.0292 29.6349C12.8462 29.6979 12.6752 29.7999 12.4982 29.8839C12.2552 30.0009 11.9852 30.0219 11.7182 30.0129C11.2202 29.9949 10.7672 29.7159 10.3682 29.4429C10.0502 29.2239 9.75316 28.9659 9.41416 28.7829C9.01816 28.5669 8.58016 28.4229 8.14816 28.3059C7.99216 28.2639 7.83616 28.2339 7.67716 28.2069C7.60816 28.1949 7.55416 28.2159 7.51516 28.2729C7.47016 28.3359 7.42816 28.4019 7.38916 28.4679C7.42516 28.5639 7.47616 28.6659 7.53316 28.7679Z" fill="#333333"/>
<path d="M29.3581 29.4398C28.8511 27.7598 27.3721 26.7158 25.8451 26.0258C24.2971 25.3238 22.1371 24.8708 21.4891 23.0918C21.1081 22.0448 21.2641 20.8718 20.8981 19.8398C20.8441 19.6898 20.6941 19.5608 20.5351 19.6568C20.1511 19.8818 19.7101 19.9088 19.2661 19.9448C18.2611 20.0258 16.7971 20.1758 15.8521 19.7408C15.2401 19.4588 15.2761 20.2688 15.2191 20.7338C15.1411 21.3758 15.0631 22.0178 14.9131 22.6508C14.6851 23.6018 14.1901 24.1598 13.3771 24.7028C11.8861 25.6958 10.0111 25.9358 8.59806 27.0878C6.98706 28.4018 6.25506 30.3188 7.26906 32.2058C7.88706 33.3578 9.06606 34.1258 10.2421 34.6088C12.6931 35.6198 15.4411 35.7968 18.0601 35.8148C18.0061 35.7608 17.9521 35.7068 17.8981 35.6528C17.8981 35.7398 17.9731 35.8148 18.0601 35.8148C18.1111 35.8148 18.1621 35.8148 18.2131 35.8148C18.3001 35.8148 18.3751 35.7398 18.3751 35.6528C18.3211 35.7068 18.2671 35.7608 18.2131 35.8148C20.6701 35.7968 23.1991 35.6288 25.5331 34.8008C26.7391 34.3748 27.8941 33.7178 28.6861 32.6948C29.3551 31.8218 29.7121 30.5108 29.3581 29.4398C29.2921 29.2418 28.9801 29.3258 29.0461 29.5268C29.3611 30.4838 29.0461 31.6028 28.4971 32.4038C27.7591 33.4748 26.5111 34.1078 25.3171 34.5308C23.0611 35.3288 20.5861 35.4698 18.2131 35.4848C18.1231 35.4848 18.0511 35.5598 18.0511 35.6468C18.1051 35.5928 18.1591 35.5388 18.2131 35.4848C18.1621 35.4848 18.1111 35.4848 18.0601 35.4848C18.1141 35.5388 18.1681 35.5928 18.2221 35.6468C18.2221 35.5568 18.1471 35.4848 18.0601 35.4848C15.1531 35.4638 11.8861 35.2988 9.31206 33.7778C8.19906 33.1208 7.29006 32.0738 7.13706 30.7538C7.01106 29.6588 7.44306 28.7828 8.15706 27.9398C9.42306 26.4428 11.4871 26.0738 13.1521 25.2038C14.4961 24.5048 15.0901 23.5538 15.3541 22.1078C15.4771 21.4388 15.3901 20.5328 15.6901 19.9208C15.6541 19.9958 15.5071 19.9118 15.6871 20.0198C15.7861 20.0768 15.9061 20.1068 16.0141 20.1338C16.3321 20.2178 16.6741 20.2418 17.0041 20.2688C17.8861 20.3408 18.7861 20.3258 19.6651 20.2298C19.9411 20.1998 20.2231 20.1578 20.4841 20.0618C20.7751 19.9538 20.5681 19.8218 20.6371 20.1248C21.0151 21.8078 20.7871 23.5778 22.3441 24.7118C24.5671 26.3288 28.1191 26.4698 29.0431 29.5268C29.1061 29.7248 29.4181 29.6408 29.3581 29.4398Z" fill="#333333"/>
<path d="M12.2129 7.60276C11.2289 11.7848 11.9279 18.4898 15.9149 21.6608C17.5799 22.9838 19.4759 23.0528 21.4619 21.0218C24.5249 17.8868 24.9449 9.66676 24.1109 7.14376C24.1109 7.14376 22.3109 4.75276 18.2429 4.67776C14.1719 4.59976 12.2129 7.60276 12.2129 7.60276Z" fill="#F2CFA8"/>
<path d="M12.126 7.57882C11.439 10.4528 11.565 13.5338 12.396 16.3628C12.81 17.7728 13.458 19.1618 14.376 20.3138C15.228 21.3878 16.407 22.5398 17.832 22.7258C20.889 23.1218 22.77 19.8908 23.583 17.4248C24.45 14.7848 24.762 11.8268 24.564 9.05782C24.504 8.23582 24.492 7.31182 23.883 6.70582C22.8 5.62882 21.33 5.00182 19.851 4.71382C17.037 4.16782 13.797 5.09182 12.156 7.56982C12.111 7.63882 12.222 7.70482 12.267 7.63582C13.581 5.64982 16.212 4.73482 18.483 4.80682C20.076 4.85782 21.654 5.35282 22.962 6.26782C23.556 6.68182 23.985 7.04182 24.135 7.74382C24.696 10.3688 24.354 13.4018 23.73 15.9788C23.058 18.7598 21 23.4098 17.337 22.2878C15.951 21.8618 14.841 20.5388 14.076 19.3718C13.314 18.2078 12.816 16.8848 12.471 15.5408C11.811 12.9968 11.742 10.1978 12.303 7.62682C12.324 7.51282 12.153 7.46482 12.126 7.57882Z" fill="#3D3D3D"/>
<path d="M18.2582 4.72283C19.2362 4.22183 21.5462 5.21483 22.8212 5.87783C23.1422 6.04583 23.4272 6.22883 23.6792 6.43283C24.4022 6.89183 25.5302 7.93283 25.8842 9.22883C26.1332 10.1408 26.0582 11.3018 25.9232 12.2378C25.8062 12.9338 25.6352 13.2458 25.2872 14.7098C25.2632 15.5408 25.3652 16.1558 25.8242 16.3868C26.2352 16.5938 26.5712 16.5368 26.6822 16.1408C26.7302 15.9698 26.3522 15.6698 26.0582 15.6698C26.0582 15.6698 27.0182 14.9318 27.6542 15.8378C28.3352 16.8098 27.2642 18.0338 25.8512 17.5778C25.2152 17.3738 24.9002 16.9178 24.7712 16.3748C24.7052 16.6328 24.6482 16.8308 24.6152 16.9568C24.3422 17.9528 23.3672 20.6618 25.2002 21.3008C25.2002 21.3008 26.4092 21.4988 26.5652 20.5028C26.7212 19.5068 25.5122 19.2278 25.0442 19.7048C25.0442 19.7048 24.6542 17.9528 26.5652 18.1508C28.4672 18.3488 28.7672 22.4138 25.3562 21.9758C21.9422 21.5378 23.8052 15.1418 23.8052 15.1418C23.8052 15.1418 25.3472 9.90383 23.3432 9.22583C23.3432 9.22583 18.9962 9.73583 18.2342 8.13083C18.2372 8.13083 17.8622 4.92383 18.2582 4.72283Z" fill="#A67C52"/>
<path d="M23.8082 15.1419C23.8082 15.1419 23.2682 17.0019 23.3042 18.7869C23.3372 17.1219 23.8082 15.5019 23.8082 15.5019C23.8082 15.5019 24.4172 13.4379 24.3722 11.7339C24.3332 13.3539 23.8082 15.1419 23.8082 15.1419Z" fill="#E2E2E2"/>
<path d="M25.8241 16.3839C25.4401 16.1889 25.3051 15.7239 25.2871 15.0849C25.2661 15.9039 25.3711 16.5129 25.8241 16.7409C26.2351 16.9479 26.5711 16.8909 26.6821 16.4949C26.6971 16.4379 26.6671 16.3689 26.6101 16.2999C26.4601 16.5429 26.1691 16.5579 25.8241 16.3839ZM25.2001 21.3009C24.4261 21.0309 24.1531 20.3918 24.1171 19.6658C24.0781 20.5299 24.3001 21.3458 25.2001 21.6579C25.2001 21.6579 26.4091 21.8559 26.5651 20.8598C26.5831 20.7339 26.5831 20.6168 26.5621 20.5149C26.4001 21.4958 25.2001 21.3009 25.2001 21.3009ZM23.6791 6.78985C24.4021 7.24885 25.5301 8.28985 25.8841 9.58585C25.9891 9.96985 26.0341 10.3989 26.0461 10.8369C26.0581 10.2789 26.0191 9.71785 25.8841 9.22885C25.5331 7.93285 24.4021 6.89185 23.6791 6.43285C23.4271 6.23185 23.1421 6.04585 22.8211 5.87785C21.5431 5.21485 19.2361 4.21885 18.2581 4.72285C18.1081 4.80085 18.0691 5.32285 18.0781 5.93785C18.0871 5.48785 18.1351 5.14285 18.2581 5.08285C19.2361 4.58185 21.4291 5.45485 22.7041 6.11785C23.0251 6.28285 23.4271 6.58885 23.6791 6.78985ZM27.6541 16.1949C27.7591 16.3419 27.8191 16.4979 27.8491 16.6509C27.8971 16.3869 27.8431 16.1019 27.6541 15.8379C27.0211 14.9319 26.0581 15.6699 26.0581 15.6699C26.1931 15.6699 26.3431 15.7329 26.4631 15.8169C26.8021 15.6969 27.2821 15.6639 27.6541 16.1949ZM26.5681 18.1509C25.0261 17.9889 24.9811 19.1018 25.0231 19.5368C25.0711 19.0388 25.3591 18.3849 26.5681 18.5109C27.3781 18.5949 27.8971 19.3839 27.9631 20.2239C28.0381 19.2608 27.4921 18.2469 26.5681 18.1509ZM25.4551 11.9049C25.5721 9.16585 23.5741 9.22585 23.5741 9.22585C25.1731 9.78385 25.4551 11.9049 25.4551 11.9049Z" fill="#865C32"/>
<path d="M18.0091 6.13885C18.0301 6.77485 18.0841 7.41085 18.1531 8.04385C18.2041 8.50885 18.7651 8.82385 19.1461 8.97685C19.8391 9.25585 20.6041 9.33985 21.3421 9.36685C22.0021 9.39085 22.6651 9.37285 23.3221 9.30085C23.5981 9.27085 23.9191 9.73585 24.0181 9.94885C24.2101 10.3569 24.2761 10.8159 24.2941 11.2659C24.3451 12.5859 24.0661 13.9119 23.7211 15.1779C23.3581 16.5069 23.1211 17.9619 23.2591 19.3419C23.3371 20.1069 23.5381 20.9499 24.1171 21.4899C24.7591 22.0899 25.7821 22.2309 26.6041 21.9939C27.3301 21.7839 27.8911 21.2109 28.0111 20.4369C28.1161 19.7709 27.9511 19.0149 27.4711 18.5289C26.9521 18.0069 25.9201 17.8419 25.3381 18.3579C24.9661 18.6879 24.8731 19.2549 24.9751 19.7319C24.9871 19.7889 25.0591 19.8009 25.0981 19.7649C25.3861 19.4949 25.8841 19.4919 26.1961 19.7259C26.5711 20.0049 26.6221 20.6289 26.2741 20.9649C25.8061 21.4149 25.0381 21.3189 24.6211 20.8599C24.0691 20.2509 24.1351 19.3119 24.2791 18.5559C24.4021 17.9079 24.6031 17.2749 24.7771 16.6389C25.0141 17.2479 25.5271 17.6589 26.1961 17.7369C26.8501 17.8149 27.5521 17.5629 27.8431 16.9209C28.0921 16.3719 27.8011 15.6249 27.2521 15.3969C26.8471 15.2289 26.3701 15.3459 26.0251 15.6069C25.9651 15.6519 25.9861 15.7419 26.0611 15.7449C26.2291 15.7569 26.4121 15.8349 26.5291 15.9639C26.6971 16.1529 26.5021 16.4319 26.2741 16.4289C26.0071 16.4259 25.7131 16.2969 25.5751 16.0539C25.2601 15.5019 25.3381 14.7939 25.4881 14.2089C25.6801 13.4589 25.9441 12.7239 26.0371 11.9499C26.1781 10.7799 26.2201 9.49585 25.6441 8.43085C25.1911 7.59385 24.5071 6.87985 23.7181 6.36985C23.7181 6.36985 23.7181 6.36985 23.7151 6.36985C22.8511 5.69485 21.7531 5.23885 20.7241 4.88785C19.9861 4.63585 18.9961 4.30285 18.2371 4.65385C18.2311 4.65685 18.2251 4.65685 18.2191 4.66285C18.2071 4.66885 18.1981 4.67485 18.1921 4.68385C18.0691 4.78585 18.0481 4.99585 18.0301 5.14285C17.9941 5.46985 17.9971 5.80585 18.0091 6.13885ZM22.5811 6.21385C21.7381 5.71885 20.7391 5.33485 19.7791 5.17585C19.2871 5.09485 18.5461 4.99285 18.1411 5.37685C18.1411 5.13085 18.1681 4.86385 18.2941 4.78585C18.6691 4.60585 19.1251 4.64185 19.5241 4.71385C20.0011 4.80085 20.4691 4.94185 20.9251 5.11285C21.8611 5.46085 22.8451 5.87485 23.6431 6.49585C23.6431 6.49585 23.6461 6.49585 23.6461 6.49885C24.7171 7.19185 25.6831 8.31685 25.8961 9.62485C26.0881 10.8249 25.9381 12.0639 25.6051 13.2189C25.4281 13.8249 25.1881 14.4669 25.2151 15.1059C25.2331 15.5409 25.2871 16.1199 25.6831 16.3839C26.0281 16.6149 26.5171 16.6899 26.7211 16.2519C26.7391 16.2159 26.7481 16.1829 26.7541 16.1499C26.9131 16.5789 26.7031 17.1219 26.2231 17.1819C26.2081 17.1849 26.2021 17.2059 26.2201 17.2089C26.7691 17.3169 27.0331 16.4769 26.7571 16.0809C26.7391 15.8619 26.4811 15.6999 26.2531 15.6279C26.5051 15.4839 26.8231 15.3999 27.0901 15.4869C27.6601 15.6729 27.9871 16.4109 27.6661 16.9479C27.3541 17.4729 26.7091 17.6859 26.1331 17.5659C25.4701 17.4279 25.0141 17.0199 24.8431 16.3509C24.8371 16.3299 24.8251 16.3179 24.8101 16.3089C24.7711 16.1169 24.7261 15.9249 24.7051 15.7239C24.6721 15.3819 24.6451 15.0399 24.6511 14.6979C24.6631 13.9569 24.8371 13.2369 24.8551 12.4989C24.8551 12.4869 24.8371 12.4869 24.8371 12.4989C24.7351 13.2999 24.5401 14.0739 24.5491 14.8869C24.5521 15.2019 24.5671 15.5139 24.6121 15.8229C24.6361 15.9849 24.6571 16.1679 24.7051 16.3359C24.7021 16.3389 24.6991 16.3419 24.6991 16.3479C24.4621 17.2749 24.1171 18.1959 24.0511 19.1619C24.0181 19.6119 24.0361 20.0949 24.2281 20.5119C24.3961 20.8749 24.7651 21.3009 25.1821 21.3669C25.8301 21.4689 26.6041 21.1899 26.6491 20.4249C26.7001 19.6089 25.7491 19.1199 25.1131 19.5519C25.2691 19.0629 25.6261 18.7449 26.1781 18.7659C26.4451 18.7779 26.7181 18.8349 26.9581 18.9549C27.2311 19.0929 27.3661 19.2639 27.5131 19.5309C27.5281 19.5549 27.5671 19.5399 27.5611 19.5099C27.4081 18.8769 26.6191 18.6279 26.0461 18.6609C25.5961 18.6879 25.2331 18.9219 25.0801 19.3029C25.0981 18.8169 25.3531 18.3639 25.8631 18.2499C26.7331 18.0609 27.5101 18.4749 27.7861 19.3449C28.0141 20.0769 27.8881 20.9589 27.2821 21.4689C26.5621 22.0749 25.2721 22.1079 24.4921 21.5949C23.7691 21.1179 23.4931 20.2239 23.4091 19.3899C23.3191 18.5079 23.3911 17.6109 23.5321 16.7409C23.6791 15.8379 23.9491 14.9769 24.1381 14.0859C24.3271 13.1829 24.4741 12.2469 24.4411 11.3229C24.4171 10.6239 24.2941 9.70285 23.6551 9.29485C23.8381 9.32785 24.0241 9.34885 24.2041 9.41785C24.3571 9.47785 24.6481 9.60985 24.8551 9.84685C25.3771 10.4379 25.3741 11.1429 25.4281 11.8929C25.4311 11.9259 25.4761 11.9259 25.4791 11.8929C25.5331 11.1729 25.4611 10.3209 24.9271 9.77485C24.2341 9.06685 23.2621 9.15685 23.1001 9.17185C22.7551 9.20185 22.4131 9.21685 22.0651 9.22285C21.1141 9.23485 20.0731 9.20785 19.1821 8.83285C18.9691 8.74285 18.7531 8.62885 18.5821 8.46985C18.4981 8.39185 18.3181 8.23285 18.3061 8.11585C18.2851 7.92685 18.2671 7.73485 18.2491 7.54285C18.4381 7.90585 18.8101 8.15485 19.1731 8.32285C19.7521 8.59585 20.3971 8.76385 21.0361 8.79385C22.2601 8.84785 23.5111 8.22685 24.7201 8.68285C24.7441 8.69185 24.7621 8.64985 24.7381 8.63785C23.7061 8.12785 22.4821 8.64085 21.4111 8.68885C20.7901 8.71585 20.1421 8.58985 19.5601 8.37085C19.0741 8.18785 18.4981 7.89985 18.2341 7.41085C18.2281 7.35685 18.2251 7.30585 18.2191 7.25185C18.2071 7.10485 18.1951 6.95785 18.1861 6.80785C18.5791 6.42685 19.3681 6.72985 19.7911 6.88885C20.3581 7.10185 20.8561 7.50685 21.4411 7.65985C21.4621 7.66585 21.4771 7.63285 21.4561 7.62385C20.8201 7.32985 20.2141 6.94285 19.5421 6.72985C19.1251 6.59785 18.5431 6.39385 18.1801 6.73585C18.1651 6.51085 18.1561 6.28585 18.1501 6.06085C18.4891 5.78785 19.2871 5.99185 19.6231 6.07585C20.1871 6.21985 20.7451 6.37285 21.2881 6.58285C22.3111 6.97585 23.2801 7.59385 24.3511 7.84885C24.3931 7.86085 24.4081 7.79785 24.3691 7.78285C23.1751 7.31485 22.0321 6.69385 20.8081 6.30985C20.2171 6.12385 19.5901 5.90785 18.9721 5.83585C18.7231 5.80885 18.3721 5.76085 18.1501 5.91685C18.1501 5.87185 18.1471 5.82685 18.1471 5.78185C18.1471 5.73385 18.1441 5.66185 18.1411 5.58085C18.5791 5.05885 19.5691 5.26285 20.1241 5.40685C20.9611 5.62285 21.7591 5.93485 22.5601 6.25585C22.5871 6.27085 22.6021 6.22885 22.5811 6.21385ZM26.9791 15.6369C26.9731 15.6369 26.9761 15.6429 26.9791 15.6459C27.5461 15.8169 27.6811 16.5309 27.3931 16.9929C27.3841 17.0079 27.4051 17.0199 27.4141 17.0109C27.6301 16.7829 27.6721 16.4019 27.5311 16.1169C27.4411 15.9279 27.2191 15.5949 26.9791 15.6369ZM26.2501 21.3819C26.2291 21.4029 26.2501 21.4479 26.2801 21.4359C26.6101 21.3069 26.9041 20.8809 26.9281 20.5179C26.9551 20.0799 26.7661 19.6809 26.4301 19.4139C26.4271 19.4109 26.4241 19.4139 26.4271 19.4199C26.6701 19.6869 26.9041 20.0559 26.8621 20.4399C26.8141 20.8509 26.5321 21.1149 26.2501 21.3819ZM22.9861 7.98085C22.2301 7.99885 21.4591 8.18185 20.7271 7.89985C20.4001 7.77385 20.0821 7.61485 19.7521 7.49185C19.4161 7.36585 19.0801 7.33885 18.7321 7.27585C18.7171 7.27285 18.7111 7.29385 18.7261 7.29985C19.0921 7.41085 19.4731 7.48585 19.8241 7.63585C20.1781 7.78585 20.5351 7.93885 20.9101 8.03485C21.5851 8.20885 22.3141 8.15185 22.9921 8.02885C23.0191 8.02285 23.0131 7.98085 22.9861 7.98085Z" fill="#603813"/>
<path d="M18.1891 3.85289C18.1891 3.85289 22.8961 2.63789 24.9241 6.47189C25.3981 7.36889 25.5961 8.57789 25.5331 9.55289C25.5331 9.55289 25.4191 11.8209 26.3551 12.1689C26.7901 12.3309 27.0961 12.1449 27.0961 11.8599C27.0961 11.3619 26.3011 11.5509 26.3011 11.5509C26.3011 11.5509 26.3221 10.6449 27.1081 10.6449C28.2811 10.6449 29.1391 12.2919 28.0471 13.5099C27.4051 14.2269 26.1331 13.9179 25.4491 12.9429C25.4281 13.4859 25.5811 14.3919 26.8051 14.6349C26.8051 14.6349 24.4801 15.8259 24.1651 13.4499C23.8741 11.2659 23.5381 10.3299 21.9991 9.25589C20.6911 8.34689 18.2491 8.45789 18.0811 6.92189L18.1891 3.85289Z" fill="#A67C52"/>
<path d="M25.4491 13.2698C25.4311 13.7348 25.5421 14.4668 26.3401 14.8178C26.6161 14.7338 26.8021 14.6378 26.8021 14.6378C25.8091 14.4428 25.5211 13.8068 25.4581 13.2848C25.4581 13.2788 25.4551 13.2728 25.4491 13.2698ZM18.0811 6.92482C18.0841 6.94582 18.0871 6.96382 18.0901 6.98482L18.1891 4.17682C18.1891 4.17682 22.8961 2.96182 24.9241 6.79582C25.3171 7.53682 25.5211 8.49382 25.5421 9.35482C25.5691 8.41582 25.3681 7.30882 24.9241 6.47482C22.8961 2.64082 18.1891 3.85582 18.1891 3.85582L18.0811 6.92482ZM27.0961 12.1838C27.0961 12.1178 27.0811 12.0668 27.0571 12.0218C26.9641 12.2078 26.7001 12.2978 26.3551 12.1688C25.6651 11.9138 25.5451 10.6118 25.5301 9.94582C25.5211 10.3328 25.5181 12.1778 26.3551 12.4898C26.7901 12.6548 27.0961 12.4688 27.0961 12.1838ZM27.1081 10.9718C27.8521 10.9718 28.4701 11.6378 28.5421 12.4328C28.6321 11.5028 27.9511 10.6508 27.1081 10.6508C26.3221 10.6508 26.3011 11.5568 26.3011 11.5568C26.3011 11.5568 26.3251 11.5508 26.3641 11.5448C26.4481 11.2838 26.6461 10.9718 27.1081 10.9718Z" fill="#865C32"/>
<path d="M18.0811 6.92491C18.2491 8.46091 20.6941 8.34991 21.9991 9.25891C23.3731 10.2159 23.7901 11.0649 24.0691 12.7869C24.0811 12.5769 24.0931 12.4299 24.0931 12.4299C24.5551 9.05791 20.4181 7.46191 20.4181 7.46191C18.6841 6.69091 18.2251 5.97391 18.1291 5.52991L18.0811 6.92491Z" fill="#865C32"/>
<path d="M28.5931 11.8869C28.4161 11.1399 27.7561 10.4559 27.0211 10.5579C26.5501 10.6239 26.2351 11.0229 26.2201 11.5539C26.2171 11.6169 26.2741 11.6559 26.3251 11.6439C26.4361 11.6169 26.5561 11.6049 26.6701 11.6109C26.7571 11.6169 26.8981 11.6259 26.9611 11.7099C27.1411 11.9499 26.8411 12.1479 26.6551 12.1329C26.1811 12.0969 25.9171 11.7189 25.7851 11.2389C25.6351 10.6989 25.5901 10.1139 25.6171 9.54987C25.6981 8.06787 25.2841 6.56187 24.3661 5.46987C23.6731 4.65087 22.7731 4.09587 21.7981 3.82587C20.6371 3.50187 19.3381 3.45987 18.1681 3.75687C18.1261 3.76587 18.1081 3.80187 18.1081 3.83787C18.1081 3.84087 18.1051 3.84387 18.1051 3.84687C18.0691 4.86687 18.0331 5.88687 17.9941 6.90687C17.9791 7.38087 18.3781 7.80387 18.7141 8.01087C19.2661 8.35287 19.8931 8.50887 20.4931 8.69787C21.7981 9.11187 23.1301 9.89487 23.6461 11.3889C23.9131 12.1599 23.9371 12.9669 24.1321 13.7529C24.2581 14.2599 24.5221 14.7189 24.9811 14.9079C25.5721 15.1479 26.2831 14.9979 26.8441 14.7129C26.9071 14.6799 26.8921 14.5569 26.8231 14.5419C26.1301 14.3919 25.6111 13.9509 25.5391 13.1949C26.0611 13.7829 26.8891 14.2119 27.6121 13.9089C28.3111 13.6269 28.7851 12.7059 28.5931 11.8869ZM27.2131 13.8129C26.5381 13.8339 25.9291 13.4559 25.5091 12.8829C25.4881 12.8559 25.4611 12.8499 25.4371 12.8559C25.2781 12.4689 25.2751 12.0339 25.2451 11.6049C25.2451 11.5929 25.2301 11.5929 25.2301 11.6049C25.1971 12.0429 25.1821 12.5139 25.3831 12.8919C25.3711 12.9069 25.3651 12.9279 25.3651 12.9459C25.3411 13.7139 25.6981 14.2479 26.2501 14.5359C25.8481 14.5269 25.4401 14.5269 25.1491 14.1489C24.9391 13.8729 24.8491 13.5249 24.8251 13.1679C24.7861 12.5589 24.8611 11.9529 24.7531 11.3499C24.7501 11.3379 24.7351 11.3409 24.7351 11.3529C24.7831 12.1239 24.5761 12.9519 24.7921 13.7079C25.0171 14.4879 25.7341 14.8599 26.4361 14.6559C26.4481 14.6529 26.4571 14.6439 26.4631 14.6349C26.4871 14.6439 26.5111 14.6499 26.5351 14.6589C26.0611 14.8509 25.4821 14.9409 25.0261 14.7309C24.3301 14.4129 24.2791 13.5909 24.1621 12.8679C24.0511 12.1689 23.9101 11.4399 23.5831 10.8189C22.9261 9.57087 21.7441 8.89887 20.5351 8.52087C19.9201 8.32887 19.2181 8.18187 18.6811 7.77387C18.2941 7.47987 18.1501 7.11687 18.1681 6.61887C18.1771 6.35787 18.1861 6.09687 18.1951 5.83287C18.3421 6.12687 18.6391 6.40887 18.7951 6.54387C19.3891 7.05087 20.1331 7.29987 20.8021 7.65387C21.4531 7.99887 22.1071 8.35587 22.6561 8.88087C23.2291 9.42987 23.6041 10.1469 23.9761 10.8669C23.9941 10.9029 24.0391 10.8699 24.0241 10.8369C23.5201 9.57987 22.6051 8.56287 21.5341 7.90887C20.8591 7.49487 20.1511 7.18587 19.4521 6.83187C18.9271 6.56487 18.3691 6.12987 18.2071 5.49087C18.2221 5.04387 18.2401 4.59687 18.2551 4.14987C19.2211 5.16087 20.6971 5.25087 21.8941 5.73087C21.9151 5.73987 21.9271 5.70387 21.9091 5.69487C20.7421 5.01987 19.2781 5.11587 18.2791 4.05987C18.2731 4.05387 18.2671 4.05087 18.2611 4.04787C18.2611 4.01487 18.2641 3.97887 18.2641 3.94587C18.7321 4.41987 19.4611 4.50087 20.0611 4.62387C20.9311 4.80687 21.7831 4.95987 22.5421 5.50287C23.2681 6.02487 23.9071 6.73887 24.3481 7.56987C24.5731 7.98687 24.7891 8.43687 24.8971 8.91087C25.0111 9.40887 25.0441 9.91887 25.0831 10.4289C25.0861 10.4829 25.1551 10.4829 25.1581 10.4289C25.1881 8.57187 24.3601 6.82887 23.0491 5.70387C22.3441 5.09787 21.5941 4.77987 20.7211 4.60587C20.2771 4.51587 19.8391 4.40787 19.3951 4.32087C19.0411 4.25187 18.6301 4.16187 18.3331 3.91287C19.3921 3.66687 20.5651 3.69687 21.6061 3.97287C22.5721 4.22787 23.4931 4.72587 24.1831 5.53887C25.1011 6.62487 25.5241 8.06787 25.4431 9.55287C25.4041 10.3419 25.4461 11.7249 26.1511 12.1689C26.4451 12.3519 27.0751 12.3789 27.1621 11.9769C27.1891 12.0279 27.2101 12.0819 27.2191 12.1509C27.2431 12.3279 27.2161 12.5409 27.0991 12.6759C26.8921 12.9159 26.3041 12.9129 26.0731 12.7209C26.0491 12.6999 26.0191 12.7449 26.0401 12.7659C26.3461 13.0779 27.0091 13.2039 27.2941 12.7869C27.4321 12.5829 27.4861 12.2799 27.4081 12.0339C27.3541 11.8629 27.2371 11.6469 27.0751 11.5689C26.9251 11.3949 26.6101 11.4039 26.3881 11.4399C26.4481 11.0079 26.7661 10.7019 27.1801 10.7439C27.8341 10.8069 28.4311 11.4129 28.4551 12.1689C28.4851 12.9609 27.9631 13.7889 27.2131 13.8129ZM21.8611 6.42387C21.2761 6.10887 20.6611 5.83587 20.0491 5.58987C19.7071 5.45187 19.3531 5.32587 19.0381 5.11887C18.7231 4.91187 18.5011 4.66287 18.2641 4.36287C18.2611 4.35987 18.2581 4.36287 18.2581 4.36587C18.4591 4.95087 19.1191 5.25687 19.5901 5.49687C20.1661 5.78787 20.7631 6.02487 21.3451 6.29787C22.0441 6.62487 22.6861 7.04787 23.2171 7.65987C23.8291 8.36487 24.1981 9.14787 24.4171 10.0929C24.4291 10.1439 24.5041 10.1349 24.4981 10.0809C24.3481 8.49987 23.0911 7.08687 21.8611 6.42387ZM18.4201 5.18487C18.4141 5.17887 18.4081 5.18487 18.4111 5.19387C18.8221 5.79987 19.4011 6.21087 20.0671 6.38487C20.0911 6.39087 20.1001 6.35487 20.0761 6.34287C19.4401 6.06387 18.9001 5.73387 18.4201 5.18487ZM19.8211 7.51287C19.3321 7.30287 18.8761 7.02987 18.3961 6.80487C18.3901 6.80187 18.3841 6.81087 18.3901 6.81687C18.7231 7.20087 19.2601 7.38087 19.7041 7.55187C20.2351 7.75887 20.7361 7.97487 21.2041 8.33187C21.2281 8.35287 21.2521 8.30787 21.2281 8.28687C20.8081 7.93287 20.3041 7.71987 19.8211 7.51287ZM27.7621 11.2929C27.5761 10.9959 27.1351 10.9119 26.8651 11.0859C26.8531 11.0949 26.8621 11.1159 26.8741 11.1129C27.1771 10.9899 27.4801 11.1579 27.7321 11.3259C27.7531 11.3379 27.7771 11.3139 27.7621 11.2929ZM28.0231 11.6649C28.2631 12.2619 28.0771 13.0449 27.5191 13.3239C27.4711 13.3479 27.5071 13.4229 27.5521 13.4109C28.1401 13.2759 28.4251 12.1359 28.0321 11.6559C28.0291 11.6499 28.0201 11.6589 28.0231 11.6649Z" fill="#603813"/>
<path d="M18.0512 4.72283C17.0702 4.22183 14.7632 5.21483 13.4882 5.87783C13.1672 6.04583 12.8822 6.22883 12.6272 6.43283C11.9072 6.89183 10.7732 7.93283 10.4252 9.22883C10.1792 10.1408 10.2512 11.3018 10.3862 12.2378C10.5032 12.9338 10.6742 13.2458 11.0192 14.7098C11.0432 15.5408 10.9412 16.1558 10.4822 16.3868C10.0712 16.5938 9.73822 16.5368 9.62422 16.1408C9.57622 15.9698 9.95422 15.6698 10.2482 15.6698C10.2482 15.6698 9.28822 14.9318 8.65522 15.8378C7.97422 16.8098 9.04522 18.0338 10.4582 17.5778C11.0942 17.3738 11.4092 16.9178 11.5382 16.3748C11.6042 16.6328 11.6582 16.8308 11.6942 16.9568C11.9672 17.9528 12.9422 20.6618 11.1092 21.3008C11.1092 21.3008 9.90022 21.4988 9.74422 20.5028C9.58822 19.5068 10.7972 19.2278 11.2652 19.7048C11.2652 19.7048 11.6552 17.9528 9.74422 18.1508C7.84222 18.3488 7.53922 22.4138 10.9532 21.9758C14.3672 21.5378 12.5042 15.1418 12.5042 15.1418C12.5042 15.1418 10.9622 9.90383 12.9662 9.22583C12.9662 9.22583 17.3162 9.73583 18.0722 8.13083C18.0722 8.13083 18.4442 4.92383 18.0512 4.72283Z" fill="#A67C52"/>
<path d="M12.5011 15.1419C12.5011 15.1419 13.0411 17.0019 13.0051 18.7869C12.9721 17.1219 12.5011 15.5019 12.5011 15.5019C12.5011 15.5019 11.8951 13.4379 11.9371 11.7339C11.9761 13.3539 12.5011 15.1419 12.5011 15.1419Z" fill="#E2E2E2"/>
<path d="M9.69624 16.3028C9.63924 16.3718 9.60924 16.4408 9.62424 16.4978C9.73524 16.8908 10.0712 16.9508 10.4822 16.7438C10.9382 16.5128 11.0432 15.9068 11.0192 15.0878C11.0012 15.7238 10.8662 16.1918 10.4822 16.3868C10.1402 16.5578 9.84924 16.5428 9.69624 16.3028ZM9.74424 20.5148C9.72324 20.6168 9.72024 20.7338 9.74124 20.8598C9.89724 21.8558 11.1062 21.6578 11.1062 21.6578C12.0062 21.3458 12.2312 20.5298 12.1892 19.6658C12.1532 20.3888 11.8802 21.0308 11.1062 21.3008C11.1062 21.3008 9.90924 21.4958 9.74424 20.5148ZM12.6272 6.78983C12.8792 6.58883 13.2812 6.28283 13.6052 6.11783C14.8832 5.45483 17.0732 4.57883 18.0542 5.08283C18.1742 5.14283 18.2222 5.49083 18.2312 5.93783C18.2432 5.32583 18.2042 4.80083 18.0542 4.72283C17.0732 4.22183 14.7662 5.21483 13.4912 5.87783C13.1702 6.04583 12.8852 6.22883 12.6302 6.43283C11.9102 6.89183 10.7762 7.93283 10.4282 9.22883C10.2962 9.71783 10.2542 10.2788 10.2662 10.8368C10.2752 10.3988 10.3232 9.96983 10.4282 9.58583C10.7762 8.28983 11.9072 7.24583 12.6272 6.78983ZM9.84324 15.8138C9.96324 15.7298 10.1162 15.6668 10.2482 15.6668C10.2482 15.6668 9.28824 14.9288 8.65524 15.8348C8.46924 16.0988 8.41524 16.3838 8.46024 16.6478C8.48724 16.4948 8.55024 16.3418 8.65524 16.1918C9.02424 15.6638 9.50724 15.6968 9.84324 15.8138ZM8.34624 20.2238C8.41224 19.3808 8.93124 18.5948 9.74424 18.5108C10.9532 18.3848 11.2412 19.0388 11.2892 19.5368C11.3312 19.1018 11.2862 17.9918 9.74424 18.1508C8.81424 18.2468 8.26824 19.2608 8.34624 20.2238ZM12.7352 9.22583C12.7352 9.22583 10.7372 9.16583 10.8542 11.9048C10.8542 11.9048 11.1362 9.78383 12.7352 9.22583Z" fill="#865C32"/>
<path d="M18.2762 5.13687C18.2612 4.98987 18.2372 4.77987 18.1142 4.67787C18.1082 4.66887 18.0992 4.66287 18.0872 4.65687C18.0812 4.65387 18.0752 4.65087 18.0692 4.64787C17.3102 4.29687 16.3202 4.62987 15.5822 4.88187C14.5532 5.23287 13.4582 5.68887 12.5912 6.36387C12.5912 6.36387 12.5912 6.36387 12.5882 6.36387C11.7962 6.87387 11.1122 7.58787 10.6622 8.42487C10.0862 9.48987 10.1312 10.7739 10.2722 11.9439C10.3652 12.7179 10.6292 13.4499 10.8212 14.2029C10.9712 14.7879 11.0492 15.4959 10.7342 16.0479C10.5962 16.2909 10.2992 16.4229 10.0352 16.4229C9.80722 16.4259 9.61222 16.1469 9.78022 15.9579C9.89422 15.8289 10.0802 15.7509 10.2452 15.7389C10.3202 15.7329 10.3412 15.6429 10.2812 15.6009C9.93622 15.3399 9.45922 15.2229 9.05122 15.3909C8.49922 15.6189 8.20822 16.3659 8.45722 16.9149C8.74822 17.5569 9.45022 17.8089 10.1042 17.7309C10.7732 17.6529 11.2832 17.2419 11.5232 16.6329C11.6972 17.2689 11.8982 17.9019 12.0212 18.5499C12.1652 19.3059 12.2312 20.2449 11.6792 20.8539C11.2682 21.3099 10.5002 21.4059 10.0322 20.9559C9.68422 20.6229 9.73522 19.9959 10.1102 19.7169C10.4222 19.4859 10.9232 19.4859 11.2082 19.7559C11.2472 19.7919 11.3192 19.7799 11.3312 19.7229C11.4362 19.2459 11.3432 18.6789 10.9682 18.3489C10.3862 17.8329 9.35422 17.9979 8.83522 18.5199C8.35222 19.0059 8.19022 19.7619 8.29522 20.4279C8.41522 21.2019 8.97622 21.7749 9.70222 21.9849C10.5242 22.2219 11.5472 22.0839 12.1892 21.4809C12.7652 20.9409 12.9692 20.0979 13.0472 19.3329C13.1852 17.9559 12.9512 16.4979 12.5852 15.1689C12.2372 13.9029 11.9612 12.5799 12.0122 11.2569C12.0302 10.8099 12.0962 10.3479 12.2882 9.93987C12.3902 9.72687 12.7082 9.26187 12.9842 9.29187C13.6412 9.36387 14.3072 9.38187 14.9642 9.35787C15.7022 9.33087 16.4672 9.24987 17.1602 8.96787C17.5382 8.81487 18.1022 8.49987 18.1532 8.03487C18.2222 7.40187 18.2732 6.76587 18.2972 6.12987C18.3092 5.80587 18.3122 5.46987 18.2762 5.13687ZM13.7462 6.26187C14.5472 5.94087 15.3452 5.62887 16.1822 5.41287C16.7372 5.26887 17.7272 5.06487 18.1652 5.58687C18.1622 5.67087 18.1592 5.74287 18.1592 5.78787C18.1592 5.83287 18.1562 5.87787 18.1562 5.92287C17.9342 5.76687 17.5832 5.81487 17.3342 5.84187C16.7162 5.91087 16.0892 6.12987 15.4982 6.31587C14.2742 6.69987 13.1312 7.32087 11.9372 7.78887C11.8982 7.80387 11.9102 7.86687 11.9552 7.85487C13.0232 7.59987 13.9952 6.98187 15.0182 6.58887C15.5612 6.37887 16.1192 6.22587 16.6832 6.08187C17.0192 5.99787 17.8172 5.79387 18.1562 6.06687C18.1502 6.29187 18.1382 6.51687 18.1232 6.74187C17.7632 6.39987 17.1812 6.60087 16.7612 6.73587C16.0892 6.94887 15.4862 7.33587 14.8472 7.62987C14.8262 7.63887 14.8412 7.67187 14.8622 7.66587C15.4442 7.51287 15.9452 7.10487 16.5122 6.89487C16.9352 6.73887 17.7242 6.43287 18.1172 6.81387C18.1082 6.96087 18.0962 7.11087 18.0842 7.25787C18.0812 7.31187 18.0752 7.36287 18.0692 7.41687C17.8082 7.90287 17.2292 8.19087 16.7462 8.37687C16.1642 8.59587 15.5162 8.72187 14.8952 8.69487C13.8242 8.64687 12.6002 8.13387 11.5682 8.64387C11.5442 8.65587 11.5622 8.69787 11.5862 8.68887C12.7952 8.23287 14.0462 8.85387 15.2702 8.79987C15.9092 8.77287 16.5542 8.60487 17.1332 8.32887C17.4932 8.15787 17.8682 7.90887 18.0572 7.54887C18.0392 7.74087 18.0212 7.92987 18.0002 8.12187C17.9882 8.23587 17.8052 8.39487 17.7242 8.47587C17.5532 8.63787 17.3372 8.74887 17.1242 8.83887C16.2332 9.21687 15.1922 9.24387 14.2412 9.22887C13.8962 9.22287 13.5542 9.20487 13.2092 9.17787C13.0472 9.16287 12.0782 9.07287 11.3822 9.78087C10.8482 10.3269 10.7732 11.1789 10.8302 11.8989C10.8332 11.9319 10.8782 11.9319 10.8812 11.8989C10.9352 11.1489 10.9322 10.4439 11.4542 9.85287C11.6642 9.61587 11.9552 9.48387 12.1052 9.42387C12.2822 9.35487 12.4682 9.33387 12.6542 9.30087C12.0152 9.70887 11.8952 10.6299 11.8682 11.3289C11.8352 12.2529 11.9822 13.1889 12.1712 14.0919C12.3572 14.9829 12.6302 15.8469 12.7772 16.7469C12.9212 17.6199 12.9902 18.5139 12.9032 19.3959C12.8162 20.2269 12.5402 21.1239 11.8202 21.6009C11.0402 22.1169 9.75022 22.0839 9.03022 21.4749C8.42722 20.9649 8.29822 20.0829 8.52622 19.3509C8.79922 18.4809 9.57922 18.0669 10.4462 18.2559C10.9592 18.3669 11.2112 18.8229 11.2292 19.3089C11.0762 18.9279 10.7132 18.6939 10.2632 18.6669C9.69022 18.6309 8.90422 18.8799 8.75122 19.5159C8.74522 19.5429 8.78122 19.5609 8.79622 19.5369C8.94622 19.2729 9.07822 19.0989 9.35122 18.9609C9.59122 18.8409 9.86722 18.7839 10.1312 18.7719C10.6832 18.7479 11.0402 19.0689 11.1962 19.5579C10.5632 19.1259 9.61222 19.6149 9.66022 20.4309C9.70522 21.1959 10.4792 21.4749 11.1272 21.3729C11.5412 21.3069 11.9132 20.8809 12.0782 20.5179C12.2702 20.1009 12.2882 19.6179 12.2552 19.1679C12.1892 18.2049 11.8472 17.2839 11.6072 16.3539C11.6072 16.3479 11.6042 16.3449 11.6012 16.3419C11.6492 16.1739 11.6702 15.9909 11.6942 15.8289C11.7392 15.5199 11.7542 15.2049 11.7572 14.8929C11.7662 14.0799 11.5712 13.3059 11.4692 12.5049C11.4692 12.4929 11.4512 12.4929 11.4512 12.5049C11.4692 13.2429 11.6462 13.9629 11.6552 14.7039C11.6582 15.0459 11.6342 15.3879 11.6012 15.7299C11.5802 15.9279 11.5352 16.1199 11.4962 16.3149C11.4812 16.3239 11.4692 16.3359 11.4632 16.3569C11.2922 17.0289 10.8362 17.4339 10.1732 17.5719C9.59722 17.6919 8.95222 17.4789 8.64022 16.9539C8.31922 16.4139 8.64622 15.6789 9.21622 15.4929C9.48322 15.4059 9.80122 15.4899 10.0532 15.6339C9.82522 15.7059 9.56722 15.8679 9.54922 16.0869C9.27322 16.4829 9.53722 17.3229 10.0862 17.2149C10.1042 17.2119 10.0982 17.1879 10.0832 17.1879C9.60322 17.1279 9.39022 16.5849 9.55222 16.1559C9.55522 16.1889 9.56722 16.2249 9.58522 16.2579C9.79222 16.6959 10.2782 16.6209 10.6262 16.3899C11.0192 16.1229 11.0732 15.5469 11.0912 15.1119C11.1182 14.4729 10.8752 13.8339 10.7012 13.2249C10.3652 12.0669 10.2152 10.8279 10.4102 9.63087C10.6232 8.32287 11.5892 7.19787 12.6602 6.50487C12.6602 6.50487 12.6632 6.50487 12.6632 6.50187C13.4612 5.88087 14.4452 5.46687 15.3812 5.11887C15.8372 4.94787 16.3052 4.80687 16.7822 4.71987C17.1782 4.64787 17.6372 4.61187 18.0122 4.79187C18.1382 4.86987 18.1652 5.13687 18.1652 5.38287C17.7602 4.99887 17.0192 5.10087 16.5272 5.18187C15.5642 5.34087 14.5682 5.72487 13.7252 6.21987C13.7042 6.22887 13.7192 6.27087 13.7462 6.26187ZM8.77522 16.1169C8.63422 16.3989 8.67622 16.7829 8.89222 17.0109C8.90422 17.0229 8.92222 17.0079 8.91322 16.9929C8.62522 16.5309 8.76022 15.8169 9.32722 15.6459C9.33022 15.6429 9.33322 15.6369 9.32722 15.6369C9.08722 15.5949 8.86822 15.9279 8.77522 16.1169ZM9.44722 20.4399C9.40522 20.0559 9.63922 19.6869 9.88222 19.4199C9.88522 19.4169 9.88222 19.4139 9.87622 19.4139C9.54322 19.6839 9.35122 20.0799 9.37822 20.5179C9.40222 20.8809 9.69322 21.3039 10.0262 21.4359C10.0562 21.4479 10.0802 21.4029 10.0562 21.3819C9.77722 21.1149 9.49522 20.8509 9.44722 20.4399ZM13.3142 8.02887C13.9922 8.14887 14.7212 8.20887 15.3962 8.03487C15.7712 7.93887 16.1252 7.78587 16.4822 7.63587C16.8362 7.48587 17.2142 7.41387 17.5832 7.29987C17.5982 7.29687 17.5922 7.27587 17.5772 7.27587C17.2292 7.33887 16.8932 7.36587 16.5572 7.49187C16.2272 7.61487 15.9122 7.77387 15.5822 7.89987C14.8502 8.18187 14.0762 7.99587 13.3232 7.98087C13.2932 7.98087 13.2872 8.02287 13.3142 8.02887Z" fill="#603813"/>
<path d="M18.1441 3.85289C18.1441 3.85289 13.4371 2.63789 11.4091 6.47189C10.9321 7.36889 10.7341 8.57789 10.8001 9.55589C10.8001 9.55589 10.9141 11.8239 9.97813 12.1719C9.54313 12.3339 9.23713 12.1479 9.23713 11.8629C9.23713 11.3649 10.0321 11.5539 10.0321 11.5539C10.0321 11.5539 10.0111 10.6479 9.22513 10.6479C8.05213 10.6479 7.19413 12.2949 8.28613 13.5129C8.92813 14.2299 10.2001 13.9209 10.8841 12.9459C10.9081 13.4889 10.7521 14.3949 9.52813 14.6379C9.52813 14.6379 11.8531 15.8289 12.1681 13.4529C12.4591 11.2689 12.7951 10.3329 14.3371 9.25889C15.6421 8.34989 18.0871 8.46089 18.2551 6.92489L18.1441 3.85289Z" fill="#A67C52"/>
<path d="M10.8692 13.2849C10.8092 13.8069 10.5212 14.4429 9.52521 14.6379C9.52521 14.6379 9.71121 14.7339 9.98721 14.8179C10.7882 14.4669 10.8992 13.7349 10.8782 13.2699C10.8782 13.2729 10.8722 13.2789 10.8692 13.2849ZM18.1442 3.85289C18.1442 3.85289 13.4372 2.63789 11.4092 6.47189C10.9682 7.30889 10.7642 8.41589 10.7912 9.35189C10.8122 8.49089 11.0162 7.53389 11.4092 6.79289C13.4372 2.95889 18.1442 4.17389 18.1442 4.17389L18.2432 6.98189C18.2462 6.96389 18.2522 6.94289 18.2522 6.92189L18.1442 3.85289ZM9.97521 12.4929C10.8122 12.1809 10.8092 10.3359 10.8002 9.94889C10.7852 10.6149 10.6652 11.9139 9.97521 12.1719C9.63021 12.3009 9.36621 12.2109 9.27321 12.0249C9.24921 12.0699 9.23721 12.1209 9.23721 12.1869C9.23721 12.4689 9.54321 12.6549 9.97521 12.4929ZM9.96921 11.5419C10.0082 11.5479 10.0322 11.5539 10.0322 11.5539C10.0322 11.5539 10.0112 10.6479 9.22521 10.6479C8.38221 10.6479 7.70121 11.4999 7.79121 12.4299C7.86321 11.6349 8.48121 10.9689 9.22521 10.9689C9.68721 10.9719 9.88521 11.2839 9.96921 11.5419Z" fill="#865C32"/>
<path d="M18.2523 6.92491C18.0843 8.46091 15.6393 8.34991 14.3343 9.25891C12.9603 10.2159 12.5433 11.0649 12.2643 12.7869C12.2523 12.5769 12.2403 12.4299 12.2403 12.4299C11.7753 9.05791 15.9153 7.46191 15.9153 7.46191C17.6493 6.69091 18.1083 5.97391 18.2013 5.52991L18.2523 6.92491Z" fill="#865C32"/>
<path d="M8.71517 13.9148C9.43817 14.2178 10.2692 13.7918 10.7882 13.2008C10.7162 13.9568 10.2002 14.3948 9.50417 14.5478C9.43517 14.5628 9.41717 14.6858 9.48317 14.7188C10.0442 15.0038 10.7552 15.1538 11.3462 14.9138C11.8052 14.7278 12.0692 14.2658 12.1952 13.7588C12.3902 12.9728 12.4142 12.1658 12.6782 11.3948C13.1972 9.90085 14.5292 9.11785 15.8312 8.70385C16.4342 8.51185 17.0582 8.35585 17.6102 8.01685C17.9462 7.80985 18.3482 7.38685 18.3302 6.91285C18.2942 5.89285 18.2582 4.87285 18.2192 3.85285C18.2192 3.84985 18.2192 3.84685 18.2162 3.84385C18.2162 3.80785 18.1982 3.77485 18.1562 3.76285C16.9862 3.46285 15.6872 3.50785 14.5292 3.83185C13.5512 4.10485 12.6542 4.65685 11.9582 5.47585C11.0372 6.56485 10.6232 8.07385 10.7072 9.55585C10.7342 10.1198 10.6862 10.7048 10.5392 11.2448C10.4072 11.7248 10.1462 12.1028 9.66917 12.1388C9.48317 12.1538 9.18317 11.9528 9.36317 11.7158C9.42617 11.6318 9.56717 11.6228 9.65417 11.6168C9.76817 11.6078 9.88817 11.6228 10.0022 11.6498C10.0532 11.6618 10.1102 11.6228 10.1072 11.5598C10.0892 11.0318 9.77417 10.6298 9.30617 10.5638C8.57117 10.4618 7.90817 11.1428 7.73417 11.8928C7.54517 12.7058 8.01917 13.6268 8.71517 13.9148ZM7.86917 12.1718C7.89317 11.4128 8.49017 10.8098 9.14417 10.7468C9.55817 10.7048 9.87617 11.0108 9.93617 11.4428C9.71417 11.4068 9.40217 11.4008 9.24917 11.5718C9.08717 11.6498 8.97017 11.8658 8.91617 12.0368C8.83817 12.2798 8.89217 12.5858 9.03017 12.7898C9.31517 13.2038 9.97817 13.0778 10.2842 12.7688C10.3052 12.7478 10.2752 12.7028 10.2512 12.7238C10.0202 12.9158 9.43517 12.9218 9.22517 12.6788C9.10817 12.5438 9.08117 12.3278 9.10517 12.1538C9.11417 12.0878 9.13517 12.0308 9.16217 11.9798C9.24917 12.3818 9.87917 12.3548 10.1732 12.1718C10.8812 11.7278 10.9202 10.3448 10.8812 9.55585C10.8002 8.07085 11.2262 6.62785 12.1412 5.54185C12.8282 4.72885 13.7522 4.23085 14.7182 3.97585C15.7562 3.69985 16.9322 3.66985 17.9912 3.91585C17.6942 4.16485 17.2832 4.25485 16.9292 4.32385C16.4852 4.40785 16.0472 4.51885 15.6032 4.60885C14.7332 4.78285 13.9802 5.10385 13.2752 5.70685C11.9642 6.83185 11.1362 8.57485 11.1662 10.4318C11.1662 10.4858 11.2382 10.4858 11.2412 10.4318C11.2802 9.92185 11.3132 9.41485 11.4272 8.91385C11.5352 8.43985 11.7542 7.98985 11.9762 7.57285C12.4202 6.74185 13.0592 6.02785 13.7822 5.50585C14.5412 4.95985 15.3932 4.80685 16.2632 4.62685C16.8632 4.50085 17.5952 4.42285 18.0602 3.94885C18.0602 3.98185 18.0632 4.01485 18.0632 4.05085C18.0572 4.05085 18.0512 4.05385 18.0452 4.06285C17.0462 5.12185 15.5852 5.02285 14.4152 5.69785C14.3972 5.70985 14.4092 5.74285 14.4302 5.73385C15.6272 5.25385 17.1032 5.16385 18.0662 4.15285C18.0812 4.59985 18.0992 5.04685 18.1142 5.49385C17.9522 6.13285 17.3942 6.56785 16.8692 6.83485C16.1702 7.18885 15.4622 7.50085 14.7872 7.91185C13.7162 8.56585 12.8042 9.58285 12.2972 10.8398C12.2822 10.8758 12.3272 10.9058 12.3452 10.8698C12.7172 10.1528 13.0922 9.43285 13.6652 8.88385C14.2142 8.35885 14.8682 8.00185 15.5192 7.65685C16.1882 7.30285 16.9322 7.05385 17.5262 6.54685C17.6852 6.41185 17.9792 6.12985 18.1262 5.83585C18.1352 6.09685 18.1442 6.35785 18.1532 6.62185C18.1712 7.11985 18.0272 7.48285 17.6402 7.77685C17.1032 8.18485 16.4042 8.32885 15.7862 8.52385C14.5772 8.90185 13.3952 9.57385 12.7382 10.8218C12.4112 11.4428 12.2732 12.1688 12.1592 12.8708C12.0452 13.5908 11.9912 14.4158 11.2952 14.7338C10.8392 14.9438 10.2632 14.8538 9.78617 14.6618C9.81017 14.6528 9.83417 14.6468 9.85817 14.6378C9.86417 14.6468 9.87317 14.6558 9.88517 14.6588C10.5902 14.8658 11.3072 14.4938 11.5292 13.7108C11.7452 12.9548 11.5352 12.1298 11.5832 11.3558C11.5832 11.3438 11.5682 11.3438 11.5652 11.3528C11.4572 11.9528 11.5322 12.5618 11.4932 13.1708C11.4692 13.5278 11.3792 13.8758 11.1692 14.1518C10.8782 14.5298 10.4702 14.5298 10.0682 14.5388C10.6202 14.2508 10.9772 13.7168 10.9532 12.9488C10.9532 12.9278 10.9442 12.9098 10.9322 12.8948C11.1332 12.5168 11.1182 12.0458 11.0852 11.6078C11.0852 11.5958 11.0702 11.5958 11.0702 11.6078C11.0402 12.0368 11.0372 12.4688 10.8782 12.8588C10.8542 12.8528 10.8272 12.8588 10.8062 12.8858C10.3862 13.4588 9.77717 13.8368 9.10217 13.8158C8.37017 13.7888 7.84517 12.9608 7.86917 12.1718ZM11.8352 10.0838C11.8292 10.1378 11.9072 10.1468 11.9162 10.0958C12.1352 9.14785 12.5012 8.36485 13.1162 7.66285C13.6472 7.05085 14.2892 6.62785 14.9882 6.30085C15.5702 6.02785 16.1672 5.78785 16.7432 5.49985C17.2142 5.26285 17.8742 4.95385 18.0752 4.36885C18.0752 4.36585 18.0722 4.36285 18.0692 4.36585C17.8322 4.66585 17.6072 4.91785 17.2952 5.12185C16.9802 5.32885 16.6262 5.45485 16.2842 5.59285C15.6722 5.83885 15.0572 6.11185 14.4722 6.42685C13.2392 7.08685 11.9852 8.49985 11.8352 10.0838ZM16.2572 6.34285C16.2362 6.35185 16.2422 6.39085 16.2662 6.38485C16.9292 6.21085 17.5112 5.79985 17.9222 5.19385C17.9252 5.18785 17.9162 5.18185 17.9132 5.18485C17.4332 5.73385 16.8902 6.06385 16.2572 6.34285ZM15.1082 8.28685C15.0842 8.30785 15.1052 8.35285 15.1322 8.33185C15.5972 7.97485 16.1012 7.75885 16.6322 7.55185C17.0732 7.38085 17.6132 7.20085 17.9462 6.81685C17.9492 6.81085 17.9462 6.80185 17.9402 6.80485C17.4602 7.02985 17.0012 7.29985 16.5152 7.51285C16.0262 7.71985 15.5252 7.93285 15.1082 8.28685ZM8.59817 11.3258C8.85017 11.1578 9.15617 10.9898 9.45617 11.1128C9.46817 11.1188 9.47717 11.0948 9.46517 11.0858C9.19517 10.9118 8.75417 10.9958 8.56817 11.2928C8.55617 11.3138 8.58017 11.3378 8.59817 11.3258ZM8.29817 11.6558C7.90517 12.1388 8.19017 13.2788 8.77817 13.4108C8.82317 13.4198 8.85917 13.3448 8.81117 13.3238C8.25617 13.0478 8.07017 12.2648 8.30717 11.6648C8.31017 11.6588 8.30117 11.6498 8.29817 11.6558Z" fill="#603813"/>
<path d="M20.4453 3.70278C20.6013 3.16278 21.1953 2.39178 20.8323 1.89978C19.8993 0.999778 18.6963 0.528778 17.3373 0.780778C16.6773 0.924778 15.5523 1.28478 15.2013 1.86378C14.8503 2.40378 15.4743 3.27078 15.6273 3.81078C15.6273 3.81078 16.6743 4.54278 18.1623 4.54278C19.6503 4.54578 20.4453 3.70278 20.4453 3.70278Z" fill="#F2F2F2"/>
<path d="M20.5442 3.73283C20.7542 3.12983 21.2732 2.48783 20.9312 1.84583C20.5862 1.19183 19.4012 0.810825 18.7412 0.678825C17.6852 0.465825 15.3002 0.837825 15.0092 2.13383C14.9432 2.42483 15.0902 2.77883 15.1892 3.04583C15.2792 3.29183 15.3722 3.73283 15.5432 3.90383C15.8492 4.20983 16.4162 4.36583 16.8122 4.48883C18.0182 4.86383 19.6172 4.75883 20.5472 3.80783C20.6792 3.67283 20.4722 3.46883 20.3432 3.60083C19.6322 4.32683 18.4562 4.49183 17.4992 4.35983C16.9532 4.28483 16.4162 4.08983 15.9272 3.83783C15.6392 3.69083 15.6182 3.42983 15.4772 3.12683C15.3002 2.75483 15.0872 2.33783 15.2822 1.91183C15.4142 1.62683 15.7622 1.45883 16.0262 1.32083C16.6352 1.00283 17.3612 0.834825 18.0392 0.813825C18.8462 0.786825 19.6052 1.11683 20.2532 1.56383C21.1832 2.20583 20.6012 2.90183 20.3402 3.67583C20.3012 3.80483 20.4992 3.85583 20.5442 3.73283Z" fill="#333333"/>
<path d="M17.004 2.40373C16.449 2.41873 16.5 3.30373 17.094 3.24973C17.583 3.21673 17.67 2.38573 17.004 2.40373Z" fill="#FEF790"/>
<path d="M17.0131 2.37075C16.7461 2.31675 16.5601 2.58975 16.5601 2.82675C16.5601 3.12675 16.8061 3.32775 17.0941 3.31575C17.3881 3.30075 17.5171 3.04275 17.5081 2.78175C17.5051 2.65275 17.4841 2.55975 17.3911 2.46075C17.2891 2.35275 17.1031 2.26575 16.9651 2.34075C16.9171 2.36775 16.9171 2.44275 16.9651 2.46975C17.0581 2.51775 17.1571 2.49975 17.2561 2.53275C17.3461 2.56275 17.4061 2.65575 17.4391 2.74275C17.5141 2.93475 17.3041 3.13875 17.1361 3.18375C16.9081 3.24675 16.6981 3.08475 16.6741 2.85675C16.6651 2.76675 16.6891 2.67975 16.7311 2.60175C16.7941 2.49075 16.9051 2.47575 17.0131 2.43975C17.0431 2.42775 17.0491 2.37975 17.0131 2.37075Z" fill="#333333"/>
<path d="M18.726 3.17771C19.128 3.55871 19.719 2.89571 19.26 2.51471C18.891 2.19671 18.24 2.71871 18.726 3.17771Z" fill="#FEF790"/>
<path d="M18.696 3.19581C18.84 3.42081 19.164 3.35781 19.329 3.20181C19.539 3.00381 19.527 2.69481 19.332 2.49381C19.239 2.39781 19.113 2.35281 18.981 2.35881C18.843 2.37081 18.75 2.44581 18.654 2.53581C18.555 2.63181 18.495 2.72181 18.492 2.86581C18.489 3.01281 18.558 3.20481 18.708 3.25281C18.762 3.27081 18.816 3.21381 18.801 3.16281C18.768 3.06081 18.675 3.00381 18.636 2.90481C18.597 2.81181 18.624 2.70081 18.669 2.61681C18.72 2.52081 18.858 2.49081 18.957 2.48181C19.065 2.47281 19.167 2.51781 19.245 2.58681C19.407 2.72481 19.404 2.94981 19.272 3.10581C19.212 3.17781 19.128 3.21981 19.038 3.24081C18.921 3.26781 18.84 3.19881 18.744 3.15081C18.714 3.13581 18.678 3.16581 18.696 3.19581Z" fill="#333333"/>
<path d="M18.063 2.75483C18.459 2.74283 18.426 2.10983 17.997 2.14883C17.649 2.17583 17.583 2.76983 18.063 2.75483Z" fill="#FEF790"/>
<path d="M18.054 2.78777C18.258 2.85077 18.405 2.60477 18.396 2.43377C18.384 2.20877 18.195 2.06777 17.979 2.08577C17.88 2.09477 17.805 2.14877 17.748 2.22677C17.685 2.31077 17.7 2.40677 17.694 2.50277C17.679 2.69177 17.94 2.95877 18.12 2.80577C18.15 2.78177 18.15 2.72477 18.12 2.70077C18.054 2.64377 17.991 2.66477 17.913 2.64977C17.841 2.63477 17.802 2.58077 17.769 2.51777C17.7 2.39177 17.868 2.24477 17.979 2.21477C18.129 2.17277 18.273 2.27777 18.288 2.43077C18.297 2.49677 18.276 2.56577 18.24 2.62277C18.195 2.69177 18.117 2.69477 18.051 2.72477C18.015 2.73977 18.027 2.78177 18.054 2.78777Z" fill="#333333"/>
</g>
<defs>
<clipPath id="clip0_751_10410">
<rect width="36" height="36" fill="white" transform="translate(0 0.255859)"/>
</clipPath>
</defs>
</svg>
